M48
; DRILL file {KiCad 5.1.9} date Thu Mar  4 21:17:43 2021
; FORMAT={-:-/ absolute / inch / decimal}
; #@! TF.CreationDate,2021-03-04T21:17:43+01:00
; #@! TF.GenerationSoftware,Kicad,Pcbnew,5.1.9
; #@! TF.FileFunction,Plated,1,4,PTH
FMAT,2
INCH
T1C0.0157
T2C0.0315
T3C0.0374
T4C0.0394
T5C0.0433
%
G90
G05
T1
X0.85Y-3.6
X0.85Y-5.05
X0.9Y-3.7
X0.9Y-3.7
X1.1Y-3.45
X1.3Y-5.35
X1.35Y-9.85
X1.4Y-3.0
X1.4Y-7.55
X1.4Y-7.7
X1.4Y-8.4
X1.45Y-3.15
X1.45Y-5.25
X1.5Y-7.8
X1.5Y-8.5
X1.55Y-3.9
X1.55Y-7.45
X1.55Y-10.85
X1.6Y-3.25
X1.6Y-5.15
X1.65Y-3.75
X1.65Y-5.95
X1.65Y-9.0
X1.85Y-5.05
X1.85Y-6.35
X1.9Y-10.1
X1.95Y-6.25
X2.0Y-10.85
X2.2Y-7.35
X2.25Y-4.2
X2.25Y-10.2
X2.3Y-4.35
X2.35Y-7.25
X2.35Y-10.15
X2.45Y-10.1
X2.5Y-4.1
X2.55Y-10.75
X2.7Y-5.35
X2.8Y-3.75
X2.8Y-8.75
X2.85Y-4.1
X2.85Y-4.55
X2.85Y-5.25
X2.9Y-9.1
X2.95Y-5.15
X2.95Y-10.85
X3.0Y-4.35
X3.0Y-4.45
X3.0Y-7.55
X3.0Y-8.9
X3.05Y-10.2
X3.05Y-10.8
X3.1Y-6.05
X3.1Y-7.1
X3.1Y-9.8
X3.15Y-10.1
X3.15Y-10.75
X3.2Y-6.15
X3.2Y-6.95
X3.2Y-9.7
X3.25Y-10.1
X3.25Y-10.85
X3.3Y-6.8
X3.3Y-10.0
X3.35Y-10.15
X3.4Y-6.25
X3.4Y-6.65
X3.4Y-9.95
X3.45Y-9.8
X3.5Y-6.35
X3.5Y-6.5
X3.5Y-9.2
X3.55Y-9.75
X3.6Y-7.6
X3.6Y-9.15
X3.65Y-3.55
X3.65Y-9.7
X3.7Y-3.65
X3.7Y-7.8
X3.7Y-9.35
X3.8Y-7.7
X3.8Y-9.3
X3.8Y-10.45
X3.85Y-10.75
X3.9Y-3.45
X3.9Y-7.7
X3.9Y-9.5
X4.0Y-7.8
X4.0Y-9.45
X4.1Y-5.35
X4.1Y-7.9
X4.1Y-10.0
X4.2Y-3.2
X4.2Y-8.9
X4.25Y-3.45
X4.25Y-5.25
X4.25Y-6.25
X4.3Y-6.45
X4.3Y-9.05
X4.35Y-10.75
X4.4Y-3.65
X4.4Y-3.9
X4.4Y-5.15
X4.4Y-5.85
X4.4Y-9.1
X4.45Y-3.75
X4.5Y-5.95
X4.5Y-9.0
X4.6Y-6.15
X4.6Y-7.35
X4.6Y-8.75
X4.7Y-6.55
X4.7Y-6.8
X4.7Y-8.95
X4.7Y-10.8
X4.8Y-6.35
X4.8Y-6.65
X4.8Y-9.0
X4.9Y-6.25
X5.0Y-7.1
X5.0Y-7.25
X5.05Y-4.2
X5.05Y-10.85
X5.1Y-4.35
X5.1Y-6.95
X5.1Y-7.45
X5.3Y-4.1
X5.35Y-5.35
X5.35Y-8.6
X5.35Y-9.7
X5.35Y-10.5
X5.45Y-5.25
X5.45Y-8.75
X5.45Y-9.75
X5.55Y-5.15
X5.55Y-8.85
X5.55Y-9.8
X5.55Y-9.9
X5.55Y-10.65
X5.6Y-3.8
X5.6Y-4.55
X5.65Y-4.1
X5.65Y-9.85
X5.75Y-5.35
X5.75Y-9.25
X5.75Y-10.6
X5.8Y-4.35
X5.8Y-4.45
X5.85Y-5.25
X5.85Y-6.35
X5.95Y-5.15
X6.15Y-9.4
X6.15Y-10.5
X6.4Y-3.5
X6.4Y-6.05
X6.45Y-3.6
X6.6Y-6.45
X6.65Y-3.4
X6.85Y-5.35
X6.95Y-3.25
X6.95Y-3.85
X7.0Y-3.4
X7.0Y-5.25
X7.1Y-5.15
X7.15Y-3.65
X7.15Y-3.75
X7.2Y-6.55
T2
X0.6Y-3.75
X0.6Y-4.15
X0.75Y-3.05
X0.75Y-3.45
X0.75Y-3.75
X0.75Y-4.15
X0.9Y-5.55
X0.9Y-5.95
X1.0Y-3.6
X1.0Y-3.7
X1.0Y-3.8
X1.0Y-3.9
X1.0Y-4.0
X1.0Y-4.1
X1.0Y-4.2
X1.0Y-4.3
X1.1Y-6.55
X1.1Y-6.6484
X1.1Y-7.3516
X1.1Y-7.45
X1.3Y-3.6
X1.3Y-3.7
X1.3Y-3.8
X1.3Y-3.9
X1.3Y-4.0
X1.3Y-4.1
X1.3Y-4.2
X1.3Y-4.3
X1.3516Y-6.85
X1.4016Y-3.6
X1.45Y-6.85
X1.5Y-3.6
X1.7Y-4.1
X1.7Y-4.25
X1.7Y-4.4
X1.75Y-3.95
X1.8Y-3.0
X1.8Y-3.35
X1.8Y-3.75
X1.95Y-3.25
X1.95Y-3.65
X2.0Y-10.35
X2.0Y-10.75
X2.1Y-3.15
X2.1Y-3.55
X2.1Y-4.1
X2.1Y-4.25
X2.1Y-4.4
X2.15Y-3.95
X2.15Y-10.35
X2.15Y-10.75
X2.2Y-3.0
X2.2Y-5.55
X2.2Y-5.95
X2.25Y-8.75
X2.3Y-10.35
X2.3Y-10.75
X2.4Y-4.25
X2.4Y-4.35
X2.4Y-4.45
X2.4Y-4.55
X2.4Y-4.65
X2.4Y-4.75
X2.4Y-4.85
X2.4Y-4.95
X2.45Y-10.35
X2.45Y-10.75
X2.55Y-6.5
X2.55Y-6.65
X2.55Y-6.8
X2.55Y-6.95
X2.55Y-7.1
X2.65Y-8.75
X2.65Y-11.0
X2.7Y-4.25
X2.7Y-4.35
X2.7Y-4.45
X2.7Y-4.55
X2.7Y-4.65
X2.7Y-4.75
X2.7Y-4.85
X2.7Y-4.95
X2.7Y-10.35
X2.7984Y-10.35
X2.8016Y-4.25
X2.8287Y-8.25
X2.8287Y-8.35
X2.85Y-4.65
X2.9Y-4.25
X2.95Y-6.5
X2.95Y-6.65
X2.95Y-6.8
X2.95Y-6.95
X2.95Y-7.1
X2.95Y-10.35
X2.95Y-10.65
X3.05Y-10.35
X3.05Y-10.65
X3.05Y-11.0
X3.15Y-10.35
X3.15Y-10.65
X3.2Y-3.2
X3.2Y-3.6
X3.2Y-3.7
X3.2Y-4.1
X3.25Y-4.65
X3.25Y-10.35
X3.25Y-10.65
X3.25Y-11.0
X3.3106Y-8.096
X3.3106Y-8.1747
X3.3106Y-8.2535
X3.35Y-3.95
X3.35Y-4.35
X3.35Y-10.35
X3.35Y-10.65
X3.3894Y-8.096
X3.3894Y-8.1747
X3.3894Y-8.2535
X3.4Y-3.05
X3.4Y-3.45
X3.45Y-10.35
X3.45Y-10.65
X3.5Y-3.65
X3.5Y-4.05
X3.5Y-4.15
X3.5Y-4.55
X3.55Y-3.05
X3.55Y-3.45
X3.55Y-10.35
X3.55Y-10.65
X3.65Y-5.55
X3.65Y-5.95
X3.65Y-6.25
X3.65Y-6.65
X3.65Y-6.8
X3.65Y-6.95
X3.65Y-7.1
X3.65Y-10.35
X3.65Y-10.65
X3.65Y-11.0
X3.7Y-9.6
X3.8Y-3.6
X3.8Y-3.7
X3.8Y-3.8
X3.8Y-3.9
X3.8Y-4.0
X3.8Y-4.1
X3.8Y-4.2
X3.8Y-4.3
X3.8Y-10.1
X3.85Y-10.65
X4.05Y-6.25
X4.05Y-6.65
X4.05Y-6.8
X4.05Y-6.95
X4.05Y-7.1
X4.1Y-3.6
X4.1Y-3.7
X4.1Y-3.8
X4.1Y-3.9
X4.1Y-4.0
X4.1Y-4.1
X4.1Y-4.2
X4.1Y-4.3
X4.1Y-9.6
X4.2Y-10.1
X4.2016Y-3.6
X4.25Y-10.65
X4.3Y-3.6
X4.3Y-9.6
X4.5Y-3.95
X4.5Y-4.1
X4.5Y-4.25
X4.5Y-4.4
X4.6Y-2.9
X4.65Y-3.05
X4.65Y-3.45
X4.7Y-9.6
X4.75Y-5.85
X4.8Y-3.25
X4.8Y-3.65
X4.8Y-9.6
X4.9Y-3.95
X4.9Y-4.1
X4.9Y-4.25
X4.9Y-4.4
X4.95Y-3.35
X4.95Y-3.75
X5.0Y-2.9
X5.1Y-10.1
X5.15Y-5.85
X5.1984Y-10.1
X5.2Y-4.25
X5.2Y-4.35
X5.2Y-4.45
X5.2Y-4.55
X5.2Y-4.65
X5.2Y-4.75
X5.2Y-4.85
X5.2Y-4.95
X5.2Y-9.6
X5.35Y-10.05
X5.35Y-10.35
X5.45Y-10.05
X5.45Y-10.35
X5.5Y-4.25
X5.5Y-4.35
X5.5Y-4.45
X5.5Y-4.55
X5.5Y-4.65
X5.5Y-4.75
X5.5Y-4.85
X5.5Y-4.95
X5.55Y-10.05
X5.55Y-10.35
X5.6Y-4.65
X5.6016Y-4.25
X5.65Y-10.05
X5.65Y-10.35
X5.7Y-4.25
X5.75Y-10.05
X5.75Y-10.35
X5.8Y-7.0016
X5.8Y-7.1
X5.85Y-10.05
X5.85Y-10.35
X5.95Y-10.05
X5.95Y-10.35
X6.0Y-3.2
X6.0Y-3.6
X6.0Y-3.7
X6.0Y-4.1
X6.0Y-4.65
X6.05Y-10.05
X6.05Y-10.35
X6.0516Y-8.65
X6.15Y-3.0
X6.15Y-3.4
X6.15Y-3.95
X6.15Y-4.35
X6.15Y-4.45
X6.15Y-4.85
X6.15Y-8.65
X6.3Y-3.0
X6.3Y-3.4
X6.3Y-3.6
X6.3Y-4.0
X6.55Y-3.55
X6.55Y-3.65
X6.55Y-3.75
X6.55Y-3.85
X6.55Y-3.95
X6.55Y-4.05
X6.55Y-4.15
X6.55Y-4.25
X6.6Y-5.6
X6.6Y-6.0
X6.85Y-3.55
X6.85Y-3.65
X6.85Y-3.75
X6.85Y-3.85
X6.85Y-3.95
X6.85Y-4.05
X6.85Y-4.15
X6.85Y-4.25
X6.95Y-3.95
X6.9516Y-3.55
X7.05Y-3.55
X7.35Y-2.85
X7.35Y-3.25
X7.35Y-3.95
X7.5Y-3.0
X7.5Y-3.4
X7.5Y-3.75
X7.5Y-4.15
X7.65Y-3.65
X7.65Y-4.05
T3
X1.05Y-0.8
X1.05Y-1.15
X1.05Y-1.5
X1.05Y-1.85
X1.05Y-2.2
X1.05Y-2.55
X1.05Y-2.9
X1.05Y-3.25
X1.1Y-7.8031
X1.1Y-7.9016
X1.1Y-8.0
X1.1Y-8.4047
X1.1Y-8.5031
X1.1Y-8.6016
X1.1Y-8.7
X1.1Y-9.0063
X1.1Y-9.1047
X1.1Y-9.2031
X1.1Y-9.3016
X1.1Y-9.4
X1.1Y-9.7063
X1.1Y-9.8047
X1.1Y-9.9031
X1.1Y-10.0016
X1.1Y-10.1
X1.1Y-10.4063
X1.1Y-10.5047
X1.1Y-10.6031
X1.1Y-10.7016
X1.1Y-10.8
X1.1484Y-0.8
X1.1484Y-1.15
X1.1484Y-1.5
X1.1484Y-1.85
X1.1484Y-2.2
X1.1484Y-2.55
X1.1484Y-2.9
X1.1484Y-3.25
X1.2469Y-0.8
X1.2469Y-1.15
X1.2469Y-1.5
X1.2469Y-1.85
X1.2469Y-2.2
X1.2469Y-2.55
X1.2469Y-2.9
X1.2469Y-3.25
X2.45Y-1.45
X2.45Y-1.8
X2.45Y-2.15
X2.45Y-2.5
X2.45Y-2.85
X2.45Y-3.2
X2.45Y-3.55
X2.45Y-3.9
X2.5484Y-1.45
X2.5484Y-1.8
X2.5484Y-2.15
X2.5484Y-2.5
X2.5484Y-2.85
X2.5484Y-3.2
X2.5484Y-3.55
X2.5484Y-3.9
X2.6469Y-1.45
X2.6469Y-1.8
X2.6469Y-2.15
X2.6469Y-2.5
X2.6469Y-2.85
X2.6469Y-3.2
X2.6469Y-3.55
X2.6469Y-3.9
X3.85Y-0.8
X3.85Y-1.15
X3.85Y-1.5
X3.85Y-1.85
X3.85Y-2.2
X3.85Y-2.55
X3.85Y-2.9
X3.85Y-3.25
X3.9484Y-0.8
X3.9484Y-1.15
X3.9484Y-1.5
X3.9484Y-1.85
X3.9484Y-2.2
X3.9484Y-2.55
X3.9484Y-2.9
X3.9484Y-3.25
X4.0469Y-0.8
X4.0469Y-1.15
X4.0469Y-1.5
X4.0469Y-1.85
X4.0469Y-2.2
X4.0469Y-2.55
X4.0469Y-2.9
X4.0469Y-3.25
X5.25Y-1.45
X5.25Y-1.8
X5.25Y-2.15
X5.25Y-2.5
X5.25Y-2.85
X5.25Y-3.2
X5.25Y-3.55
X5.25Y-3.9
X5.3484Y-1.45
X5.3484Y-1.8
X5.3484Y-2.15
X5.3484Y-2.5
X5.3484Y-2.85
X5.3484Y-3.2
X5.3484Y-3.55
X5.3484Y-3.9
X5.4469Y-1.45
X5.4469Y-1.8
X5.4469Y-2.15
X5.4469Y-2.5
X5.4469Y-2.85
X5.4469Y-3.2
X5.4469Y-3.55
X5.4469Y-3.9
X5.8Y-7.4
X5.8Y-7.4984
X5.8Y-7.5969
X5.8Y-7.6953
X5.8Y-7.7937
X6.6Y-0.75
X6.6Y-1.1
X6.6Y-1.45
X6.6Y-1.8
X6.6Y-2.15
X6.6Y-2.5
X6.6Y-2.85
X6.6Y-3.2
X6.6984Y-0.75
X6.6984Y-1.1
X6.6984Y-1.45
X6.6984Y-1.8
X6.6984Y-2.15
X6.6984Y-2.5
X6.6984Y-2.85
X6.6984Y-3.2
X6.7969Y-0.75
X6.7969Y-1.1
X6.7969Y-1.45
X6.7969Y-1.8
X6.7969Y-2.15
X6.7969Y-2.5
X6.7969Y-2.85
X6.7969Y-3.2
X7.1Y-7.4031
X7.1Y-7.5016
X7.1Y-7.6
X7.1Y-7.9031
X7.1Y-8.0016
X7.1Y-8.1
X7.1Y-8.4047
X7.1Y-8.5031
X7.1Y-8.6016
X7.1Y-8.7
X7.1Y-9.0063
X7.1Y-9.1047
X7.1Y-9.2031
X7.1Y-9.3016
X7.1Y-9.4
X7.1Y-9.7063
X7.1Y-9.8047
X7.1Y-9.9031
X7.1Y-10.0016
X7.1Y-10.1
X7.1Y-10.4063
X7.1Y-10.5047
X7.1Y-10.6031
X7.1Y-10.7016
X7.1Y-10.8
T4
X1.1Y-6.9516
X1.1Y-7.05
X1.2Y-5.55
X1.2Y-5.6484
X1.55Y-5.5516
X1.55Y-5.65
X1.55Y-9.3
X1.55Y-9.3984
X1.9Y-9.3
X1.9Y-9.3984
X2.25Y-9.3
X2.25Y-9.3984
X2.45Y-5.55
X2.45Y-5.6484
X2.6Y-9.3
X2.6Y-9.3984
X2.8Y-5.5516
X2.8Y-5.65
X3.9Y-5.55
X3.9Y-5.6484
X4.0Y-10.35
X4.0Y-10.4484
X4.25Y-5.5516
X4.25Y-5.65
X4.35Y-10.35
X4.35Y-10.4484
X4.7Y-10.35
X4.7Y-10.4484
X5.05Y-10.35
X5.05Y-10.4484
X5.0516Y-5.6
X5.15Y-5.6
X5.7516Y-5.6
X5.8Y-8.5516
X5.8Y-8.65
X5.85Y-5.6
X6.3Y-7.4
X6.3Y-7.4984
X6.85Y-5.6
X6.85Y-5.6984
X7.2Y-5.6016
X7.2Y-5.7
T5
X2.8Y-8.0
X2.8Y-8.6
X2.9Y-8.0
X2.9Y-8.1
X2.9Y-8.6
X3.0Y-8.0
X3.0Y-8.6
X3.048Y-8.4799
X3.1Y-8.0
X3.1Y-8.6
X3.148Y-8.4799
X3.2Y-8.0
X3.2Y-8.6
X3.248Y-8.4799
X3.3Y-8.0
X3.3Y-8.6
X3.348Y-8.4799
X3.4Y-8.0
X3.4Y-8.6
X3.448Y-8.4799
X3.5Y-8.0
X3.5Y-8.6
X3.6Y-8.0
X3.6Y-8.6
X3.7Y-8.0
X3.7Y-8.6
X3.8Y-8.0
X3.8Y-8.6
X3.9Y-8.0
X3.9Y-8.6
X4.0Y-8.0
X4.0Y-8.6
X4.1Y-8.0
X4.1Y-8.6
X4.2Y-8.0
X4.2Y-8.6
X4.3Y-8.0
X4.3Y-8.6
X4.4Y-8.0
X4.4Y-8.6
X4.5Y-8.0
X4.5Y-8.6
X4.6Y-8.0
X4.6Y-8.1
X4.6Y-8.2
X4.6Y-8.3
X4.6Y-8.4
X4.6Y-8.5
X4.6Y-8.6
X4.7Y-8.0
X4.7Y-8.6
X4.8Y-8.0
X4.8Y-8.6
X4.9Y-8.0
X4.9Y-8.6
X5.0Y-8.0
X5.0Y-8.6
X5.1Y-8.0
X5.1Y-8.6
T0
M30
