%TF.GenerationSoftware,KiCad,Pcbnew,5.1.9*%
%TF.CreationDate,2021-03-04T21:17:50+01:00*%
%TF.ProjectId,mixer.pcb,6d697865-722e-4706-9362-2e6b69636164,0.2*%
%TF.SameCoordinates,Original*%
%TF.FileFunction,Copper,L4,Bot*%
%TF.FilePolarity,Positive*%
%FSLAX46Y46*%
G04 Gerber Fmt 4.6, Leading zero omitted, Abs format (unit mm)*
G04 Created by KiCad (PCBNEW 5.1.9) date 2021-03-04 21:17:50*
%MOMM*%
%LPD*%
G01*
G04 APERTURE LIST*
%TA.AperFunction,ComponentPad*%
%ADD10C,1.600000*%
%TD*%
%TA.AperFunction,ComponentPad*%
%ADD11O,1.600000X1.600000*%
%TD*%
%TA.AperFunction,ComponentPad*%
%ADD12R,1.600000X1.600000*%
%TD*%
%TA.AperFunction,ComponentPad*%
%ADD13O,1.950000X1.700000*%
%TD*%
%TA.AperFunction,ComponentPad*%
%ADD14O,1.700000X1.950000*%
%TD*%
%TA.AperFunction,ComponentPad*%
%ADD15O,2.000000X1.700000*%
%TD*%
%TA.AperFunction,ComponentPad*%
%ADD16O,1.700000X2.000000*%
%TD*%
%TA.AperFunction,ComponentPad*%
%ADD17R,1.300000X1.300000*%
%TD*%
%TA.AperFunction,ComponentPad*%
%ADD18C,1.300000*%
%TD*%
%TA.AperFunction,ViaPad*%
%ADD19C,0.800000*%
%TD*%
%TA.AperFunction,Conductor*%
%ADD20C,0.250000*%
%TD*%
G04 APERTURE END LIST*
D10*
%TO.P,R2,1*%
%TO.N,Net-(FX-BTNs1-Pad14)*%
X62230000Y-262890000D03*
D11*
%TO.P,R2,2*%
%TO.N,GND*%
X62230000Y-273050000D03*
%TD*%
D10*
%TO.P,R13,1*%
%TO.N,Net-(MuxCh1-Pad1)*%
X15240000Y-95250000D03*
D11*
%TO.P,R13,2*%
%TO.N,GND*%
X15240000Y-105410000D03*
%TD*%
%TO.P,FX-BTNs1,16*%
%TO.N,+3V3*%
X74930000Y-262890000D03*
%TO.P,FX-BTNs1,8*%
%TO.N,GND*%
X92710000Y-270510000D03*
%TO.P,FX-BTNs1,15*%
%TO.N,Net-(FX-BTNs1-Pad15)*%
X77470000Y-262890000D03*
%TO.P,FX-BTNs1,7*%
%TO.N,GND*%
X90170000Y-270510000D03*
%TO.P,FX-BTNs1,14*%
%TO.N,Net-(FX-BTNs1-Pad14)*%
X80010000Y-262890000D03*
%TO.P,FX-BTNs1,6*%
%TO.N,GND*%
X87630000Y-270510000D03*
%TO.P,FX-BTNs1,13*%
%TO.N,Net-(FX-BTNs1-Pad13)*%
X82550000Y-262890000D03*
%TO.P,FX-BTNs1,5*%
%TO.N,Net-(FX-BTNs1-Pad5)*%
X85090000Y-270510000D03*
%TO.P,FX-BTNs1,12*%
%TO.N,Net-(FX-BTNs1-Pad12)*%
X85090000Y-262890000D03*
%TO.P,FX-BTNs1,4*%
%TO.N,Net-(FX-BTNs1-Pad4)*%
X82550000Y-270510000D03*
%TO.P,FX-BTNs1,11*%
%TO.N,s0*%
X87630000Y-262890000D03*
%TO.P,FX-BTNs1,3*%
%TO.N,mux_selBtn_fx*%
X80010000Y-270510000D03*
%TO.P,FX-BTNs1,10*%
%TO.N,s1*%
X90170000Y-262890000D03*
%TO.P,FX-BTNs1,2*%
%TO.N,Net-(FX-BTNs1-Pad2)*%
X77470000Y-270510000D03*
%TO.P,FX-BTNs1,9*%
%TO.N,s2*%
X92710000Y-262890000D03*
D12*
%TO.P,FX-BTNs1,1*%
%TO.N,Net-(FX-BTNs1-Pad1)*%
X74930000Y-270510000D03*
%TD*%
D13*
%TO.P,fx1_enc2,5*%
%TO.N,rEnc1_clk*%
X27940000Y-246540000D03*
%TO.P,fx1_enc2,4*%
%TO.N,rEnc1_DT*%
X27940000Y-249040000D03*
%TO.P,fx1_enc2,3*%
%TO.N,Net-(fx1_enc2-Pad3)*%
X27940000Y-251540000D03*
%TO.P,fx1_enc2,2*%
%TO.N,+3V3*%
X27940000Y-254040000D03*
%TO.P,fx1_enc2,1*%
%TO.N,GND*%
%TA.AperFunction,ComponentPad*%
G36*
G01*
X28665000Y-257390000D02*
X27215000Y-257390000D01*
G75*
G02*
X26965000Y-257140000I0J250000D01*
G01*
X26965000Y-255940000D01*
G75*
G02*
X27215000Y-255690000I250000J0D01*
G01*
X28665000Y-255690000D01*
G75*
G02*
X28915000Y-255940000I0J-250000D01*
G01*
X28915000Y-257140000D01*
G75*
G02*
X28665000Y-257390000I-250000J0D01*
G01*
G37*
%TD.AperFunction*%
%TD*%
D14*
%TO.P,MuxCh1_4,3*%
%TO.N,GND*%
X31670000Y-46990000D03*
%TO.P,MuxCh1_4,2*%
%TO.N,Net-(MuxCh1-Pad12)*%
X29170000Y-46990000D03*
%TO.P,MuxCh1_4,1*%
%TO.N,+3V3*%
%TA.AperFunction,ComponentPad*%
G36*
G01*
X25820000Y-47715000D02*
X25820000Y-46265000D01*
G75*
G02*
X26070000Y-46015000I250000J0D01*
G01*
X27270000Y-46015000D01*
G75*
G02*
X27520000Y-46265000I0J-250000D01*
G01*
X27520000Y-47715000D01*
G75*
G02*
X27270000Y-47965000I-250000J0D01*
G01*
X26070000Y-47965000D01*
G75*
G02*
X25820000Y-47715000I0J250000D01*
G01*
G37*
%TD.AperFunction*%
%TD*%
%TO.P,MuxCh1_5,3*%
%TO.N,GND*%
X31670000Y-55880000D03*
%TO.P,MuxCh1_5,2*%
%TO.N,Net-(MuxCh1-Pad1)*%
X29170000Y-55880000D03*
%TO.P,MuxCh1_5,1*%
%TO.N,+3V3*%
%TA.AperFunction,ComponentPad*%
G36*
G01*
X25820000Y-56605000D02*
X25820000Y-55155000D01*
G75*
G02*
X26070000Y-54905000I250000J0D01*
G01*
X27270000Y-54905000D01*
G75*
G02*
X27520000Y-55155000I0J-250000D01*
G01*
X27520000Y-56605000D01*
G75*
G02*
X27270000Y-56855000I-250000J0D01*
G01*
X26070000Y-56855000D01*
G75*
G02*
X25820000Y-56605000I0J250000D01*
G01*
G37*
%TD.AperFunction*%
%TD*%
%TO.P,MuxCh1_2,1*%
%TO.N,+3V3*%
%TA.AperFunction,ComponentPad*%
G36*
G01*
X25820000Y-29935000D02*
X25820000Y-28485000D01*
G75*
G02*
X26070000Y-28235000I250000J0D01*
G01*
X27270000Y-28235000D01*
G75*
G02*
X27520000Y-28485000I0J-250000D01*
G01*
X27520000Y-29935000D01*
G75*
G02*
X27270000Y-30185000I-250000J0D01*
G01*
X26070000Y-30185000D01*
G75*
G02*
X25820000Y-29935000I0J250000D01*
G01*
G37*
%TD.AperFunction*%
%TO.P,MuxCh1_2,2*%
%TO.N,Net-(MuxCh1-Pad14)*%
X29170000Y-29210000D03*
%TO.P,MuxCh1_2,3*%
%TO.N,GND*%
X31670000Y-29210000D03*
%TD*%
D12*
%TO.P,MuxCh1,1*%
%TO.N,Net-(MuxCh1-Pad1)*%
X25400000Y-91440000D03*
D11*
%TO.P,MuxCh1,9*%
%TO.N,s2*%
X33020000Y-109220000D03*
%TO.P,MuxCh1,2*%
%TO.N,Net-(MuxCh1-Pad2)*%
X25400000Y-93980000D03*
%TO.P,MuxCh1,10*%
%TO.N,s1*%
X33020000Y-106680000D03*
%TO.P,MuxCh1,3*%
%TO.N,mux_ch1*%
X25400000Y-96520000D03*
%TO.P,MuxCh1,11*%
%TO.N,s0*%
X33020000Y-104140000D03*
%TO.P,MuxCh1,4*%
%TO.N,Net-(MuxCh1-Pad4)*%
X25400000Y-99060000D03*
%TO.P,MuxCh1,12*%
%TO.N,Net-(MuxCh1-Pad12)*%
X33020000Y-101600000D03*
%TO.P,MuxCh1,5*%
%TO.N,Net-(MuxCh1-Pad5)*%
X25400000Y-101600000D03*
%TO.P,MuxCh1,13*%
%TO.N,Net-(MuxCh1-Pad13)*%
X33020000Y-99060000D03*
%TO.P,MuxCh1,6*%
%TO.N,GND*%
X25400000Y-104140000D03*
%TO.P,MuxCh1,14*%
%TO.N,Net-(MuxCh1-Pad14)*%
X33020000Y-96520000D03*
%TO.P,MuxCh1,7*%
%TO.N,GND*%
X25400000Y-106680000D03*
%TO.P,MuxCh1,15*%
%TO.N,Net-(MuxCh1-Pad15)*%
X33020000Y-93980000D03*
%TO.P,MuxCh1,8*%
%TO.N,GND*%
X25400000Y-109220000D03*
%TO.P,MuxCh1,16*%
%TO.N,+3V3*%
X33020000Y-91440000D03*
%TD*%
D14*
%TO.P,MuxCh1_3,3*%
%TO.N,GND*%
X31670000Y-38100000D03*
%TO.P,MuxCh1_3,2*%
%TO.N,Net-(MuxCh1-Pad15)*%
X29170000Y-38100000D03*
%TO.P,MuxCh1_3,1*%
%TO.N,+3V3*%
%TA.AperFunction,ComponentPad*%
G36*
G01*
X25820000Y-38825000D02*
X25820000Y-37375000D01*
G75*
G02*
X26070000Y-37125000I250000J0D01*
G01*
X27270000Y-37125000D01*
G75*
G02*
X27520000Y-37375000I0J-250000D01*
G01*
X27520000Y-38825000D01*
G75*
G02*
X27270000Y-39075000I-250000J0D01*
G01*
X26070000Y-39075000D01*
G75*
G02*
X25820000Y-38825000I0J250000D01*
G01*
G37*
%TD.AperFunction*%
%TD*%
%TO.P,MuxCh1_6,1*%
%TO.N,+3V3*%
%TA.AperFunction,ComponentPad*%
G36*
G01*
X25820000Y-65495000D02*
X25820000Y-64045000D01*
G75*
G02*
X26070000Y-63795000I250000J0D01*
G01*
X27270000Y-63795000D01*
G75*
G02*
X27520000Y-64045000I0J-250000D01*
G01*
X27520000Y-65495000D01*
G75*
G02*
X27270000Y-65745000I-250000J0D01*
G01*
X26070000Y-65745000D01*
G75*
G02*
X25820000Y-65495000I0J250000D01*
G01*
G37*
%TD.AperFunction*%
%TO.P,MuxCh1_6,2*%
%TO.N,Net-(MuxCh1-Pad5)*%
X29170000Y-64770000D03*
%TO.P,MuxCh1_6,3*%
%TO.N,GND*%
X31670000Y-64770000D03*
%TD*%
%TO.P,MuxCh1_7,1*%
%TO.N,+3V3*%
%TA.AperFunction,ComponentPad*%
G36*
G01*
X25820000Y-74385000D02*
X25820000Y-72935000D01*
G75*
G02*
X26070000Y-72685000I250000J0D01*
G01*
X27270000Y-72685000D01*
G75*
G02*
X27520000Y-72935000I0J-250000D01*
G01*
X27520000Y-74385000D01*
G75*
G02*
X27270000Y-74635000I-250000J0D01*
G01*
X26070000Y-74635000D01*
G75*
G02*
X25820000Y-74385000I0J250000D01*
G01*
G37*
%TD.AperFunction*%
%TO.P,MuxCh1_7,2*%
%TO.N,Net-(MuxCh1-Pad2)*%
X29170000Y-73660000D03*
%TO.P,MuxCh1_7,3*%
%TO.N,GND*%
X31670000Y-73660000D03*
%TD*%
%TO.P,MuxCh1_8,3*%
%TO.N,GND*%
X31670000Y-82550000D03*
%TO.P,MuxCh1_8,2*%
%TO.N,Net-(MuxCh1-Pad4)*%
X29170000Y-82550000D03*
%TO.P,MuxCh1_8,1*%
%TO.N,+3V3*%
%TA.AperFunction,ComponentPad*%
G36*
G01*
X25820000Y-83275000D02*
X25820000Y-81825000D01*
G75*
G02*
X26070000Y-81575000I250000J0D01*
G01*
X27270000Y-81575000D01*
G75*
G02*
X27520000Y-81825000I0J-250000D01*
G01*
X27520000Y-83275000D01*
G75*
G02*
X27270000Y-83525000I-250000J0D01*
G01*
X26070000Y-83525000D01*
G75*
G02*
X25820000Y-83275000I0J250000D01*
G01*
G37*
%TD.AperFunction*%
%TD*%
%TO.P,MuxCh1_1,3*%
%TO.N,GND*%
X31670000Y-20320000D03*
%TO.P,MuxCh1_1,2*%
%TO.N,Net-(MuxCh1-Pad13)*%
X29170000Y-20320000D03*
%TO.P,MuxCh1_1,1*%
%TO.N,+3V3*%
%TA.AperFunction,ComponentPad*%
G36*
G01*
X25820000Y-21045000D02*
X25820000Y-19595000D01*
G75*
G02*
X26070000Y-19345000I250000J0D01*
G01*
X27270000Y-19345000D01*
G75*
G02*
X27520000Y-19595000I0J-250000D01*
G01*
X27520000Y-21045000D01*
G75*
G02*
X27270000Y-21295000I-250000J0D01*
G01*
X26070000Y-21295000D01*
G75*
G02*
X25820000Y-21045000I0J250000D01*
G01*
G37*
%TD.AperFunction*%
%TD*%
%TO.P,NeoPixel1,1*%
%TO.N,GND*%
%TA.AperFunction,ComponentPad*%
G36*
G01*
X28665000Y-204050000D02*
X27215000Y-204050000D01*
G75*
G02*
X26965000Y-203800000I0J250000D01*
G01*
X26965000Y-202600000D01*
G75*
G02*
X27215000Y-202350000I250000J0D01*
G01*
X28665000Y-202350000D01*
G75*
G02*
X28915000Y-202600000I0J-250000D01*
G01*
X28915000Y-203800000D01*
G75*
G02*
X28665000Y-204050000I-250000J0D01*
G01*
G37*
%TD.AperFunction*%
D13*
%TO.P,NeoPixel1,2*%
%TO.N,neopixel*%
X27940000Y-200700000D03*
%TO.P,NeoPixel1,3*%
%TO.N,+3V3*%
X27940000Y-198200000D03*
%TD*%
%TO.P,VU_Matrix1,5*%
%TO.N,vu_clk*%
X147320000Y-197960000D03*
%TO.P,VU_Matrix1,4*%
%TO.N,vu_cs*%
X147320000Y-195460000D03*
%TO.P,VU_Matrix1,3*%
%TO.N,vu_din*%
X147320000Y-192960000D03*
%TO.P,VU_Matrix1,2*%
%TO.N,GND*%
X147320000Y-190460000D03*
%TO.P,VU_Matrix1,1*%
%TO.N,+3V3*%
%TA.AperFunction,ComponentPad*%
G36*
G01*
X146595000Y-187110000D02*
X148045000Y-187110000D01*
G75*
G02*
X148295000Y-187360000I0J-250000D01*
G01*
X148295000Y-188560000D01*
G75*
G02*
X148045000Y-188810000I-250000J0D01*
G01*
X146595000Y-188810000D01*
G75*
G02*
X146345000Y-188560000I0J250000D01*
G01*
X146345000Y-187360000D01*
G75*
G02*
X146595000Y-187110000I250000J0D01*
G01*
G37*
%TD.AperFunction*%
%TD*%
%TO.P,display_1,1*%
%TO.N,+3V3*%
%TA.AperFunction,ComponentPad*%
G36*
G01*
X28665000Y-221830000D02*
X27215000Y-221830000D01*
G75*
G02*
X26965000Y-221580000I0J250000D01*
G01*
X26965000Y-220380000D01*
G75*
G02*
X27215000Y-220130000I250000J0D01*
G01*
X28665000Y-220130000D01*
G75*
G02*
X28915000Y-220380000I0J-250000D01*
G01*
X28915000Y-221580000D01*
G75*
G02*
X28665000Y-221830000I-250000J0D01*
G01*
G37*
%TD.AperFunction*%
%TO.P,display_1,2*%
%TO.N,GND*%
X27940000Y-218480000D03*
%TO.P,display_1,3*%
%TO.N,display_sda1*%
X27940000Y-215980000D03*
%TO.P,display_1,4*%
%TO.N,display_scl1*%
X27940000Y-213480000D03*
%TD*%
%TO.P,display_2,4*%
%TO.N,display_scl2*%
X180340000Y-213480000D03*
%TO.P,display_2,3*%
%TO.N,display_sda2*%
X180340000Y-215980000D03*
%TO.P,display_2,2*%
%TO.N,GND*%
X180340000Y-218480000D03*
%TO.P,display_2,1*%
%TO.N,+3V3*%
%TA.AperFunction,ComponentPad*%
G36*
G01*
X181065000Y-221830000D02*
X179615000Y-221830000D01*
G75*
G02*
X179365000Y-221580000I0J250000D01*
G01*
X179365000Y-220380000D01*
G75*
G02*
X179615000Y-220130000I250000J0D01*
G01*
X181065000Y-220130000D01*
G75*
G02*
X181315000Y-220380000I0J-250000D01*
G01*
X181315000Y-221580000D01*
G75*
G02*
X181065000Y-221830000I-250000J0D01*
G01*
G37*
%TD.AperFunction*%
%TD*%
%TO.P,fx1_btn1,1*%
%TO.N,+3V3*%
%TA.AperFunction,ComponentPad*%
G36*
G01*
X100850000Y-262040000D02*
X102350000Y-262040000D01*
G75*
G02*
X102600000Y-262290000I0J-250000D01*
G01*
X102600000Y-263490000D01*
G75*
G02*
X102350000Y-263740000I-250000J0D01*
G01*
X100850000Y-263740000D01*
G75*
G02*
X100600000Y-263490000I0J250000D01*
G01*
X100600000Y-262290000D01*
G75*
G02*
X100850000Y-262040000I250000J0D01*
G01*
G37*
%TD.AperFunction*%
D15*
%TO.P,fx1_btn1,2*%
%TO.N,Net-(FX-BTNs1-Pad13)*%
X101600000Y-265390000D03*
%TD*%
%TO.P,fx1_btn2,2*%
%TO.N,Net-(FX-BTNs1-Pad14)*%
X48260000Y-238720000D03*
%TO.P,fx1_btn2,1*%
%TO.N,+3V3*%
%TA.AperFunction,ComponentPad*%
G36*
G01*
X47510000Y-235370000D02*
X49010000Y-235370000D01*
G75*
G02*
X49260000Y-235620000I0J-250000D01*
G01*
X49260000Y-236820000D01*
G75*
G02*
X49010000Y-237070000I-250000J0D01*
G01*
X47510000Y-237070000D01*
G75*
G02*
X47260000Y-236820000I0J250000D01*
G01*
X47260000Y-235620000D01*
G75*
G02*
X47510000Y-235370000I250000J0D01*
G01*
G37*
%TD.AperFunction*%
%TD*%
%TO.P,fx1_btn3,2*%
%TO.N,Net-(FX-BTNs1-Pad15)*%
X57150000Y-238720000D03*
%TO.P,fx1_btn3,1*%
%TO.N,+3V3*%
%TA.AperFunction,ComponentPad*%
G36*
G01*
X56400000Y-235370000D02*
X57900000Y-235370000D01*
G75*
G02*
X58150000Y-235620000I0J-250000D01*
G01*
X58150000Y-236820000D01*
G75*
G02*
X57900000Y-237070000I-250000J0D01*
G01*
X56400000Y-237070000D01*
G75*
G02*
X56150000Y-236820000I0J250000D01*
G01*
X56150000Y-235620000D01*
G75*
G02*
X56400000Y-235370000I250000J0D01*
G01*
G37*
%TD.AperFunction*%
%TD*%
%TO.P,fx1_btn4,1*%
%TO.N,+3V3*%
%TA.AperFunction,ComponentPad*%
G36*
G01*
X65290000Y-235370000D02*
X66790000Y-235370000D01*
G75*
G02*
X67040000Y-235620000I0J-250000D01*
G01*
X67040000Y-236820000D01*
G75*
G02*
X66790000Y-237070000I-250000J0D01*
G01*
X65290000Y-237070000D01*
G75*
G02*
X65040000Y-236820000I0J250000D01*
G01*
X65040000Y-235620000D01*
G75*
G02*
X65290000Y-235370000I250000J0D01*
G01*
G37*
%TD.AperFunction*%
%TO.P,fx1_btn4,2*%
%TO.N,Net-(FX-BTNs1-Pad12)*%
X66040000Y-238720000D03*
%TD*%
D13*
%TO.P,fx1_enc1,5*%
%TO.N,rEnc0_clk*%
X27940000Y-228760000D03*
%TO.P,fx1_enc1,4*%
%TO.N,rEnc0_DT*%
X27940000Y-231260000D03*
%TO.P,fx1_enc1,3*%
%TO.N,Net-(fx1_enc1-Pad3)*%
X27940000Y-233760000D03*
%TO.P,fx1_enc1,2*%
%TO.N,+3V3*%
X27940000Y-236260000D03*
%TO.P,fx1_enc1,1*%
%TO.N,GND*%
%TA.AperFunction,ComponentPad*%
G36*
G01*
X28665000Y-239610000D02*
X27215000Y-239610000D01*
G75*
G02*
X26965000Y-239360000I0J250000D01*
G01*
X26965000Y-238160000D01*
G75*
G02*
X27215000Y-237910000I250000J0D01*
G01*
X28665000Y-237910000D01*
G75*
G02*
X28915000Y-238160000I0J-250000D01*
G01*
X28915000Y-239360000D01*
G75*
G02*
X28665000Y-239610000I-250000J0D01*
G01*
G37*
%TD.AperFunction*%
%TD*%
%TO.P,fx1_enc3,5*%
%TO.N,rEnc2_clk*%
X27940000Y-264320000D03*
%TO.P,fx1_enc3,4*%
%TO.N,rEnc2_DT*%
X27940000Y-266820000D03*
%TO.P,fx1_enc3,3*%
%TO.N,Net-(fx1_enc3-Pad3)*%
X27940000Y-269320000D03*
%TO.P,fx1_enc3,2*%
%TO.N,+3V3*%
X27940000Y-271820000D03*
%TO.P,fx1_enc3,1*%
%TO.N,GND*%
%TA.AperFunction,ComponentPad*%
G36*
G01*
X28665000Y-275170000D02*
X27215000Y-275170000D01*
G75*
G02*
X26965000Y-274920000I0J250000D01*
G01*
X26965000Y-273720000D01*
G75*
G02*
X27215000Y-273470000I250000J0D01*
G01*
X28665000Y-273470000D01*
G75*
G02*
X28915000Y-273720000I0J-250000D01*
G01*
X28915000Y-274920000D01*
G75*
G02*
X28665000Y-275170000I-250000J0D01*
G01*
G37*
%TD.AperFunction*%
%TD*%
D15*
%TO.P,fx2_btn1,2*%
%TO.N,Net-(FX-BTNs1-Pad1)*%
X39370000Y-238720000D03*
%TO.P,fx2_btn1,1*%
%TO.N,+3V3*%
%TA.AperFunction,ComponentPad*%
G36*
G01*
X38620000Y-235370000D02*
X40120000Y-235370000D01*
G75*
G02*
X40370000Y-235620000I0J-250000D01*
G01*
X40370000Y-236820000D01*
G75*
G02*
X40120000Y-237070000I-250000J0D01*
G01*
X38620000Y-237070000D01*
G75*
G02*
X38370000Y-236820000I0J250000D01*
G01*
X38370000Y-235620000D01*
G75*
G02*
X38620000Y-235370000I250000J0D01*
G01*
G37*
%TD.AperFunction*%
%TD*%
%TO.P,fx2_btn2,1*%
%TO.N,+3V3*%
%TA.AperFunction,ComponentPad*%
G36*
G01*
X109740000Y-262040000D02*
X111240000Y-262040000D01*
G75*
G02*
X111490000Y-262290000I0J-250000D01*
G01*
X111490000Y-263490000D01*
G75*
G02*
X111240000Y-263740000I-250000J0D01*
G01*
X109740000Y-263740000D01*
G75*
G02*
X109490000Y-263490000I0J250000D01*
G01*
X109490000Y-262290000D01*
G75*
G02*
X109740000Y-262040000I250000J0D01*
G01*
G37*
%TD.AperFunction*%
%TO.P,fx2_btn2,2*%
%TO.N,Net-(FX-BTNs1-Pad5)*%
X110490000Y-265390000D03*
%TD*%
%TO.P,fx2_btn3,2*%
%TO.N,Net-(FX-BTNs1-Pad2)*%
X119380000Y-265390000D03*
%TO.P,fx2_btn3,1*%
%TO.N,+3V3*%
%TA.AperFunction,ComponentPad*%
G36*
G01*
X118630000Y-262040000D02*
X120130000Y-262040000D01*
G75*
G02*
X120380000Y-262290000I0J-250000D01*
G01*
X120380000Y-263490000D01*
G75*
G02*
X120130000Y-263740000I-250000J0D01*
G01*
X118630000Y-263740000D01*
G75*
G02*
X118380000Y-263490000I0J250000D01*
G01*
X118380000Y-262290000D01*
G75*
G02*
X118630000Y-262040000I250000J0D01*
G01*
G37*
%TD.AperFunction*%
%TD*%
%TO.P,fx2_btn4,1*%
%TO.N,+3V3*%
%TA.AperFunction,ComponentPad*%
G36*
G01*
X127520000Y-262040000D02*
X129020000Y-262040000D01*
G75*
G02*
X129270000Y-262290000I0J-250000D01*
G01*
X129270000Y-263490000D01*
G75*
G02*
X129020000Y-263740000I-250000J0D01*
G01*
X127520000Y-263740000D01*
G75*
G02*
X127270000Y-263490000I0J250000D01*
G01*
X127270000Y-262290000D01*
G75*
G02*
X127520000Y-262040000I250000J0D01*
G01*
G37*
%TD.AperFunction*%
%TO.P,fx2_btn4,2*%
%TO.N,Net-(FX-BTNs1-Pad4)*%
X128270000Y-265390000D03*
%TD*%
%TO.P,fx2_enc1,1*%
%TO.N,GND*%
%TA.AperFunction,ComponentPad*%
G36*
G01*
X181065000Y-239610000D02*
X179615000Y-239610000D01*
G75*
G02*
X179365000Y-239360000I0J250000D01*
G01*
X179365000Y-238160000D01*
G75*
G02*
X179615000Y-237910000I250000J0D01*
G01*
X181065000Y-237910000D01*
G75*
G02*
X181315000Y-238160000I0J-250000D01*
G01*
X181315000Y-239360000D01*
G75*
G02*
X181065000Y-239610000I-250000J0D01*
G01*
G37*
%TD.AperFunction*%
D13*
%TO.P,fx2_enc1,2*%
%TO.N,+3V3*%
X180340000Y-236260000D03*
%TO.P,fx2_enc1,3*%
%TO.N,Net-(fx2_enc1-Pad3)*%
X180340000Y-233760000D03*
%TO.P,fx2_enc1,4*%
%TO.N,rEnc3_DT*%
X180340000Y-231260000D03*
%TO.P,fx2_enc1,5*%
%TO.N,rEnc3_clk*%
X180340000Y-228760000D03*
%TD*%
%TO.P,fx2_enc2,5*%
%TO.N,rEnc4_clk*%
X180340000Y-246540000D03*
%TO.P,fx2_enc2,4*%
%TO.N,rEnc4_DT*%
X180340000Y-249040000D03*
%TO.P,fx2_enc2,3*%
%TO.N,Net-(fx2_enc2-Pad3)*%
X180340000Y-251540000D03*
%TO.P,fx2_enc2,2*%
%TO.N,+3V3*%
X180340000Y-254040000D03*
%TO.P,fx2_enc2,1*%
%TO.N,GND*%
%TA.AperFunction,ComponentPad*%
G36*
G01*
X181065000Y-257390000D02*
X179615000Y-257390000D01*
G75*
G02*
X179365000Y-257140000I0J250000D01*
G01*
X179365000Y-255940000D01*
G75*
G02*
X179615000Y-255690000I250000J0D01*
G01*
X181065000Y-255690000D01*
G75*
G02*
X181315000Y-255940000I0J-250000D01*
G01*
X181315000Y-257140000D01*
G75*
G02*
X181065000Y-257390000I-250000J0D01*
G01*
G37*
%TD.AperFunction*%
%TD*%
%TO.P,fx2_enc3,1*%
%TO.N,GND*%
%TA.AperFunction,ComponentPad*%
G36*
G01*
X181065000Y-275170000D02*
X179615000Y-275170000D01*
G75*
G02*
X179365000Y-274920000I0J250000D01*
G01*
X179365000Y-273720000D01*
G75*
G02*
X179615000Y-273470000I250000J0D01*
G01*
X181065000Y-273470000D01*
G75*
G02*
X181315000Y-273720000I0J-250000D01*
G01*
X181315000Y-274920000D01*
G75*
G02*
X181065000Y-275170000I-250000J0D01*
G01*
G37*
%TD.AperFunction*%
%TO.P,fx2_enc3,2*%
%TO.N,+3V3*%
X180340000Y-271820000D03*
%TO.P,fx2_enc3,3*%
%TO.N,Net-(fx2_enc3-Pad3)*%
X180340000Y-269320000D03*
%TO.P,fx2_enc3,4*%
%TO.N,rEnc5_DT*%
X180340000Y-266820000D03*
%TO.P,fx2_enc3,5*%
%TO.N,rEnc5_clk*%
X180340000Y-264320000D03*
%TD*%
D12*
%TO.P,fxEncBtns1,1*%
%TO.N,Net-(fx2_enc2-Pad3)*%
X135890000Y-262890000D03*
D11*
%TO.P,fxEncBtns1,9*%
%TO.N,s2*%
X153670000Y-255270000D03*
%TO.P,fxEncBtns1,2*%
%TO.N,Net-(fxEncBtns1-Pad2)*%
X138430000Y-262890000D03*
%TO.P,fxEncBtns1,10*%
%TO.N,s1*%
X151130000Y-255270000D03*
%TO.P,fxEncBtns1,3*%
%TO.N,mux_encBtn_fx*%
X140970000Y-262890000D03*
%TO.P,fxEncBtns1,11*%
%TO.N,s0*%
X148590000Y-255270000D03*
%TO.P,fxEncBtns1,4*%
%TO.N,Net-(fxEncBtns1-Pad4)*%
X143510000Y-262890000D03*
%TO.P,fxEncBtns1,12*%
%TO.N,Net-(fx2_enc1-Pad3)*%
X146050000Y-255270000D03*
%TO.P,fxEncBtns1,5*%
%TO.N,Net-(fx2_enc3-Pad3)*%
X146050000Y-262890000D03*
%TO.P,fxEncBtns1,13*%
%TO.N,Net-(fx1_enc1-Pad3)*%
X143510000Y-255270000D03*
%TO.P,fxEncBtns1,6*%
%TO.N,GND*%
X148590000Y-262890000D03*
%TO.P,fxEncBtns1,14*%
%TO.N,Net-(fx1_enc2-Pad3)*%
X140970000Y-255270000D03*
%TO.P,fxEncBtns1,7*%
%TO.N,GND*%
X151130000Y-262890000D03*
%TO.P,fxEncBtns1,15*%
%TO.N,Net-(fx1_enc3-Pad3)*%
X138430000Y-255270000D03*
%TO.P,fxEncBtns1,8*%
%TO.N,GND*%
X153670000Y-262890000D03*
%TO.P,fxEncBtns1,16*%
%TO.N,+3V3*%
X135890000Y-255270000D03*
%TD*%
%TO.P,pfl_btn_1,1*%
%TO.N,pfl_btn_ch1*%
%TA.AperFunction,ComponentPad*%
G36*
G01*
X40120000Y-144360000D02*
X38620000Y-144360000D01*
G75*
G02*
X38370000Y-144110000I0J250000D01*
G01*
X38370000Y-142910000D01*
G75*
G02*
X38620000Y-142660000I250000J0D01*
G01*
X40120000Y-142660000D01*
G75*
G02*
X40370000Y-142910000I0J-250000D01*
G01*
X40370000Y-144110000D01*
G75*
G02*
X40120000Y-144360000I-250000J0D01*
G01*
G37*
%TD.AperFunction*%
D15*
%TO.P,pfl_btn_1,2*%
%TO.N,+3V3*%
X39370000Y-141010000D03*
%TD*%
%TO.P,pfl_btn_2,2*%
%TO.N,+3V3*%
X71120000Y-141010000D03*
%TO.P,pfl_btn_2,1*%
%TO.N,pfl_btn_ch2*%
%TA.AperFunction,ComponentPad*%
G36*
G01*
X71870000Y-144360000D02*
X70370000Y-144360000D01*
G75*
G02*
X70120000Y-144110000I0J250000D01*
G01*
X70120000Y-142910000D01*
G75*
G02*
X70370000Y-142660000I250000J0D01*
G01*
X71870000Y-142660000D01*
G75*
G02*
X72120000Y-142910000I0J-250000D01*
G01*
X72120000Y-144110000D01*
G75*
G02*
X71870000Y-144360000I-250000J0D01*
G01*
G37*
%TD.AperFunction*%
%TD*%
%TO.P,pfl_btn_3,1*%
%TO.N,pfl_btn_ch3*%
%TA.AperFunction,ComponentPad*%
G36*
G01*
X108700000Y-144360000D02*
X107200000Y-144360000D01*
G75*
G02*
X106950000Y-144110000I0J250000D01*
G01*
X106950000Y-142910000D01*
G75*
G02*
X107200000Y-142660000I250000J0D01*
G01*
X108700000Y-142660000D01*
G75*
G02*
X108950000Y-142910000I0J-250000D01*
G01*
X108950000Y-144110000D01*
G75*
G02*
X108700000Y-144360000I-250000J0D01*
G01*
G37*
%TD.AperFunction*%
%TO.P,pfl_btn_3,2*%
%TO.N,+3V3*%
X107950000Y-141010000D03*
%TD*%
D16*
%TO.P,pfl_btn_4,2*%
%TO.N,+3V3*%
X146090000Y-142240000D03*
%TO.P,pfl_btn_4,1*%
%TO.N,pfl_btn_ch4*%
%TA.AperFunction,ComponentPad*%
G36*
G01*
X149440000Y-141490000D02*
X149440000Y-142990000D01*
G75*
G02*
X149190000Y-143240000I-250000J0D01*
G01*
X147990000Y-143240000D01*
G75*
G02*
X147740000Y-142990000I0J250000D01*
G01*
X147740000Y-141490000D01*
G75*
G02*
X147990000Y-141240000I250000J0D01*
G01*
X149190000Y-141240000D01*
G75*
G02*
X149440000Y-141490000I0J-250000D01*
G01*
G37*
%TD.AperFunction*%
%TD*%
%TO.P,pfl_btn_master1,1*%
%TO.N,pfl_btn_master*%
%TA.AperFunction,ComponentPad*%
G36*
G01*
X183630000Y-145630000D02*
X182130000Y-145630000D01*
G75*
G02*
X181880000Y-145380000I0J250000D01*
G01*
X181880000Y-144180000D01*
G75*
G02*
X182130000Y-143930000I250000J0D01*
G01*
X183630000Y-143930000D01*
G75*
G02*
X183880000Y-144180000I0J-250000D01*
G01*
X183880000Y-145380000D01*
G75*
G02*
X183630000Y-145630000I-250000J0D01*
G01*
G37*
%TD.AperFunction*%
D15*
%TO.P,pfl_btn_master1,2*%
%TO.N,+3V3*%
X182880000Y-142280000D03*
%TD*%
%TO.P,pfl_led_1,2*%
%TO.N,+3V3*%
X30480000Y-143470000D03*
%TO.P,pfl_led_1,1*%
%TO.N,pfl_led_ch1*%
%TA.AperFunction,ComponentPad*%
G36*
G01*
X29730000Y-140120000D02*
X31230000Y-140120000D01*
G75*
G02*
X31480000Y-140370000I0J-250000D01*
G01*
X31480000Y-141570000D01*
G75*
G02*
X31230000Y-141820000I-250000J0D01*
G01*
X29730000Y-141820000D01*
G75*
G02*
X29480000Y-141570000I0J250000D01*
G01*
X29480000Y-140370000D01*
G75*
G02*
X29730000Y-140120000I250000J0D01*
G01*
G37*
%TD.AperFunction*%
%TD*%
%TO.P,pfl_led_2,1*%
%TO.N,pfl_led_ch2*%
%TA.AperFunction,ComponentPad*%
G36*
G01*
X61480000Y-140120000D02*
X62980000Y-140120000D01*
G75*
G02*
X63230000Y-140370000I0J-250000D01*
G01*
X63230000Y-141570000D01*
G75*
G02*
X62980000Y-141820000I-250000J0D01*
G01*
X61480000Y-141820000D01*
G75*
G02*
X61230000Y-141570000I0J250000D01*
G01*
X61230000Y-140370000D01*
G75*
G02*
X61480000Y-140120000I250000J0D01*
G01*
G37*
%TD.AperFunction*%
%TO.P,pfl_led_2,2*%
%TO.N,+3V3*%
X62230000Y-143470000D03*
%TD*%
%TO.P,pfl_led_3,1*%
%TO.N,pfl_led_ch3*%
%TA.AperFunction,ComponentPad*%
G36*
G01*
X98310000Y-140120000D02*
X99810000Y-140120000D01*
G75*
G02*
X100060000Y-140370000I0J-250000D01*
G01*
X100060000Y-141570000D01*
G75*
G02*
X99810000Y-141820000I-250000J0D01*
G01*
X98310000Y-141820000D01*
G75*
G02*
X98060000Y-141570000I0J250000D01*
G01*
X98060000Y-140370000D01*
G75*
G02*
X98310000Y-140120000I250000J0D01*
G01*
G37*
%TD.AperFunction*%
%TO.P,pfl_led_3,2*%
%TO.N,+3V3*%
X99060000Y-143470000D03*
%TD*%
D16*
%TO.P,pfl_led_4,2*%
%TO.N,+3V3*%
X128310000Y-142240000D03*
%TO.P,pfl_led_4,1*%
%TO.N,pfl_led_ch4*%
%TA.AperFunction,ComponentPad*%
G36*
G01*
X131660000Y-141490000D02*
X131660000Y-142990000D01*
G75*
G02*
X131410000Y-143240000I-250000J0D01*
G01*
X130210000Y-143240000D01*
G75*
G02*
X129960000Y-142990000I0J250000D01*
G01*
X129960000Y-141490000D01*
G75*
G02*
X130210000Y-141240000I250000J0D01*
G01*
X131410000Y-141240000D01*
G75*
G02*
X131660000Y-141490000I0J-250000D01*
G01*
G37*
%TD.AperFunction*%
%TD*%
D15*
%TO.P,pfl_led_master1,2*%
%TO.N,+3V3*%
X173990000Y-144740000D03*
%TO.P,pfl_led_master1,1*%
%TO.N,pfl_led_master*%
%TA.AperFunction,ComponentPad*%
G36*
G01*
X173240000Y-141390000D02*
X174740000Y-141390000D01*
G75*
G02*
X174990000Y-141640000I0J-250000D01*
G01*
X174990000Y-142840000D01*
G75*
G02*
X174740000Y-143090000I-250000J0D01*
G01*
X173240000Y-143090000D01*
G75*
G02*
X172990000Y-142840000I0J250000D01*
G01*
X172990000Y-141640000D01*
G75*
G02*
X173240000Y-141390000I250000J0D01*
G01*
G37*
%TD.AperFunction*%
%TD*%
D13*
%TO.P,spare(28)1,3*%
%TO.N,+3V3*%
X180340000Y-188040000D03*
%TO.P,spare(28)1,2*%
%TO.N,GND*%
X180340000Y-190540000D03*
%TO.P,spare(28)1,1*%
%TO.N,pin28*%
%TA.AperFunction,ComponentPad*%
G36*
G01*
X181065000Y-193890000D02*
X179615000Y-193890000D01*
G75*
G02*
X179365000Y-193640000I0J250000D01*
G01*
X179365000Y-192440000D01*
G75*
G02*
X179615000Y-192190000I250000J0D01*
G01*
X181065000Y-192190000D01*
G75*
G02*
X181315000Y-192440000I0J-250000D01*
G01*
X181315000Y-193640000D01*
G75*
G02*
X181065000Y-193890000I-250000J0D01*
G01*
G37*
%TD.AperFunction*%
%TD*%
%TO.P,spare(29)1,3*%
%TO.N,+3V3*%
X180340000Y-200740000D03*
%TO.P,spare(29)1,2*%
%TO.N,GND*%
X180340000Y-203240000D03*
%TO.P,spare(29)1,1*%
%TO.N,pin29*%
%TA.AperFunction,ComponentPad*%
G36*
G01*
X181065000Y-206590000D02*
X179615000Y-206590000D01*
G75*
G02*
X179365000Y-206340000I0J250000D01*
G01*
X179365000Y-205140000D01*
G75*
G02*
X179615000Y-204890000I250000J0D01*
G01*
X181065000Y-204890000D01*
G75*
G02*
X181315000Y-205140000I0J-250000D01*
G01*
X181315000Y-206340000D01*
G75*
G02*
X181065000Y-206590000I-250000J0D01*
G01*
G37*
%TD.AperFunction*%
%TD*%
D10*
%TO.P,U5,49*%
%TO.N,Net-(U5-Pad49)*%
X73660000Y-205740000D03*
%TO.P,U5,59*%
%TO.N,Net-(U5-Pad59)*%
X87579200Y-215389200D03*
%TO.P,U5,58*%
%TO.N,Net-(U5-Pad58)*%
X85039200Y-215389200D03*
%TO.P,U5,57*%
%TO.N,Net-(U5-Pad57)*%
X82499200Y-215389200D03*
%TO.P,U5,56*%
%TO.N,Net-(U5-Pad56)*%
X79959200Y-215389200D03*
D12*
%TO.P,U5,55*%
%TO.N,Net-(U5-Pad55)*%
X77419200Y-215389200D03*
D10*
%TO.P,U5,48*%
%TO.N,Net-(U5-Pad48)*%
X71120000Y-203200000D03*
%TO.P,U5,47*%
%TO.N,GND*%
X73660000Y-203200000D03*
%TO.P,U5,46*%
%TO.N,Net-(3.3V_Test2-Pad1)*%
X76200000Y-203200000D03*
%TO.P,U5,45*%
%TO.N,mux_master*%
X78740000Y-203200000D03*
%TO.P,U5,44*%
%TO.N,mux_ch4*%
X81280000Y-203200000D03*
%TO.P,U5,43*%
%TO.N,mux_ch3*%
X83820000Y-203200000D03*
%TO.P,U5,42*%
%TO.N,mux_ch2*%
X86360000Y-203200000D03*
%TO.P,U5,41*%
%TO.N,mux_ch1*%
X88900000Y-203200000D03*
%TO.P,U5,40*%
%TO.N,vu_din*%
X91440000Y-203200000D03*
%TO.P,U5,39*%
%TO.N,display_sda1*%
X93980000Y-203200000D03*
%TO.P,U5,38*%
%TO.N,display_scl1*%
X96520000Y-203200000D03*
%TO.P,U5,37*%
%TO.N,vu_cs*%
X99060000Y-203200000D03*
%TO.P,U5,36*%
%TO.N,vu_clk*%
X101600000Y-203200000D03*
%TO.P,U5,35*%
%TO.N,neopixel*%
X104140000Y-203200000D03*
D12*
%TO.P,U5,1*%
%TO.N,GND*%
X71120000Y-218440000D03*
D10*
%TO.P,U5,2*%
%TO.N,rEnc0_DT*%
X73660000Y-218440000D03*
%TO.P,U5,3*%
%TO.N,rEnc0_clk*%
X76200000Y-218440000D03*
%TO.P,U5,4*%
%TO.N,rEnc1_DT*%
X78740000Y-218440000D03*
%TO.P,U5,5*%
%TO.N,rEnc1_clk*%
X81280000Y-218440000D03*
%TO.P,U5,6*%
%TO.N,rEnc2_DT*%
X83820000Y-218440000D03*
%TO.P,U5,7*%
%TO.N,rEnc2_clk*%
X86360000Y-218440000D03*
%TO.P,U5,8*%
%TO.N,rEnc3_DT*%
X88900000Y-218440000D03*
%TO.P,U5,9*%
%TO.N,rEnc3_clk*%
X91440000Y-218440000D03*
%TO.P,U5,10*%
%TO.N,rEnc4_DT*%
X93980000Y-218440000D03*
%TO.P,U5,11*%
%TO.N,rEnc4_clk*%
X96520000Y-218440000D03*
%TO.P,U5,12*%
%TO.N,rEnc5_DT*%
X99060000Y-218440000D03*
%TO.P,U5,13*%
%TO.N,rEnc5_clk*%
X101600000Y-218440000D03*
%TO.P,U5,34*%
%TO.N,GND*%
X106680000Y-203200000D03*
%TO.P,U5,33*%
%TO.N,Net-(R30-Pad2)*%
X109220000Y-203200000D03*
%TO.P,U5,32*%
%TO.N,Net-(R31-Pad2)*%
X111760000Y-203200000D03*
%TO.P,U5,31*%
%TO.N,Net-(R32-Pad2)*%
X114300000Y-203200000D03*
%TO.P,U5,30*%
%TO.N,Net-(R33-Pad2)*%
X116840000Y-203200000D03*
%TO.P,U5,29*%
%TO.N,pfl_btn_master*%
X119380000Y-203200000D03*
%TO.P,U5,28*%
%TO.N,pfl_btn_ch4*%
X121920000Y-203200000D03*
%TO.P,U5,27*%
%TO.N,pfl_btn_ch3*%
X124460000Y-203200000D03*
%TO.P,U5,26*%
%TO.N,pfl_btn_ch2*%
X127000000Y-203200000D03*
%TO.P,U5,25*%
%TO.N,pfl_btn_ch1*%
X129540000Y-203200000D03*
%TO.P,U5,24*%
%TO.N,s2*%
X129540000Y-218440000D03*
%TO.P,U5,23*%
%TO.N,s1*%
X127000000Y-218440000D03*
%TO.P,U5,22*%
%TO.N,s0*%
X124460000Y-218440000D03*
%TO.P,U5,21*%
%TO.N,pin29*%
X121920000Y-218440000D03*
%TO.P,U5,14*%
%TO.N,mux_encBtn_fx*%
X104140000Y-218440000D03*
%TO.P,U5,15*%
%TO.N,Net-(3.3V_Test1-Pad1)*%
X106680000Y-218440000D03*
%TO.P,U5,16*%
%TO.N,display_scl2*%
X109220000Y-218440000D03*
%TO.P,U5,20*%
%TO.N,pin28*%
X119380000Y-218440000D03*
%TO.P,U5,19*%
%TO.N,mux_selBtn_fx*%
X116840000Y-218440000D03*
%TO.P,U5,18*%
%TO.N,Net-(R18-Pad1)*%
X114300000Y-218440000D03*
%TO.P,U5,17*%
%TO.N,display_sda2*%
X111760000Y-218440000D03*
D17*
%TO.P,U5,60*%
%TO.N,Net-(U5-Pad60)*%
X84090000Y-205638400D03*
D18*
%TO.P,U5,65*%
%TO.N,Net-(U5-Pad65)*%
X86090000Y-205638400D03*
%TO.P,U5,61*%
%TO.N,Net-(U5-Pad61)*%
X84090000Y-207638400D03*
%TO.P,U5,64*%
%TO.N,Net-(U5-Pad64)*%
X86090000Y-207638400D03*
%TO.P,U5,63*%
%TO.N,Net-(U5-Pad63)*%
X86090000Y-209638400D03*
%TO.P,U5,62*%
%TO.N,Net-(U5-Pad62)*%
X84090000Y-209638400D03*
D10*
%TO.P,U5,50*%
%TO.N,Net-(U5-Pad50)*%
X116840000Y-215900000D03*
%TO.P,U5,51*%
%TO.N,Net-(U5-Pad51)*%
X116840000Y-213360000D03*
%TO.P,U5,52*%
%TO.N,Net-(U5-Pad52)*%
X116840000Y-210820000D03*
%TO.P,U5,53*%
%TO.N,Net-(U5-Pad53)*%
X116840000Y-208280000D03*
%TO.P,U5,54*%
%TO.N,Net-(U5-Pad54)*%
X116840000Y-205740000D03*
D18*
%TO.P,U5,67*%
%TO.N,Net-(U5-Pad67)*%
X71850000Y-212090000D03*
%TO.P,U5,66*%
%TO.N,Net-(U5-Pad66)*%
X71850000Y-209550000D03*
%TD*%
D12*
%TO.P,C1,1*%
%TO.N,+3V3*%
X27940000Y-189230000D03*
D10*
%TO.P,C1,2*%
%TO.N,GND*%
X27940000Y-186730000D03*
%TD*%
D11*
%TO.P,MuxCh2,16*%
%TO.N,+3V3*%
X68580000Y-107950000D03*
%TO.P,MuxCh2,8*%
%TO.N,GND*%
X60960000Y-125730000D03*
%TO.P,MuxCh2,15*%
%TO.N,Net-(MuxCh1_11-Pad2)*%
X68580000Y-110490000D03*
%TO.P,MuxCh2,7*%
%TO.N,GND*%
X60960000Y-123190000D03*
%TO.P,MuxCh2,14*%
%TO.N,Net-(MuxCh1_10-Pad2)*%
X68580000Y-113030000D03*
%TO.P,MuxCh2,6*%
%TO.N,GND*%
X60960000Y-120650000D03*
%TO.P,MuxCh2,13*%
%TO.N,Net-(MuxCh1_9-Pad2)*%
X68580000Y-115570000D03*
%TO.P,MuxCh2,5*%
%TO.N,Net-(MuxCh1_14-Pad2)*%
X60960000Y-118110000D03*
%TO.P,MuxCh2,12*%
%TO.N,Net-(MuxCh1_12-Pad2)*%
X68580000Y-118110000D03*
%TO.P,MuxCh2,4*%
%TO.N,Net-(MuxCh1_16-Pad2)*%
X60960000Y-115570000D03*
%TO.P,MuxCh2,11*%
%TO.N,s0*%
X68580000Y-120650000D03*
%TO.P,MuxCh2,3*%
%TO.N,mux_ch2*%
X60960000Y-113030000D03*
%TO.P,MuxCh2,10*%
%TO.N,s1*%
X68580000Y-123190000D03*
%TO.P,MuxCh2,2*%
%TO.N,Net-(MuxCh1_15-Pad2)*%
X60960000Y-110490000D03*
%TO.P,MuxCh2,9*%
%TO.N,s2*%
X68580000Y-125730000D03*
D12*
%TO.P,MuxCh2,1*%
%TO.N,Net-(MuxCh1_13-Pad2)*%
X60960000Y-107950000D03*
%TD*%
D11*
%TO.P,MuxCh3,16*%
%TO.N,+3V3*%
X104140000Y-91440000D03*
%TO.P,MuxCh3,8*%
%TO.N,GND*%
X96520000Y-109220000D03*
%TO.P,MuxCh3,15*%
%TO.N,Net-(MuxCh1_19-Pad2)*%
X104140000Y-93980000D03*
%TO.P,MuxCh3,7*%
%TO.N,GND*%
X96520000Y-106680000D03*
%TO.P,MuxCh3,14*%
%TO.N,Net-(MuxCh1_18-Pad2)*%
X104140000Y-96520000D03*
%TO.P,MuxCh3,6*%
%TO.N,GND*%
X96520000Y-104140000D03*
%TO.P,MuxCh3,13*%
%TO.N,Net-(MuxCh1_17-Pad2)*%
X104140000Y-99060000D03*
%TO.P,MuxCh3,5*%
%TO.N,Net-(MuxCh1_22-Pad2)*%
X96520000Y-101600000D03*
%TO.P,MuxCh3,12*%
%TO.N,Net-(MuxCh1_20-Pad2)*%
X104140000Y-101600000D03*
%TO.P,MuxCh3,4*%
%TO.N,Net-(MuxCh1_24-Pad2)*%
X96520000Y-99060000D03*
%TO.P,MuxCh3,11*%
%TO.N,s0*%
X104140000Y-104140000D03*
%TO.P,MuxCh3,3*%
%TO.N,mux_ch3*%
X96520000Y-96520000D03*
%TO.P,MuxCh3,10*%
%TO.N,s1*%
X104140000Y-106680000D03*
%TO.P,MuxCh3,2*%
%TO.N,Net-(MuxCh1_23-Pad2)*%
X96520000Y-93980000D03*
%TO.P,MuxCh3,9*%
%TO.N,s2*%
X104140000Y-109220000D03*
D12*
%TO.P,MuxCh3,1*%
%TO.N,Net-(MuxCh1_21-Pad2)*%
X96520000Y-91440000D03*
%TD*%
%TO.P,MuxCh4,1*%
%TO.N,Net-(MuxCh1_29-Pad2)*%
X132080000Y-107950000D03*
D11*
%TO.P,MuxCh4,9*%
%TO.N,s2*%
X139700000Y-125730000D03*
%TO.P,MuxCh4,2*%
%TO.N,Net-(MuxCh1_31-Pad2)*%
X132080000Y-110490000D03*
%TO.P,MuxCh4,10*%
%TO.N,s1*%
X139700000Y-123190000D03*
%TO.P,MuxCh4,3*%
%TO.N,mux_ch4*%
X132080000Y-113030000D03*
%TO.P,MuxCh4,11*%
%TO.N,s0*%
X139700000Y-120650000D03*
%TO.P,MuxCh4,4*%
%TO.N,Net-(MuxCh1_32-Pad2)*%
X132080000Y-115570000D03*
%TO.P,MuxCh4,12*%
%TO.N,Net-(MuxCh1_28-Pad2)*%
X139700000Y-118110000D03*
%TO.P,MuxCh4,5*%
%TO.N,Net-(MuxCh1_30-Pad2)*%
X132080000Y-118110000D03*
%TO.P,MuxCh4,13*%
%TO.N,Net-(MuxCh1_25-Pad2)*%
X139700000Y-115570000D03*
%TO.P,MuxCh4,6*%
%TO.N,GND*%
X132080000Y-120650000D03*
%TO.P,MuxCh4,14*%
%TO.N,Net-(MuxCh1_26-Pad2)*%
X139700000Y-113030000D03*
%TO.P,MuxCh4,7*%
%TO.N,GND*%
X132080000Y-123190000D03*
%TO.P,MuxCh4,15*%
%TO.N,Net-(MuxCh1_27-Pad2)*%
X139700000Y-110490000D03*
%TO.P,MuxCh4,8*%
%TO.N,GND*%
X132080000Y-125730000D03*
%TO.P,MuxCh4,16*%
%TO.N,+3V3*%
X139700000Y-107950000D03*
%TD*%
D12*
%TO.P,MuxCh5,1*%
%TO.N,Net-(MuxCh1_37-Pad2)*%
X166370000Y-90170000D03*
D11*
%TO.P,MuxCh5,9*%
%TO.N,s2*%
X173990000Y-107950000D03*
%TO.P,MuxCh5,2*%
%TO.N,Net-(MuxCh1_39-Pad2)*%
X166370000Y-92710000D03*
%TO.P,MuxCh5,10*%
%TO.N,s1*%
X173990000Y-105410000D03*
%TO.P,MuxCh5,3*%
%TO.N,mux_master*%
X166370000Y-95250000D03*
%TO.P,MuxCh5,11*%
%TO.N,s0*%
X173990000Y-102870000D03*
%TO.P,MuxCh5,4*%
%TO.N,Net-(MuxCh1_40-Pad2)*%
X166370000Y-97790000D03*
%TO.P,MuxCh5,12*%
%TO.N,Net-(MuxCh1_36-Pad2)*%
X173990000Y-100330000D03*
%TO.P,MuxCh5,5*%
%TO.N,Net-(MuxCh1_38-Pad2)*%
X166370000Y-100330000D03*
%TO.P,MuxCh5,13*%
%TO.N,Net-(MuxCh1_33-Pad2)*%
X173990000Y-97790000D03*
%TO.P,MuxCh5,6*%
%TO.N,GND*%
X166370000Y-102870000D03*
%TO.P,MuxCh5,14*%
%TO.N,Net-(MuxCh1_34-Pad2)*%
X173990000Y-95250000D03*
%TO.P,MuxCh5,7*%
%TO.N,GND*%
X166370000Y-105410000D03*
%TO.P,MuxCh5,15*%
%TO.N,Net-(MuxCh1_35-Pad2)*%
X173990000Y-92710000D03*
%TO.P,MuxCh5,8*%
%TO.N,GND*%
X166370000Y-107950000D03*
%TO.P,MuxCh5,16*%
%TO.N,+3V3*%
X173990000Y-90170000D03*
%TD*%
D14*
%TO.P,MuxCh1_9,3*%
%TO.N,GND*%
X67230000Y-36830000D03*
%TO.P,MuxCh1_9,2*%
%TO.N,Net-(MuxCh1_9-Pad2)*%
X64730000Y-36830000D03*
%TO.P,MuxCh1_9,1*%
%TO.N,+3V3*%
%TA.AperFunction,ComponentPad*%
G36*
G01*
X61380000Y-37555000D02*
X61380000Y-36105000D01*
G75*
G02*
X61630000Y-35855000I250000J0D01*
G01*
X62830000Y-35855000D01*
G75*
G02*
X63080000Y-36105000I0J-250000D01*
G01*
X63080000Y-37555000D01*
G75*
G02*
X62830000Y-37805000I-250000J0D01*
G01*
X61630000Y-37805000D01*
G75*
G02*
X61380000Y-37555000I0J250000D01*
G01*
G37*
%TD.AperFunction*%
%TD*%
%TO.P,MuxCh1_10,3*%
%TO.N,GND*%
X67230000Y-45720000D03*
%TO.P,MuxCh1_10,2*%
%TO.N,Net-(MuxCh1_10-Pad2)*%
X64730000Y-45720000D03*
%TO.P,MuxCh1_10,1*%
%TO.N,+3V3*%
%TA.AperFunction,ComponentPad*%
G36*
G01*
X61380000Y-46445000D02*
X61380000Y-44995000D01*
G75*
G02*
X61630000Y-44745000I250000J0D01*
G01*
X62830000Y-44745000D01*
G75*
G02*
X63080000Y-44995000I0J-250000D01*
G01*
X63080000Y-46445000D01*
G75*
G02*
X62830000Y-46695000I-250000J0D01*
G01*
X61630000Y-46695000D01*
G75*
G02*
X61380000Y-46445000I0J250000D01*
G01*
G37*
%TD.AperFunction*%
%TD*%
%TO.P,MuxCh1_11,1*%
%TO.N,+3V3*%
%TA.AperFunction,ComponentPad*%
G36*
G01*
X61380000Y-55335000D02*
X61380000Y-53885000D01*
G75*
G02*
X61630000Y-53635000I250000J0D01*
G01*
X62830000Y-53635000D01*
G75*
G02*
X63080000Y-53885000I0J-250000D01*
G01*
X63080000Y-55335000D01*
G75*
G02*
X62830000Y-55585000I-250000J0D01*
G01*
X61630000Y-55585000D01*
G75*
G02*
X61380000Y-55335000I0J250000D01*
G01*
G37*
%TD.AperFunction*%
%TO.P,MuxCh1_11,2*%
%TO.N,Net-(MuxCh1_11-Pad2)*%
X64730000Y-54610000D03*
%TO.P,MuxCh1_11,3*%
%TO.N,GND*%
X67230000Y-54610000D03*
%TD*%
%TO.P,MuxCh1_12,1*%
%TO.N,+3V3*%
%TA.AperFunction,ComponentPad*%
G36*
G01*
X61380000Y-64225000D02*
X61380000Y-62775000D01*
G75*
G02*
X61630000Y-62525000I250000J0D01*
G01*
X62830000Y-62525000D01*
G75*
G02*
X63080000Y-62775000I0J-250000D01*
G01*
X63080000Y-64225000D01*
G75*
G02*
X62830000Y-64475000I-250000J0D01*
G01*
X61630000Y-64475000D01*
G75*
G02*
X61380000Y-64225000I0J250000D01*
G01*
G37*
%TD.AperFunction*%
%TO.P,MuxCh1_12,2*%
%TO.N,Net-(MuxCh1_12-Pad2)*%
X64730000Y-63500000D03*
%TO.P,MuxCh1_12,3*%
%TO.N,GND*%
X67230000Y-63500000D03*
%TD*%
%TO.P,MuxCh1_13,1*%
%TO.N,+3V3*%
%TA.AperFunction,ComponentPad*%
G36*
G01*
X61380000Y-73115000D02*
X61380000Y-71665000D01*
G75*
G02*
X61630000Y-71415000I250000J0D01*
G01*
X62830000Y-71415000D01*
G75*
G02*
X63080000Y-71665000I0J-250000D01*
G01*
X63080000Y-73115000D01*
G75*
G02*
X62830000Y-73365000I-250000J0D01*
G01*
X61630000Y-73365000D01*
G75*
G02*
X61380000Y-73115000I0J250000D01*
G01*
G37*
%TD.AperFunction*%
%TO.P,MuxCh1_13,2*%
%TO.N,Net-(MuxCh1_13-Pad2)*%
X64730000Y-72390000D03*
%TO.P,MuxCh1_13,3*%
%TO.N,GND*%
X67230000Y-72390000D03*
%TD*%
%TO.P,MuxCh1_14,3*%
%TO.N,GND*%
X67230000Y-81280000D03*
%TO.P,MuxCh1_14,2*%
%TO.N,Net-(MuxCh1_14-Pad2)*%
X64730000Y-81280000D03*
%TO.P,MuxCh1_14,1*%
%TO.N,+3V3*%
%TA.AperFunction,ComponentPad*%
G36*
G01*
X61380000Y-82005000D02*
X61380000Y-80555000D01*
G75*
G02*
X61630000Y-80305000I250000J0D01*
G01*
X62830000Y-80305000D01*
G75*
G02*
X63080000Y-80555000I0J-250000D01*
G01*
X63080000Y-82005000D01*
G75*
G02*
X62830000Y-82255000I-250000J0D01*
G01*
X61630000Y-82255000D01*
G75*
G02*
X61380000Y-82005000I0J250000D01*
G01*
G37*
%TD.AperFunction*%
%TD*%
%TO.P,MuxCh1_15,3*%
%TO.N,GND*%
X67230000Y-90170000D03*
%TO.P,MuxCh1_15,2*%
%TO.N,Net-(MuxCh1_15-Pad2)*%
X64730000Y-90170000D03*
%TO.P,MuxCh1_15,1*%
%TO.N,+3V3*%
%TA.AperFunction,ComponentPad*%
G36*
G01*
X61380000Y-90895000D02*
X61380000Y-89445000D01*
G75*
G02*
X61630000Y-89195000I250000J0D01*
G01*
X62830000Y-89195000D01*
G75*
G02*
X63080000Y-89445000I0J-250000D01*
G01*
X63080000Y-90895000D01*
G75*
G02*
X62830000Y-91145000I-250000J0D01*
G01*
X61630000Y-91145000D01*
G75*
G02*
X61380000Y-90895000I0J250000D01*
G01*
G37*
%TD.AperFunction*%
%TD*%
%TO.P,MuxCh1_16,1*%
%TO.N,+3V3*%
%TA.AperFunction,ComponentPad*%
G36*
G01*
X61380000Y-99785000D02*
X61380000Y-98335000D01*
G75*
G02*
X61630000Y-98085000I250000J0D01*
G01*
X62830000Y-98085000D01*
G75*
G02*
X63080000Y-98335000I0J-250000D01*
G01*
X63080000Y-99785000D01*
G75*
G02*
X62830000Y-100035000I-250000J0D01*
G01*
X61630000Y-100035000D01*
G75*
G02*
X61380000Y-99785000I0J250000D01*
G01*
G37*
%TD.AperFunction*%
%TO.P,MuxCh1_16,2*%
%TO.N,Net-(MuxCh1_16-Pad2)*%
X64730000Y-99060000D03*
%TO.P,MuxCh1_16,3*%
%TO.N,GND*%
X67230000Y-99060000D03*
%TD*%
%TO.P,MuxCh1_17,1*%
%TO.N,+3V3*%
%TA.AperFunction,ComponentPad*%
G36*
G01*
X96940000Y-21045000D02*
X96940000Y-19595000D01*
G75*
G02*
X97190000Y-19345000I250000J0D01*
G01*
X98390000Y-19345000D01*
G75*
G02*
X98640000Y-19595000I0J-250000D01*
G01*
X98640000Y-21045000D01*
G75*
G02*
X98390000Y-21295000I-250000J0D01*
G01*
X97190000Y-21295000D01*
G75*
G02*
X96940000Y-21045000I0J250000D01*
G01*
G37*
%TD.AperFunction*%
%TO.P,MuxCh1_17,2*%
%TO.N,Net-(MuxCh1_17-Pad2)*%
X100290000Y-20320000D03*
%TO.P,MuxCh1_17,3*%
%TO.N,GND*%
X102790000Y-20320000D03*
%TD*%
%TO.P,MuxCh1_18,3*%
%TO.N,GND*%
X102790000Y-29210000D03*
%TO.P,MuxCh1_18,2*%
%TO.N,Net-(MuxCh1_18-Pad2)*%
X100290000Y-29210000D03*
%TO.P,MuxCh1_18,1*%
%TO.N,+3V3*%
%TA.AperFunction,ComponentPad*%
G36*
G01*
X96940000Y-29935000D02*
X96940000Y-28485000D01*
G75*
G02*
X97190000Y-28235000I250000J0D01*
G01*
X98390000Y-28235000D01*
G75*
G02*
X98640000Y-28485000I0J-250000D01*
G01*
X98640000Y-29935000D01*
G75*
G02*
X98390000Y-30185000I-250000J0D01*
G01*
X97190000Y-30185000D01*
G75*
G02*
X96940000Y-29935000I0J250000D01*
G01*
G37*
%TD.AperFunction*%
%TD*%
%TO.P,MuxCh1_19,1*%
%TO.N,+3V3*%
%TA.AperFunction,ComponentPad*%
G36*
G01*
X96940000Y-38825000D02*
X96940000Y-37375000D01*
G75*
G02*
X97190000Y-37125000I250000J0D01*
G01*
X98390000Y-37125000D01*
G75*
G02*
X98640000Y-37375000I0J-250000D01*
G01*
X98640000Y-38825000D01*
G75*
G02*
X98390000Y-39075000I-250000J0D01*
G01*
X97190000Y-39075000D01*
G75*
G02*
X96940000Y-38825000I0J250000D01*
G01*
G37*
%TD.AperFunction*%
%TO.P,MuxCh1_19,2*%
%TO.N,Net-(MuxCh1_19-Pad2)*%
X100290000Y-38100000D03*
%TO.P,MuxCh1_19,3*%
%TO.N,GND*%
X102790000Y-38100000D03*
%TD*%
%TO.P,MuxCh1_20,1*%
%TO.N,+3V3*%
%TA.AperFunction,ComponentPad*%
G36*
G01*
X96940000Y-47715000D02*
X96940000Y-46265000D01*
G75*
G02*
X97190000Y-46015000I250000J0D01*
G01*
X98390000Y-46015000D01*
G75*
G02*
X98640000Y-46265000I0J-250000D01*
G01*
X98640000Y-47715000D01*
G75*
G02*
X98390000Y-47965000I-250000J0D01*
G01*
X97190000Y-47965000D01*
G75*
G02*
X96940000Y-47715000I0J250000D01*
G01*
G37*
%TD.AperFunction*%
%TO.P,MuxCh1_20,2*%
%TO.N,Net-(MuxCh1_20-Pad2)*%
X100290000Y-46990000D03*
%TO.P,MuxCh1_20,3*%
%TO.N,GND*%
X102790000Y-46990000D03*
%TD*%
%TO.P,MuxCh1_21,3*%
%TO.N,GND*%
X102790000Y-55880000D03*
%TO.P,MuxCh1_21,2*%
%TO.N,Net-(MuxCh1_21-Pad2)*%
X100290000Y-55880000D03*
%TO.P,MuxCh1_21,1*%
%TO.N,+3V3*%
%TA.AperFunction,ComponentPad*%
G36*
G01*
X96940000Y-56605000D02*
X96940000Y-55155000D01*
G75*
G02*
X97190000Y-54905000I250000J0D01*
G01*
X98390000Y-54905000D01*
G75*
G02*
X98640000Y-55155000I0J-250000D01*
G01*
X98640000Y-56605000D01*
G75*
G02*
X98390000Y-56855000I-250000J0D01*
G01*
X97190000Y-56855000D01*
G75*
G02*
X96940000Y-56605000I0J250000D01*
G01*
G37*
%TD.AperFunction*%
%TD*%
%TO.P,MuxCh1_22,1*%
%TO.N,+3V3*%
%TA.AperFunction,ComponentPad*%
G36*
G01*
X96940000Y-65495000D02*
X96940000Y-64045000D01*
G75*
G02*
X97190000Y-63795000I250000J0D01*
G01*
X98390000Y-63795000D01*
G75*
G02*
X98640000Y-64045000I0J-250000D01*
G01*
X98640000Y-65495000D01*
G75*
G02*
X98390000Y-65745000I-250000J0D01*
G01*
X97190000Y-65745000D01*
G75*
G02*
X96940000Y-65495000I0J250000D01*
G01*
G37*
%TD.AperFunction*%
%TO.P,MuxCh1_22,2*%
%TO.N,Net-(MuxCh1_22-Pad2)*%
X100290000Y-64770000D03*
%TO.P,MuxCh1_22,3*%
%TO.N,GND*%
X102790000Y-64770000D03*
%TD*%
%TO.P,MuxCh1_23,1*%
%TO.N,+3V3*%
%TA.AperFunction,ComponentPad*%
G36*
G01*
X96940000Y-74385000D02*
X96940000Y-72935000D01*
G75*
G02*
X97190000Y-72685000I250000J0D01*
G01*
X98390000Y-72685000D01*
G75*
G02*
X98640000Y-72935000I0J-250000D01*
G01*
X98640000Y-74385000D01*
G75*
G02*
X98390000Y-74635000I-250000J0D01*
G01*
X97190000Y-74635000D01*
G75*
G02*
X96940000Y-74385000I0J250000D01*
G01*
G37*
%TD.AperFunction*%
%TO.P,MuxCh1_23,2*%
%TO.N,Net-(MuxCh1_23-Pad2)*%
X100290000Y-73660000D03*
%TO.P,MuxCh1_23,3*%
%TO.N,GND*%
X102790000Y-73660000D03*
%TD*%
%TO.P,MuxCh1_24,3*%
%TO.N,GND*%
X102790000Y-82550000D03*
%TO.P,MuxCh1_24,2*%
%TO.N,Net-(MuxCh1_24-Pad2)*%
X100290000Y-82550000D03*
%TO.P,MuxCh1_24,1*%
%TO.N,+3V3*%
%TA.AperFunction,ComponentPad*%
G36*
G01*
X96940000Y-83275000D02*
X96940000Y-81825000D01*
G75*
G02*
X97190000Y-81575000I250000J0D01*
G01*
X98390000Y-81575000D01*
G75*
G02*
X98640000Y-81825000I0J-250000D01*
G01*
X98640000Y-83275000D01*
G75*
G02*
X98390000Y-83525000I-250000J0D01*
G01*
X97190000Y-83525000D01*
G75*
G02*
X96940000Y-83275000I0J250000D01*
G01*
G37*
%TD.AperFunction*%
%TD*%
%TO.P,MuxCh1_25,1*%
%TO.N,+3V3*%
%TA.AperFunction,ComponentPad*%
G36*
G01*
X132500000Y-37555000D02*
X132500000Y-36105000D01*
G75*
G02*
X132750000Y-35855000I250000J0D01*
G01*
X133950000Y-35855000D01*
G75*
G02*
X134200000Y-36105000I0J-250000D01*
G01*
X134200000Y-37555000D01*
G75*
G02*
X133950000Y-37805000I-250000J0D01*
G01*
X132750000Y-37805000D01*
G75*
G02*
X132500000Y-37555000I0J250000D01*
G01*
G37*
%TD.AperFunction*%
%TO.P,MuxCh1_25,2*%
%TO.N,Net-(MuxCh1_25-Pad2)*%
X135850000Y-36830000D03*
%TO.P,MuxCh1_25,3*%
%TO.N,GND*%
X138350000Y-36830000D03*
%TD*%
%TO.P,MuxCh1_26,3*%
%TO.N,GND*%
X138350000Y-45720000D03*
%TO.P,MuxCh1_26,2*%
%TO.N,Net-(MuxCh1_26-Pad2)*%
X135850000Y-45720000D03*
%TO.P,MuxCh1_26,1*%
%TO.N,+3V3*%
%TA.AperFunction,ComponentPad*%
G36*
G01*
X132500000Y-46445000D02*
X132500000Y-44995000D01*
G75*
G02*
X132750000Y-44745000I250000J0D01*
G01*
X133950000Y-44745000D01*
G75*
G02*
X134200000Y-44995000I0J-250000D01*
G01*
X134200000Y-46445000D01*
G75*
G02*
X133950000Y-46695000I-250000J0D01*
G01*
X132750000Y-46695000D01*
G75*
G02*
X132500000Y-46445000I0J250000D01*
G01*
G37*
%TD.AperFunction*%
%TD*%
%TO.P,MuxCh1_27,3*%
%TO.N,GND*%
X138350000Y-54610000D03*
%TO.P,MuxCh1_27,2*%
%TO.N,Net-(MuxCh1_27-Pad2)*%
X135850000Y-54610000D03*
%TO.P,MuxCh1_27,1*%
%TO.N,+3V3*%
%TA.AperFunction,ComponentPad*%
G36*
G01*
X132500000Y-55335000D02*
X132500000Y-53885000D01*
G75*
G02*
X132750000Y-53635000I250000J0D01*
G01*
X133950000Y-53635000D01*
G75*
G02*
X134200000Y-53885000I0J-250000D01*
G01*
X134200000Y-55335000D01*
G75*
G02*
X133950000Y-55585000I-250000J0D01*
G01*
X132750000Y-55585000D01*
G75*
G02*
X132500000Y-55335000I0J250000D01*
G01*
G37*
%TD.AperFunction*%
%TD*%
%TO.P,MuxCh1_28,1*%
%TO.N,+3V3*%
%TA.AperFunction,ComponentPad*%
G36*
G01*
X132500000Y-64225000D02*
X132500000Y-62775000D01*
G75*
G02*
X132750000Y-62525000I250000J0D01*
G01*
X133950000Y-62525000D01*
G75*
G02*
X134200000Y-62775000I0J-250000D01*
G01*
X134200000Y-64225000D01*
G75*
G02*
X133950000Y-64475000I-250000J0D01*
G01*
X132750000Y-64475000D01*
G75*
G02*
X132500000Y-64225000I0J250000D01*
G01*
G37*
%TD.AperFunction*%
%TO.P,MuxCh1_28,2*%
%TO.N,Net-(MuxCh1_28-Pad2)*%
X135850000Y-63500000D03*
%TO.P,MuxCh1_28,3*%
%TO.N,GND*%
X138350000Y-63500000D03*
%TD*%
%TO.P,MuxCh1_29,3*%
%TO.N,GND*%
X138350000Y-72390000D03*
%TO.P,MuxCh1_29,2*%
%TO.N,Net-(MuxCh1_29-Pad2)*%
X135850000Y-72390000D03*
%TO.P,MuxCh1_29,1*%
%TO.N,+3V3*%
%TA.AperFunction,ComponentPad*%
G36*
G01*
X132500000Y-73115000D02*
X132500000Y-71665000D01*
G75*
G02*
X132750000Y-71415000I250000J0D01*
G01*
X133950000Y-71415000D01*
G75*
G02*
X134200000Y-71665000I0J-250000D01*
G01*
X134200000Y-73115000D01*
G75*
G02*
X133950000Y-73365000I-250000J0D01*
G01*
X132750000Y-73365000D01*
G75*
G02*
X132500000Y-73115000I0J250000D01*
G01*
G37*
%TD.AperFunction*%
%TD*%
%TO.P,MuxCh1_30,1*%
%TO.N,+3V3*%
%TA.AperFunction,ComponentPad*%
G36*
G01*
X132500000Y-82005000D02*
X132500000Y-80555000D01*
G75*
G02*
X132750000Y-80305000I250000J0D01*
G01*
X133950000Y-80305000D01*
G75*
G02*
X134200000Y-80555000I0J-250000D01*
G01*
X134200000Y-82005000D01*
G75*
G02*
X133950000Y-82255000I-250000J0D01*
G01*
X132750000Y-82255000D01*
G75*
G02*
X132500000Y-82005000I0J250000D01*
G01*
G37*
%TD.AperFunction*%
%TO.P,MuxCh1_30,2*%
%TO.N,Net-(MuxCh1_30-Pad2)*%
X135850000Y-81280000D03*
%TO.P,MuxCh1_30,3*%
%TO.N,GND*%
X138350000Y-81280000D03*
%TD*%
%TO.P,MuxCh1_31,3*%
%TO.N,GND*%
X138350000Y-90170000D03*
%TO.P,MuxCh1_31,2*%
%TO.N,Net-(MuxCh1_31-Pad2)*%
X135850000Y-90170000D03*
%TO.P,MuxCh1_31,1*%
%TO.N,+3V3*%
%TA.AperFunction,ComponentPad*%
G36*
G01*
X132500000Y-90895000D02*
X132500000Y-89445000D01*
G75*
G02*
X132750000Y-89195000I250000J0D01*
G01*
X133950000Y-89195000D01*
G75*
G02*
X134200000Y-89445000I0J-250000D01*
G01*
X134200000Y-90895000D01*
G75*
G02*
X133950000Y-91145000I-250000J0D01*
G01*
X132750000Y-91145000D01*
G75*
G02*
X132500000Y-90895000I0J250000D01*
G01*
G37*
%TD.AperFunction*%
%TD*%
%TO.P,MuxCh1_32,3*%
%TO.N,GND*%
X138350000Y-99060000D03*
%TO.P,MuxCh1_32,2*%
%TO.N,Net-(MuxCh1_32-Pad2)*%
X135850000Y-99060000D03*
%TO.P,MuxCh1_32,1*%
%TO.N,+3V3*%
%TA.AperFunction,ComponentPad*%
G36*
G01*
X132500000Y-99785000D02*
X132500000Y-98335000D01*
G75*
G02*
X132750000Y-98085000I250000J0D01*
G01*
X133950000Y-98085000D01*
G75*
G02*
X134200000Y-98335000I0J-250000D01*
G01*
X134200000Y-99785000D01*
G75*
G02*
X133950000Y-100035000I-250000J0D01*
G01*
X132750000Y-100035000D01*
G75*
G02*
X132500000Y-99785000I0J250000D01*
G01*
G37*
%TD.AperFunction*%
%TD*%
%TO.P,MuxCh1_33,1*%
%TO.N,+3V3*%
%TA.AperFunction,ComponentPad*%
G36*
G01*
X166790000Y-19775000D02*
X166790000Y-18325000D01*
G75*
G02*
X167040000Y-18075000I250000J0D01*
G01*
X168240000Y-18075000D01*
G75*
G02*
X168490000Y-18325000I0J-250000D01*
G01*
X168490000Y-19775000D01*
G75*
G02*
X168240000Y-20025000I-250000J0D01*
G01*
X167040000Y-20025000D01*
G75*
G02*
X166790000Y-19775000I0J250000D01*
G01*
G37*
%TD.AperFunction*%
%TO.P,MuxCh1_33,2*%
%TO.N,Net-(MuxCh1_33-Pad2)*%
X170140000Y-19050000D03*
%TO.P,MuxCh1_33,3*%
%TO.N,GND*%
X172640000Y-19050000D03*
%TD*%
%TO.P,MuxCh1_34,3*%
%TO.N,GND*%
X172640000Y-27940000D03*
%TO.P,MuxCh1_34,2*%
%TO.N,Net-(MuxCh1_34-Pad2)*%
X170140000Y-27940000D03*
%TO.P,MuxCh1_34,1*%
%TO.N,+3V3*%
%TA.AperFunction,ComponentPad*%
G36*
G01*
X166790000Y-28665000D02*
X166790000Y-27215000D01*
G75*
G02*
X167040000Y-26965000I250000J0D01*
G01*
X168240000Y-26965000D01*
G75*
G02*
X168490000Y-27215000I0J-250000D01*
G01*
X168490000Y-28665000D01*
G75*
G02*
X168240000Y-28915000I-250000J0D01*
G01*
X167040000Y-28915000D01*
G75*
G02*
X166790000Y-28665000I0J250000D01*
G01*
G37*
%TD.AperFunction*%
%TD*%
%TO.P,MuxCh1_35,1*%
%TO.N,+3V3*%
%TA.AperFunction,ComponentPad*%
G36*
G01*
X166790000Y-37555000D02*
X166790000Y-36105000D01*
G75*
G02*
X167040000Y-35855000I250000J0D01*
G01*
X168240000Y-35855000D01*
G75*
G02*
X168490000Y-36105000I0J-250000D01*
G01*
X168490000Y-37555000D01*
G75*
G02*
X168240000Y-37805000I-250000J0D01*
G01*
X167040000Y-37805000D01*
G75*
G02*
X166790000Y-37555000I0J250000D01*
G01*
G37*
%TD.AperFunction*%
%TO.P,MuxCh1_35,2*%
%TO.N,Net-(MuxCh1_35-Pad2)*%
X170140000Y-36830000D03*
%TO.P,MuxCh1_35,3*%
%TO.N,GND*%
X172640000Y-36830000D03*
%TD*%
%TO.P,MuxCh1_36,1*%
%TO.N,+3V3*%
%TA.AperFunction,ComponentPad*%
G36*
G01*
X166790000Y-46445000D02*
X166790000Y-44995000D01*
G75*
G02*
X167040000Y-44745000I250000J0D01*
G01*
X168240000Y-44745000D01*
G75*
G02*
X168490000Y-44995000I0J-250000D01*
G01*
X168490000Y-46445000D01*
G75*
G02*
X168240000Y-46695000I-250000J0D01*
G01*
X167040000Y-46695000D01*
G75*
G02*
X166790000Y-46445000I0J250000D01*
G01*
G37*
%TD.AperFunction*%
%TO.P,MuxCh1_36,2*%
%TO.N,Net-(MuxCh1_36-Pad2)*%
X170140000Y-45720000D03*
%TO.P,MuxCh1_36,3*%
%TO.N,GND*%
X172640000Y-45720000D03*
%TD*%
%TO.P,MuxCh1_37,3*%
%TO.N,GND*%
X172640000Y-54610000D03*
%TO.P,MuxCh1_37,2*%
%TO.N,Net-(MuxCh1_37-Pad2)*%
X170140000Y-54610000D03*
%TO.P,MuxCh1_37,1*%
%TO.N,+3V3*%
%TA.AperFunction,ComponentPad*%
G36*
G01*
X166790000Y-55335000D02*
X166790000Y-53885000D01*
G75*
G02*
X167040000Y-53635000I250000J0D01*
G01*
X168240000Y-53635000D01*
G75*
G02*
X168490000Y-53885000I0J-250000D01*
G01*
X168490000Y-55335000D01*
G75*
G02*
X168240000Y-55585000I-250000J0D01*
G01*
X167040000Y-55585000D01*
G75*
G02*
X166790000Y-55335000I0J250000D01*
G01*
G37*
%TD.AperFunction*%
%TD*%
%TO.P,MuxCh1_38,1*%
%TO.N,+3V3*%
%TA.AperFunction,ComponentPad*%
G36*
G01*
X166790000Y-64225000D02*
X166790000Y-62775000D01*
G75*
G02*
X167040000Y-62525000I250000J0D01*
G01*
X168240000Y-62525000D01*
G75*
G02*
X168490000Y-62775000I0J-250000D01*
G01*
X168490000Y-64225000D01*
G75*
G02*
X168240000Y-64475000I-250000J0D01*
G01*
X167040000Y-64475000D01*
G75*
G02*
X166790000Y-64225000I0J250000D01*
G01*
G37*
%TD.AperFunction*%
%TO.P,MuxCh1_38,2*%
%TO.N,Net-(MuxCh1_38-Pad2)*%
X170140000Y-63500000D03*
%TO.P,MuxCh1_38,3*%
%TO.N,GND*%
X172640000Y-63500000D03*
%TD*%
%TO.P,MuxCh1_39,3*%
%TO.N,GND*%
X172640000Y-72390000D03*
%TO.P,MuxCh1_39,2*%
%TO.N,Net-(MuxCh1_39-Pad2)*%
X170140000Y-72390000D03*
%TO.P,MuxCh1_39,1*%
%TO.N,+3V3*%
%TA.AperFunction,ComponentPad*%
G36*
G01*
X166790000Y-73115000D02*
X166790000Y-71665000D01*
G75*
G02*
X167040000Y-71415000I250000J0D01*
G01*
X168240000Y-71415000D01*
G75*
G02*
X168490000Y-71665000I0J-250000D01*
G01*
X168490000Y-73115000D01*
G75*
G02*
X168240000Y-73365000I-250000J0D01*
G01*
X167040000Y-73365000D01*
G75*
G02*
X166790000Y-73115000I0J250000D01*
G01*
G37*
%TD.AperFunction*%
%TD*%
%TO.P,MuxCh1_40,3*%
%TO.N,GND*%
X172640000Y-81280000D03*
%TO.P,MuxCh1_40,2*%
%TO.N,Net-(MuxCh1_40-Pad2)*%
X170140000Y-81280000D03*
%TO.P,MuxCh1_40,1*%
%TO.N,+3V3*%
%TA.AperFunction,ComponentPad*%
G36*
G01*
X166790000Y-82005000D02*
X166790000Y-80555000D01*
G75*
G02*
X167040000Y-80305000I250000J0D01*
G01*
X168240000Y-80305000D01*
G75*
G02*
X168490000Y-80555000I0J-250000D01*
G01*
X168490000Y-82005000D01*
G75*
G02*
X168240000Y-82255000I-250000J0D01*
G01*
X167040000Y-82255000D01*
G75*
G02*
X166790000Y-82005000I0J250000D01*
G01*
G37*
%TD.AperFunction*%
%TD*%
D11*
%TO.P,R1,2*%
%TO.N,GND*%
X106680000Y-256540000D03*
D10*
%TO.P,R1,1*%
%TO.N,Net-(FX-BTNs1-Pad13)*%
X96520000Y-256540000D03*
%TD*%
D11*
%TO.P,R3,2*%
%TO.N,GND*%
X58420000Y-273050000D03*
D10*
%TO.P,R3,1*%
%TO.N,Net-(FX-BTNs1-Pad15)*%
X58420000Y-262890000D03*
%TD*%
%TO.P,R4,1*%
%TO.N,Net-(FX-BTNs1-Pad12)*%
X54610000Y-262890000D03*
D11*
%TO.P,R4,2*%
%TO.N,GND*%
X54610000Y-273050000D03*
%TD*%
%TO.P,R5,2*%
%TO.N,GND*%
X50800000Y-262890000D03*
D10*
%TO.P,R5,1*%
%TO.N,Net-(FX-BTNs1-Pad1)*%
X50800000Y-273050000D03*
%TD*%
%TO.P,R6,1*%
%TO.N,Net-(FX-BTNs1-Pad5)*%
X97790000Y-270510000D03*
D11*
%TO.P,R6,2*%
%TO.N,GND*%
X107950000Y-270510000D03*
%TD*%
%TO.P,R7,2*%
%TO.N,GND*%
X67310000Y-279400000D03*
D10*
%TO.P,R7,1*%
%TO.N,Net-(FX-BTNs1-Pad2)*%
X77470000Y-279400000D03*
%TD*%
%TO.P,R8,1*%
%TO.N,Net-(FX-BTNs1-Pad4)*%
X82550000Y-279400000D03*
D11*
%TO.P,R8,2*%
%TO.N,GND*%
X92710000Y-279400000D03*
%TD*%
D10*
%TO.P,R9,1*%
%TO.N,Net-(MuxCh1-Pad13)*%
X44450000Y-100330000D03*
D11*
%TO.P,R9,2*%
%TO.N,GND*%
X54610000Y-100330000D03*
%TD*%
D10*
%TO.P,R10,1*%
%TO.N,Net-(MuxCh1-Pad14)*%
X45720000Y-95250000D03*
D11*
%TO.P,R10,2*%
%TO.N,GND*%
X45720000Y-85090000D03*
%TD*%
D10*
%TO.P,R11,1*%
%TO.N,Net-(MuxCh1-Pad15)*%
X49530000Y-82550000D03*
D11*
%TO.P,R11,2*%
%TO.N,GND*%
X49530000Y-92710000D03*
%TD*%
%TO.P,R12,2*%
%TO.N,GND*%
X53340000Y-90170000D03*
D10*
%TO.P,R12,1*%
%TO.N,Net-(MuxCh1-Pad12)*%
X53340000Y-80010000D03*
%TD*%
D11*
%TO.P,R14,2*%
%TO.N,GND*%
X55880000Y-76200000D03*
D10*
%TO.P,R14,1*%
%TO.N,Net-(MuxCh1-Pad5)*%
X45720000Y-76200000D03*
%TD*%
%TO.P,R15,1*%
%TO.N,Net-(MuxCh1-Pad2)*%
X19050000Y-95250000D03*
D11*
%TO.P,R15,2*%
%TO.N,GND*%
X19050000Y-105410000D03*
%TD*%
%TO.P,R16,2*%
%TO.N,GND*%
X19050000Y-77470000D03*
D10*
%TO.P,R16,1*%
%TO.N,Net-(MuxCh1-Pad4)*%
X19050000Y-87630000D03*
%TD*%
%TO.P,R17,1*%
%TO.N,mux_encBtn_fx*%
X104140000Y-243840000D03*
D11*
%TO.P,R17,2*%
%TO.N,GND*%
X93980000Y-243840000D03*
%TD*%
D10*
%TO.P,R18,1*%
%TO.N,Net-(R18-Pad1)*%
X22860000Y-151130000D03*
D11*
%TO.P,R18,2*%
%TO.N,pfl_led_ch1*%
X22860000Y-140970000D03*
%TD*%
%TO.P,R19,2*%
%TO.N,GND*%
X57150000Y-222250000D03*
D10*
%TO.P,R19,1*%
%TO.N,mux_selBtn_fx*%
X67310000Y-222250000D03*
%TD*%
%TO.P,R20,1*%
%TO.N,pin28*%
X119380000Y-243840000D03*
D11*
%TO.P,R20,2*%
%TO.N,GND*%
X109220000Y-243840000D03*
%TD*%
%TO.P,R21,2*%
%TO.N,GND*%
X132080000Y-243840000D03*
D10*
%TO.P,R21,1*%
%TO.N,pin29*%
X121920000Y-243840000D03*
%TD*%
D11*
%TO.P,R22,2*%
%TO.N,GND*%
X82550000Y-118110000D03*
D10*
%TO.P,R22,1*%
%TO.N,Net-(MuxCh1_9-Pad2)*%
X72390000Y-118110000D03*
%TD*%
%TO.P,R23,1*%
%TO.N,Net-(MuxCh1_10-Pad2)*%
X88900000Y-115570000D03*
D11*
%TO.P,R23,2*%
%TO.N,GND*%
X88900000Y-105410000D03*
%TD*%
%TO.P,R24,2*%
%TO.N,GND*%
X85090000Y-100330000D03*
D10*
%TO.P,R24,1*%
%TO.N,Net-(MuxCh1_11-Pad2)*%
X85090000Y-110490000D03*
%TD*%
D11*
%TO.P,R25,2*%
%TO.N,GND*%
X81280000Y-93980000D03*
D10*
%TO.P,R25,1*%
%TO.N,Net-(MuxCh1_12-Pad2)*%
X81280000Y-104140000D03*
%TD*%
%TO.P,R26,1*%
%TO.N,Net-(MuxCh1_13-Pad2)*%
X53340000Y-107950000D03*
D11*
%TO.P,R26,2*%
%TO.N,GND*%
X43180000Y-107950000D03*
%TD*%
%TO.P,R27,2*%
%TO.N,GND*%
X81280000Y-81280000D03*
D10*
%TO.P,R27,1*%
%TO.N,Net-(MuxCh1_14-Pad2)*%
X81280000Y-91440000D03*
%TD*%
%TO.P,R28,1*%
%TO.N,Net-(MuxCh1_15-Pad2)*%
X53340000Y-111760000D03*
D11*
%TO.P,R28,2*%
%TO.N,GND*%
X43180000Y-111760000D03*
%TD*%
%TO.P,R29,2*%
%TO.N,GND*%
X43180000Y-104140000D03*
D10*
%TO.P,R29,1*%
%TO.N,Net-(MuxCh1_16-Pad2)*%
X53340000Y-104140000D03*
%TD*%
D11*
%TO.P,R30,2*%
%TO.N,Net-(R30-Pad2)*%
X167640000Y-152400000D03*
D10*
%TO.P,R30,1*%
%TO.N,pfl_led_master*%
X167640000Y-142240000D03*
%TD*%
%TO.P,R31,1*%
%TO.N,pfl_led_ch4*%
X130810000Y-148590000D03*
D11*
%TO.P,R31,2*%
%TO.N,Net-(R31-Pad2)*%
X120650000Y-148590000D03*
%TD*%
D10*
%TO.P,R32,1*%
%TO.N,pfl_led_ch3*%
X92710000Y-140970000D03*
D11*
%TO.P,R32,2*%
%TO.N,Net-(R32-Pad2)*%
X92710000Y-151130000D03*
%TD*%
D10*
%TO.P,R33,1*%
%TO.N,pfl_led_ch2*%
X55880000Y-140970000D03*
D11*
%TO.P,R33,2*%
%TO.N,Net-(R33-Pad2)*%
X55880000Y-151130000D03*
%TD*%
%TO.P,R34,2*%
%TO.N,GND*%
X64770000Y-180340000D03*
D10*
%TO.P,R34,1*%
%TO.N,mux_master*%
X74930000Y-180340000D03*
%TD*%
%TO.P,R35,1*%
%TO.N,mux_ch4*%
X74930000Y-176530000D03*
D11*
%TO.P,R35,2*%
%TO.N,GND*%
X64770000Y-176530000D03*
%TD*%
D10*
%TO.P,R36,1*%
%TO.N,mux_ch3*%
X74930000Y-172720000D03*
D11*
%TO.P,R36,2*%
%TO.N,GND*%
X64770000Y-172720000D03*
%TD*%
%TO.P,R37,2*%
%TO.N,GND*%
X64770000Y-168910000D03*
D10*
%TO.P,R37,1*%
%TO.N,mux_ch2*%
X74930000Y-168910000D03*
%TD*%
D11*
%TO.P,R38,2*%
%TO.N,GND*%
X64770000Y-165100000D03*
D10*
%TO.P,R38,1*%
%TO.N,mux_ch1*%
X74930000Y-165100000D03*
%TD*%
D11*
%TO.P,R39,2*%
%TO.N,GND*%
X92710000Y-172720000D03*
D10*
%TO.P,R39,1*%
%TO.N,pfl_btn_master*%
X102870000Y-172720000D03*
%TD*%
%TO.P,R40,1*%
%TO.N,pfl_btn_ch4*%
X102870000Y-168910000D03*
D11*
%TO.P,R40,2*%
%TO.N,GND*%
X92710000Y-168910000D03*
%TD*%
%TO.P,R41,2*%
%TO.N,GND*%
X92710000Y-158750000D03*
D10*
%TO.P,R41,1*%
%TO.N,pfl_btn_ch3*%
X102870000Y-158750000D03*
%TD*%
%TO.P,R42,1*%
%TO.N,pfl_btn_ch2*%
X102870000Y-180340000D03*
D11*
%TO.P,R42,2*%
%TO.N,GND*%
X92710000Y-180340000D03*
%TD*%
%TO.P,R43,2*%
%TO.N,GND*%
X92710000Y-176530000D03*
D10*
%TO.P,R43,1*%
%TO.N,pfl_btn_ch1*%
X102870000Y-176530000D03*
%TD*%
%TO.P,R44,1*%
%TO.N,Net-(MuxCh1_17-Pad2)*%
X114300000Y-100330000D03*
D11*
%TO.P,R44,2*%
%TO.N,GND*%
X124460000Y-100330000D03*
%TD*%
%TO.P,R45,2*%
%TO.N,GND*%
X125730000Y-85090000D03*
D10*
%TO.P,R45,1*%
%TO.N,Net-(MuxCh1_18-Pad2)*%
X125730000Y-95250000D03*
%TD*%
%TO.P,R46,1*%
%TO.N,Net-(MuxCh1_19-Pad2)*%
X121920000Y-92710000D03*
D11*
%TO.P,R46,2*%
%TO.N,GND*%
X121920000Y-82550000D03*
%TD*%
%TO.P,R47,2*%
%TO.N,GND*%
X118110000Y-77470000D03*
D10*
%TO.P,R47,1*%
%TO.N,Net-(MuxCh1_20-Pad2)*%
X118110000Y-87630000D03*
%TD*%
D11*
%TO.P,R48,2*%
%TO.N,GND*%
X86360000Y-77470000D03*
D10*
%TO.P,R48,1*%
%TO.N,Net-(MuxCh1_21-Pad2)*%
X86360000Y-87630000D03*
%TD*%
%TO.P,R49,1*%
%TO.N,Net-(MuxCh1_22-Pad2)*%
X116840000Y-73660000D03*
D11*
%TO.P,R49,2*%
%TO.N,GND*%
X127000000Y-73660000D03*
%TD*%
D10*
%TO.P,R50,1*%
%TO.N,Net-(MuxCh1_23-Pad2)*%
X88900000Y-92710000D03*
D11*
%TO.P,R50,2*%
%TO.N,GND*%
X88900000Y-102870000D03*
%TD*%
%TO.P,R51,2*%
%TO.N,GND*%
X90170000Y-77470000D03*
D10*
%TO.P,R51,1*%
%TO.N,Net-(MuxCh1_24-Pad2)*%
X90170000Y-87630000D03*
%TD*%
D11*
%TO.P,R52,2*%
%TO.N,GND*%
X152400000Y-118110000D03*
D10*
%TO.P,R52,1*%
%TO.N,Net-(MuxCh1_25-Pad2)*%
X142240000Y-118110000D03*
%TD*%
%TO.P,R53,1*%
%TO.N,Net-(MuxCh1_26-Pad2)*%
X156210000Y-113030000D03*
D11*
%TO.P,R53,2*%
%TO.N,GND*%
X156210000Y-123190000D03*
%TD*%
D10*
%TO.P,R54,1*%
%TO.N,Net-(MuxCh1_27-Pad2)*%
X156210000Y-110490000D03*
D11*
%TO.P,R54,2*%
%TO.N,GND*%
X156210000Y-100330000D03*
%TD*%
%TO.P,R55,2*%
%TO.N,GND*%
X152400000Y-93980000D03*
D10*
%TO.P,R55,1*%
%TO.N,Net-(MuxCh1_28-Pad2)*%
X152400000Y-104140000D03*
%TD*%
%TO.P,R56,1*%
%TO.N,Net-(MuxCh1_29-Pad2)*%
X124460000Y-107950000D03*
D11*
%TO.P,R56,2*%
%TO.N,GND*%
X114300000Y-107950000D03*
%TD*%
%TO.P,R57,2*%
%TO.N,GND*%
X152400000Y-81280000D03*
D10*
%TO.P,R57,1*%
%TO.N,Net-(MuxCh1_30-Pad2)*%
X152400000Y-91440000D03*
%TD*%
D11*
%TO.P,R58,2*%
%TO.N,GND*%
X114300000Y-111760000D03*
D10*
%TO.P,R58,1*%
%TO.N,Net-(MuxCh1_31-Pad2)*%
X124460000Y-111760000D03*
%TD*%
%TO.P,R59,1*%
%TO.N,Net-(MuxCh1_32-Pad2)*%
X124460000Y-104140000D03*
D11*
%TO.P,R59,2*%
%TO.N,GND*%
X114300000Y-104140000D03*
%TD*%
D10*
%TO.P,R60,1*%
%TO.N,Net-(MuxCh1_33-Pad2)*%
X176530000Y-100330000D03*
D11*
%TO.P,R60,2*%
%TO.N,GND*%
X186690000Y-100330000D03*
%TD*%
%TO.P,R61,2*%
%TO.N,GND*%
X190500000Y-105410000D03*
D10*
%TO.P,R61,1*%
%TO.N,Net-(MuxCh1_34-Pad2)*%
X190500000Y-95250000D03*
%TD*%
%TO.P,R62,1*%
%TO.N,Net-(MuxCh1_35-Pad2)*%
X194310000Y-92710000D03*
D11*
%TO.P,R62,2*%
%TO.N,GND*%
X194310000Y-102870000D03*
%TD*%
%TO.P,R63,2*%
%TO.N,GND*%
X190500000Y-76200000D03*
D10*
%TO.P,R63,1*%
%TO.N,Net-(MuxCh1_36-Pad2)*%
X190500000Y-86360000D03*
%TD*%
%TO.P,R64,1*%
%TO.N,Net-(MuxCh1_37-Pad2)*%
X156210000Y-86360000D03*
D11*
%TO.P,R64,2*%
%TO.N,GND*%
X156210000Y-76200000D03*
%TD*%
%TO.P,R65,2*%
%TO.N,GND*%
X186690000Y-72390000D03*
D10*
%TO.P,R65,1*%
%TO.N,Net-(MuxCh1_38-Pad2)*%
X186690000Y-82550000D03*
%TD*%
%TO.P,R66,1*%
%TO.N,Net-(MuxCh1_39-Pad2)*%
X160020000Y-91440000D03*
D11*
%TO.P,R66,2*%
%TO.N,GND*%
X160020000Y-101600000D03*
%TD*%
%TO.P,R67,2*%
%TO.N,GND*%
X160020000Y-76200000D03*
D10*
%TO.P,R67,1*%
%TO.N,Net-(MuxCh1_40-Pad2)*%
X160020000Y-86360000D03*
%TD*%
%TO.P,C2,2*%
%TO.N,GND*%
X147320000Y-177840000D03*
D12*
%TO.P,C2,1*%
%TO.N,+3V3*%
X147320000Y-180340000D03*
%TD*%
%TO.P,C3,1*%
%TO.N,GND*%
X156210000Y-219710000D03*
D10*
%TO.P,C3,2*%
%TO.N,Net-(3.3V_Test1-Pad1)*%
X153710000Y-219710000D03*
%TD*%
D12*
%TO.P,C4,1*%
%TO.N,GND*%
X38100000Y-91440000D03*
D10*
%TO.P,C4,2*%
%TO.N,+3V3*%
X35600000Y-91440000D03*
%TD*%
%TO.P,C5,2*%
%TO.N,+3V3*%
X34330000Y-173990000D03*
D12*
%TO.P,C5,1*%
%TO.N,GND*%
X36830000Y-173990000D03*
%TD*%
D10*
%TO.P,C6,2*%
%TO.N,+3V3*%
X71160000Y-107950000D03*
D12*
%TO.P,C6,1*%
%TO.N,GND*%
X73660000Y-107950000D03*
%TD*%
%TO.P,C7,1*%
%TO.N,GND*%
X27940000Y-166370000D03*
D10*
%TO.P,C7,2*%
%TO.N,+3V3*%
X27940000Y-168870000D03*
%TD*%
D12*
%TO.P,C8,1*%
%TO.N,GND*%
X109220000Y-91440000D03*
D10*
%TO.P,C8,2*%
%TO.N,+3V3*%
X106720000Y-91440000D03*
%TD*%
%TO.P,C9,2*%
%TO.N,+3V3*%
X142280000Y-107950000D03*
D12*
%TO.P,C9,1*%
%TO.N,GND*%
X144780000Y-107950000D03*
%TD*%
%TO.P,C10,1*%
%TO.N,GND*%
X179070000Y-90170000D03*
D10*
%TO.P,C10,2*%
%TO.N,+3V3*%
X176570000Y-90170000D03*
%TD*%
D15*
%TO.P,3.3V_Test1,2*%
%TO.N,+3V3*%
X147320000Y-217210000D03*
%TO.P,3.3V_Test1,1*%
%TO.N,Net-(3.3V_Test1-Pad1)*%
%TA.AperFunction,ComponentPad*%
G36*
G01*
X148070000Y-220560000D02*
X146570000Y-220560000D01*
G75*
G02*
X146320000Y-220310000I0J250000D01*
G01*
X146320000Y-219110000D01*
G75*
G02*
X146570000Y-218860000I250000J0D01*
G01*
X148070000Y-218860000D01*
G75*
G02*
X148320000Y-219110000I0J-250000D01*
G01*
X148320000Y-220310000D01*
G75*
G02*
X148070000Y-220560000I-250000J0D01*
G01*
G37*
%TD.AperFunction*%
%TD*%
%TO.P,3.3V_Test2,1*%
%TO.N,Net-(3.3V_Test2-Pad1)*%
%TA.AperFunction,ComponentPad*%
G36*
G01*
X28690000Y-179920000D02*
X27190000Y-179920000D01*
G75*
G02*
X26940000Y-179670000I0J250000D01*
G01*
X26940000Y-178470000D01*
G75*
G02*
X27190000Y-178220000I250000J0D01*
G01*
X28690000Y-178220000D01*
G75*
G02*
X28940000Y-178470000I0J-250000D01*
G01*
X28940000Y-179670000D01*
G75*
G02*
X28690000Y-179920000I-250000J0D01*
G01*
G37*
%TD.AperFunction*%
%TO.P,3.3V_Test2,2*%
%TO.N,+3V3*%
X27940000Y-176570000D03*
%TD*%
%TO.P,3.3V_In1,1*%
%TO.N,+3V3*%
%TA.AperFunction,ComponentPad*%
G36*
G01*
X159270000Y-187110000D02*
X160770000Y-187110000D01*
G75*
G02*
X161020000Y-187360000I0J-250000D01*
G01*
X161020000Y-188560000D01*
G75*
G02*
X160770000Y-188810000I-250000J0D01*
G01*
X159270000Y-188810000D01*
G75*
G02*
X159020000Y-188560000I0J250000D01*
G01*
X159020000Y-187360000D01*
G75*
G02*
X159270000Y-187110000I250000J0D01*
G01*
G37*
%TD.AperFunction*%
%TO.P,3.3V_In1,2*%
%TO.N,GND*%
X160020000Y-190460000D03*
%TD*%
D12*
%TO.P,C11,1*%
%TO.N,GND*%
X68580000Y-262890000D03*
D10*
%TO.P,C11,2*%
%TO.N,+3V3*%
X71080000Y-262890000D03*
%TD*%
%TO.P,C12,2*%
%TO.N,+3V3*%
X132040000Y-256540000D03*
D12*
%TO.P,C12,1*%
%TO.N,GND*%
X129540000Y-256540000D03*
%TD*%
D19*
%TO.N,Net-(FX-BTNs1-Pad1)*%
X74930000Y-275590000D03*
X39370000Y-275590000D03*
X50800000Y-275590000D03*
%TO.N,s2*%
X146050000Y-135890000D03*
X135890000Y-135890000D03*
X104140000Y-135890000D03*
X68580000Y-135890000D03*
X33020000Y-135890000D03*
X135890000Y-246380000D03*
X135890000Y-218440000D03*
X92710000Y-246380000D03*
X173990000Y-135890000D03*
%TO.N,Net-(FX-BTNs1-Pad2)*%
X77470000Y-274320000D03*
X119380000Y-274320000D03*
%TO.N,s1*%
X138430000Y-133350000D03*
X148590000Y-133350000D03*
X107950000Y-133350000D03*
X72390000Y-133350000D03*
X36830000Y-133350000D03*
X138430000Y-247650000D03*
X138430000Y-222250000D03*
X90170000Y-247650000D03*
X177800000Y-133350000D03*
%TO.N,mux_selBtn_fx*%
X71120000Y-222250000D03*
X116840000Y-222250000D03*
X80010000Y-273050000D03*
X64770000Y-273050000D03*
%TO.N,s0*%
X151130000Y-130810000D03*
X140970000Y-130810000D03*
X111760000Y-130810000D03*
X74930000Y-130810000D03*
X40640000Y-130810000D03*
X140970000Y-248920000D03*
X140970000Y-224790000D03*
X87630000Y-248920000D03*
X180340000Y-130810000D03*
%TO.N,Net-(FX-BTNs1-Pad4)*%
X82550000Y-275590000D03*
X128270000Y-275590000D03*
%TO.N,Net-(FX-BTNs1-Pad12)*%
X85090000Y-257810000D03*
X59690000Y-257810000D03*
%TO.N,Net-(FX-BTNs1-Pad5)*%
X110490000Y-273050000D03*
X97790000Y-273050000D03*
%TO.N,Net-(FX-BTNs1-Pad13)*%
X82550000Y-256540000D03*
X96520000Y-265430000D03*
%TO.N,Net-(FX-BTNs1-Pad14)*%
X80010000Y-256540000D03*
X48260000Y-256540000D03*
X62230000Y-256540000D03*
%TO.N,Net-(FX-BTNs1-Pad15)*%
X77470000Y-259080000D03*
X57150000Y-259080000D03*
%TO.N,mux_encBtn_fx*%
X104140000Y-254000000D03*
X140970000Y-270510000D03*
%TO.N,vu_clk*%
X101600000Y-198120000D03*
%TO.N,vu_cs*%
X99060000Y-195580000D03*
%TO.N,vu_din*%
X91440000Y-193040000D03*
%TO.N,display_sda2*%
X111760000Y-231140000D03*
%TO.N,display_scl2*%
X109220000Y-229870000D03*
%TO.N,display_scl1*%
X35560000Y-213360000D03*
X35560000Y-195580000D03*
X96520000Y-195580000D03*
%TO.N,display_sda1*%
X93980000Y-198120000D03*
X38100000Y-198120000D03*
X38100000Y-215900000D03*
%TO.N,neopixel*%
X104140000Y-200660000D03*
%TO.N,pfl_btn_master*%
X182880000Y-166370000D03*
X119380000Y-166370000D03*
X119380000Y-172720000D03*
%TO.N,pfl_btn_ch4*%
X121920000Y-161290000D03*
X121920000Y-168910000D03*
X148590000Y-161290000D03*
%TO.N,pfl_btn_ch3*%
X107950000Y-158750000D03*
X124460000Y-158750000D03*
%TO.N,pfl_btn_ch2*%
X59690000Y-184150000D03*
X127000000Y-184150000D03*
X127000000Y-180340000D03*
%TO.N,pfl_btn_ch1*%
X129540000Y-189230000D03*
X39370000Y-189230000D03*
X129540000Y-176530000D03*
%TO.N,rEnc0_DT*%
X73660000Y-231140000D03*
%TO.N,rEnc0_clk*%
X76200000Y-226060000D03*
%TO.N,rEnc1_DT*%
X78740000Y-248920000D03*
%TO.N,rEnc1_clk*%
X81280000Y-246380000D03*
%TO.N,rEnc2_clk*%
X86360000Y-252730000D03*
%TO.N,rEnc2_DT*%
X83820000Y-254000000D03*
%TO.N,rEnc3_DT*%
X88900000Y-233680000D03*
%TO.N,rEnc3_clk*%
X91440000Y-232410000D03*
%TO.N,rEnc4_clk*%
X96520000Y-236220000D03*
%TO.N,rEnc4_DT*%
X93980000Y-237490000D03*
%TO.N,rEnc5_DT*%
X99060000Y-241300000D03*
%TO.N,rEnc5_clk*%
X101600000Y-240030000D03*
%TO.N,pin28*%
X119380000Y-227330000D03*
%TO.N,pin29*%
X121920000Y-228600000D03*
%TO.N,mux_ch1*%
X21590000Y-128270000D03*
X46990000Y-128270000D03*
X88900000Y-161290000D03*
X46990000Y-161290000D03*
X88900000Y-165100000D03*
%TO.N,mux_ch2*%
X86360000Y-158750000D03*
X49530000Y-158750000D03*
X86360000Y-168910000D03*
%TO.N,mux_ch3*%
X83820000Y-172720000D03*
%TO.N,mux_ch4*%
X81280000Y-156210000D03*
X81280000Y-176530000D03*
X116840000Y-156210000D03*
%TO.N,mux_master*%
X78740000Y-153670000D03*
X162560000Y-153670000D03*
X78740000Y-180340000D03*
%TO.N,Net-(fx1_enc1-Pad3)*%
X34290000Y-250190000D03*
X143510000Y-250190000D03*
%TO.N,Net-(fx1_enc2-Pad3)*%
X140970000Y-251460000D03*
%TO.N,Net-(fx2_enc1-Pad3)*%
X146050000Y-234950000D03*
%TO.N,Net-(fx2_enc2-Pad3)*%
X156210000Y-238760000D03*
X156210000Y-266700000D03*
X135890000Y-266700000D03*
%TO.N,Net-(fx2_enc3-Pad3)*%
X146050000Y-269240000D03*
%TO.N,Net-(MuxCh1-Pad1)*%
X21590000Y-91440000D03*
%TO.N,Net-(MuxCh1-Pad2)*%
X22860000Y-93980000D03*
X22860000Y-93980000D03*
%TO.N,Net-(MuxCh1-Pad4)*%
X27940000Y-87630000D03*
%TO.N,Net-(MuxCh1-Pad12)*%
X36830000Y-80010000D03*
%TO.N,Net-(MuxCh1-Pad5)*%
X35560000Y-76200000D03*
%TO.N,Net-(MuxCh1-Pad13)*%
X39370000Y-99060000D03*
%TO.N,Net-(MuxCh1-Pad14)*%
X41910000Y-95250000D03*
%TO.N,Net-(MuxCh1-Pad15)*%
X40640000Y-82550000D03*
%TO.N,Net-(MuxCh1_11-Pad2)*%
X76200000Y-110490000D03*
%TO.N,Net-(MuxCh1_10-Pad2)*%
X76200000Y-113030000D03*
%TO.N,Net-(MuxCh1_9-Pad2)*%
X72390000Y-115570000D03*
%TO.N,Net-(MuxCh1_14-Pad2)*%
X71120000Y-95250000D03*
%TO.N,Net-(MuxCh1_12-Pad2)*%
X72390000Y-104140000D03*
%TO.N,Net-(MuxCh1_16-Pad2)*%
X63500000Y-104140000D03*
%TO.N,Net-(MuxCh1_15-Pad2)*%
X58420000Y-110490000D03*
%TO.N,Net-(MuxCh1_13-Pad2)*%
X57150000Y-106680000D03*
%TO.N,Net-(MuxCh1_19-Pad2)*%
X111760000Y-92710000D03*
%TO.N,Net-(MuxCh1_18-Pad2)*%
X113030000Y-95250000D03*
%TO.N,Net-(MuxCh1_17-Pad2)*%
X111760000Y-99060000D03*
%TO.N,Net-(MuxCh1_22-Pad2)*%
X106680000Y-81280000D03*
%TO.N,Net-(MuxCh1_20-Pad2)*%
X107950000Y-87630000D03*
%TO.N,Net-(MuxCh1_24-Pad2)*%
X99060000Y-87630000D03*
%TO.N,Net-(MuxCh1_23-Pad2)*%
X93980000Y-92710000D03*
%TO.N,Net-(MuxCh1_21-Pad2)*%
X92710000Y-90170000D03*
%TO.N,Net-(MuxCh1_29-Pad2)*%
X128270000Y-106680000D03*
%TO.N,Net-(MuxCh1_31-Pad2)*%
X129540000Y-110490000D03*
%TO.N,Net-(MuxCh1_32-Pad2)*%
X134620000Y-104140000D03*
%TO.N,Net-(MuxCh1_28-Pad2)*%
X143510000Y-104140000D03*
%TO.N,Net-(MuxCh1_30-Pad2)*%
X142240000Y-96520000D03*
%TO.N,Net-(MuxCh1_25-Pad2)*%
X142240000Y-115570000D03*
%TO.N,Net-(MuxCh1_26-Pad2)*%
X147320000Y-113030000D03*
%TO.N,Net-(MuxCh1_27-Pad2)*%
X147320000Y-110490000D03*
%TO.N,Net-(MuxCh1_37-Pad2)*%
X162560000Y-88900000D03*
%TO.N,Net-(MuxCh1_39-Pad2)*%
X163830000Y-91440000D03*
%TO.N,Net-(MuxCh1_40-Pad2)*%
X168910000Y-86360000D03*
%TO.N,Net-(MuxCh1_36-Pad2)*%
X177800000Y-86360000D03*
%TO.N,Net-(MuxCh1_38-Pad2)*%
X176530000Y-82550000D03*
%TO.N,Net-(MuxCh1_33-Pad2)*%
X176530000Y-97790000D03*
%TO.N,Net-(MuxCh1_34-Pad2)*%
X181610000Y-95250000D03*
%TO.N,Net-(MuxCh1_35-Pad2)*%
X181610000Y-92710000D03*
%TO.N,Net-(R18-Pad1)*%
X41910000Y-228600000D03*
X114300000Y-228600000D03*
X41910000Y-151130000D03*
%TO.N,Net-(R30-Pad2)*%
X167640000Y-163830000D03*
X109220000Y-163830000D03*
%TO.N,Net-(R31-Pad2)*%
X111760000Y-148590000D03*
%TO.N,Net-(R32-Pad2)*%
X114300000Y-151130000D03*
%TO.N,Net-(R33-Pad2)*%
X55880000Y-186690000D03*
X116840000Y-186690000D03*
%TO.N,Net-(3.3V_Test1-Pad1)*%
X106680000Y-226060000D03*
%TO.N,Net-(3.3V_Test2-Pad1)*%
X76200000Y-191770000D03*
X35560000Y-191770000D03*
%TD*%
D20*
%TO.N,Net-(FX-BTNs1-Pad1)*%
X74930000Y-274320000D02*
X74930000Y-270510000D01*
X74930000Y-275590000D02*
X74930000Y-270510000D01*
X39370000Y-275590000D02*
X39370000Y-238720000D01*
%TO.N,s2*%
X139700000Y-125730000D02*
X143510000Y-125730000D01*
X146050000Y-128270000D02*
X146050000Y-135890000D01*
X143510000Y-125730000D02*
X146050000Y-128270000D01*
X104140000Y-109220000D02*
X104140000Y-135890000D01*
X68580000Y-125730000D02*
X68580000Y-135890000D01*
X33020000Y-109220000D02*
X33020000Y-135890000D01*
X135890000Y-135890000D02*
X135890000Y-152400000D01*
X135890000Y-152400000D02*
X135890000Y-151130000D01*
X135890000Y-218440000D02*
X135890000Y-246380000D01*
X135890000Y-152400000D02*
X135890000Y-218440000D01*
X92710000Y-262890000D02*
X92710000Y-246380000D01*
X173990000Y-107950000D02*
X173990000Y-135890000D01*
%TO.N,Net-(FX-BTNs1-Pad2)*%
X77470000Y-274320000D02*
X77470000Y-270510000D01*
X77470000Y-274320000D02*
X77470000Y-279400000D01*
X119380000Y-265390000D02*
X119380000Y-274320000D01*
%TO.N,s1*%
X148590000Y-133350000D02*
X148590000Y-124460000D01*
X148590000Y-124460000D02*
X147320000Y-123190000D01*
X147320000Y-123190000D02*
X139700000Y-123190000D01*
X104140000Y-106680000D02*
X106680000Y-106680000D01*
X106680000Y-106680000D02*
X107950000Y-107950000D01*
X107950000Y-107950000D02*
X107950000Y-133350000D01*
X68580000Y-123190000D02*
X71120000Y-123190000D01*
X71120000Y-123190000D02*
X72390000Y-124460000D01*
X72390000Y-124460000D02*
X72390000Y-133350000D01*
X33020000Y-106680000D02*
X35560000Y-106680000D01*
X35560000Y-106680000D02*
X36830000Y-107950000D01*
X36830000Y-107950000D02*
X36830000Y-133350000D01*
X138430000Y-133350000D02*
X138430000Y-151130000D01*
X138430000Y-151130000D02*
X138430000Y-148590000D01*
X138430000Y-220980000D02*
X138430000Y-151130000D01*
X138430000Y-222250000D02*
X138430000Y-247650000D01*
X138430000Y-220980000D02*
X138430000Y-222250000D01*
X90170000Y-262890000D02*
X90170000Y-247650000D01*
X173990000Y-105410000D02*
X176530000Y-105410000D01*
X176530000Y-105410000D02*
X177800000Y-106680000D01*
X177800000Y-106680000D02*
X177800000Y-133350000D01*
%TO.N,mux_selBtn_fx*%
X116840000Y-222250000D02*
X116840000Y-218440000D01*
X80010000Y-270510000D02*
X80010000Y-273050000D01*
X64770000Y-273050000D02*
X64770000Y-248920000D01*
X71120000Y-242570000D02*
X71120000Y-223520000D01*
X64770000Y-248920000D02*
X71120000Y-242570000D01*
X71120000Y-223520000D02*
X71120000Y-222250000D01*
X71120000Y-224790000D02*
X71120000Y-223520000D01*
%TO.N,s0*%
X139700000Y-120650000D02*
X149860000Y-120650000D01*
X149860000Y-120650000D02*
X151130000Y-121920000D01*
X151130000Y-121920000D02*
X151130000Y-130810000D01*
X104140000Y-104140000D02*
X109220000Y-104140000D01*
X109220000Y-104140000D02*
X110490000Y-104140000D01*
X111760000Y-105410000D02*
X111760000Y-130810000D01*
X110490000Y-104140000D02*
X111760000Y-105410000D01*
X68580000Y-120650000D02*
X73660000Y-120650000D01*
X73660000Y-120650000D02*
X74930000Y-121920000D01*
X74930000Y-121920000D02*
X74930000Y-130810000D01*
X40640000Y-105410000D02*
X40640000Y-130810000D01*
X39370000Y-104140000D02*
X40640000Y-105410000D01*
X33020000Y-104140000D02*
X39370000Y-104140000D01*
X140970000Y-130810000D02*
X140970000Y-149860000D01*
X140970000Y-149860000D02*
X140970000Y-223520000D01*
X140970000Y-146050000D02*
X140970000Y-149860000D01*
X140970000Y-223520000D02*
X140970000Y-248920000D01*
X87630000Y-262890000D02*
X87630000Y-248920000D01*
X173990000Y-102870000D02*
X179070000Y-102870000D01*
X179070000Y-102870000D02*
X180340000Y-104140000D01*
X180340000Y-104140000D02*
X180340000Y-130810000D01*
%TO.N,Net-(FX-BTNs1-Pad4)*%
X82550000Y-275590000D02*
X82550000Y-270510000D01*
X82550000Y-275590000D02*
X82550000Y-279400000D01*
X128270000Y-265390000D02*
X128270000Y-275590000D01*
%TO.N,Net-(FX-BTNs1-Pad12)*%
X85090000Y-257810000D02*
X85090000Y-262890000D01*
X64770000Y-243840000D02*
X66040000Y-242570000D01*
X66040000Y-242570000D02*
X66040000Y-238720000D01*
X59690000Y-245110000D02*
X60960000Y-243840000D01*
X60960000Y-243840000D02*
X64770000Y-243840000D01*
X59690000Y-245110000D02*
X59690000Y-257810000D01*
%TO.N,Net-(FX-BTNs1-Pad5)*%
X110490000Y-265390000D02*
X110490000Y-273050000D01*
%TO.N,Net-(FX-BTNs1-Pad13)*%
X82550000Y-256540000D02*
X82550000Y-262890000D01*
X96520000Y-265430000D02*
X96520000Y-256540000D01*
%TO.N,Net-(FX-BTNs1-Pad14)*%
X80010000Y-261620000D02*
X80010000Y-262890000D01*
X80010000Y-256540000D02*
X80010000Y-262890000D01*
X48260000Y-256540000D02*
X48260000Y-238720000D01*
X62230000Y-262890000D02*
X62230000Y-256540000D01*
%TO.N,Net-(FX-BTNs1-Pad15)*%
X77470000Y-259080000D02*
X77470000Y-262890000D01*
X57150000Y-259080000D02*
X57150000Y-238720000D01*
X58420000Y-262890000D02*
X58420000Y-260350000D01*
X58420000Y-260350000D02*
X57150000Y-259080000D01*
%TO.N,+3V3*%
X27940000Y-189230000D02*
X27940000Y-198200000D01*
%TO.N,mux_encBtn_fx*%
X104140000Y-243840000D02*
X104140000Y-218440000D01*
X104140000Y-254000000D02*
X104140000Y-243840000D01*
X140970000Y-262890000D02*
X140970000Y-270510000D01*
%TO.N,vu_clk*%
X101600000Y-198120000D02*
X101600000Y-203200000D01*
%TO.N,vu_cs*%
X99060000Y-195580000D02*
X99060000Y-203200000D01*
%TO.N,vu_din*%
X91440000Y-203200000D02*
X91440000Y-200660000D01*
X91440000Y-193040000D02*
X91440000Y-203200000D01*
%TO.N,display_sda2*%
X111760000Y-231140000D02*
X111760000Y-218440000D01*
%TO.N,display_scl2*%
X109220000Y-229870000D02*
X109220000Y-218440000D01*
%TO.N,display_scl1*%
X35560000Y-213360000D02*
X35560000Y-195580000D01*
X96520000Y-195580000D02*
X96520000Y-203200000D01*
%TO.N,display_sda1*%
X93980000Y-203200000D02*
X93980000Y-198120000D01*
X38100000Y-215900000D02*
X38100000Y-198120000D01*
%TO.N,neopixel*%
X104140000Y-203200000D02*
X104140000Y-200660000D01*
%TO.N,pfl_led_ch4*%
X130810000Y-142240000D02*
X130810000Y-148590000D01*
%TO.N,pfl_btn_master*%
X182880000Y-144780000D02*
X182880000Y-166370000D01*
X119380000Y-172720000D02*
X119380000Y-203200000D01*
X119380000Y-166370000D02*
X119380000Y-172720000D01*
%TO.N,pfl_btn_ch4*%
X121920000Y-168910000D02*
X121920000Y-203200000D01*
X121920000Y-161290000D02*
X121920000Y-168910000D01*
X148590000Y-142240000D02*
X148590000Y-161290000D01*
%TO.N,pfl_btn_ch3*%
X124644999Y-187775001D02*
X124460000Y-187960000D01*
X107950000Y-143510000D02*
X107950000Y-158750000D01*
X124460000Y-171450000D02*
X124460000Y-203200000D01*
X124460000Y-165100000D02*
X124460000Y-171450000D01*
X124460000Y-158750000D02*
X124460000Y-165100000D01*
%TO.N,pfl_btn_ch2*%
X71120000Y-143510000D02*
X71120000Y-152400000D01*
X71120000Y-152400000D02*
X69850000Y-153670000D01*
X69850000Y-153670000D02*
X60960000Y-153670000D01*
X60960000Y-153670000D02*
X59690000Y-154940000D01*
X59690000Y-154940000D02*
X59690000Y-184150000D01*
X127000000Y-184150000D02*
X127000000Y-203200000D01*
X127000000Y-180340000D02*
X127000000Y-184150000D01*
%TO.N,pfl_btn_ch1*%
X129540000Y-189230000D02*
X129540000Y-203200000D01*
X39370000Y-143510000D02*
X39370000Y-189230000D01*
X129540000Y-180340000D02*
X129540000Y-189230000D01*
X129540000Y-176530000D02*
X129540000Y-180340000D01*
%TO.N,rEnc0_DT*%
X73660000Y-231140000D02*
X73660000Y-218440000D01*
%TO.N,rEnc0_clk*%
X76200000Y-226060000D02*
X76200000Y-218440000D01*
%TO.N,rEnc1_DT*%
X78740000Y-248920000D02*
X78740000Y-218440000D01*
%TO.N,rEnc1_clk*%
X81280000Y-246380000D02*
X81280000Y-218440000D01*
%TO.N,rEnc2_clk*%
X86360000Y-252730000D02*
X86360000Y-218440000D01*
%TO.N,rEnc2_DT*%
X83820000Y-254000000D02*
X83820000Y-218440000D01*
%TO.N,rEnc3_DT*%
X88900000Y-233680000D02*
X88900000Y-218440000D01*
%TO.N,rEnc3_clk*%
X91440000Y-218440000D02*
X91440000Y-232410000D01*
%TO.N,rEnc4_clk*%
X96520000Y-236220000D02*
X96520000Y-218440000D01*
%TO.N,rEnc4_DT*%
X93980000Y-237490000D02*
X93980000Y-218440000D01*
%TO.N,rEnc5_DT*%
X99060000Y-241300000D02*
X99060000Y-218440000D01*
%TO.N,rEnc5_clk*%
X101600000Y-240030000D02*
X101600000Y-218440000D01*
%TO.N,pin28*%
X119380000Y-227330000D02*
X119380000Y-218440000D01*
X119380000Y-243840000D02*
X119380000Y-227330000D01*
%TO.N,pin29*%
X121920000Y-243840000D02*
X121920000Y-218440000D01*
%TO.N,mux_ch1*%
X25400000Y-96520000D02*
X22860000Y-96520000D01*
X22860000Y-96520000D02*
X21590000Y-97790000D01*
X21590000Y-97790000D02*
X21590000Y-128270000D01*
X46990000Y-128270000D02*
X46990000Y-158750000D01*
X46990000Y-158750000D02*
X46990000Y-161290000D01*
X88900000Y-203200000D02*
X88900000Y-186690000D01*
X88900000Y-186690000D02*
X88900000Y-161290000D01*
X88900000Y-187960000D02*
X88900000Y-186690000D01*
%TO.N,mux_ch2*%
X60960000Y-113030000D02*
X58420000Y-113030000D01*
X58420000Y-113030000D02*
X57150000Y-114300000D01*
X57150000Y-114300000D02*
X49530000Y-121920000D01*
X49530000Y-156210000D02*
X49530000Y-157480000D01*
X49530000Y-158750000D02*
X49530000Y-149860000D01*
X49530000Y-149860000D02*
X49530000Y-156210000D01*
X49530000Y-121920000D02*
X49530000Y-149860000D01*
X86360000Y-168910000D02*
X86360000Y-158750000D01*
X86360000Y-187960000D02*
X86360000Y-168910000D01*
X86360000Y-187960000D02*
X86360000Y-203200000D01*
%TO.N,mux_ch3*%
X96520000Y-96520000D02*
X93980000Y-96520000D01*
X93980000Y-96520000D02*
X91440000Y-99060000D01*
X91440000Y-99060000D02*
X91440000Y-119380000D01*
X91440000Y-119380000D02*
X90170000Y-120650000D01*
X90170000Y-120650000D02*
X85090000Y-120650000D01*
X85090000Y-120650000D02*
X83820000Y-121920000D01*
X83820000Y-203200000D02*
X83820000Y-186690000D01*
X83820000Y-186690000D02*
X83820000Y-121920000D01*
X83820000Y-187960000D02*
X83820000Y-186690000D01*
%TO.N,mux_ch4*%
X81280000Y-187960000D02*
X81280000Y-186690000D01*
X81280000Y-186690000D02*
X81280000Y-196850000D01*
X81280000Y-186690000D02*
X81280000Y-156210000D01*
X81280000Y-196850000D02*
X81280000Y-203200000D01*
X132080000Y-113030000D02*
X129540000Y-113030000D01*
X116840000Y-125730000D02*
X116840000Y-156210000D01*
X129540000Y-113030000D02*
X116840000Y-125730000D01*
%TO.N,mux_master*%
X163830000Y-95250000D02*
X166370000Y-95250000D01*
X162560000Y-96520000D02*
X163830000Y-95250000D01*
X162560000Y-153670000D02*
X162560000Y-96520000D01*
X78740000Y-180340000D02*
X78740000Y-153670000D01*
X78740000Y-181610000D02*
X78740000Y-180340000D01*
X78740000Y-186690000D02*
X78740000Y-203200000D01*
X78740000Y-181610000D02*
X78740000Y-186690000D01*
X78740000Y-186690000D02*
X78740000Y-187960000D01*
X74930000Y-180340000D02*
X78740000Y-180340000D01*
%TO.N,Net-(fx1_enc1-Pad3)*%
X27940000Y-233760000D02*
X32940000Y-233760000D01*
X32940000Y-233760000D02*
X33100000Y-233760000D01*
X33100000Y-233760000D02*
X34290000Y-234950000D01*
X34290000Y-234950000D02*
X34290000Y-248920000D01*
X34290000Y-248920000D02*
X34290000Y-250190000D01*
X143510000Y-250190000D02*
X143510000Y-255270000D01*
%TO.N,Net-(fx1_enc2-Pad3)*%
X140970000Y-251460000D02*
X140970000Y-255270000D01*
%TO.N,Net-(fx2_enc1-Pad3)*%
X146050000Y-255270000D02*
X146050000Y-234950000D01*
%TO.N,Net-(fx2_enc2-Pad3)*%
X156210000Y-238760000D02*
X156210000Y-266700000D01*
X135890000Y-266700000D02*
X135890000Y-262890000D01*
%TO.N,Net-(fx2_enc3-Pad3)*%
X146050000Y-269240000D02*
X146050000Y-262890000D01*
%TO.N,Net-(MuxCh1-Pad1)*%
X28808190Y-55880000D02*
X29170000Y-55880000D01*
X29170000Y-55880000D02*
X29170000Y-59650000D01*
X29170000Y-59650000D02*
X27940000Y-60880000D01*
X27940000Y-60880000D02*
X22940000Y-60880000D01*
X22940000Y-60880000D02*
X21614322Y-62205678D01*
X21590000Y-80010000D02*
X21614322Y-79985678D01*
X21614322Y-79985678D02*
X21614322Y-90079742D01*
X21614322Y-62205678D02*
X21614322Y-79985678D01*
X21614322Y-90079742D02*
X21614322Y-91415678D01*
X21614322Y-91415678D02*
X21590000Y-91440000D01*
%TO.N,Net-(MuxCh1-Pad2)*%
X29170000Y-77510000D02*
X29170000Y-73660000D01*
X27940000Y-78740000D02*
X29170000Y-77510000D01*
X24130000Y-78740000D02*
X27940000Y-78740000D01*
X22860000Y-80010000D02*
X24130000Y-78740000D01*
X19050000Y-95250000D02*
X21590000Y-95250000D01*
X21590000Y-95250000D02*
X22860000Y-93980000D01*
X22860000Y-93980000D02*
X25400000Y-93980000D01*
X22860000Y-93980000D02*
X22860000Y-80010000D01*
%TO.N,Net-(MuxCh1-Pad4)*%
X29170000Y-82550000D02*
X29170000Y-86320000D01*
X29170000Y-86320000D02*
X27940000Y-87550000D01*
X27940000Y-97790000D02*
X26670000Y-99060000D01*
X26670000Y-99060000D02*
X25400000Y-99060000D01*
X27940000Y-88900000D02*
X27940000Y-97790000D01*
X27940000Y-87630000D02*
X27940000Y-88900000D01*
X27940000Y-87550000D02*
X27940000Y-87630000D01*
%TO.N,Net-(MuxCh1-Pad12)*%
X29170000Y-50760000D02*
X29170000Y-46990000D01*
X35560000Y-52070000D02*
X30480000Y-52070000D01*
X30480000Y-52070000D02*
X29170000Y-50760000D01*
X31750000Y-88900000D02*
X35560000Y-88900000D01*
X30480000Y-90170000D02*
X31750000Y-88900000D01*
X30480000Y-100330000D02*
X30480000Y-90170000D01*
X31750000Y-101600000D02*
X30480000Y-100330000D01*
X36830000Y-53340000D02*
X35560000Y-52070000D01*
X35560000Y-88900000D02*
X36830000Y-87630000D01*
X33020000Y-101600000D02*
X31750000Y-101600000D01*
X36830000Y-80010000D02*
X36830000Y-53340000D01*
X36830000Y-87630000D02*
X36830000Y-80010000D01*
%TO.N,Net-(MuxCh1-Pad5)*%
X34290000Y-69850000D02*
X30480000Y-69850000D01*
X35560000Y-71120000D02*
X34290000Y-69850000D01*
X34290000Y-87630000D02*
X35560000Y-86360000D01*
X29210000Y-88900000D02*
X30480000Y-87630000D01*
X29210000Y-100330000D02*
X29210000Y-88900000D01*
X29170000Y-68540000D02*
X29170000Y-64770000D01*
X30480000Y-69850000D02*
X29170000Y-68540000D01*
X27940000Y-101600000D02*
X29210000Y-100330000D01*
X30480000Y-87630000D02*
X34290000Y-87630000D01*
X25400000Y-101600000D02*
X27940000Y-101600000D01*
X35560000Y-76200000D02*
X35560000Y-71120000D01*
X35560000Y-86360000D02*
X35560000Y-76200000D01*
%TO.N,Net-(MuxCh1-Pad13)*%
X29170000Y-20320000D02*
X29210000Y-20320000D01*
X29170000Y-24090000D02*
X29170000Y-20320000D01*
X30480000Y-25400000D02*
X29170000Y-24090000D01*
X39370000Y-25400000D02*
X30480000Y-25400000D01*
X43180000Y-29210000D02*
X39370000Y-25400000D01*
X43180000Y-97790000D02*
X43180000Y-29210000D01*
X41910000Y-99060000D02*
X43180000Y-97790000D01*
X33020000Y-99060000D02*
X41910000Y-99060000D01*
X44450000Y-100330000D02*
X40640000Y-100330000D01*
X40640000Y-100330000D02*
X39370000Y-99060000D01*
%TO.N,Net-(MuxCh1-Pad14)*%
X41910000Y-38100000D02*
X38100000Y-34290000D01*
X30480000Y-34290000D02*
X29170000Y-32980000D01*
X41910000Y-95250000D02*
X41910000Y-38100000D01*
X40640000Y-96520000D02*
X41910000Y-95250000D01*
X29170000Y-32980000D02*
X29170000Y-29210000D01*
X38100000Y-34290000D02*
X30480000Y-34290000D01*
X33020000Y-96520000D02*
X40640000Y-96520000D01*
%TO.N,Net-(MuxCh1-Pad15)*%
X29170000Y-41870000D02*
X29170000Y-38100000D01*
X40640000Y-93980000D02*
X40640000Y-46990000D01*
X30480000Y-43180000D02*
X29170000Y-41870000D01*
X39370000Y-95250000D02*
X40640000Y-93980000D01*
X40640000Y-46990000D02*
X36830000Y-43180000D01*
X35560000Y-95250000D02*
X39370000Y-95250000D01*
X36830000Y-43180000D02*
X30480000Y-43180000D01*
X34290000Y-93980000D02*
X35560000Y-95250000D01*
X33020000Y-93980000D02*
X34290000Y-93980000D01*
%TO.N,Net-(MuxCh1_11-Pad2)*%
X64730000Y-58380000D02*
X64730000Y-54610000D01*
X72390000Y-59690000D02*
X66040000Y-59690000D01*
X76200000Y-110490000D02*
X76200000Y-63500000D01*
X66040000Y-59690000D02*
X64730000Y-58380000D01*
X76200000Y-63500000D02*
X72390000Y-59690000D01*
X74930000Y-111760000D02*
X76200000Y-110490000D01*
X71120000Y-111760000D02*
X74930000Y-111760000D01*
X69850000Y-110490000D02*
X71120000Y-111760000D01*
X68580000Y-110490000D02*
X69850000Y-110490000D01*
%TO.N,Net-(MuxCh1_10-Pad2)*%
X64730000Y-49490000D02*
X64730000Y-45720000D01*
X66040000Y-50800000D02*
X64730000Y-49490000D01*
X73660000Y-50800000D02*
X66040000Y-50800000D01*
X77470000Y-54610000D02*
X73660000Y-50800000D01*
X77470000Y-111760000D02*
X77470000Y-54610000D01*
X76200000Y-113030000D02*
X77470000Y-111760000D01*
X68580000Y-113030000D02*
X76200000Y-113030000D01*
%TO.N,Net-(MuxCh1_9-Pad2)*%
X64730000Y-40600000D02*
X64730000Y-36830000D01*
X66040000Y-41910000D02*
X64730000Y-40600000D01*
X74930000Y-41910000D02*
X66040000Y-41910000D01*
X78740000Y-45720000D02*
X74930000Y-41910000D01*
X78740000Y-114300000D02*
X78740000Y-45720000D01*
X77470000Y-115570000D02*
X78740000Y-114300000D01*
X72390000Y-115570000D02*
X77470000Y-115570000D01*
X72390000Y-118110000D02*
X72390000Y-115570000D01*
X68580000Y-115570000D02*
X72390000Y-115570000D01*
%TO.N,Net-(MuxCh1_14-Pad2)*%
X66040000Y-86360000D02*
X64730000Y-85050000D01*
X69850000Y-86360000D02*
X66040000Y-86360000D01*
X71120000Y-87630000D02*
X69850000Y-86360000D01*
X66040000Y-104140000D02*
X69850000Y-104140000D01*
X64770000Y-116840000D02*
X64770000Y-105410000D01*
X63500000Y-118110000D02*
X64770000Y-116840000D01*
X64730000Y-85050000D02*
X64730000Y-81280000D01*
X69850000Y-104140000D02*
X71120000Y-102870000D01*
X64770000Y-105410000D02*
X66040000Y-104140000D01*
X60960000Y-118110000D02*
X63500000Y-118110000D01*
X71120000Y-95250000D02*
X71120000Y-87630000D01*
X71120000Y-102870000D02*
X71120000Y-95250000D01*
%TO.N,Net-(MuxCh1_12-Pad2)*%
X66040000Y-68580000D02*
X64730000Y-67270000D01*
X71120000Y-68580000D02*
X66040000Y-68580000D01*
X64730000Y-67270000D02*
X64730000Y-63500000D01*
X72390000Y-104140000D02*
X72390000Y-69850000D01*
X71120000Y-105410000D02*
X72390000Y-104140000D01*
X72390000Y-69850000D02*
X71120000Y-68580000D01*
X67310000Y-105410000D02*
X71120000Y-105410000D01*
X66040000Y-116840000D02*
X66040000Y-106680000D01*
X67310000Y-118110000D02*
X66040000Y-116840000D01*
X66040000Y-106680000D02*
X67310000Y-105410000D01*
X68580000Y-118110000D02*
X67310000Y-118110000D01*
%TO.N,Net-(MuxCh1_16-Pad2)*%
X60960000Y-115570000D02*
X62230000Y-115570000D01*
X62230000Y-115570000D02*
X63500000Y-114300000D01*
X63500000Y-114300000D02*
X63500000Y-104140000D01*
X63500000Y-104140000D02*
X64770000Y-102870000D01*
X64730000Y-102830000D02*
X64730000Y-99060000D01*
X64770000Y-102870000D02*
X64730000Y-102830000D01*
%TO.N,Net-(MuxCh1_15-Pad2)*%
X64730000Y-90170000D02*
X64730000Y-93940000D01*
X64730000Y-93940000D02*
X63500000Y-95170000D01*
X63500000Y-95170000D02*
X59770000Y-95170000D01*
X59770000Y-95170000D02*
X58420000Y-96520000D01*
X53340000Y-111760000D02*
X57150000Y-111760000D01*
X57150000Y-111760000D02*
X58420000Y-110490000D01*
X58420000Y-110490000D02*
X58420000Y-107950000D01*
X58420000Y-107950000D02*
X58420000Y-109220000D01*
X58420000Y-96520000D02*
X58420000Y-107950000D01*
X60960000Y-110490000D02*
X58420000Y-110490000D01*
%TO.N,Net-(MuxCh1_13-Pad2)*%
X57150000Y-106680000D02*
X57150000Y-78740000D01*
X57150000Y-78740000D02*
X58420000Y-77470000D01*
X58420000Y-77470000D02*
X63500000Y-77470000D01*
X63500000Y-77470000D02*
X64770000Y-76200000D01*
X64730000Y-76160000D02*
X64730000Y-72390000D01*
X64770000Y-76200000D02*
X64730000Y-76160000D01*
X55880000Y-107950000D02*
X57150000Y-106680000D01*
X53340000Y-107950000D02*
X55880000Y-107950000D01*
%TO.N,Net-(MuxCh1_19-Pad2)*%
X101600000Y-43180000D02*
X100290000Y-41870000D01*
X111760000Y-46990000D02*
X107950000Y-43180000D01*
X107950000Y-43180000D02*
X101600000Y-43180000D01*
X110490000Y-95250000D02*
X111760000Y-93980000D01*
X105410000Y-93980000D02*
X106680000Y-95250000D01*
X100290000Y-41870000D02*
X100290000Y-38100000D01*
X106680000Y-95250000D02*
X110490000Y-95250000D01*
X104140000Y-93980000D02*
X105410000Y-93980000D01*
X111760000Y-92710000D02*
X111760000Y-46990000D01*
X111760000Y-93980000D02*
X111760000Y-92710000D01*
%TO.N,Net-(MuxCh1_18-Pad2)*%
X100290000Y-32980000D02*
X100290000Y-29210000D01*
X101600000Y-34290000D02*
X100290000Y-32980000D01*
X109220000Y-34290000D02*
X101600000Y-34290000D01*
X113030000Y-38100000D02*
X109220000Y-34290000D01*
X113030000Y-95250000D02*
X113030000Y-38100000D01*
X111760000Y-96520000D02*
X113030000Y-95250000D01*
X104140000Y-96520000D02*
X111760000Y-96520000D01*
%TO.N,Net-(MuxCh1_17-Pad2)*%
X101600000Y-25400000D02*
X100290000Y-24090000D01*
X110490000Y-25400000D02*
X101600000Y-25400000D01*
X114300000Y-29210000D02*
X110490000Y-25400000D01*
X114300000Y-96520000D02*
X114300000Y-29210000D01*
X111760000Y-99060000D02*
X114300000Y-96520000D01*
X100290000Y-24090000D02*
X100290000Y-20320000D01*
X104140000Y-99060000D02*
X111760000Y-99060000D01*
X113030000Y-100330000D02*
X111760000Y-99060000D01*
X114300000Y-100330000D02*
X113030000Y-100330000D01*
%TO.N,Net-(MuxCh1_22-Pad2)*%
X100290000Y-68540000D02*
X100290000Y-64770000D01*
X105410000Y-69850000D02*
X101600000Y-69850000D01*
X105410000Y-87630000D02*
X106680000Y-86360000D01*
X101600000Y-87630000D02*
X105410000Y-87630000D01*
X106680000Y-71120000D02*
X105410000Y-69850000D01*
X100330000Y-88900000D02*
X101600000Y-87630000D01*
X100330000Y-100330000D02*
X100330000Y-88900000D01*
X99060000Y-101600000D02*
X100330000Y-100330000D01*
X101600000Y-69850000D02*
X100290000Y-68540000D01*
X96520000Y-101600000D02*
X99060000Y-101600000D01*
X106680000Y-86360000D02*
X106680000Y-83820000D01*
X106680000Y-81280000D02*
X106680000Y-71120000D01*
X106680000Y-83820000D02*
X106680000Y-81280000D01*
%TO.N,Net-(MuxCh1_20-Pad2)*%
X101600000Y-52070000D02*
X100290000Y-50760000D01*
X107950000Y-53340000D02*
X106680000Y-52070000D01*
X106680000Y-52070000D02*
X101600000Y-52070000D01*
X106680000Y-88900000D02*
X107950000Y-87630000D01*
X107950000Y-87630000D02*
X107950000Y-53340000D01*
X102870000Y-88900000D02*
X106680000Y-88900000D01*
X101600000Y-90170000D02*
X102870000Y-88900000D01*
X101600000Y-100330000D02*
X101600000Y-90170000D01*
X100290000Y-50760000D02*
X100290000Y-46990000D01*
X102870000Y-101600000D02*
X101600000Y-100330000D01*
X104140000Y-101600000D02*
X102870000Y-101600000D01*
%TO.N,Net-(MuxCh1_24-Pad2)*%
X96520000Y-99060000D02*
X97790000Y-99060000D01*
X97790000Y-99060000D02*
X99060000Y-97790000D01*
X99060000Y-97790000D02*
X99060000Y-87630000D01*
X99060000Y-87630000D02*
X100330000Y-86360000D01*
X100290000Y-86320000D02*
X100290000Y-82550000D01*
X100330000Y-86360000D02*
X100290000Y-86320000D01*
%TO.N,Net-(MuxCh1_23-Pad2)*%
X93980000Y-80010000D02*
X95250000Y-78740000D01*
X95250000Y-78740000D02*
X99060000Y-78740000D01*
X99060000Y-78740000D02*
X100330000Y-77470000D01*
X100290000Y-77430000D02*
X100290000Y-73660000D01*
X100330000Y-77470000D02*
X100290000Y-77430000D01*
X93980000Y-91440000D02*
X93980000Y-80010000D01*
X93980000Y-92710000D02*
X93980000Y-91440000D01*
X88900000Y-92710000D02*
X93980000Y-92710000D01*
X93980000Y-92710000D02*
X95250000Y-93980000D01*
X95250000Y-93980000D02*
X96520000Y-93980000D01*
%TO.N,Net-(MuxCh1_21-Pad2)*%
X100290000Y-55880000D02*
X100290000Y-59650000D01*
X100290000Y-59650000D02*
X99060000Y-60880000D01*
X99060000Y-60880000D02*
X94060000Y-60880000D01*
X94060000Y-60880000D02*
X92710000Y-62230000D01*
X92710000Y-62230000D02*
X92710000Y-90170000D01*
X92710000Y-90170000D02*
X87630000Y-90170000D01*
X87630000Y-90170000D02*
X86360000Y-88900000D01*
X86360000Y-88900000D02*
X86360000Y-87630000D01*
%TO.N,Net-(MuxCh1_29-Pad2)*%
X135488190Y-72390000D02*
X135850000Y-72390000D01*
X128270000Y-106680000D02*
X128270000Y-78740000D01*
X128270000Y-78740000D02*
X129540000Y-77470000D01*
X129540000Y-77470000D02*
X134620000Y-77470000D01*
X134620000Y-77470000D02*
X135890000Y-76200000D01*
X135850000Y-76160000D02*
X135850000Y-72390000D01*
X135890000Y-76200000D02*
X135850000Y-76160000D01*
X127000000Y-107950000D02*
X128270000Y-106680000D01*
X124460000Y-107950000D02*
X127000000Y-107950000D01*
%TO.N,Net-(MuxCh1_31-Pad2)*%
X129540000Y-96520000D02*
X130810000Y-95250000D01*
X130810000Y-95250000D02*
X134620000Y-95250000D01*
X135850000Y-94020000D02*
X135850000Y-90170000D01*
X134620000Y-95250000D02*
X135850000Y-94020000D01*
X124460000Y-111760000D02*
X128270000Y-111760000D01*
X128270000Y-111760000D02*
X129540000Y-110490000D01*
X129540000Y-110490000D02*
X129540000Y-107950000D01*
X129540000Y-107950000D02*
X129540000Y-96520000D01*
X129540000Y-109220000D02*
X129540000Y-107950000D01*
X132080000Y-110490000D02*
X129540000Y-110490000D01*
%TO.N,Net-(MuxCh1_32-Pad2)*%
X132080000Y-115570000D02*
X133350000Y-115570000D01*
X133350000Y-115570000D02*
X134620000Y-114300000D01*
X134620000Y-114300000D02*
X134620000Y-104140000D01*
X134620000Y-104140000D02*
X135890000Y-102870000D01*
X135850000Y-102830000D02*
X135850000Y-99060000D01*
X135890000Y-102870000D02*
X135850000Y-102830000D01*
%TO.N,Net-(MuxCh1_28-Pad2)*%
X135850000Y-67270000D02*
X135850000Y-63500000D01*
X137160000Y-68580000D02*
X135850000Y-67270000D01*
X143510000Y-104140000D02*
X143510000Y-69850000D01*
X142240000Y-105410000D02*
X143510000Y-104140000D01*
X138430000Y-105410000D02*
X142240000Y-105410000D01*
X143510000Y-69850000D02*
X142240000Y-68580000D01*
X137160000Y-106680000D02*
X138430000Y-105410000D01*
X137160000Y-116840000D02*
X137160000Y-106680000D01*
X142240000Y-68580000D02*
X137160000Y-68580000D01*
X138430000Y-118110000D02*
X137160000Y-116840000D01*
X139700000Y-118110000D02*
X138430000Y-118110000D01*
%TO.N,Net-(MuxCh1_30-Pad2)*%
X142240000Y-87630000D02*
X140970000Y-86360000D01*
X140970000Y-104140000D02*
X142240000Y-102870000D01*
X135850000Y-85050000D02*
X135850000Y-81280000D01*
X137160000Y-86360000D02*
X135850000Y-85050000D01*
X137160000Y-104140000D02*
X140970000Y-104140000D01*
X135890000Y-105410000D02*
X137160000Y-104140000D01*
X135890000Y-116840000D02*
X135890000Y-105410000D01*
X134620000Y-118110000D02*
X135890000Y-116840000D01*
X140970000Y-86360000D02*
X137160000Y-86360000D01*
X132080000Y-118110000D02*
X134620000Y-118110000D01*
X142240000Y-102870000D02*
X142240000Y-100330000D01*
X142240000Y-96520000D02*
X142240000Y-87630000D01*
X142240000Y-100330000D02*
X142240000Y-96520000D01*
%TO.N,Net-(MuxCh1_25-Pad2)*%
X137160000Y-41910000D02*
X135850000Y-40600000D01*
X146050000Y-41910000D02*
X137160000Y-41910000D01*
X147320000Y-43180000D02*
X146050000Y-41910000D01*
X135850000Y-40600000D02*
X135850000Y-36830000D01*
X146050000Y-115570000D02*
X148590000Y-115570000D01*
X148590000Y-115570000D02*
X149860000Y-114300000D01*
X149860000Y-114300000D02*
X149860000Y-45720000D01*
X149860000Y-45720000D02*
X147320000Y-43180000D01*
X142240000Y-118110000D02*
X142240000Y-115570000D01*
X142240000Y-115570000D02*
X146050000Y-115570000D01*
X139700000Y-115570000D02*
X142240000Y-115570000D01*
%TO.N,Net-(MuxCh1_26-Pad2)*%
X135850000Y-49490000D02*
X135850000Y-45720000D01*
X144780000Y-50800000D02*
X137160000Y-50800000D01*
X137160000Y-50800000D02*
X135850000Y-49490000D01*
X148590000Y-54610000D02*
X144780000Y-50800000D01*
X148590000Y-111760000D02*
X148590000Y-54610000D01*
X147320000Y-113030000D02*
X148590000Y-111760000D01*
X139700000Y-113030000D02*
X147320000Y-113030000D01*
%TO.N,Net-(MuxCh1_27-Pad2)*%
X135850000Y-58380000D02*
X135850000Y-54610000D01*
X143510000Y-59690000D02*
X137160000Y-59690000D01*
X137160000Y-59690000D02*
X135850000Y-58380000D01*
X147320000Y-63500000D02*
X143510000Y-59690000D01*
X146050000Y-111760000D02*
X147320000Y-110490000D01*
X147320000Y-110490000D02*
X147320000Y-63500000D01*
X142240000Y-111760000D02*
X146050000Y-111760000D01*
X140970000Y-110490000D02*
X142240000Y-111760000D01*
X139700000Y-110490000D02*
X140970000Y-110490000D01*
%TO.N,Net-(MuxCh1_37-Pad2)*%
X170140000Y-58380000D02*
X170140000Y-54610000D01*
X168910000Y-59690000D02*
X170180000Y-58420000D01*
X163830000Y-59690000D02*
X168910000Y-59690000D01*
X162560000Y-60960000D02*
X163830000Y-59690000D01*
X170180000Y-58420000D02*
X170140000Y-58380000D01*
X162560000Y-88900000D02*
X162560000Y-60960000D01*
X158750000Y-88900000D02*
X156210000Y-86360000D01*
X162560000Y-88900000D02*
X158750000Y-88900000D01*
%TO.N,Net-(MuxCh1_39-Pad2)*%
X163830000Y-78740000D02*
X165100000Y-77470000D01*
X165100000Y-77470000D02*
X168910000Y-77470000D01*
X168910000Y-77470000D02*
X170180000Y-76200000D01*
X170140000Y-76160000D02*
X170140000Y-72390000D01*
X170180000Y-76200000D02*
X170140000Y-76160000D01*
X163830000Y-90170000D02*
X163830000Y-78740000D01*
X163830000Y-91440000D02*
X163830000Y-90170000D01*
X160020000Y-91440000D02*
X163830000Y-91440000D01*
X163830000Y-91440000D02*
X165100000Y-92710000D01*
X165100000Y-92710000D02*
X166370000Y-92710000D01*
%TO.N,Net-(MuxCh1_40-Pad2)*%
X168910000Y-86360000D02*
X170220000Y-85050000D01*
X168910000Y-96520000D02*
X168910000Y-86360000D01*
X167640000Y-97790000D02*
X168910000Y-96520000D01*
X170220000Y-85050000D02*
X170220000Y-81280000D01*
X166370000Y-97790000D02*
X167640000Y-97790000D01*
%TO.N,Net-(MuxCh1_36-Pad2)*%
X173990000Y-100330000D02*
X172720000Y-100330000D01*
X172720000Y-100330000D02*
X171450000Y-99060000D01*
X171450000Y-99060000D02*
X171450000Y-88900000D01*
X171450000Y-88900000D02*
X172720000Y-87630000D01*
X172720000Y-87630000D02*
X176530000Y-87630000D01*
X176530000Y-87630000D02*
X177800000Y-86360000D01*
X177800000Y-86360000D02*
X177800000Y-81280000D01*
X177800000Y-81280000D02*
X177800000Y-82550000D01*
X170180000Y-49530000D02*
X170180000Y-45720000D01*
X171450000Y-50800000D02*
X170180000Y-49530000D01*
X177800000Y-52070000D02*
X176530000Y-50800000D01*
X176530000Y-50800000D02*
X171450000Y-50800000D01*
X177800000Y-81280000D02*
X177800000Y-52070000D01*
%TO.N,Net-(MuxCh1_38-Pad2)*%
X176530000Y-81280000D02*
X176530000Y-69850000D01*
X176530000Y-69850000D02*
X176490000Y-69850000D01*
X170180000Y-99060000D02*
X170180000Y-87630000D01*
X168910000Y-100330000D02*
X170180000Y-99060000D01*
X166370000Y-100330000D02*
X168910000Y-100330000D01*
X170140000Y-67270000D02*
X170140000Y-63500000D01*
X171450000Y-68580000D02*
X170140000Y-67270000D01*
X175260000Y-68580000D02*
X171450000Y-68580000D01*
X176530000Y-69850000D02*
X175260000Y-68580000D01*
X170180000Y-87630000D02*
X171450000Y-86360000D01*
X171450000Y-86360000D02*
X175260000Y-86360000D01*
X175260000Y-86360000D02*
X176530000Y-85090000D01*
X176530000Y-82550000D02*
X176530000Y-80010000D01*
X176530000Y-85090000D02*
X176530000Y-82550000D01*
%TO.N,Net-(MuxCh1_33-Pad2)*%
X170140000Y-22820000D02*
X170140000Y-19050000D01*
X171450000Y-24130000D02*
X170140000Y-22820000D01*
X181610000Y-25400000D02*
X180340000Y-24130000D01*
X180340000Y-24130000D02*
X171450000Y-24130000D01*
X182880000Y-97790000D02*
X184150000Y-96520000D01*
X184150000Y-96520000D02*
X184150000Y-27940000D01*
X184150000Y-27940000D02*
X181610000Y-25400000D01*
X176530000Y-100330000D02*
X176530000Y-97790000D01*
X176530000Y-97790000D02*
X182880000Y-97790000D01*
X173990000Y-97790000D02*
X176530000Y-97790000D01*
%TO.N,Net-(MuxCh1_34-Pad2)*%
X171450000Y-33020000D02*
X170140000Y-31710000D01*
X179070000Y-33020000D02*
X171450000Y-33020000D01*
X170140000Y-31710000D02*
X170140000Y-27940000D01*
X182880000Y-36830000D02*
X179070000Y-33020000D01*
X182880000Y-93980000D02*
X182880000Y-36830000D01*
X181610000Y-95250000D02*
X182880000Y-93980000D01*
X173990000Y-95250000D02*
X181610000Y-95250000D01*
%TO.N,Net-(MuxCh1_35-Pad2)*%
X171450000Y-41910000D02*
X170140000Y-40600000D01*
X177800000Y-41910000D02*
X171450000Y-41910000D01*
X179070000Y-43180000D02*
X177800000Y-41910000D01*
X170140000Y-40600000D02*
X170140000Y-36830000D01*
X173990000Y-92710000D02*
X175260000Y-92710000D01*
X175260000Y-92710000D02*
X176530000Y-93980000D01*
X176530000Y-93980000D02*
X180340000Y-93980000D01*
X180340000Y-93980000D02*
X181610000Y-92710000D01*
X181610000Y-45720000D02*
X179070000Y-43180000D01*
X181610000Y-92710000D02*
X181610000Y-45720000D01*
%TO.N,Net-(R18-Pad1)*%
X114300000Y-219314998D02*
X114300000Y-218440000D01*
X114300000Y-228600000D02*
X114300000Y-219314998D01*
X41910000Y-151130000D02*
X41910000Y-228600000D01*
%TO.N,Net-(R30-Pad2)*%
X167640000Y-152400000D02*
X167640000Y-163830000D01*
X109220000Y-163830000D02*
X109220000Y-203200000D01*
%TO.N,Net-(R31-Pad2)*%
X111760000Y-148590000D02*
X111760000Y-203200000D01*
%TO.N,Net-(R32-Pad2)*%
X114300000Y-151130000D02*
X114300000Y-203200000D01*
%TO.N,Net-(R33-Pad2)*%
X55880000Y-184150000D02*
X55880000Y-186690000D01*
X55880000Y-151130000D02*
X55880000Y-184150000D01*
X55880000Y-184150000D02*
X55880000Y-185420000D01*
X116840000Y-186690000D02*
X116840000Y-203200000D01*
%TO.N,Net-(3.3V_Test1-Pad1)*%
X106680000Y-226060000D02*
X106680000Y-218440000D01*
%TO.N,Net-(3.3V_Test2-Pad1)*%
X76200000Y-203200000D02*
X76200000Y-191770000D01*
X35560000Y-191770000D02*
X35560000Y-180340000D01*
X35560000Y-180340000D02*
X34290000Y-179070000D01*
X34290000Y-179070000D02*
X27940000Y-179070000D01*
%TD*%
M02*
