%TF.GenerationSoftware,KiCad,Pcbnew,5.1.9*%
%TF.CreationDate,2021-03-04T21:17:50+01:00*%
%TF.ProjectId,mixer.pcb,6d697865-722e-4706-9362-2e6b69636164,0.2*%
%TF.SameCoordinates,Original*%
%TF.FileFunction,Other,Comment*%
%FSLAX46Y46*%
G04 Gerber Fmt 4.6, Leading zero omitted, Abs format (unit mm)*
G04 Created by KiCad (PCBNEW 5.1.9) date 2021-03-04 21:17:50*
%MOMM*%
%LPD*%
G01*
G04 APERTURE LIST*
%ADD10C,0.150000*%
G04 APERTURE END LIST*
D10*
%TO.C,REF\u002A\u002A*%
X157440000Y-68580000D02*
G75*
G03*
X157440000Y-68580000I-2500000J0D01*
G01*
X52030000Y-68580000D02*
G75*
G03*
X52030000Y-68580000I-2500000J0D01*
G01*
X86320000Y-68580000D02*
G75*
G03*
X86320000Y-68580000I-2500000J0D01*
G01*
X123150000Y-68580000D02*
G75*
G03*
X123150000Y-68580000I-2500000J0D01*
G01*
X148550000Y-205740000D02*
G75*
G03*
X148550000Y-205740000I-2500000J0D01*
G01*
X92670000Y-240030000D02*
G75*
G03*
X92670000Y-240030000I-2500000J0D01*
G01*
X63460000Y-205740000D02*
G75*
G03*
X63460000Y-205740000I-2500000J0D01*
G01*
X100290000Y-118110000D02*
G75*
G03*
X100290000Y-118110000I-2500000J0D01*
G01*
X19010000Y-68580000D02*
G75*
G03*
X19010000Y-68580000I-2500000J0D01*
G01*
X19010000Y-118110000D02*
G75*
G03*
X19010000Y-118110000I-2500000J0D01*
G01*
X19010000Y-166370000D02*
G75*
G03*
X19010000Y-166370000I-2500000J0D01*
G01*
X19010000Y-218440000D02*
G75*
G03*
X19010000Y-218440000I-2500000J0D01*
G01*
X151090000Y-279400000D02*
G75*
G03*
X151090000Y-279400000I-2500000J0D01*
G01*
X19010000Y-279400000D02*
G75*
G03*
X19010000Y-279400000I-2500000J0D01*
G01*
X60920000Y-279400000D02*
G75*
G03*
X60920000Y-279400000I-2500000J0D01*
G01*
X105370000Y-279400000D02*
G75*
G03*
X105370000Y-279400000I-2500000J0D01*
G01*
X195540000Y-279400000D02*
G75*
G03*
X195540000Y-279400000I-2500000J0D01*
G01*
X194270000Y-218440000D02*
G75*
G03*
X194270000Y-218440000I-2500000J0D01*
G01*
X195540000Y-166370000D02*
G75*
G03*
X195540000Y-166370000I-2500000J0D01*
G01*
X195540000Y-118110000D02*
G75*
G03*
X195540000Y-118110000I-2500000J0D01*
G01*
X195540000Y-68580000D02*
G75*
G03*
X195540000Y-68580000I-2500000J0D01*
G01*
X195540000Y-16510000D02*
G75*
G03*
X195540000Y-16510000I-2500000J0D01*
G01*
X138390000Y-16510000D02*
G75*
G03*
X138390000Y-16510000I-2500000J0D01*
G01*
X67270000Y-16510000D02*
G75*
G03*
X67270000Y-16510000I-2500000J0D01*
G01*
X19010000Y-16510000D02*
G75*
G03*
X19010000Y-16510000I-2500000J0D01*
G01*
%TD*%
M02*
