<?xml version="1.0" standalone="no"?>
 <!DOCTYPE svg PUBLIC "-//W3C//DTD SVG 1.1//EN" 
 "http://www.w3.org/Graphics/SVG/1.1/DTD/svg11.dtd"> 
<svg
  xmlns:svg="http://www.w3.org/2000/svg"
  xmlns="http://www.w3.org/2000/svg"
  xmlns:xlink="http://www.w3.org/1999/xlink"
  version="1.1"
  width="29.700220cm" height="21.000720cm" viewBox="0 0 116930 82680">
<title>SVG Picture created as controller_motion_pcb-Edge_Cuts.svg date 2021/12/15 17:44:04 </title>
  <desc>Picture generated by PCBNEW </desc>
<g style="fill:#000000; fill-opacity:1;stroke:#000000; stroke-opacity:1;
stroke-linecap:round; stroke-linejoin:round;"
 transform="translate(0 0) scale(1 1)">
</g>
<g style="fill:#000000; fill-opacity:0.0; 
stroke:#000000; stroke-width:-0.000393701; stroke-opacity:1; 
stroke-linecap:round; stroke-linejoin:round;">
</g>
<g style="fill:#000000; fill-opacity:0.0; 
stroke:#000000; stroke-width:19.685; stroke-opacity:1; 
stroke-linecap:round; stroke-linejoin:round;">
<circle cx="26378" cy="25196.9" r="656.168" /> 
<path d="M25393 25196
L27362 25196
" />
<path d="M26377 24212
L26377 26181
" />
<circle cx="26378" cy="39370.1" r="656.168" /> 
<path d="M25393 39370
L27362 39370
" />
<path d="M26377 38385
L26377 40354
" />
<circle cx="90157.5" cy="25196.9" r="656.168" /> 
<path d="M89173 25196
L91141 25196
" />
<path d="M90157 24212
L90157 26181
" />
<circle cx="90157.5" cy="39370.1" r="656.168" /> 
<path d="M89173 39370
L91141 39370
" />
<path d="M90157 38385
L90157 40354
" />
<path d="M27559 38188
L27559 26377
" />
<path d="M88976 38188
L88976 26377
" />
<path d="M27559 38188
L88976 38188
" />
<path d="M27559 26377
L88976 26377
" />
<g >
</g>
<g >
</g>
<g >
</g>
<g >
</g>
<g >
</g>
<g >
</g>
<g >
</g>
<g >
</g>
<g >
</g>
<g >
</g>
<g >
</g>
<g >
</g>
<g >
</g>
<g >
</g>
<g >
</g>
<g >
</g>
<g >
</g>
<g >
</g>
<g >
</g>
<g >
</g>
<g >
</g>
<g >
</g>
<g >
</g>
<g >
</g>
<g >
</g>
<g >
</g>
<g >
</g>
<g >
</g>
<g >
</g>
<g >
</g>
<g >
</g>
</g> 
</svg>
