M48
; DRILL file {KiCad 5.1.10} date Thu May 13 00:12:59 2021
; FORMAT={-:-/ absolute / metric / decimal}
; #@! TF.CreationDate,2021-05-13T00:12:59+02:00
; #@! TF.GenerationSoftware,Kicad,Pcbnew,5.1.10
; #@! TF.FileFunction,Plated,1,2,PTH
FMAT,2
METRIC
T1C0.400
T2C0.500
T3C2.700
%
G90
G05
T1
X31.95Y-75.75
X32.8Y-77.3
X35.75Y-36.1
X41.68Y-44.076
X41.68Y-76.476
X41.68Y-108.926
X41.73Y-141.526
X42.905Y-44.076
X42.93Y-76.601
X43.005Y-108.926
X43.13Y-141.526
X43.43Y-81.076
X44.205Y-44.076
X44.205Y-76.601
X44.255Y-108.926
X44.355Y-141.576
X45.78Y-30.876
X45.88Y-63.376
X45.88Y-95.726
X45.98Y-128.276
X46.78Y-51.426
X46.83Y-56.676
X47.8Y-107.4
X47.83Y-42.576
X47.83Y-81.076
X47.95Y-140.0
X49.38Y-56.676
X50.6Y-43.9
X50.6Y-49.15
X51.88Y-56.676
X51.93Y-51.426
X52.325Y-118.775
X54.43Y-51.426
X54.48Y-56.676
X55.98Y-47.226
X55.98Y-48.526
X56.98Y-29.476
X56.98Y-33.126
X57.03Y-51.426
X57.03Y-56.676
X57.102Y-81.552
X59.53Y-51.426
X59.53Y-79.676
X59.58Y-56.676
X61.63Y-46.226
X62.065Y-112.915
X62.065Y-112.915
X62.08Y-51.426
X62.13Y-56.676
X64.63Y-51.426
X64.63Y-56.676
X64.825Y-116.975
X64.83Y-46.226
X65.48Y-29.576
X67.18Y-51.426
X67.18Y-56.676
X69.68Y-56.676
X69.73Y-51.426
X74.13Y-76.526
X74.155Y-44.126
X74.18Y-109.026
X74.28Y-141.476
X74.78Y-56.676
X74.83Y-51.426
X75.405Y-76.601
X75.43Y-44.176
X75.555Y-108.951
X75.63Y-141.476
X76.73Y-76.601
X76.805Y-44.176
X76.83Y-108.951
X76.88Y-47.076
X76.88Y-48.426
X76.88Y-49.726
X76.88Y-141.501
X77.0Y-58.45
X78.28Y-31.026
X78.38Y-63.326
X78.48Y-95.876
X78.53Y-128.226
X80.352Y-81.552
X80.385Y-112.915
X80.43Y-61.676
X83.675Y-118.775
X95.13Y-66.126
X100.58Y-66.126
X106.68Y-109.076
X106.73Y-76.526
X106.805Y-44.026
X106.83Y-141.526
X106.88Y-29.576
X107.905Y-108.876
X108.105Y-44.101
X108.105Y-141.576
X108.13Y-76.501
X109.305Y-108.851
X109.355Y-76.501
X109.38Y-44.126
X109.43Y-141.576
X110.93Y-95.876
X111.03Y-30.826
X111.03Y-63.326
X111.13Y-128.376
X113.03Y-46.226
X115.725Y-69.575
X115.725Y-77.925
X115.725Y-102.475
X115.725Y-113.925
X115.725Y-118.775
X115.75Y-55.0
X117.08Y-47.076
X118.75Y-48.35
X122.1Y-49.7
X125.03Y-79.676
X132.38Y-79.676
X139.13Y-141.576
X139.23Y-44.026
X139.23Y-76.526
X139.23Y-109.026
X140.505Y-76.601
X140.53Y-141.576
X140.555Y-44.151
X140.605Y-109.051
X141.805Y-141.601
X141.83Y-76.601
X141.855Y-44.101
X141.905Y-109.051
X143.43Y-30.826
X143.43Y-63.326
X143.43Y-128.326
X143.48Y-95.776
X145.38Y-59.676
X145.425Y-116.975
X145.43Y-74.976
X147.75Y-58.45
X153.2Y-55.0
X153.2Y-70.45
T2
X29.38Y-28.0
X29.407Y-150.076
X29.973Y-26.568
X29.973Y-29.432
X30.0Y-148.644
X30.0Y-151.508
X31.405Y-25.975
X31.405Y-30.025
X31.432Y-148.051
X31.432Y-152.101
X32.837Y-26.568
X32.837Y-29.432
X32.864Y-148.644
X32.864Y-151.508
X33.43Y-28.0
X33.457Y-150.076
X90.38Y-89.076
X90.973Y-87.644
X90.973Y-90.508
X92.405Y-87.051
X92.405Y-91.101
X93.837Y-87.644
X93.837Y-90.508
X94.43Y-89.076
X151.38Y-28.076
X151.38Y-150.076
X151.973Y-26.644
X151.973Y-29.508
X151.973Y-148.644
X151.973Y-151.508
X153.405Y-26.051
X153.405Y-30.101
X153.405Y-148.051
X153.405Y-152.101
X154.837Y-26.644
X154.837Y-29.508
X154.837Y-148.644
X154.837Y-151.508
X155.43Y-28.076
X155.43Y-150.076
T3
X31.405Y-28.0
X31.432Y-150.076
X92.405Y-89.076
X153.405Y-28.076
X153.405Y-150.076
T0
M30
