G04 #@! TF.GenerationSoftware,KiCad,Pcbnew,5.1.10*
G04 #@! TF.CreationDate,2021-05-13T00:12:51+02:00*
G04 #@! TF.ProjectId,btn-matrix,62746e2d-6d61-4747-9269-782e6b696361,rev?*
G04 #@! TF.SameCoordinates,Original*
G04 #@! TF.FileFunction,Soldermask,Bot*
G04 #@! TF.FilePolarity,Negative*
%FSLAX46Y46*%
G04 Gerber Fmt 4.6, Leading zero omitted, Abs format (unit mm)*
G04 Created by KiCad (PCBNEW 5.1.10) date 2021-05-13 00:12:51*
%MOMM*%
%LPD*%
G01*
G04 APERTURE LIST*
%ADD10C,0.800000*%
%ADD11C,5.400000*%
%ADD12R,1.000000X3.150000*%
G04 APERTURE END LIST*
D10*
X93836671Y-87643889D03*
X92404780Y-87050780D03*
X90972889Y-87643889D03*
X90379780Y-89075780D03*
X90972889Y-90507671D03*
X92404780Y-91100780D03*
X93836671Y-90507671D03*
X94429780Y-89075780D03*
D11*
X92404780Y-89075780D03*
D10*
X154836671Y-26643889D03*
X153404780Y-26050780D03*
X151972889Y-26643889D03*
X151379780Y-28075780D03*
X151972889Y-29507671D03*
X153404780Y-30100780D03*
X154836671Y-29507671D03*
X155429780Y-28075780D03*
D11*
X153404780Y-28075780D03*
D10*
X154836671Y-148643889D03*
X153404780Y-148050780D03*
X151972889Y-148643889D03*
X151379780Y-150075780D03*
X151972889Y-151507671D03*
X153404780Y-152100780D03*
X154836671Y-151507671D03*
X155429780Y-150075780D03*
D11*
X153404780Y-150075780D03*
D10*
X32836671Y-26568109D03*
X31404780Y-25975000D03*
X29972889Y-26568109D03*
X29379780Y-28000000D03*
X29972889Y-29431891D03*
X31404780Y-30025000D03*
X32836671Y-29431891D03*
X33429780Y-28000000D03*
D11*
X31404780Y-28000000D03*
D10*
X32863782Y-148643889D03*
X31431891Y-148050780D03*
X30000000Y-148643889D03*
X29406891Y-150075780D03*
X30000000Y-151507671D03*
X31431891Y-152100780D03*
X32863782Y-151507671D03*
X33456891Y-150075780D03*
D11*
X31431891Y-150075780D03*
D12*
X74769780Y-56575780D03*
X74769780Y-51525780D03*
X72229780Y-56575780D03*
X72229780Y-51525780D03*
X69689780Y-56575780D03*
X69689780Y-51525780D03*
X67149780Y-56575780D03*
X67149780Y-51525780D03*
X64609780Y-56575780D03*
X64609780Y-51525780D03*
X62069780Y-56575780D03*
X62069780Y-51525780D03*
X59529780Y-56575780D03*
X59529780Y-51525780D03*
X56989780Y-56575780D03*
X56989780Y-51525780D03*
X54449780Y-56575780D03*
X54449780Y-51525780D03*
X51909780Y-56575780D03*
X51909780Y-51525780D03*
X49369780Y-56575780D03*
X49369780Y-51525780D03*
X46829780Y-56575780D03*
X46829780Y-51525780D03*
G36*
G01*
X45454780Y-136925781D02*
X45454780Y-135625779D01*
G75*
G02*
X45704779Y-135375780I249999J0D01*
G01*
X46354781Y-135375780D01*
G75*
G02*
X46604780Y-135625779I0J-249999D01*
G01*
X46604780Y-136925781D01*
G75*
G02*
X46354781Y-137175780I-249999J0D01*
G01*
X45704779Y-137175780D01*
G75*
G02*
X45454780Y-136925781I0J249999D01*
G01*
G37*
G36*
G01*
X48404780Y-136925781D02*
X48404780Y-135625779D01*
G75*
G02*
X48654779Y-135375780I249999J0D01*
G01*
X49304781Y-135375780D01*
G75*
G02*
X49554780Y-135625779I0J-249999D01*
G01*
X49554780Y-136925781D01*
G75*
G02*
X49304781Y-137175780I-249999J0D01*
G01*
X48654779Y-137175780D01*
G75*
G02*
X48404780Y-136925781I0J249999D01*
G01*
G37*
G36*
G01*
X48254780Y-104325781D02*
X48254780Y-103025779D01*
G75*
G02*
X48504779Y-102775780I249999J0D01*
G01*
X49154781Y-102775780D01*
G75*
G02*
X49404780Y-103025779I0J-249999D01*
G01*
X49404780Y-104325781D01*
G75*
G02*
X49154781Y-104575780I-249999J0D01*
G01*
X48504779Y-104575780D01*
G75*
G02*
X48254780Y-104325781I0J249999D01*
G01*
G37*
G36*
G01*
X45304780Y-104325781D02*
X45304780Y-103025779D01*
G75*
G02*
X45554779Y-102775780I249999J0D01*
G01*
X46204781Y-102775780D01*
G75*
G02*
X46454780Y-103025779I0J-249999D01*
G01*
X46454780Y-104325781D01*
G75*
G02*
X46204781Y-104575780I-249999J0D01*
G01*
X45554779Y-104575780D01*
G75*
G02*
X45304780Y-104325781I0J249999D01*
G01*
G37*
G36*
G01*
X45279780Y-71975781D02*
X45279780Y-70675779D01*
G75*
G02*
X45529779Y-70425780I249999J0D01*
G01*
X46179781Y-70425780D01*
G75*
G02*
X46429780Y-70675779I0J-249999D01*
G01*
X46429780Y-71975781D01*
G75*
G02*
X46179781Y-72225780I-249999J0D01*
G01*
X45529779Y-72225780D01*
G75*
G02*
X45279780Y-71975781I0J249999D01*
G01*
G37*
G36*
G01*
X48229780Y-71975781D02*
X48229780Y-70675779D01*
G75*
G02*
X48479779Y-70425780I249999J0D01*
G01*
X49129781Y-70425780D01*
G75*
G02*
X49379780Y-70675779I0J-249999D01*
G01*
X49379780Y-71975781D01*
G75*
G02*
X49129781Y-72225780I-249999J0D01*
G01*
X48479779Y-72225780D01*
G75*
G02*
X48229780Y-71975781I0J249999D01*
G01*
G37*
G36*
G01*
X45279780Y-39525781D02*
X45279780Y-38225779D01*
G75*
G02*
X45529779Y-37975780I249999J0D01*
G01*
X46179781Y-37975780D01*
G75*
G02*
X46429780Y-38225779I0J-249999D01*
G01*
X46429780Y-39525781D01*
G75*
G02*
X46179781Y-39775780I-249999J0D01*
G01*
X45529779Y-39775780D01*
G75*
G02*
X45279780Y-39525781I0J249999D01*
G01*
G37*
G36*
G01*
X48229780Y-39525781D02*
X48229780Y-38225779D01*
G75*
G02*
X48479779Y-37975780I249999J0D01*
G01*
X49129781Y-37975780D01*
G75*
G02*
X49379780Y-38225779I0J-249999D01*
G01*
X49379780Y-39525781D01*
G75*
G02*
X49129781Y-39775780I-249999J0D01*
G01*
X48479779Y-39775780D01*
G75*
G02*
X48229780Y-39525781I0J249999D01*
G01*
G37*
G36*
G01*
X80929780Y-136900781D02*
X80929780Y-135600779D01*
G75*
G02*
X81179779Y-135350780I249999J0D01*
G01*
X81829781Y-135350780D01*
G75*
G02*
X82079780Y-135600779I0J-249999D01*
G01*
X82079780Y-136900781D01*
G75*
G02*
X81829781Y-137150780I-249999J0D01*
G01*
X81179779Y-137150780D01*
G75*
G02*
X80929780Y-136900781I0J249999D01*
G01*
G37*
G36*
G01*
X77979780Y-136900781D02*
X77979780Y-135600779D01*
G75*
G02*
X78229779Y-135350780I249999J0D01*
G01*
X78879781Y-135350780D01*
G75*
G02*
X79129780Y-135600779I0J-249999D01*
G01*
X79129780Y-136900781D01*
G75*
G02*
X78879781Y-137150780I-249999J0D01*
G01*
X78229779Y-137150780D01*
G75*
G02*
X77979780Y-136900781I0J249999D01*
G01*
G37*
G36*
G01*
X77904780Y-104475781D02*
X77904780Y-103175779D01*
G75*
G02*
X78154779Y-102925780I249999J0D01*
G01*
X78804781Y-102925780D01*
G75*
G02*
X79054780Y-103175779I0J-249999D01*
G01*
X79054780Y-104475781D01*
G75*
G02*
X78804781Y-104725780I-249999J0D01*
G01*
X78154779Y-104725780D01*
G75*
G02*
X77904780Y-104475781I0J249999D01*
G01*
G37*
G36*
G01*
X80854780Y-104475781D02*
X80854780Y-103175779D01*
G75*
G02*
X81104779Y-102925780I249999J0D01*
G01*
X81754781Y-102925780D01*
G75*
G02*
X82004780Y-103175779I0J-249999D01*
G01*
X82004780Y-104475781D01*
G75*
G02*
X81754781Y-104725780I-249999J0D01*
G01*
X81104779Y-104725780D01*
G75*
G02*
X80854780Y-104475781I0J249999D01*
G01*
G37*
G36*
G01*
X80729780Y-72025781D02*
X80729780Y-70725779D01*
G75*
G02*
X80979779Y-70475780I249999J0D01*
G01*
X81629781Y-70475780D01*
G75*
G02*
X81879780Y-70725779I0J-249999D01*
G01*
X81879780Y-72025781D01*
G75*
G02*
X81629781Y-72275780I-249999J0D01*
G01*
X80979779Y-72275780D01*
G75*
G02*
X80729780Y-72025781I0J249999D01*
G01*
G37*
G36*
G01*
X77779780Y-72025781D02*
X77779780Y-70725779D01*
G75*
G02*
X78029779Y-70475780I249999J0D01*
G01*
X78679781Y-70475780D01*
G75*
G02*
X78929780Y-70725779I0J-249999D01*
G01*
X78929780Y-72025781D01*
G75*
G02*
X78679781Y-72275780I-249999J0D01*
G01*
X78029779Y-72275780D01*
G75*
G02*
X77779780Y-72025781I0J249999D01*
G01*
G37*
G36*
G01*
X77729780Y-39575781D02*
X77729780Y-38275779D01*
G75*
G02*
X77979779Y-38025780I249999J0D01*
G01*
X78629781Y-38025780D01*
G75*
G02*
X78879780Y-38275779I0J-249999D01*
G01*
X78879780Y-39575781D01*
G75*
G02*
X78629781Y-39825780I-249999J0D01*
G01*
X77979779Y-39825780D01*
G75*
G02*
X77729780Y-39575781I0J249999D01*
G01*
G37*
G36*
G01*
X80679780Y-39575781D02*
X80679780Y-38275779D01*
G75*
G02*
X80929779Y-38025780I249999J0D01*
G01*
X81579781Y-38025780D01*
G75*
G02*
X81829780Y-38275779I0J-249999D01*
G01*
X81829780Y-39575781D01*
G75*
G02*
X81579781Y-39825780I-249999J0D01*
G01*
X80929779Y-39825780D01*
G75*
G02*
X80679780Y-39575781I0J249999D01*
G01*
G37*
G36*
G01*
X110529780Y-137025781D02*
X110529780Y-135725779D01*
G75*
G02*
X110779779Y-135475780I249999J0D01*
G01*
X111429781Y-135475780D01*
G75*
G02*
X111679780Y-135725779I0J-249999D01*
G01*
X111679780Y-137025781D01*
G75*
G02*
X111429781Y-137275780I-249999J0D01*
G01*
X110779779Y-137275780D01*
G75*
G02*
X110529780Y-137025781I0J249999D01*
G01*
G37*
G36*
G01*
X113479780Y-137025781D02*
X113479780Y-135725779D01*
G75*
G02*
X113729779Y-135475780I249999J0D01*
G01*
X114379781Y-135475780D01*
G75*
G02*
X114629780Y-135725779I0J-249999D01*
G01*
X114629780Y-137025781D01*
G75*
G02*
X114379781Y-137275780I-249999J0D01*
G01*
X113729779Y-137275780D01*
G75*
G02*
X113479780Y-137025781I0J249999D01*
G01*
G37*
G36*
G01*
X113329780Y-104500781D02*
X113329780Y-103200779D01*
G75*
G02*
X113579779Y-102950780I249999J0D01*
G01*
X114229781Y-102950780D01*
G75*
G02*
X114479780Y-103200779I0J-249999D01*
G01*
X114479780Y-104500781D01*
G75*
G02*
X114229781Y-104750780I-249999J0D01*
G01*
X113579779Y-104750780D01*
G75*
G02*
X113329780Y-104500781I0J249999D01*
G01*
G37*
G36*
G01*
X110379780Y-104500781D02*
X110379780Y-103200779D01*
G75*
G02*
X110629779Y-102950780I249999J0D01*
G01*
X111279781Y-102950780D01*
G75*
G02*
X111529780Y-103200779I0J-249999D01*
G01*
X111529780Y-104500781D01*
G75*
G02*
X111279781Y-104750780I-249999J0D01*
G01*
X110629779Y-104750780D01*
G75*
G02*
X110379780Y-104500781I0J249999D01*
G01*
G37*
G36*
G01*
X113379780Y-71950781D02*
X113379780Y-70650779D01*
G75*
G02*
X113629779Y-70400780I249999J0D01*
G01*
X114279781Y-70400780D01*
G75*
G02*
X114529780Y-70650779I0J-249999D01*
G01*
X114529780Y-71950781D01*
G75*
G02*
X114279781Y-72200780I-249999J0D01*
G01*
X113629779Y-72200780D01*
G75*
G02*
X113379780Y-71950781I0J249999D01*
G01*
G37*
G36*
G01*
X110429780Y-71950781D02*
X110429780Y-70650779D01*
G75*
G02*
X110679779Y-70400780I249999J0D01*
G01*
X111329781Y-70400780D01*
G75*
G02*
X111579780Y-70650779I0J-249999D01*
G01*
X111579780Y-71950781D01*
G75*
G02*
X111329781Y-72200780I-249999J0D01*
G01*
X110679779Y-72200780D01*
G75*
G02*
X110429780Y-71950781I0J249999D01*
G01*
G37*
G36*
G01*
X110504780Y-39425781D02*
X110504780Y-38125779D01*
G75*
G02*
X110754779Y-37875780I249999J0D01*
G01*
X111404781Y-37875780D01*
G75*
G02*
X111654780Y-38125779I0J-249999D01*
G01*
X111654780Y-39425781D01*
G75*
G02*
X111404781Y-39675780I-249999J0D01*
G01*
X110754779Y-39675780D01*
G75*
G02*
X110504780Y-39425781I0J249999D01*
G01*
G37*
G36*
G01*
X113454780Y-39425781D02*
X113454780Y-38125779D01*
G75*
G02*
X113704779Y-37875780I249999J0D01*
G01*
X114354781Y-37875780D01*
G75*
G02*
X114604780Y-38125779I0J-249999D01*
G01*
X114604780Y-39425781D01*
G75*
G02*
X114354781Y-39675780I-249999J0D01*
G01*
X113704779Y-39675780D01*
G75*
G02*
X113454780Y-39425781I0J249999D01*
G01*
G37*
G36*
G01*
X142854780Y-137000781D02*
X142854780Y-135700779D01*
G75*
G02*
X143104779Y-135450780I249999J0D01*
G01*
X143754781Y-135450780D01*
G75*
G02*
X144004780Y-135700779I0J-249999D01*
G01*
X144004780Y-137000781D01*
G75*
G02*
X143754781Y-137250780I-249999J0D01*
G01*
X143104779Y-137250780D01*
G75*
G02*
X142854780Y-137000781I0J249999D01*
G01*
G37*
G36*
G01*
X145804780Y-137000781D02*
X145804780Y-135700779D01*
G75*
G02*
X146054779Y-135450780I249999J0D01*
G01*
X146704781Y-135450780D01*
G75*
G02*
X146954780Y-135700779I0J-249999D01*
G01*
X146954780Y-137000781D01*
G75*
G02*
X146704781Y-137250780I-249999J0D01*
G01*
X146054779Y-137250780D01*
G75*
G02*
X145804780Y-137000781I0J249999D01*
G01*
G37*
G36*
G01*
X145879780Y-104400781D02*
X145879780Y-103100779D01*
G75*
G02*
X146129779Y-102850780I249999J0D01*
G01*
X146779781Y-102850780D01*
G75*
G02*
X147029780Y-103100779I0J-249999D01*
G01*
X147029780Y-104400781D01*
G75*
G02*
X146779781Y-104650780I-249999J0D01*
G01*
X146129779Y-104650780D01*
G75*
G02*
X145879780Y-104400781I0J249999D01*
G01*
G37*
G36*
G01*
X142929780Y-104400781D02*
X142929780Y-103100779D01*
G75*
G02*
X143179779Y-102850780I249999J0D01*
G01*
X143829781Y-102850780D01*
G75*
G02*
X144079780Y-103100779I0J-249999D01*
G01*
X144079780Y-104400781D01*
G75*
G02*
X143829781Y-104650780I-249999J0D01*
G01*
X143179779Y-104650780D01*
G75*
G02*
X142929780Y-104400781I0J249999D01*
G01*
G37*
G36*
G01*
X145829780Y-71925781D02*
X145829780Y-70625779D01*
G75*
G02*
X146079779Y-70375780I249999J0D01*
G01*
X146729781Y-70375780D01*
G75*
G02*
X146979780Y-70625779I0J-249999D01*
G01*
X146979780Y-71925781D01*
G75*
G02*
X146729781Y-72175780I-249999J0D01*
G01*
X146079779Y-72175780D01*
G75*
G02*
X145829780Y-71925781I0J249999D01*
G01*
G37*
G36*
G01*
X142879780Y-71925781D02*
X142879780Y-70625779D01*
G75*
G02*
X143129779Y-70375780I249999J0D01*
G01*
X143779781Y-70375780D01*
G75*
G02*
X144029780Y-70625779I0J-249999D01*
G01*
X144029780Y-71925781D01*
G75*
G02*
X143779781Y-72175780I-249999J0D01*
G01*
X143129779Y-72175780D01*
G75*
G02*
X142879780Y-71925781I0J249999D01*
G01*
G37*
G36*
G01*
X145829780Y-39475781D02*
X145829780Y-38175779D01*
G75*
G02*
X146079779Y-37925780I249999J0D01*
G01*
X146729781Y-37925780D01*
G75*
G02*
X146979780Y-38175779I0J-249999D01*
G01*
X146979780Y-39475781D01*
G75*
G02*
X146729781Y-39725780I-249999J0D01*
G01*
X146079779Y-39725780D01*
G75*
G02*
X145829780Y-39475781I0J249999D01*
G01*
G37*
G36*
G01*
X142879780Y-39475781D02*
X142879780Y-38175779D01*
G75*
G02*
X143129779Y-37925780I249999J0D01*
G01*
X143779781Y-37925780D01*
G75*
G02*
X144029780Y-38175779I0J-249999D01*
G01*
X144029780Y-39475781D01*
G75*
G02*
X143779781Y-39725780I-249999J0D01*
G01*
X143129779Y-39725780D01*
G75*
G02*
X142879780Y-39475781I0J249999D01*
G01*
G37*
G36*
G01*
X43254780Y-128988280D02*
X40404780Y-128988280D01*
G75*
G02*
X40154780Y-128738280I0J250000D01*
G01*
X40154780Y-128013280D01*
G75*
G02*
X40404780Y-127763280I250000J0D01*
G01*
X43254780Y-127763280D01*
G75*
G02*
X43504780Y-128013280I0J-250000D01*
G01*
X43504780Y-128738280D01*
G75*
G02*
X43254780Y-128988280I-250000J0D01*
G01*
G37*
G36*
G01*
X43254780Y-134913280D02*
X40404780Y-134913280D01*
G75*
G02*
X40154780Y-134663280I0J250000D01*
G01*
X40154780Y-133938280D01*
G75*
G02*
X40404780Y-133688280I250000J0D01*
G01*
X43254780Y-133688280D01*
G75*
G02*
X43504780Y-133938280I0J-250000D01*
G01*
X43504780Y-134663280D01*
G75*
G02*
X43254780Y-134913280I-250000J0D01*
G01*
G37*
G36*
G01*
X39467280Y-134850780D02*
X39467280Y-137700780D01*
G75*
G02*
X39217280Y-137950780I-250000J0D01*
G01*
X38492280Y-137950780D01*
G75*
G02*
X38242280Y-137700780I0J250000D01*
G01*
X38242280Y-134850780D01*
G75*
G02*
X38492280Y-134600780I250000J0D01*
G01*
X39217280Y-134600780D01*
G75*
G02*
X39467280Y-134850780I0J-250000D01*
G01*
G37*
G36*
G01*
X33542280Y-134850780D02*
X33542280Y-137700780D01*
G75*
G02*
X33292280Y-137950780I-250000J0D01*
G01*
X32567280Y-137950780D01*
G75*
G02*
X32317280Y-137700780I0J250000D01*
G01*
X32317280Y-134850780D01*
G75*
G02*
X32567280Y-134600780I250000J0D01*
G01*
X33292280Y-134600780D01*
G75*
G02*
X33542280Y-134850780I0J-250000D01*
G01*
G37*
G36*
G01*
X43154780Y-96413280D02*
X40304780Y-96413280D01*
G75*
G02*
X40054780Y-96163280I0J250000D01*
G01*
X40054780Y-95438280D01*
G75*
G02*
X40304780Y-95188280I250000J0D01*
G01*
X43154780Y-95188280D01*
G75*
G02*
X43404780Y-95438280I0J-250000D01*
G01*
X43404780Y-96163280D01*
G75*
G02*
X43154780Y-96413280I-250000J0D01*
G01*
G37*
G36*
G01*
X43154780Y-102338280D02*
X40304780Y-102338280D01*
G75*
G02*
X40054780Y-102088280I0J250000D01*
G01*
X40054780Y-101363280D01*
G75*
G02*
X40304780Y-101113280I250000J0D01*
G01*
X43154780Y-101113280D01*
G75*
G02*
X43404780Y-101363280I0J-250000D01*
G01*
X43404780Y-102088280D01*
G75*
G02*
X43154780Y-102338280I-250000J0D01*
G01*
G37*
G36*
G01*
X39417280Y-102250780D02*
X39417280Y-105100780D01*
G75*
G02*
X39167280Y-105350780I-250000J0D01*
G01*
X38442280Y-105350780D01*
G75*
G02*
X38192280Y-105100780I0J250000D01*
G01*
X38192280Y-102250780D01*
G75*
G02*
X38442280Y-102000780I250000J0D01*
G01*
X39167280Y-102000780D01*
G75*
G02*
X39417280Y-102250780I0J-250000D01*
G01*
G37*
G36*
G01*
X33492280Y-102250780D02*
X33492280Y-105100780D01*
G75*
G02*
X33242280Y-105350780I-250000J0D01*
G01*
X32517280Y-105350780D01*
G75*
G02*
X32267280Y-105100780I0J250000D01*
G01*
X32267280Y-102250780D01*
G75*
G02*
X32517280Y-102000780I250000J0D01*
G01*
X33242280Y-102000780D01*
G75*
G02*
X33492280Y-102250780I0J-250000D01*
G01*
G37*
G36*
G01*
X43079780Y-64063280D02*
X40229780Y-64063280D01*
G75*
G02*
X39979780Y-63813280I0J250000D01*
G01*
X39979780Y-63088280D01*
G75*
G02*
X40229780Y-62838280I250000J0D01*
G01*
X43079780Y-62838280D01*
G75*
G02*
X43329780Y-63088280I0J-250000D01*
G01*
X43329780Y-63813280D01*
G75*
G02*
X43079780Y-64063280I-250000J0D01*
G01*
G37*
G36*
G01*
X43079780Y-69988280D02*
X40229780Y-69988280D01*
G75*
G02*
X39979780Y-69738280I0J250000D01*
G01*
X39979780Y-69013280D01*
G75*
G02*
X40229780Y-68763280I250000J0D01*
G01*
X43079780Y-68763280D01*
G75*
G02*
X43329780Y-69013280I0J-250000D01*
G01*
X43329780Y-69738280D01*
G75*
G02*
X43079780Y-69988280I-250000J0D01*
G01*
G37*
G36*
G01*
X39317280Y-69900780D02*
X39317280Y-72750780D01*
G75*
G02*
X39067280Y-73000780I-250000J0D01*
G01*
X38342280Y-73000780D01*
G75*
G02*
X38092280Y-72750780I0J250000D01*
G01*
X38092280Y-69900780D01*
G75*
G02*
X38342280Y-69650780I250000J0D01*
G01*
X39067280Y-69650780D01*
G75*
G02*
X39317280Y-69900780I0J-250000D01*
G01*
G37*
G36*
G01*
X33392280Y-69900780D02*
X33392280Y-72750780D01*
G75*
G02*
X33142280Y-73000780I-250000J0D01*
G01*
X32417280Y-73000780D01*
G75*
G02*
X32167280Y-72750780I0J250000D01*
G01*
X32167280Y-69900780D01*
G75*
G02*
X32417280Y-69650780I250000J0D01*
G01*
X33142280Y-69650780D01*
G75*
G02*
X33392280Y-69900780I0J-250000D01*
G01*
G37*
G36*
G01*
X43104780Y-37300780D02*
X40254780Y-37300780D01*
G75*
G02*
X40004780Y-37050780I0J250000D01*
G01*
X40004780Y-36325780D01*
G75*
G02*
X40254780Y-36075780I250000J0D01*
G01*
X43104780Y-36075780D01*
G75*
G02*
X43354780Y-36325780I0J-250000D01*
G01*
X43354780Y-37050780D01*
G75*
G02*
X43104780Y-37300780I-250000J0D01*
G01*
G37*
G36*
G01*
X43104780Y-31375780D02*
X40254780Y-31375780D01*
G75*
G02*
X40004780Y-31125780I0J250000D01*
G01*
X40004780Y-30400780D01*
G75*
G02*
X40254780Y-30150780I250000J0D01*
G01*
X43104780Y-30150780D01*
G75*
G02*
X43354780Y-30400780I0J-250000D01*
G01*
X43354780Y-31125780D01*
G75*
G02*
X43104780Y-31375780I-250000J0D01*
G01*
G37*
G36*
G01*
X33354780Y-37450780D02*
X33354780Y-40300780D01*
G75*
G02*
X33104780Y-40550780I-250000J0D01*
G01*
X32379780Y-40550780D01*
G75*
G02*
X32129780Y-40300780I0J250000D01*
G01*
X32129780Y-37450780D01*
G75*
G02*
X32379780Y-37200780I250000J0D01*
G01*
X33104780Y-37200780D01*
G75*
G02*
X33354780Y-37450780I0J-250000D01*
G01*
G37*
G36*
G01*
X39279780Y-37450780D02*
X39279780Y-40300780D01*
G75*
G02*
X39029780Y-40550780I-250000J0D01*
G01*
X38304780Y-40550780D01*
G75*
G02*
X38054780Y-40300780I0J250000D01*
G01*
X38054780Y-37450780D01*
G75*
G02*
X38304780Y-37200780I250000J0D01*
G01*
X39029780Y-37200780D01*
G75*
G02*
X39279780Y-37450780I0J-250000D01*
G01*
G37*
G36*
G01*
X47454780Y-134838280D02*
X44604780Y-134838280D01*
G75*
G02*
X44354780Y-134588280I0J250000D01*
G01*
X44354780Y-133863280D01*
G75*
G02*
X44604780Y-133613280I250000J0D01*
G01*
X47454780Y-133613280D01*
G75*
G02*
X47704780Y-133863280I0J-250000D01*
G01*
X47704780Y-134588280D01*
G75*
G02*
X47454780Y-134838280I-250000J0D01*
G01*
G37*
G36*
G01*
X47454780Y-128913280D02*
X44604780Y-128913280D01*
G75*
G02*
X44354780Y-128663280I0J250000D01*
G01*
X44354780Y-127938280D01*
G75*
G02*
X44604780Y-127688280I250000J0D01*
G01*
X47454780Y-127688280D01*
G75*
G02*
X47704780Y-127938280I0J-250000D01*
G01*
X47704780Y-128663280D01*
G75*
G02*
X47454780Y-128913280I-250000J0D01*
G01*
G37*
G36*
G01*
X47304780Y-96325780D02*
X44454780Y-96325780D01*
G75*
G02*
X44204780Y-96075780I0J250000D01*
G01*
X44204780Y-95350780D01*
G75*
G02*
X44454780Y-95100780I250000J0D01*
G01*
X47304780Y-95100780D01*
G75*
G02*
X47554780Y-95350780I0J-250000D01*
G01*
X47554780Y-96075780D01*
G75*
G02*
X47304780Y-96325780I-250000J0D01*
G01*
G37*
G36*
G01*
X47304780Y-102250780D02*
X44454780Y-102250780D01*
G75*
G02*
X44204780Y-102000780I0J250000D01*
G01*
X44204780Y-101275780D01*
G75*
G02*
X44454780Y-101025780I250000J0D01*
G01*
X47304780Y-101025780D01*
G75*
G02*
X47554780Y-101275780I0J-250000D01*
G01*
X47554780Y-102000780D01*
G75*
G02*
X47304780Y-102250780I-250000J0D01*
G01*
G37*
G36*
G01*
X47279780Y-69938280D02*
X44429780Y-69938280D01*
G75*
G02*
X44179780Y-69688280I0J250000D01*
G01*
X44179780Y-68963280D01*
G75*
G02*
X44429780Y-68713280I250000J0D01*
G01*
X47279780Y-68713280D01*
G75*
G02*
X47529780Y-68963280I0J-250000D01*
G01*
X47529780Y-69688280D01*
G75*
G02*
X47279780Y-69938280I-250000J0D01*
G01*
G37*
G36*
G01*
X47279780Y-64013280D02*
X44429780Y-64013280D01*
G75*
G02*
X44179780Y-63763280I0J250000D01*
G01*
X44179780Y-63038280D01*
G75*
G02*
X44429780Y-62788280I250000J0D01*
G01*
X47279780Y-62788280D01*
G75*
G02*
X47529780Y-63038280I0J-250000D01*
G01*
X47529780Y-63763280D01*
G75*
G02*
X47279780Y-64013280I-250000J0D01*
G01*
G37*
G36*
G01*
X47279780Y-31388280D02*
X44429780Y-31388280D01*
G75*
G02*
X44179780Y-31138280I0J250000D01*
G01*
X44179780Y-30413280D01*
G75*
G02*
X44429780Y-30163280I250000J0D01*
G01*
X47279780Y-30163280D01*
G75*
G02*
X47529780Y-30413280I0J-250000D01*
G01*
X47529780Y-31138280D01*
G75*
G02*
X47279780Y-31388280I-250000J0D01*
G01*
G37*
G36*
G01*
X47279780Y-37313280D02*
X44429780Y-37313280D01*
G75*
G02*
X44179780Y-37063280I0J250000D01*
G01*
X44179780Y-36338280D01*
G75*
G02*
X44429780Y-36088280I250000J0D01*
G01*
X47279780Y-36088280D01*
G75*
G02*
X47529780Y-36338280I0J-250000D01*
G01*
X47529780Y-37063280D01*
G75*
G02*
X47279780Y-37313280I-250000J0D01*
G01*
G37*
G36*
G01*
X75779780Y-134888280D02*
X72929780Y-134888280D01*
G75*
G02*
X72679780Y-134638280I0J250000D01*
G01*
X72679780Y-133913280D01*
G75*
G02*
X72929780Y-133663280I250000J0D01*
G01*
X75779780Y-133663280D01*
G75*
G02*
X76029780Y-133913280I0J-250000D01*
G01*
X76029780Y-134638280D01*
G75*
G02*
X75779780Y-134888280I-250000J0D01*
G01*
G37*
G36*
G01*
X75779780Y-128963280D02*
X72929780Y-128963280D01*
G75*
G02*
X72679780Y-128713280I0J250000D01*
G01*
X72679780Y-127988280D01*
G75*
G02*
X72929780Y-127738280I250000J0D01*
G01*
X75779780Y-127738280D01*
G75*
G02*
X76029780Y-127988280I0J-250000D01*
G01*
X76029780Y-128713280D01*
G75*
G02*
X75779780Y-128963280I-250000J0D01*
G01*
G37*
G36*
G01*
X66067280Y-134825780D02*
X66067280Y-137675780D01*
G75*
G02*
X65817280Y-137925780I-250000J0D01*
G01*
X65092280Y-137925780D01*
G75*
G02*
X64842280Y-137675780I0J250000D01*
G01*
X64842280Y-134825780D01*
G75*
G02*
X65092280Y-134575780I250000J0D01*
G01*
X65817280Y-134575780D01*
G75*
G02*
X66067280Y-134825780I0J-250000D01*
G01*
G37*
G36*
G01*
X71992280Y-134825780D02*
X71992280Y-137675780D01*
G75*
G02*
X71742280Y-137925780I-250000J0D01*
G01*
X71017280Y-137925780D01*
G75*
G02*
X70767280Y-137675780I0J250000D01*
G01*
X70767280Y-134825780D01*
G75*
G02*
X71017280Y-134575780I250000J0D01*
G01*
X71742280Y-134575780D01*
G75*
G02*
X71992280Y-134825780I0J-250000D01*
G01*
G37*
G36*
G01*
X75729780Y-102438280D02*
X72879780Y-102438280D01*
G75*
G02*
X72629780Y-102188280I0J250000D01*
G01*
X72629780Y-101463280D01*
G75*
G02*
X72879780Y-101213280I250000J0D01*
G01*
X75729780Y-101213280D01*
G75*
G02*
X75979780Y-101463280I0J-250000D01*
G01*
X75979780Y-102188280D01*
G75*
G02*
X75729780Y-102438280I-250000J0D01*
G01*
G37*
G36*
G01*
X75729780Y-96513280D02*
X72879780Y-96513280D01*
G75*
G02*
X72629780Y-96263280I0J250000D01*
G01*
X72629780Y-95538280D01*
G75*
G02*
X72879780Y-95288280I250000J0D01*
G01*
X75729780Y-95288280D01*
G75*
G02*
X75979780Y-95538280I0J-250000D01*
G01*
X75979780Y-96263280D01*
G75*
G02*
X75729780Y-96513280I-250000J0D01*
G01*
G37*
G36*
G01*
X66017280Y-102400780D02*
X66017280Y-105250780D01*
G75*
G02*
X65767280Y-105500780I-250000J0D01*
G01*
X65042280Y-105500780D01*
G75*
G02*
X64792280Y-105250780I0J250000D01*
G01*
X64792280Y-102400780D01*
G75*
G02*
X65042280Y-102150780I250000J0D01*
G01*
X65767280Y-102150780D01*
G75*
G02*
X66017280Y-102400780I0J-250000D01*
G01*
G37*
G36*
G01*
X71942280Y-102400780D02*
X71942280Y-105250780D01*
G75*
G02*
X71692280Y-105500780I-250000J0D01*
G01*
X70967280Y-105500780D01*
G75*
G02*
X70717280Y-105250780I0J250000D01*
G01*
X70717280Y-102400780D01*
G75*
G02*
X70967280Y-102150780I250000J0D01*
G01*
X71692280Y-102150780D01*
G75*
G02*
X71942280Y-102400780I0J-250000D01*
G01*
G37*
G36*
G01*
X75579780Y-64088280D02*
X72729780Y-64088280D01*
G75*
G02*
X72479780Y-63838280I0J250000D01*
G01*
X72479780Y-63113280D01*
G75*
G02*
X72729780Y-62863280I250000J0D01*
G01*
X75579780Y-62863280D01*
G75*
G02*
X75829780Y-63113280I0J-250000D01*
G01*
X75829780Y-63838280D01*
G75*
G02*
X75579780Y-64088280I-250000J0D01*
G01*
G37*
G36*
G01*
X75579780Y-70013280D02*
X72729780Y-70013280D01*
G75*
G02*
X72479780Y-69763280I0J250000D01*
G01*
X72479780Y-69038280D01*
G75*
G02*
X72729780Y-68788280I250000J0D01*
G01*
X75579780Y-68788280D01*
G75*
G02*
X75829780Y-69038280I0J-250000D01*
G01*
X75829780Y-69763280D01*
G75*
G02*
X75579780Y-70013280I-250000J0D01*
G01*
G37*
G36*
G01*
X71842280Y-69950780D02*
X71842280Y-72800780D01*
G75*
G02*
X71592280Y-73050780I-250000J0D01*
G01*
X70867280Y-73050780D01*
G75*
G02*
X70617280Y-72800780I0J250000D01*
G01*
X70617280Y-69950780D01*
G75*
G02*
X70867280Y-69700780I250000J0D01*
G01*
X71592280Y-69700780D01*
G75*
G02*
X71842280Y-69950780I0J-250000D01*
G01*
G37*
G36*
G01*
X65917280Y-69950780D02*
X65917280Y-72800780D01*
G75*
G02*
X65667280Y-73050780I-250000J0D01*
G01*
X64942280Y-73050780D01*
G75*
G02*
X64692280Y-72800780I0J250000D01*
G01*
X64692280Y-69950780D01*
G75*
G02*
X64942280Y-69700780I250000J0D01*
G01*
X65667280Y-69700780D01*
G75*
G02*
X65917280Y-69950780I0J-250000D01*
G01*
G37*
G36*
G01*
X75554780Y-37613280D02*
X72704780Y-37613280D01*
G75*
G02*
X72454780Y-37363280I0J250000D01*
G01*
X72454780Y-36638280D01*
G75*
G02*
X72704780Y-36388280I250000J0D01*
G01*
X75554780Y-36388280D01*
G75*
G02*
X75804780Y-36638280I0J-250000D01*
G01*
X75804780Y-37363280D01*
G75*
G02*
X75554780Y-37613280I-250000J0D01*
G01*
G37*
G36*
G01*
X75554780Y-31688280D02*
X72704780Y-31688280D01*
G75*
G02*
X72454780Y-31438280I0J250000D01*
G01*
X72454780Y-30713280D01*
G75*
G02*
X72704780Y-30463280I250000J0D01*
G01*
X75554780Y-30463280D01*
G75*
G02*
X75804780Y-30713280I0J-250000D01*
G01*
X75804780Y-31438280D01*
G75*
G02*
X75554780Y-31688280I-250000J0D01*
G01*
G37*
G36*
G01*
X66017280Y-37500780D02*
X66017280Y-40350780D01*
G75*
G02*
X65767280Y-40600780I-250000J0D01*
G01*
X65042280Y-40600780D01*
G75*
G02*
X64792280Y-40350780I0J250000D01*
G01*
X64792280Y-37500780D01*
G75*
G02*
X65042280Y-37250780I250000J0D01*
G01*
X65767280Y-37250780D01*
G75*
G02*
X66017280Y-37500780I0J-250000D01*
G01*
G37*
G36*
G01*
X71942280Y-37500780D02*
X71942280Y-40350780D01*
G75*
G02*
X71692280Y-40600780I-250000J0D01*
G01*
X70967280Y-40600780D01*
G75*
G02*
X70717280Y-40350780I0J250000D01*
G01*
X70717280Y-37500780D01*
G75*
G02*
X70967280Y-37250780I250000J0D01*
G01*
X71692280Y-37250780D01*
G75*
G02*
X71942280Y-37500780I0J-250000D01*
G01*
G37*
G36*
G01*
X79979780Y-134813280D02*
X77129780Y-134813280D01*
G75*
G02*
X76879780Y-134563280I0J250000D01*
G01*
X76879780Y-133838280D01*
G75*
G02*
X77129780Y-133588280I250000J0D01*
G01*
X79979780Y-133588280D01*
G75*
G02*
X80229780Y-133838280I0J-250000D01*
G01*
X80229780Y-134563280D01*
G75*
G02*
X79979780Y-134813280I-250000J0D01*
G01*
G37*
G36*
G01*
X79979780Y-128888280D02*
X77129780Y-128888280D01*
G75*
G02*
X76879780Y-128638280I0J250000D01*
G01*
X76879780Y-127913280D01*
G75*
G02*
X77129780Y-127663280I250000J0D01*
G01*
X79979780Y-127663280D01*
G75*
G02*
X80229780Y-127913280I0J-250000D01*
G01*
X80229780Y-128638280D01*
G75*
G02*
X79979780Y-128888280I-250000J0D01*
G01*
G37*
G36*
G01*
X79904780Y-102388280D02*
X77054780Y-102388280D01*
G75*
G02*
X76804780Y-102138280I0J250000D01*
G01*
X76804780Y-101413280D01*
G75*
G02*
X77054780Y-101163280I250000J0D01*
G01*
X79904780Y-101163280D01*
G75*
G02*
X80154780Y-101413280I0J-250000D01*
G01*
X80154780Y-102138280D01*
G75*
G02*
X79904780Y-102388280I-250000J0D01*
G01*
G37*
G36*
G01*
X79904780Y-96463280D02*
X77054780Y-96463280D01*
G75*
G02*
X76804780Y-96213280I0J250000D01*
G01*
X76804780Y-95488280D01*
G75*
G02*
X77054780Y-95238280I250000J0D01*
G01*
X79904780Y-95238280D01*
G75*
G02*
X80154780Y-95488280I0J-250000D01*
G01*
X80154780Y-96213280D01*
G75*
G02*
X79904780Y-96463280I-250000J0D01*
G01*
G37*
G36*
G01*
X79779780Y-69888280D02*
X76929780Y-69888280D01*
G75*
G02*
X76679780Y-69638280I0J250000D01*
G01*
X76679780Y-68913280D01*
G75*
G02*
X76929780Y-68663280I250000J0D01*
G01*
X79779780Y-68663280D01*
G75*
G02*
X80029780Y-68913280I0J-250000D01*
G01*
X80029780Y-69638280D01*
G75*
G02*
X79779780Y-69888280I-250000J0D01*
G01*
G37*
G36*
G01*
X79779780Y-63963280D02*
X76929780Y-63963280D01*
G75*
G02*
X76679780Y-63713280I0J250000D01*
G01*
X76679780Y-62988280D01*
G75*
G02*
X76929780Y-62738280I250000J0D01*
G01*
X79779780Y-62738280D01*
G75*
G02*
X80029780Y-62988280I0J-250000D01*
G01*
X80029780Y-63713280D01*
G75*
G02*
X79779780Y-63963280I-250000J0D01*
G01*
G37*
G36*
G01*
X79729780Y-31613280D02*
X76879780Y-31613280D01*
G75*
G02*
X76629780Y-31363280I0J250000D01*
G01*
X76629780Y-30638280D01*
G75*
G02*
X76879780Y-30388280I250000J0D01*
G01*
X79729780Y-30388280D01*
G75*
G02*
X79979780Y-30638280I0J-250000D01*
G01*
X79979780Y-31363280D01*
G75*
G02*
X79729780Y-31613280I-250000J0D01*
G01*
G37*
G36*
G01*
X79729780Y-37538280D02*
X76879780Y-37538280D01*
G75*
G02*
X76629780Y-37288280I0J250000D01*
G01*
X76629780Y-36563280D01*
G75*
G02*
X76879780Y-36313280I250000J0D01*
G01*
X79729780Y-36313280D01*
G75*
G02*
X79979780Y-36563280I0J-250000D01*
G01*
X79979780Y-37288280D01*
G75*
G02*
X79729780Y-37538280I-250000J0D01*
G01*
G37*
G36*
G01*
X108304780Y-129088280D02*
X105454780Y-129088280D01*
G75*
G02*
X105204780Y-128838280I0J250000D01*
G01*
X105204780Y-128113280D01*
G75*
G02*
X105454780Y-127863280I250000J0D01*
G01*
X108304780Y-127863280D01*
G75*
G02*
X108554780Y-128113280I0J-250000D01*
G01*
X108554780Y-128838280D01*
G75*
G02*
X108304780Y-129088280I-250000J0D01*
G01*
G37*
G36*
G01*
X108304780Y-135013280D02*
X105454780Y-135013280D01*
G75*
G02*
X105204780Y-134763280I0J250000D01*
G01*
X105204780Y-134038280D01*
G75*
G02*
X105454780Y-133788280I250000J0D01*
G01*
X108304780Y-133788280D01*
G75*
G02*
X108554780Y-134038280I0J-250000D01*
G01*
X108554780Y-134763280D01*
G75*
G02*
X108304780Y-135013280I-250000J0D01*
G01*
G37*
G36*
G01*
X104517280Y-134950780D02*
X104517280Y-137800780D01*
G75*
G02*
X104267280Y-138050780I-250000J0D01*
G01*
X103542280Y-138050780D01*
G75*
G02*
X103292280Y-137800780I0J250000D01*
G01*
X103292280Y-134950780D01*
G75*
G02*
X103542280Y-134700780I250000J0D01*
G01*
X104267280Y-134700780D01*
G75*
G02*
X104517280Y-134950780I0J-250000D01*
G01*
G37*
G36*
G01*
X98592280Y-134950780D02*
X98592280Y-137800780D01*
G75*
G02*
X98342280Y-138050780I-250000J0D01*
G01*
X97617280Y-138050780D01*
G75*
G02*
X97367280Y-137800780I0J250000D01*
G01*
X97367280Y-134950780D01*
G75*
G02*
X97617280Y-134700780I250000J0D01*
G01*
X98342280Y-134700780D01*
G75*
G02*
X98592280Y-134950780I0J-250000D01*
G01*
G37*
G36*
G01*
X108154780Y-96588280D02*
X105304780Y-96588280D01*
G75*
G02*
X105054780Y-96338280I0J250000D01*
G01*
X105054780Y-95613280D01*
G75*
G02*
X105304780Y-95363280I250000J0D01*
G01*
X108154780Y-95363280D01*
G75*
G02*
X108404780Y-95613280I0J-250000D01*
G01*
X108404780Y-96338280D01*
G75*
G02*
X108154780Y-96588280I-250000J0D01*
G01*
G37*
G36*
G01*
X108154780Y-102513280D02*
X105304780Y-102513280D01*
G75*
G02*
X105054780Y-102263280I0J250000D01*
G01*
X105054780Y-101538280D01*
G75*
G02*
X105304780Y-101288280I250000J0D01*
G01*
X108154780Y-101288280D01*
G75*
G02*
X108404780Y-101538280I0J-250000D01*
G01*
X108404780Y-102263280D01*
G75*
G02*
X108154780Y-102513280I-250000J0D01*
G01*
G37*
G36*
G01*
X104342280Y-102425780D02*
X104342280Y-105275780D01*
G75*
G02*
X104092280Y-105525780I-250000J0D01*
G01*
X103367280Y-105525780D01*
G75*
G02*
X103117280Y-105275780I0J250000D01*
G01*
X103117280Y-102425780D01*
G75*
G02*
X103367280Y-102175780I250000J0D01*
G01*
X104092280Y-102175780D01*
G75*
G02*
X104342280Y-102425780I0J-250000D01*
G01*
G37*
G36*
G01*
X98417280Y-102425780D02*
X98417280Y-105275780D01*
G75*
G02*
X98167280Y-105525780I-250000J0D01*
G01*
X97442280Y-105525780D01*
G75*
G02*
X97192280Y-105275780I0J250000D01*
G01*
X97192280Y-102425780D01*
G75*
G02*
X97442280Y-102175780I250000J0D01*
G01*
X98167280Y-102175780D01*
G75*
G02*
X98417280Y-102425780I0J-250000D01*
G01*
G37*
G36*
G01*
X108254780Y-69938280D02*
X105404780Y-69938280D01*
G75*
G02*
X105154780Y-69688280I0J250000D01*
G01*
X105154780Y-68963280D01*
G75*
G02*
X105404780Y-68713280I250000J0D01*
G01*
X108254780Y-68713280D01*
G75*
G02*
X108504780Y-68963280I0J-250000D01*
G01*
X108504780Y-69688280D01*
G75*
G02*
X108254780Y-69938280I-250000J0D01*
G01*
G37*
G36*
G01*
X108254780Y-64013280D02*
X105404780Y-64013280D01*
G75*
G02*
X105154780Y-63763280I0J250000D01*
G01*
X105154780Y-63038280D01*
G75*
G02*
X105404780Y-62788280I250000J0D01*
G01*
X108254780Y-62788280D01*
G75*
G02*
X108504780Y-63038280I0J-250000D01*
G01*
X108504780Y-63763280D01*
G75*
G02*
X108254780Y-64013280I-250000J0D01*
G01*
G37*
G36*
G01*
X98542280Y-69875780D02*
X98542280Y-72725780D01*
G75*
G02*
X98292280Y-72975780I-250000J0D01*
G01*
X97567280Y-72975780D01*
G75*
G02*
X97317280Y-72725780I0J250000D01*
G01*
X97317280Y-69875780D01*
G75*
G02*
X97567280Y-69625780I250000J0D01*
G01*
X98292280Y-69625780D01*
G75*
G02*
X98542280Y-69875780I0J-250000D01*
G01*
G37*
G36*
G01*
X104467280Y-69875780D02*
X104467280Y-72725780D01*
G75*
G02*
X104217280Y-72975780I-250000J0D01*
G01*
X103492280Y-72975780D01*
G75*
G02*
X103242280Y-72725780I0J250000D01*
G01*
X103242280Y-69875780D01*
G75*
G02*
X103492280Y-69625780I250000J0D01*
G01*
X104217280Y-69625780D01*
G75*
G02*
X104467280Y-69875780I0J-250000D01*
G01*
G37*
G36*
G01*
X108254780Y-37425780D02*
X105404780Y-37425780D01*
G75*
G02*
X105154780Y-37175780I0J250000D01*
G01*
X105154780Y-36450780D01*
G75*
G02*
X105404780Y-36200780I250000J0D01*
G01*
X108254780Y-36200780D01*
G75*
G02*
X108504780Y-36450780I0J-250000D01*
G01*
X108504780Y-37175780D01*
G75*
G02*
X108254780Y-37425780I-250000J0D01*
G01*
G37*
G36*
G01*
X108254780Y-31500780D02*
X105404780Y-31500780D01*
G75*
G02*
X105154780Y-31250780I0J250000D01*
G01*
X105154780Y-30525780D01*
G75*
G02*
X105404780Y-30275780I250000J0D01*
G01*
X108254780Y-30275780D01*
G75*
G02*
X108504780Y-30525780I0J-250000D01*
G01*
X108504780Y-31250780D01*
G75*
G02*
X108254780Y-31500780I-250000J0D01*
G01*
G37*
G36*
G01*
X98717280Y-37350780D02*
X98717280Y-40200780D01*
G75*
G02*
X98467280Y-40450780I-250000J0D01*
G01*
X97742280Y-40450780D01*
G75*
G02*
X97492280Y-40200780I0J250000D01*
G01*
X97492280Y-37350780D01*
G75*
G02*
X97742280Y-37100780I250000J0D01*
G01*
X98467280Y-37100780D01*
G75*
G02*
X98717280Y-37350780I0J-250000D01*
G01*
G37*
G36*
G01*
X104642280Y-37350780D02*
X104642280Y-40200780D01*
G75*
G02*
X104392280Y-40450780I-250000J0D01*
G01*
X103667280Y-40450780D01*
G75*
G02*
X103417280Y-40200780I0J250000D01*
G01*
X103417280Y-37350780D01*
G75*
G02*
X103667280Y-37100780I250000J0D01*
G01*
X104392280Y-37100780D01*
G75*
G02*
X104642280Y-37350780I0J-250000D01*
G01*
G37*
G36*
G01*
X112529780Y-134938280D02*
X109679780Y-134938280D01*
G75*
G02*
X109429780Y-134688280I0J250000D01*
G01*
X109429780Y-133963280D01*
G75*
G02*
X109679780Y-133713280I250000J0D01*
G01*
X112529780Y-133713280D01*
G75*
G02*
X112779780Y-133963280I0J-250000D01*
G01*
X112779780Y-134688280D01*
G75*
G02*
X112529780Y-134938280I-250000J0D01*
G01*
G37*
G36*
G01*
X112529780Y-129013280D02*
X109679780Y-129013280D01*
G75*
G02*
X109429780Y-128763280I0J250000D01*
G01*
X109429780Y-128038280D01*
G75*
G02*
X109679780Y-127788280I250000J0D01*
G01*
X112529780Y-127788280D01*
G75*
G02*
X112779780Y-128038280I0J-250000D01*
G01*
X112779780Y-128763280D01*
G75*
G02*
X112529780Y-129013280I-250000J0D01*
G01*
G37*
G36*
G01*
X112379780Y-102463280D02*
X109529780Y-102463280D01*
G75*
G02*
X109279780Y-102213280I0J250000D01*
G01*
X109279780Y-101488280D01*
G75*
G02*
X109529780Y-101238280I250000J0D01*
G01*
X112379780Y-101238280D01*
G75*
G02*
X112629780Y-101488280I0J-250000D01*
G01*
X112629780Y-102213280D01*
G75*
G02*
X112379780Y-102463280I-250000J0D01*
G01*
G37*
G36*
G01*
X112379780Y-96538280D02*
X109529780Y-96538280D01*
G75*
G02*
X109279780Y-96288280I0J250000D01*
G01*
X109279780Y-95563280D01*
G75*
G02*
X109529780Y-95313280I250000J0D01*
G01*
X112379780Y-95313280D01*
G75*
G02*
X112629780Y-95563280I0J-250000D01*
G01*
X112629780Y-96288280D01*
G75*
G02*
X112379780Y-96538280I-250000J0D01*
G01*
G37*
G36*
G01*
X112429780Y-63963280D02*
X109579780Y-63963280D01*
G75*
G02*
X109329780Y-63713280I0J250000D01*
G01*
X109329780Y-62988280D01*
G75*
G02*
X109579780Y-62738280I250000J0D01*
G01*
X112429780Y-62738280D01*
G75*
G02*
X112679780Y-62988280I0J-250000D01*
G01*
X112679780Y-63713280D01*
G75*
G02*
X112429780Y-63963280I-250000J0D01*
G01*
G37*
G36*
G01*
X112429780Y-69888280D02*
X109579780Y-69888280D01*
G75*
G02*
X109329780Y-69638280I0J250000D01*
G01*
X109329780Y-68913280D01*
G75*
G02*
X109579780Y-68663280I250000J0D01*
G01*
X112429780Y-68663280D01*
G75*
G02*
X112679780Y-68913280I0J-250000D01*
G01*
X112679780Y-69638280D01*
G75*
G02*
X112429780Y-69888280I-250000J0D01*
G01*
G37*
G36*
G01*
X112504780Y-31425780D02*
X109654780Y-31425780D01*
G75*
G02*
X109404780Y-31175780I0J250000D01*
G01*
X109404780Y-30450780D01*
G75*
G02*
X109654780Y-30200780I250000J0D01*
G01*
X112504780Y-30200780D01*
G75*
G02*
X112754780Y-30450780I0J-250000D01*
G01*
X112754780Y-31175780D01*
G75*
G02*
X112504780Y-31425780I-250000J0D01*
G01*
G37*
G36*
G01*
X112504780Y-37350780D02*
X109654780Y-37350780D01*
G75*
G02*
X109404780Y-37100780I0J250000D01*
G01*
X109404780Y-36375780D01*
G75*
G02*
X109654780Y-36125780I250000J0D01*
G01*
X112504780Y-36125780D01*
G75*
G02*
X112754780Y-36375780I0J-250000D01*
G01*
X112754780Y-37100780D01*
G75*
G02*
X112504780Y-37350780I-250000J0D01*
G01*
G37*
G36*
G01*
X140654780Y-134988280D02*
X137804780Y-134988280D01*
G75*
G02*
X137554780Y-134738280I0J250000D01*
G01*
X137554780Y-134013280D01*
G75*
G02*
X137804780Y-133763280I250000J0D01*
G01*
X140654780Y-133763280D01*
G75*
G02*
X140904780Y-134013280I0J-250000D01*
G01*
X140904780Y-134738280D01*
G75*
G02*
X140654780Y-134988280I-250000J0D01*
G01*
G37*
G36*
G01*
X140654780Y-129063280D02*
X137804780Y-129063280D01*
G75*
G02*
X137554780Y-128813280I0J250000D01*
G01*
X137554780Y-128088280D01*
G75*
G02*
X137804780Y-127838280I250000J0D01*
G01*
X140654780Y-127838280D01*
G75*
G02*
X140904780Y-128088280I0J-250000D01*
G01*
X140904780Y-128813280D01*
G75*
G02*
X140654780Y-129063280I-250000J0D01*
G01*
G37*
G36*
G01*
X130942280Y-134925780D02*
X130942280Y-137775780D01*
G75*
G02*
X130692280Y-138025780I-250000J0D01*
G01*
X129967280Y-138025780D01*
G75*
G02*
X129717280Y-137775780I0J250000D01*
G01*
X129717280Y-134925780D01*
G75*
G02*
X129967280Y-134675780I250000J0D01*
G01*
X130692280Y-134675780D01*
G75*
G02*
X130942280Y-134925780I0J-250000D01*
G01*
G37*
G36*
G01*
X136867280Y-134925780D02*
X136867280Y-137775780D01*
G75*
G02*
X136617280Y-138025780I-250000J0D01*
G01*
X135892280Y-138025780D01*
G75*
G02*
X135642280Y-137775780I0J250000D01*
G01*
X135642280Y-134925780D01*
G75*
G02*
X135892280Y-134675780I250000J0D01*
G01*
X136617280Y-134675780D01*
G75*
G02*
X136867280Y-134925780I0J-250000D01*
G01*
G37*
G36*
G01*
X140754780Y-96463280D02*
X137904780Y-96463280D01*
G75*
G02*
X137654780Y-96213280I0J250000D01*
G01*
X137654780Y-95488280D01*
G75*
G02*
X137904780Y-95238280I250000J0D01*
G01*
X140754780Y-95238280D01*
G75*
G02*
X141004780Y-95488280I0J-250000D01*
G01*
X141004780Y-96213280D01*
G75*
G02*
X140754780Y-96463280I-250000J0D01*
G01*
G37*
G36*
G01*
X140754780Y-102388280D02*
X137904780Y-102388280D01*
G75*
G02*
X137654780Y-102138280I0J250000D01*
G01*
X137654780Y-101413280D01*
G75*
G02*
X137904780Y-101163280I250000J0D01*
G01*
X140754780Y-101163280D01*
G75*
G02*
X141004780Y-101413280I0J-250000D01*
G01*
X141004780Y-102138280D01*
G75*
G02*
X140754780Y-102388280I-250000J0D01*
G01*
G37*
G36*
G01*
X131067280Y-102325780D02*
X131067280Y-105175780D01*
G75*
G02*
X130817280Y-105425780I-250000J0D01*
G01*
X130092280Y-105425780D01*
G75*
G02*
X129842280Y-105175780I0J250000D01*
G01*
X129842280Y-102325780D01*
G75*
G02*
X130092280Y-102075780I250000J0D01*
G01*
X130817280Y-102075780D01*
G75*
G02*
X131067280Y-102325780I0J-250000D01*
G01*
G37*
G36*
G01*
X136992280Y-102325780D02*
X136992280Y-105175780D01*
G75*
G02*
X136742280Y-105425780I-250000J0D01*
G01*
X136017280Y-105425780D01*
G75*
G02*
X135767280Y-105175780I0J250000D01*
G01*
X135767280Y-102325780D01*
G75*
G02*
X136017280Y-102075780I250000J0D01*
G01*
X136742280Y-102075780D01*
G75*
G02*
X136992280Y-102325780I0J-250000D01*
G01*
G37*
G36*
G01*
X140679780Y-69938280D02*
X137829780Y-69938280D01*
G75*
G02*
X137579780Y-69688280I0J250000D01*
G01*
X137579780Y-68963280D01*
G75*
G02*
X137829780Y-68713280I250000J0D01*
G01*
X140679780Y-68713280D01*
G75*
G02*
X140929780Y-68963280I0J-250000D01*
G01*
X140929780Y-69688280D01*
G75*
G02*
X140679780Y-69938280I-250000J0D01*
G01*
G37*
G36*
G01*
X140679780Y-64013280D02*
X137829780Y-64013280D01*
G75*
G02*
X137579780Y-63763280I0J250000D01*
G01*
X137579780Y-63038280D01*
G75*
G02*
X137829780Y-62788280I250000J0D01*
G01*
X140679780Y-62788280D01*
G75*
G02*
X140929780Y-63038280I0J-250000D01*
G01*
X140929780Y-63763280D01*
G75*
G02*
X140679780Y-64013280I-250000J0D01*
G01*
G37*
G36*
G01*
X136942280Y-69850780D02*
X136942280Y-72700780D01*
G75*
G02*
X136692280Y-72950780I-250000J0D01*
G01*
X135967280Y-72950780D01*
G75*
G02*
X135717280Y-72700780I0J250000D01*
G01*
X135717280Y-69850780D01*
G75*
G02*
X135967280Y-69600780I250000J0D01*
G01*
X136692280Y-69600780D01*
G75*
G02*
X136942280Y-69850780I0J-250000D01*
G01*
G37*
G36*
G01*
X131017280Y-69850780D02*
X131017280Y-72700780D01*
G75*
G02*
X130767280Y-72950780I-250000J0D01*
G01*
X130042280Y-72950780D01*
G75*
G02*
X129792280Y-72700780I0J250000D01*
G01*
X129792280Y-69850780D01*
G75*
G02*
X130042280Y-69600780I250000J0D01*
G01*
X130767280Y-69600780D01*
G75*
G02*
X131017280Y-69850780I0J-250000D01*
G01*
G37*
G36*
G01*
X140729780Y-37488280D02*
X137879780Y-37488280D01*
G75*
G02*
X137629780Y-37238280I0J250000D01*
G01*
X137629780Y-36513280D01*
G75*
G02*
X137879780Y-36263280I250000J0D01*
G01*
X140729780Y-36263280D01*
G75*
G02*
X140979780Y-36513280I0J-250000D01*
G01*
X140979780Y-37238280D01*
G75*
G02*
X140729780Y-37488280I-250000J0D01*
G01*
G37*
G36*
G01*
X140729780Y-31563280D02*
X137879780Y-31563280D01*
G75*
G02*
X137629780Y-31313280I0J250000D01*
G01*
X137629780Y-30588280D01*
G75*
G02*
X137879780Y-30338280I250000J0D01*
G01*
X140729780Y-30338280D01*
G75*
G02*
X140979780Y-30588280I0J-250000D01*
G01*
X140979780Y-31313280D01*
G75*
G02*
X140729780Y-31563280I-250000J0D01*
G01*
G37*
G36*
G01*
X131092280Y-37400780D02*
X131092280Y-40250780D01*
G75*
G02*
X130842280Y-40500780I-250000J0D01*
G01*
X130117280Y-40500780D01*
G75*
G02*
X129867280Y-40250780I0J250000D01*
G01*
X129867280Y-37400780D01*
G75*
G02*
X130117280Y-37150780I250000J0D01*
G01*
X130842280Y-37150780D01*
G75*
G02*
X131092280Y-37400780I0J-250000D01*
G01*
G37*
G36*
G01*
X137017280Y-37400780D02*
X137017280Y-40250780D01*
G75*
G02*
X136767280Y-40500780I-250000J0D01*
G01*
X136042280Y-40500780D01*
G75*
G02*
X135792280Y-40250780I0J250000D01*
G01*
X135792280Y-37400780D01*
G75*
G02*
X136042280Y-37150780I250000J0D01*
G01*
X136767280Y-37150780D01*
G75*
G02*
X137017280Y-37400780I0J-250000D01*
G01*
G37*
G36*
G01*
X144854780Y-128988280D02*
X142004780Y-128988280D01*
G75*
G02*
X141754780Y-128738280I0J250000D01*
G01*
X141754780Y-128013280D01*
G75*
G02*
X142004780Y-127763280I250000J0D01*
G01*
X144854780Y-127763280D01*
G75*
G02*
X145104780Y-128013280I0J-250000D01*
G01*
X145104780Y-128738280D01*
G75*
G02*
X144854780Y-128988280I-250000J0D01*
G01*
G37*
G36*
G01*
X144854780Y-134913280D02*
X142004780Y-134913280D01*
G75*
G02*
X141754780Y-134663280I0J250000D01*
G01*
X141754780Y-133938280D01*
G75*
G02*
X142004780Y-133688280I250000J0D01*
G01*
X144854780Y-133688280D01*
G75*
G02*
X145104780Y-133938280I0J-250000D01*
G01*
X145104780Y-134663280D01*
G75*
G02*
X144854780Y-134913280I-250000J0D01*
G01*
G37*
G36*
G01*
X144929780Y-96413280D02*
X142079780Y-96413280D01*
G75*
G02*
X141829780Y-96163280I0J250000D01*
G01*
X141829780Y-95438280D01*
G75*
G02*
X142079780Y-95188280I250000J0D01*
G01*
X144929780Y-95188280D01*
G75*
G02*
X145179780Y-95438280I0J-250000D01*
G01*
X145179780Y-96163280D01*
G75*
G02*
X144929780Y-96413280I-250000J0D01*
G01*
G37*
G36*
G01*
X144929780Y-102338280D02*
X142079780Y-102338280D01*
G75*
G02*
X141829780Y-102088280I0J250000D01*
G01*
X141829780Y-101363280D01*
G75*
G02*
X142079780Y-101113280I250000J0D01*
G01*
X144929780Y-101113280D01*
G75*
G02*
X145179780Y-101363280I0J-250000D01*
G01*
X145179780Y-102088280D01*
G75*
G02*
X144929780Y-102338280I-250000J0D01*
G01*
G37*
G36*
G01*
X144879780Y-63938280D02*
X142029780Y-63938280D01*
G75*
G02*
X141779780Y-63688280I0J250000D01*
G01*
X141779780Y-62963280D01*
G75*
G02*
X142029780Y-62713280I250000J0D01*
G01*
X144879780Y-62713280D01*
G75*
G02*
X145129780Y-62963280I0J-250000D01*
G01*
X145129780Y-63688280D01*
G75*
G02*
X144879780Y-63938280I-250000J0D01*
G01*
G37*
G36*
G01*
X144879780Y-69863280D02*
X142029780Y-69863280D01*
G75*
G02*
X141779780Y-69613280I0J250000D01*
G01*
X141779780Y-68888280D01*
G75*
G02*
X142029780Y-68638280I250000J0D01*
G01*
X144879780Y-68638280D01*
G75*
G02*
X145129780Y-68888280I0J-250000D01*
G01*
X145129780Y-69613280D01*
G75*
G02*
X144879780Y-69863280I-250000J0D01*
G01*
G37*
G36*
G01*
X144879780Y-37388280D02*
X142029780Y-37388280D01*
G75*
G02*
X141779780Y-37138280I0J250000D01*
G01*
X141779780Y-36413280D01*
G75*
G02*
X142029780Y-36163280I250000J0D01*
G01*
X144879780Y-36163280D01*
G75*
G02*
X145129780Y-36413280I0J-250000D01*
G01*
X145129780Y-37138280D01*
G75*
G02*
X144879780Y-37388280I-250000J0D01*
G01*
G37*
G36*
G01*
X144879780Y-31463280D02*
X142029780Y-31463280D01*
G75*
G02*
X141779780Y-31213280I0J250000D01*
G01*
X141779780Y-30488280D01*
G75*
G02*
X142029780Y-30238280I250000J0D01*
G01*
X144879780Y-30238280D01*
G75*
G02*
X145129780Y-30488280I0J-250000D01*
G01*
X145129780Y-31213280D01*
G75*
G02*
X144879780Y-31463280I-250000J0D01*
G01*
G37*
G36*
G01*
X44524780Y-137100780D02*
X44224780Y-137100780D01*
G75*
G02*
X44074780Y-136950780I0J150000D01*
G01*
X44074780Y-135600780D01*
G75*
G02*
X44224780Y-135450780I150000J0D01*
G01*
X44524780Y-135450780D01*
G75*
G02*
X44674780Y-135600780I0J-150000D01*
G01*
X44674780Y-136950780D01*
G75*
G02*
X44524780Y-137100780I-150000J0D01*
G01*
G37*
G36*
G01*
X43254780Y-137100780D02*
X42954780Y-137100780D01*
G75*
G02*
X42804780Y-136950780I0J150000D01*
G01*
X42804780Y-135600780D01*
G75*
G02*
X42954780Y-135450780I150000J0D01*
G01*
X43254780Y-135450780D01*
G75*
G02*
X43404780Y-135600780I0J-150000D01*
G01*
X43404780Y-136950780D01*
G75*
G02*
X43254780Y-137100780I-150000J0D01*
G01*
G37*
G36*
G01*
X41984780Y-137100780D02*
X41684780Y-137100780D01*
G75*
G02*
X41534780Y-136950780I0J150000D01*
G01*
X41534780Y-135600780D01*
G75*
G02*
X41684780Y-135450780I150000J0D01*
G01*
X41984780Y-135450780D01*
G75*
G02*
X42134780Y-135600780I0J-150000D01*
G01*
X42134780Y-136950780D01*
G75*
G02*
X41984780Y-137100780I-150000J0D01*
G01*
G37*
G36*
G01*
X40714780Y-137100780D02*
X40414780Y-137100780D01*
G75*
G02*
X40264780Y-136950780I0J150000D01*
G01*
X40264780Y-135600780D01*
G75*
G02*
X40414780Y-135450780I150000J0D01*
G01*
X40714780Y-135450780D01*
G75*
G02*
X40864780Y-135600780I0J-150000D01*
G01*
X40864780Y-136950780D01*
G75*
G02*
X40714780Y-137100780I-150000J0D01*
G01*
G37*
G36*
G01*
X40714780Y-142350780D02*
X40414780Y-142350780D01*
G75*
G02*
X40264780Y-142200780I0J150000D01*
G01*
X40264780Y-140850780D01*
G75*
G02*
X40414780Y-140700780I150000J0D01*
G01*
X40714780Y-140700780D01*
G75*
G02*
X40864780Y-140850780I0J-150000D01*
G01*
X40864780Y-142200780D01*
G75*
G02*
X40714780Y-142350780I-150000J0D01*
G01*
G37*
G36*
G01*
X41984780Y-142350780D02*
X41684780Y-142350780D01*
G75*
G02*
X41534780Y-142200780I0J150000D01*
G01*
X41534780Y-140850780D01*
G75*
G02*
X41684780Y-140700780I150000J0D01*
G01*
X41984780Y-140700780D01*
G75*
G02*
X42134780Y-140850780I0J-150000D01*
G01*
X42134780Y-142200780D01*
G75*
G02*
X41984780Y-142350780I-150000J0D01*
G01*
G37*
G36*
G01*
X43254780Y-142350780D02*
X42954780Y-142350780D01*
G75*
G02*
X42804780Y-142200780I0J150000D01*
G01*
X42804780Y-140850780D01*
G75*
G02*
X42954780Y-140700780I150000J0D01*
G01*
X43254780Y-140700780D01*
G75*
G02*
X43404780Y-140850780I0J-150000D01*
G01*
X43404780Y-142200780D01*
G75*
G02*
X43254780Y-142350780I-150000J0D01*
G01*
G37*
G36*
G01*
X44524780Y-142350780D02*
X44224780Y-142350780D01*
G75*
G02*
X44074780Y-142200780I0J150000D01*
G01*
X44074780Y-140850780D01*
G75*
G02*
X44224780Y-140700780I150000J0D01*
G01*
X44524780Y-140700780D01*
G75*
G02*
X44674780Y-140850780I0J-150000D01*
G01*
X44674780Y-142200780D01*
G75*
G02*
X44524780Y-142350780I-150000J0D01*
G01*
G37*
G36*
G01*
X44424780Y-104500780D02*
X44124780Y-104500780D01*
G75*
G02*
X43974780Y-104350780I0J150000D01*
G01*
X43974780Y-103000780D01*
G75*
G02*
X44124780Y-102850780I150000J0D01*
G01*
X44424780Y-102850780D01*
G75*
G02*
X44574780Y-103000780I0J-150000D01*
G01*
X44574780Y-104350780D01*
G75*
G02*
X44424780Y-104500780I-150000J0D01*
G01*
G37*
G36*
G01*
X43154780Y-104500780D02*
X42854780Y-104500780D01*
G75*
G02*
X42704780Y-104350780I0J150000D01*
G01*
X42704780Y-103000780D01*
G75*
G02*
X42854780Y-102850780I150000J0D01*
G01*
X43154780Y-102850780D01*
G75*
G02*
X43304780Y-103000780I0J-150000D01*
G01*
X43304780Y-104350780D01*
G75*
G02*
X43154780Y-104500780I-150000J0D01*
G01*
G37*
G36*
G01*
X41884780Y-104500780D02*
X41584780Y-104500780D01*
G75*
G02*
X41434780Y-104350780I0J150000D01*
G01*
X41434780Y-103000780D01*
G75*
G02*
X41584780Y-102850780I150000J0D01*
G01*
X41884780Y-102850780D01*
G75*
G02*
X42034780Y-103000780I0J-150000D01*
G01*
X42034780Y-104350780D01*
G75*
G02*
X41884780Y-104500780I-150000J0D01*
G01*
G37*
G36*
G01*
X40614780Y-104500780D02*
X40314780Y-104500780D01*
G75*
G02*
X40164780Y-104350780I0J150000D01*
G01*
X40164780Y-103000780D01*
G75*
G02*
X40314780Y-102850780I150000J0D01*
G01*
X40614780Y-102850780D01*
G75*
G02*
X40764780Y-103000780I0J-150000D01*
G01*
X40764780Y-104350780D01*
G75*
G02*
X40614780Y-104500780I-150000J0D01*
G01*
G37*
G36*
G01*
X40614780Y-109750780D02*
X40314780Y-109750780D01*
G75*
G02*
X40164780Y-109600780I0J150000D01*
G01*
X40164780Y-108250780D01*
G75*
G02*
X40314780Y-108100780I150000J0D01*
G01*
X40614780Y-108100780D01*
G75*
G02*
X40764780Y-108250780I0J-150000D01*
G01*
X40764780Y-109600780D01*
G75*
G02*
X40614780Y-109750780I-150000J0D01*
G01*
G37*
G36*
G01*
X41884780Y-109750780D02*
X41584780Y-109750780D01*
G75*
G02*
X41434780Y-109600780I0J150000D01*
G01*
X41434780Y-108250780D01*
G75*
G02*
X41584780Y-108100780I150000J0D01*
G01*
X41884780Y-108100780D01*
G75*
G02*
X42034780Y-108250780I0J-150000D01*
G01*
X42034780Y-109600780D01*
G75*
G02*
X41884780Y-109750780I-150000J0D01*
G01*
G37*
G36*
G01*
X43154780Y-109750780D02*
X42854780Y-109750780D01*
G75*
G02*
X42704780Y-109600780I0J150000D01*
G01*
X42704780Y-108250780D01*
G75*
G02*
X42854780Y-108100780I150000J0D01*
G01*
X43154780Y-108100780D01*
G75*
G02*
X43304780Y-108250780I0J-150000D01*
G01*
X43304780Y-109600780D01*
G75*
G02*
X43154780Y-109750780I-150000J0D01*
G01*
G37*
G36*
G01*
X44424780Y-109750780D02*
X44124780Y-109750780D01*
G75*
G02*
X43974780Y-109600780I0J150000D01*
G01*
X43974780Y-108250780D01*
G75*
G02*
X44124780Y-108100780I150000J0D01*
G01*
X44424780Y-108100780D01*
G75*
G02*
X44574780Y-108250780I0J-150000D01*
G01*
X44574780Y-109600780D01*
G75*
G02*
X44424780Y-109750780I-150000J0D01*
G01*
G37*
G36*
G01*
X44349780Y-77400780D02*
X44049780Y-77400780D01*
G75*
G02*
X43899780Y-77250780I0J150000D01*
G01*
X43899780Y-75900780D01*
G75*
G02*
X44049780Y-75750780I150000J0D01*
G01*
X44349780Y-75750780D01*
G75*
G02*
X44499780Y-75900780I0J-150000D01*
G01*
X44499780Y-77250780D01*
G75*
G02*
X44349780Y-77400780I-150000J0D01*
G01*
G37*
G36*
G01*
X43079780Y-77400780D02*
X42779780Y-77400780D01*
G75*
G02*
X42629780Y-77250780I0J150000D01*
G01*
X42629780Y-75900780D01*
G75*
G02*
X42779780Y-75750780I150000J0D01*
G01*
X43079780Y-75750780D01*
G75*
G02*
X43229780Y-75900780I0J-150000D01*
G01*
X43229780Y-77250780D01*
G75*
G02*
X43079780Y-77400780I-150000J0D01*
G01*
G37*
G36*
G01*
X41809780Y-77400780D02*
X41509780Y-77400780D01*
G75*
G02*
X41359780Y-77250780I0J150000D01*
G01*
X41359780Y-75900780D01*
G75*
G02*
X41509780Y-75750780I150000J0D01*
G01*
X41809780Y-75750780D01*
G75*
G02*
X41959780Y-75900780I0J-150000D01*
G01*
X41959780Y-77250780D01*
G75*
G02*
X41809780Y-77400780I-150000J0D01*
G01*
G37*
G36*
G01*
X40539780Y-77400780D02*
X40239780Y-77400780D01*
G75*
G02*
X40089780Y-77250780I0J150000D01*
G01*
X40089780Y-75900780D01*
G75*
G02*
X40239780Y-75750780I150000J0D01*
G01*
X40539780Y-75750780D01*
G75*
G02*
X40689780Y-75900780I0J-150000D01*
G01*
X40689780Y-77250780D01*
G75*
G02*
X40539780Y-77400780I-150000J0D01*
G01*
G37*
G36*
G01*
X40539780Y-72150780D02*
X40239780Y-72150780D01*
G75*
G02*
X40089780Y-72000780I0J150000D01*
G01*
X40089780Y-70650780D01*
G75*
G02*
X40239780Y-70500780I150000J0D01*
G01*
X40539780Y-70500780D01*
G75*
G02*
X40689780Y-70650780I0J-150000D01*
G01*
X40689780Y-72000780D01*
G75*
G02*
X40539780Y-72150780I-150000J0D01*
G01*
G37*
G36*
G01*
X41809780Y-72150780D02*
X41509780Y-72150780D01*
G75*
G02*
X41359780Y-72000780I0J150000D01*
G01*
X41359780Y-70650780D01*
G75*
G02*
X41509780Y-70500780I150000J0D01*
G01*
X41809780Y-70500780D01*
G75*
G02*
X41959780Y-70650780I0J-150000D01*
G01*
X41959780Y-72000780D01*
G75*
G02*
X41809780Y-72150780I-150000J0D01*
G01*
G37*
G36*
G01*
X43079780Y-72150780D02*
X42779780Y-72150780D01*
G75*
G02*
X42629780Y-72000780I0J150000D01*
G01*
X42629780Y-70650780D01*
G75*
G02*
X42779780Y-70500780I150000J0D01*
G01*
X43079780Y-70500780D01*
G75*
G02*
X43229780Y-70650780I0J-150000D01*
G01*
X43229780Y-72000780D01*
G75*
G02*
X43079780Y-72150780I-150000J0D01*
G01*
G37*
G36*
G01*
X44349780Y-72150780D02*
X44049780Y-72150780D01*
G75*
G02*
X43899780Y-72000780I0J150000D01*
G01*
X43899780Y-70650780D01*
G75*
G02*
X44049780Y-70500780I150000J0D01*
G01*
X44349780Y-70500780D01*
G75*
G02*
X44499780Y-70650780I0J-150000D01*
G01*
X44499780Y-72000780D01*
G75*
G02*
X44349780Y-72150780I-150000J0D01*
G01*
G37*
G36*
G01*
X44359780Y-44950780D02*
X44059780Y-44950780D01*
G75*
G02*
X43909780Y-44800780I0J150000D01*
G01*
X43909780Y-43450780D01*
G75*
G02*
X44059780Y-43300780I150000J0D01*
G01*
X44359780Y-43300780D01*
G75*
G02*
X44509780Y-43450780I0J-150000D01*
G01*
X44509780Y-44800780D01*
G75*
G02*
X44359780Y-44950780I-150000J0D01*
G01*
G37*
G36*
G01*
X43089780Y-44950780D02*
X42789780Y-44950780D01*
G75*
G02*
X42639780Y-44800780I0J150000D01*
G01*
X42639780Y-43450780D01*
G75*
G02*
X42789780Y-43300780I150000J0D01*
G01*
X43089780Y-43300780D01*
G75*
G02*
X43239780Y-43450780I0J-150000D01*
G01*
X43239780Y-44800780D01*
G75*
G02*
X43089780Y-44950780I-150000J0D01*
G01*
G37*
G36*
G01*
X41819780Y-44950780D02*
X41519780Y-44950780D01*
G75*
G02*
X41369780Y-44800780I0J150000D01*
G01*
X41369780Y-43450780D01*
G75*
G02*
X41519780Y-43300780I150000J0D01*
G01*
X41819780Y-43300780D01*
G75*
G02*
X41969780Y-43450780I0J-150000D01*
G01*
X41969780Y-44800780D01*
G75*
G02*
X41819780Y-44950780I-150000J0D01*
G01*
G37*
G36*
G01*
X40549780Y-44950780D02*
X40249780Y-44950780D01*
G75*
G02*
X40099780Y-44800780I0J150000D01*
G01*
X40099780Y-43450780D01*
G75*
G02*
X40249780Y-43300780I150000J0D01*
G01*
X40549780Y-43300780D01*
G75*
G02*
X40699780Y-43450780I0J-150000D01*
G01*
X40699780Y-44800780D01*
G75*
G02*
X40549780Y-44950780I-150000J0D01*
G01*
G37*
G36*
G01*
X40549780Y-39700780D02*
X40249780Y-39700780D01*
G75*
G02*
X40099780Y-39550780I0J150000D01*
G01*
X40099780Y-38200780D01*
G75*
G02*
X40249780Y-38050780I150000J0D01*
G01*
X40549780Y-38050780D01*
G75*
G02*
X40699780Y-38200780I0J-150000D01*
G01*
X40699780Y-39550780D01*
G75*
G02*
X40549780Y-39700780I-150000J0D01*
G01*
G37*
G36*
G01*
X41819780Y-39700780D02*
X41519780Y-39700780D01*
G75*
G02*
X41369780Y-39550780I0J150000D01*
G01*
X41369780Y-38200780D01*
G75*
G02*
X41519780Y-38050780I150000J0D01*
G01*
X41819780Y-38050780D01*
G75*
G02*
X41969780Y-38200780I0J-150000D01*
G01*
X41969780Y-39550780D01*
G75*
G02*
X41819780Y-39700780I-150000J0D01*
G01*
G37*
G36*
G01*
X43089780Y-39700780D02*
X42789780Y-39700780D01*
G75*
G02*
X42639780Y-39550780I0J150000D01*
G01*
X42639780Y-38200780D01*
G75*
G02*
X42789780Y-38050780I150000J0D01*
G01*
X43089780Y-38050780D01*
G75*
G02*
X43239780Y-38200780I0J-150000D01*
G01*
X43239780Y-39550780D01*
G75*
G02*
X43089780Y-39700780I-150000J0D01*
G01*
G37*
G36*
G01*
X44359780Y-39700780D02*
X44059780Y-39700780D01*
G75*
G02*
X43909780Y-39550780I0J150000D01*
G01*
X43909780Y-38200780D01*
G75*
G02*
X44059780Y-38050780I150000J0D01*
G01*
X44359780Y-38050780D01*
G75*
G02*
X44509780Y-38200780I0J-150000D01*
G01*
X44509780Y-39550780D01*
G75*
G02*
X44359780Y-39700780I-150000J0D01*
G01*
G37*
G36*
G01*
X77049780Y-142325780D02*
X76749780Y-142325780D01*
G75*
G02*
X76599780Y-142175780I0J150000D01*
G01*
X76599780Y-140825780D01*
G75*
G02*
X76749780Y-140675780I150000J0D01*
G01*
X77049780Y-140675780D01*
G75*
G02*
X77199780Y-140825780I0J-150000D01*
G01*
X77199780Y-142175780D01*
G75*
G02*
X77049780Y-142325780I-150000J0D01*
G01*
G37*
G36*
G01*
X75779780Y-142325780D02*
X75479780Y-142325780D01*
G75*
G02*
X75329780Y-142175780I0J150000D01*
G01*
X75329780Y-140825780D01*
G75*
G02*
X75479780Y-140675780I150000J0D01*
G01*
X75779780Y-140675780D01*
G75*
G02*
X75929780Y-140825780I0J-150000D01*
G01*
X75929780Y-142175780D01*
G75*
G02*
X75779780Y-142325780I-150000J0D01*
G01*
G37*
G36*
G01*
X74509780Y-142325780D02*
X74209780Y-142325780D01*
G75*
G02*
X74059780Y-142175780I0J150000D01*
G01*
X74059780Y-140825780D01*
G75*
G02*
X74209780Y-140675780I150000J0D01*
G01*
X74509780Y-140675780D01*
G75*
G02*
X74659780Y-140825780I0J-150000D01*
G01*
X74659780Y-142175780D01*
G75*
G02*
X74509780Y-142325780I-150000J0D01*
G01*
G37*
G36*
G01*
X73239780Y-142325780D02*
X72939780Y-142325780D01*
G75*
G02*
X72789780Y-142175780I0J150000D01*
G01*
X72789780Y-140825780D01*
G75*
G02*
X72939780Y-140675780I150000J0D01*
G01*
X73239780Y-140675780D01*
G75*
G02*
X73389780Y-140825780I0J-150000D01*
G01*
X73389780Y-142175780D01*
G75*
G02*
X73239780Y-142325780I-150000J0D01*
G01*
G37*
G36*
G01*
X73239780Y-137075780D02*
X72939780Y-137075780D01*
G75*
G02*
X72789780Y-136925780I0J150000D01*
G01*
X72789780Y-135575780D01*
G75*
G02*
X72939780Y-135425780I150000J0D01*
G01*
X73239780Y-135425780D01*
G75*
G02*
X73389780Y-135575780I0J-150000D01*
G01*
X73389780Y-136925780D01*
G75*
G02*
X73239780Y-137075780I-150000J0D01*
G01*
G37*
G36*
G01*
X74509780Y-137075780D02*
X74209780Y-137075780D01*
G75*
G02*
X74059780Y-136925780I0J150000D01*
G01*
X74059780Y-135575780D01*
G75*
G02*
X74209780Y-135425780I150000J0D01*
G01*
X74509780Y-135425780D01*
G75*
G02*
X74659780Y-135575780I0J-150000D01*
G01*
X74659780Y-136925780D01*
G75*
G02*
X74509780Y-137075780I-150000J0D01*
G01*
G37*
G36*
G01*
X75779780Y-137075780D02*
X75479780Y-137075780D01*
G75*
G02*
X75329780Y-136925780I0J150000D01*
G01*
X75329780Y-135575780D01*
G75*
G02*
X75479780Y-135425780I150000J0D01*
G01*
X75779780Y-135425780D01*
G75*
G02*
X75929780Y-135575780I0J-150000D01*
G01*
X75929780Y-136925780D01*
G75*
G02*
X75779780Y-137075780I-150000J0D01*
G01*
G37*
G36*
G01*
X77049780Y-137075780D02*
X76749780Y-137075780D01*
G75*
G02*
X76599780Y-136925780I0J150000D01*
G01*
X76599780Y-135575780D01*
G75*
G02*
X76749780Y-135425780I150000J0D01*
G01*
X77049780Y-135425780D01*
G75*
G02*
X77199780Y-135575780I0J-150000D01*
G01*
X77199780Y-136925780D01*
G75*
G02*
X77049780Y-137075780I-150000J0D01*
G01*
G37*
G36*
G01*
X76994780Y-109900780D02*
X76694780Y-109900780D01*
G75*
G02*
X76544780Y-109750780I0J150000D01*
G01*
X76544780Y-108400780D01*
G75*
G02*
X76694780Y-108250780I150000J0D01*
G01*
X76994780Y-108250780D01*
G75*
G02*
X77144780Y-108400780I0J-150000D01*
G01*
X77144780Y-109750780D01*
G75*
G02*
X76994780Y-109900780I-150000J0D01*
G01*
G37*
G36*
G01*
X75724780Y-109900780D02*
X75424780Y-109900780D01*
G75*
G02*
X75274780Y-109750780I0J150000D01*
G01*
X75274780Y-108400780D01*
G75*
G02*
X75424780Y-108250780I150000J0D01*
G01*
X75724780Y-108250780D01*
G75*
G02*
X75874780Y-108400780I0J-150000D01*
G01*
X75874780Y-109750780D01*
G75*
G02*
X75724780Y-109900780I-150000J0D01*
G01*
G37*
G36*
G01*
X74454780Y-109900780D02*
X74154780Y-109900780D01*
G75*
G02*
X74004780Y-109750780I0J150000D01*
G01*
X74004780Y-108400780D01*
G75*
G02*
X74154780Y-108250780I150000J0D01*
G01*
X74454780Y-108250780D01*
G75*
G02*
X74604780Y-108400780I0J-150000D01*
G01*
X74604780Y-109750780D01*
G75*
G02*
X74454780Y-109900780I-150000J0D01*
G01*
G37*
G36*
G01*
X73184780Y-109900780D02*
X72884780Y-109900780D01*
G75*
G02*
X72734780Y-109750780I0J150000D01*
G01*
X72734780Y-108400780D01*
G75*
G02*
X72884780Y-108250780I150000J0D01*
G01*
X73184780Y-108250780D01*
G75*
G02*
X73334780Y-108400780I0J-150000D01*
G01*
X73334780Y-109750780D01*
G75*
G02*
X73184780Y-109900780I-150000J0D01*
G01*
G37*
G36*
G01*
X73184780Y-104650780D02*
X72884780Y-104650780D01*
G75*
G02*
X72734780Y-104500780I0J150000D01*
G01*
X72734780Y-103150780D01*
G75*
G02*
X72884780Y-103000780I150000J0D01*
G01*
X73184780Y-103000780D01*
G75*
G02*
X73334780Y-103150780I0J-150000D01*
G01*
X73334780Y-104500780D01*
G75*
G02*
X73184780Y-104650780I-150000J0D01*
G01*
G37*
G36*
G01*
X74454780Y-104650780D02*
X74154780Y-104650780D01*
G75*
G02*
X74004780Y-104500780I0J150000D01*
G01*
X74004780Y-103150780D01*
G75*
G02*
X74154780Y-103000780I150000J0D01*
G01*
X74454780Y-103000780D01*
G75*
G02*
X74604780Y-103150780I0J-150000D01*
G01*
X74604780Y-104500780D01*
G75*
G02*
X74454780Y-104650780I-150000J0D01*
G01*
G37*
G36*
G01*
X75724780Y-104650780D02*
X75424780Y-104650780D01*
G75*
G02*
X75274780Y-104500780I0J150000D01*
G01*
X75274780Y-103150780D01*
G75*
G02*
X75424780Y-103000780I150000J0D01*
G01*
X75724780Y-103000780D01*
G75*
G02*
X75874780Y-103150780I0J-150000D01*
G01*
X75874780Y-104500780D01*
G75*
G02*
X75724780Y-104650780I-150000J0D01*
G01*
G37*
G36*
G01*
X76994780Y-104650780D02*
X76694780Y-104650780D01*
G75*
G02*
X76544780Y-104500780I0J150000D01*
G01*
X76544780Y-103150780D01*
G75*
G02*
X76694780Y-103000780I150000J0D01*
G01*
X76994780Y-103000780D01*
G75*
G02*
X77144780Y-103150780I0J-150000D01*
G01*
X77144780Y-104500780D01*
G75*
G02*
X76994780Y-104650780I-150000J0D01*
G01*
G37*
G36*
G01*
X76849780Y-77450780D02*
X76549780Y-77450780D01*
G75*
G02*
X76399780Y-77300780I0J150000D01*
G01*
X76399780Y-75950780D01*
G75*
G02*
X76549780Y-75800780I150000J0D01*
G01*
X76849780Y-75800780D01*
G75*
G02*
X76999780Y-75950780I0J-150000D01*
G01*
X76999780Y-77300780D01*
G75*
G02*
X76849780Y-77450780I-150000J0D01*
G01*
G37*
G36*
G01*
X75579780Y-77450780D02*
X75279780Y-77450780D01*
G75*
G02*
X75129780Y-77300780I0J150000D01*
G01*
X75129780Y-75950780D01*
G75*
G02*
X75279780Y-75800780I150000J0D01*
G01*
X75579780Y-75800780D01*
G75*
G02*
X75729780Y-75950780I0J-150000D01*
G01*
X75729780Y-77300780D01*
G75*
G02*
X75579780Y-77450780I-150000J0D01*
G01*
G37*
G36*
G01*
X74309780Y-77450780D02*
X74009780Y-77450780D01*
G75*
G02*
X73859780Y-77300780I0J150000D01*
G01*
X73859780Y-75950780D01*
G75*
G02*
X74009780Y-75800780I150000J0D01*
G01*
X74309780Y-75800780D01*
G75*
G02*
X74459780Y-75950780I0J-150000D01*
G01*
X74459780Y-77300780D01*
G75*
G02*
X74309780Y-77450780I-150000J0D01*
G01*
G37*
G36*
G01*
X73039780Y-77450780D02*
X72739780Y-77450780D01*
G75*
G02*
X72589780Y-77300780I0J150000D01*
G01*
X72589780Y-75950780D01*
G75*
G02*
X72739780Y-75800780I150000J0D01*
G01*
X73039780Y-75800780D01*
G75*
G02*
X73189780Y-75950780I0J-150000D01*
G01*
X73189780Y-77300780D01*
G75*
G02*
X73039780Y-77450780I-150000J0D01*
G01*
G37*
G36*
G01*
X73039780Y-72200780D02*
X72739780Y-72200780D01*
G75*
G02*
X72589780Y-72050780I0J150000D01*
G01*
X72589780Y-70700780D01*
G75*
G02*
X72739780Y-70550780I150000J0D01*
G01*
X73039780Y-70550780D01*
G75*
G02*
X73189780Y-70700780I0J-150000D01*
G01*
X73189780Y-72050780D01*
G75*
G02*
X73039780Y-72200780I-150000J0D01*
G01*
G37*
G36*
G01*
X74309780Y-72200780D02*
X74009780Y-72200780D01*
G75*
G02*
X73859780Y-72050780I0J150000D01*
G01*
X73859780Y-70700780D01*
G75*
G02*
X74009780Y-70550780I150000J0D01*
G01*
X74309780Y-70550780D01*
G75*
G02*
X74459780Y-70700780I0J-150000D01*
G01*
X74459780Y-72050780D01*
G75*
G02*
X74309780Y-72200780I-150000J0D01*
G01*
G37*
G36*
G01*
X75579780Y-72200780D02*
X75279780Y-72200780D01*
G75*
G02*
X75129780Y-72050780I0J150000D01*
G01*
X75129780Y-70700780D01*
G75*
G02*
X75279780Y-70550780I150000J0D01*
G01*
X75579780Y-70550780D01*
G75*
G02*
X75729780Y-70700780I0J-150000D01*
G01*
X75729780Y-72050780D01*
G75*
G02*
X75579780Y-72200780I-150000J0D01*
G01*
G37*
G36*
G01*
X76849780Y-72200780D02*
X76549780Y-72200780D01*
G75*
G02*
X76399780Y-72050780I0J150000D01*
G01*
X76399780Y-70700780D01*
G75*
G02*
X76549780Y-70550780I150000J0D01*
G01*
X76849780Y-70550780D01*
G75*
G02*
X76999780Y-70700780I0J-150000D01*
G01*
X76999780Y-72050780D01*
G75*
G02*
X76849780Y-72200780I-150000J0D01*
G01*
G37*
G36*
G01*
X76824780Y-39750780D02*
X76524780Y-39750780D01*
G75*
G02*
X76374780Y-39600780I0J150000D01*
G01*
X76374780Y-38250780D01*
G75*
G02*
X76524780Y-38100780I150000J0D01*
G01*
X76824780Y-38100780D01*
G75*
G02*
X76974780Y-38250780I0J-150000D01*
G01*
X76974780Y-39600780D01*
G75*
G02*
X76824780Y-39750780I-150000J0D01*
G01*
G37*
G36*
G01*
X75554780Y-39750780D02*
X75254780Y-39750780D01*
G75*
G02*
X75104780Y-39600780I0J150000D01*
G01*
X75104780Y-38250780D01*
G75*
G02*
X75254780Y-38100780I150000J0D01*
G01*
X75554780Y-38100780D01*
G75*
G02*
X75704780Y-38250780I0J-150000D01*
G01*
X75704780Y-39600780D01*
G75*
G02*
X75554780Y-39750780I-150000J0D01*
G01*
G37*
G36*
G01*
X74284780Y-39750780D02*
X73984780Y-39750780D01*
G75*
G02*
X73834780Y-39600780I0J150000D01*
G01*
X73834780Y-38250780D01*
G75*
G02*
X73984780Y-38100780I150000J0D01*
G01*
X74284780Y-38100780D01*
G75*
G02*
X74434780Y-38250780I0J-150000D01*
G01*
X74434780Y-39600780D01*
G75*
G02*
X74284780Y-39750780I-150000J0D01*
G01*
G37*
G36*
G01*
X73014780Y-39750780D02*
X72714780Y-39750780D01*
G75*
G02*
X72564780Y-39600780I0J150000D01*
G01*
X72564780Y-38250780D01*
G75*
G02*
X72714780Y-38100780I150000J0D01*
G01*
X73014780Y-38100780D01*
G75*
G02*
X73164780Y-38250780I0J-150000D01*
G01*
X73164780Y-39600780D01*
G75*
G02*
X73014780Y-39750780I-150000J0D01*
G01*
G37*
G36*
G01*
X73014780Y-45000780D02*
X72714780Y-45000780D01*
G75*
G02*
X72564780Y-44850780I0J150000D01*
G01*
X72564780Y-43500780D01*
G75*
G02*
X72714780Y-43350780I150000J0D01*
G01*
X73014780Y-43350780D01*
G75*
G02*
X73164780Y-43500780I0J-150000D01*
G01*
X73164780Y-44850780D01*
G75*
G02*
X73014780Y-45000780I-150000J0D01*
G01*
G37*
G36*
G01*
X74284780Y-45000780D02*
X73984780Y-45000780D01*
G75*
G02*
X73834780Y-44850780I0J150000D01*
G01*
X73834780Y-43500780D01*
G75*
G02*
X73984780Y-43350780I150000J0D01*
G01*
X74284780Y-43350780D01*
G75*
G02*
X74434780Y-43500780I0J-150000D01*
G01*
X74434780Y-44850780D01*
G75*
G02*
X74284780Y-45000780I-150000J0D01*
G01*
G37*
G36*
G01*
X75554780Y-45000780D02*
X75254780Y-45000780D01*
G75*
G02*
X75104780Y-44850780I0J150000D01*
G01*
X75104780Y-43500780D01*
G75*
G02*
X75254780Y-43350780I150000J0D01*
G01*
X75554780Y-43350780D01*
G75*
G02*
X75704780Y-43500780I0J-150000D01*
G01*
X75704780Y-44850780D01*
G75*
G02*
X75554780Y-45000780I-150000J0D01*
G01*
G37*
G36*
G01*
X76824780Y-45000780D02*
X76524780Y-45000780D01*
G75*
G02*
X76374780Y-44850780I0J150000D01*
G01*
X76374780Y-43500780D01*
G75*
G02*
X76524780Y-43350780I150000J0D01*
G01*
X76824780Y-43350780D01*
G75*
G02*
X76974780Y-43500780I0J-150000D01*
G01*
X76974780Y-44850780D01*
G75*
G02*
X76824780Y-45000780I-150000J0D01*
G01*
G37*
G36*
G01*
X109574780Y-142450780D02*
X109274780Y-142450780D01*
G75*
G02*
X109124780Y-142300780I0J150000D01*
G01*
X109124780Y-140950780D01*
G75*
G02*
X109274780Y-140800780I150000J0D01*
G01*
X109574780Y-140800780D01*
G75*
G02*
X109724780Y-140950780I0J-150000D01*
G01*
X109724780Y-142300780D01*
G75*
G02*
X109574780Y-142450780I-150000J0D01*
G01*
G37*
G36*
G01*
X108304780Y-142450780D02*
X108004780Y-142450780D01*
G75*
G02*
X107854780Y-142300780I0J150000D01*
G01*
X107854780Y-140950780D01*
G75*
G02*
X108004780Y-140800780I150000J0D01*
G01*
X108304780Y-140800780D01*
G75*
G02*
X108454780Y-140950780I0J-150000D01*
G01*
X108454780Y-142300780D01*
G75*
G02*
X108304780Y-142450780I-150000J0D01*
G01*
G37*
G36*
G01*
X107034780Y-142450780D02*
X106734780Y-142450780D01*
G75*
G02*
X106584780Y-142300780I0J150000D01*
G01*
X106584780Y-140950780D01*
G75*
G02*
X106734780Y-140800780I150000J0D01*
G01*
X107034780Y-140800780D01*
G75*
G02*
X107184780Y-140950780I0J-150000D01*
G01*
X107184780Y-142300780D01*
G75*
G02*
X107034780Y-142450780I-150000J0D01*
G01*
G37*
G36*
G01*
X105764780Y-142450780D02*
X105464780Y-142450780D01*
G75*
G02*
X105314780Y-142300780I0J150000D01*
G01*
X105314780Y-140950780D01*
G75*
G02*
X105464780Y-140800780I150000J0D01*
G01*
X105764780Y-140800780D01*
G75*
G02*
X105914780Y-140950780I0J-150000D01*
G01*
X105914780Y-142300780D01*
G75*
G02*
X105764780Y-142450780I-150000J0D01*
G01*
G37*
G36*
G01*
X105764780Y-137200780D02*
X105464780Y-137200780D01*
G75*
G02*
X105314780Y-137050780I0J150000D01*
G01*
X105314780Y-135700780D01*
G75*
G02*
X105464780Y-135550780I150000J0D01*
G01*
X105764780Y-135550780D01*
G75*
G02*
X105914780Y-135700780I0J-150000D01*
G01*
X105914780Y-137050780D01*
G75*
G02*
X105764780Y-137200780I-150000J0D01*
G01*
G37*
G36*
G01*
X107034780Y-137200780D02*
X106734780Y-137200780D01*
G75*
G02*
X106584780Y-137050780I0J150000D01*
G01*
X106584780Y-135700780D01*
G75*
G02*
X106734780Y-135550780I150000J0D01*
G01*
X107034780Y-135550780D01*
G75*
G02*
X107184780Y-135700780I0J-150000D01*
G01*
X107184780Y-137050780D01*
G75*
G02*
X107034780Y-137200780I-150000J0D01*
G01*
G37*
G36*
G01*
X108304780Y-137200780D02*
X108004780Y-137200780D01*
G75*
G02*
X107854780Y-137050780I0J150000D01*
G01*
X107854780Y-135700780D01*
G75*
G02*
X108004780Y-135550780I150000J0D01*
G01*
X108304780Y-135550780D01*
G75*
G02*
X108454780Y-135700780I0J-150000D01*
G01*
X108454780Y-137050780D01*
G75*
G02*
X108304780Y-137200780I-150000J0D01*
G01*
G37*
G36*
G01*
X109574780Y-137200780D02*
X109274780Y-137200780D01*
G75*
G02*
X109124780Y-137050780I0J150000D01*
G01*
X109124780Y-135700780D01*
G75*
G02*
X109274780Y-135550780I150000J0D01*
G01*
X109574780Y-135550780D01*
G75*
G02*
X109724780Y-135700780I0J-150000D01*
G01*
X109724780Y-137050780D01*
G75*
G02*
X109574780Y-137200780I-150000J0D01*
G01*
G37*
G36*
G01*
X109424780Y-104675780D02*
X109124780Y-104675780D01*
G75*
G02*
X108974780Y-104525780I0J150000D01*
G01*
X108974780Y-103175780D01*
G75*
G02*
X109124780Y-103025780I150000J0D01*
G01*
X109424780Y-103025780D01*
G75*
G02*
X109574780Y-103175780I0J-150000D01*
G01*
X109574780Y-104525780D01*
G75*
G02*
X109424780Y-104675780I-150000J0D01*
G01*
G37*
G36*
G01*
X108154780Y-104675780D02*
X107854780Y-104675780D01*
G75*
G02*
X107704780Y-104525780I0J150000D01*
G01*
X107704780Y-103175780D01*
G75*
G02*
X107854780Y-103025780I150000J0D01*
G01*
X108154780Y-103025780D01*
G75*
G02*
X108304780Y-103175780I0J-150000D01*
G01*
X108304780Y-104525780D01*
G75*
G02*
X108154780Y-104675780I-150000J0D01*
G01*
G37*
G36*
G01*
X106884780Y-104675780D02*
X106584780Y-104675780D01*
G75*
G02*
X106434780Y-104525780I0J150000D01*
G01*
X106434780Y-103175780D01*
G75*
G02*
X106584780Y-103025780I150000J0D01*
G01*
X106884780Y-103025780D01*
G75*
G02*
X107034780Y-103175780I0J-150000D01*
G01*
X107034780Y-104525780D01*
G75*
G02*
X106884780Y-104675780I-150000J0D01*
G01*
G37*
G36*
G01*
X105614780Y-104675780D02*
X105314780Y-104675780D01*
G75*
G02*
X105164780Y-104525780I0J150000D01*
G01*
X105164780Y-103175780D01*
G75*
G02*
X105314780Y-103025780I150000J0D01*
G01*
X105614780Y-103025780D01*
G75*
G02*
X105764780Y-103175780I0J-150000D01*
G01*
X105764780Y-104525780D01*
G75*
G02*
X105614780Y-104675780I-150000J0D01*
G01*
G37*
G36*
G01*
X105614780Y-109925780D02*
X105314780Y-109925780D01*
G75*
G02*
X105164780Y-109775780I0J150000D01*
G01*
X105164780Y-108425780D01*
G75*
G02*
X105314780Y-108275780I150000J0D01*
G01*
X105614780Y-108275780D01*
G75*
G02*
X105764780Y-108425780I0J-150000D01*
G01*
X105764780Y-109775780D01*
G75*
G02*
X105614780Y-109925780I-150000J0D01*
G01*
G37*
G36*
G01*
X106884780Y-109925780D02*
X106584780Y-109925780D01*
G75*
G02*
X106434780Y-109775780I0J150000D01*
G01*
X106434780Y-108425780D01*
G75*
G02*
X106584780Y-108275780I150000J0D01*
G01*
X106884780Y-108275780D01*
G75*
G02*
X107034780Y-108425780I0J-150000D01*
G01*
X107034780Y-109775780D01*
G75*
G02*
X106884780Y-109925780I-150000J0D01*
G01*
G37*
G36*
G01*
X108154780Y-109925780D02*
X107854780Y-109925780D01*
G75*
G02*
X107704780Y-109775780I0J150000D01*
G01*
X107704780Y-108425780D01*
G75*
G02*
X107854780Y-108275780I150000J0D01*
G01*
X108154780Y-108275780D01*
G75*
G02*
X108304780Y-108425780I0J-150000D01*
G01*
X108304780Y-109775780D01*
G75*
G02*
X108154780Y-109925780I-150000J0D01*
G01*
G37*
G36*
G01*
X109424780Y-109925780D02*
X109124780Y-109925780D01*
G75*
G02*
X108974780Y-109775780I0J150000D01*
G01*
X108974780Y-108425780D01*
G75*
G02*
X109124780Y-108275780I150000J0D01*
G01*
X109424780Y-108275780D01*
G75*
G02*
X109574780Y-108425780I0J-150000D01*
G01*
X109574780Y-109775780D01*
G75*
G02*
X109424780Y-109925780I-150000J0D01*
G01*
G37*
G36*
G01*
X109524780Y-77375780D02*
X109224780Y-77375780D01*
G75*
G02*
X109074780Y-77225780I0J150000D01*
G01*
X109074780Y-75875780D01*
G75*
G02*
X109224780Y-75725780I150000J0D01*
G01*
X109524780Y-75725780D01*
G75*
G02*
X109674780Y-75875780I0J-150000D01*
G01*
X109674780Y-77225780D01*
G75*
G02*
X109524780Y-77375780I-150000J0D01*
G01*
G37*
G36*
G01*
X108254780Y-77375780D02*
X107954780Y-77375780D01*
G75*
G02*
X107804780Y-77225780I0J150000D01*
G01*
X107804780Y-75875780D01*
G75*
G02*
X107954780Y-75725780I150000J0D01*
G01*
X108254780Y-75725780D01*
G75*
G02*
X108404780Y-75875780I0J-150000D01*
G01*
X108404780Y-77225780D01*
G75*
G02*
X108254780Y-77375780I-150000J0D01*
G01*
G37*
G36*
G01*
X106984780Y-77375780D02*
X106684780Y-77375780D01*
G75*
G02*
X106534780Y-77225780I0J150000D01*
G01*
X106534780Y-75875780D01*
G75*
G02*
X106684780Y-75725780I150000J0D01*
G01*
X106984780Y-75725780D01*
G75*
G02*
X107134780Y-75875780I0J-150000D01*
G01*
X107134780Y-77225780D01*
G75*
G02*
X106984780Y-77375780I-150000J0D01*
G01*
G37*
G36*
G01*
X105714780Y-77375780D02*
X105414780Y-77375780D01*
G75*
G02*
X105264780Y-77225780I0J150000D01*
G01*
X105264780Y-75875780D01*
G75*
G02*
X105414780Y-75725780I150000J0D01*
G01*
X105714780Y-75725780D01*
G75*
G02*
X105864780Y-75875780I0J-150000D01*
G01*
X105864780Y-77225780D01*
G75*
G02*
X105714780Y-77375780I-150000J0D01*
G01*
G37*
G36*
G01*
X105714780Y-72125780D02*
X105414780Y-72125780D01*
G75*
G02*
X105264780Y-71975780I0J150000D01*
G01*
X105264780Y-70625780D01*
G75*
G02*
X105414780Y-70475780I150000J0D01*
G01*
X105714780Y-70475780D01*
G75*
G02*
X105864780Y-70625780I0J-150000D01*
G01*
X105864780Y-71975780D01*
G75*
G02*
X105714780Y-72125780I-150000J0D01*
G01*
G37*
G36*
G01*
X106984780Y-72125780D02*
X106684780Y-72125780D01*
G75*
G02*
X106534780Y-71975780I0J150000D01*
G01*
X106534780Y-70625780D01*
G75*
G02*
X106684780Y-70475780I150000J0D01*
G01*
X106984780Y-70475780D01*
G75*
G02*
X107134780Y-70625780I0J-150000D01*
G01*
X107134780Y-71975780D01*
G75*
G02*
X106984780Y-72125780I-150000J0D01*
G01*
G37*
G36*
G01*
X108254780Y-72125780D02*
X107954780Y-72125780D01*
G75*
G02*
X107804780Y-71975780I0J150000D01*
G01*
X107804780Y-70625780D01*
G75*
G02*
X107954780Y-70475780I150000J0D01*
G01*
X108254780Y-70475780D01*
G75*
G02*
X108404780Y-70625780I0J-150000D01*
G01*
X108404780Y-71975780D01*
G75*
G02*
X108254780Y-72125780I-150000J0D01*
G01*
G37*
G36*
G01*
X109524780Y-72125780D02*
X109224780Y-72125780D01*
G75*
G02*
X109074780Y-71975780I0J150000D01*
G01*
X109074780Y-70625780D01*
G75*
G02*
X109224780Y-70475780I150000J0D01*
G01*
X109524780Y-70475780D01*
G75*
G02*
X109674780Y-70625780I0J-150000D01*
G01*
X109674780Y-71975780D01*
G75*
G02*
X109524780Y-72125780I-150000J0D01*
G01*
G37*
G36*
G01*
X109509780Y-39600780D02*
X109209780Y-39600780D01*
G75*
G02*
X109059780Y-39450780I0J150000D01*
G01*
X109059780Y-38100780D01*
G75*
G02*
X109209780Y-37950780I150000J0D01*
G01*
X109509780Y-37950780D01*
G75*
G02*
X109659780Y-38100780I0J-150000D01*
G01*
X109659780Y-39450780D01*
G75*
G02*
X109509780Y-39600780I-150000J0D01*
G01*
G37*
G36*
G01*
X108239780Y-39600780D02*
X107939780Y-39600780D01*
G75*
G02*
X107789780Y-39450780I0J150000D01*
G01*
X107789780Y-38100780D01*
G75*
G02*
X107939780Y-37950780I150000J0D01*
G01*
X108239780Y-37950780D01*
G75*
G02*
X108389780Y-38100780I0J-150000D01*
G01*
X108389780Y-39450780D01*
G75*
G02*
X108239780Y-39600780I-150000J0D01*
G01*
G37*
G36*
G01*
X106969780Y-39600780D02*
X106669780Y-39600780D01*
G75*
G02*
X106519780Y-39450780I0J150000D01*
G01*
X106519780Y-38100780D01*
G75*
G02*
X106669780Y-37950780I150000J0D01*
G01*
X106969780Y-37950780D01*
G75*
G02*
X107119780Y-38100780I0J-150000D01*
G01*
X107119780Y-39450780D01*
G75*
G02*
X106969780Y-39600780I-150000J0D01*
G01*
G37*
G36*
G01*
X105699780Y-39600780D02*
X105399780Y-39600780D01*
G75*
G02*
X105249780Y-39450780I0J150000D01*
G01*
X105249780Y-38100780D01*
G75*
G02*
X105399780Y-37950780I150000J0D01*
G01*
X105699780Y-37950780D01*
G75*
G02*
X105849780Y-38100780I0J-150000D01*
G01*
X105849780Y-39450780D01*
G75*
G02*
X105699780Y-39600780I-150000J0D01*
G01*
G37*
G36*
G01*
X105699780Y-44850780D02*
X105399780Y-44850780D01*
G75*
G02*
X105249780Y-44700780I0J150000D01*
G01*
X105249780Y-43350780D01*
G75*
G02*
X105399780Y-43200780I150000J0D01*
G01*
X105699780Y-43200780D01*
G75*
G02*
X105849780Y-43350780I0J-150000D01*
G01*
X105849780Y-44700780D01*
G75*
G02*
X105699780Y-44850780I-150000J0D01*
G01*
G37*
G36*
G01*
X106969780Y-44850780D02*
X106669780Y-44850780D01*
G75*
G02*
X106519780Y-44700780I0J150000D01*
G01*
X106519780Y-43350780D01*
G75*
G02*
X106669780Y-43200780I150000J0D01*
G01*
X106969780Y-43200780D01*
G75*
G02*
X107119780Y-43350780I0J-150000D01*
G01*
X107119780Y-44700780D01*
G75*
G02*
X106969780Y-44850780I-150000J0D01*
G01*
G37*
G36*
G01*
X108239780Y-44850780D02*
X107939780Y-44850780D01*
G75*
G02*
X107789780Y-44700780I0J150000D01*
G01*
X107789780Y-43350780D01*
G75*
G02*
X107939780Y-43200780I150000J0D01*
G01*
X108239780Y-43200780D01*
G75*
G02*
X108389780Y-43350780I0J-150000D01*
G01*
X108389780Y-44700780D01*
G75*
G02*
X108239780Y-44850780I-150000J0D01*
G01*
G37*
G36*
G01*
X109509780Y-44850780D02*
X109209780Y-44850780D01*
G75*
G02*
X109059780Y-44700780I0J150000D01*
G01*
X109059780Y-43350780D01*
G75*
G02*
X109209780Y-43200780I150000J0D01*
G01*
X109509780Y-43200780D01*
G75*
G02*
X109659780Y-43350780I0J-150000D01*
G01*
X109659780Y-44700780D01*
G75*
G02*
X109509780Y-44850780I-150000J0D01*
G01*
G37*
G36*
G01*
X141924780Y-142425780D02*
X141624780Y-142425780D01*
G75*
G02*
X141474780Y-142275780I0J150000D01*
G01*
X141474780Y-140925780D01*
G75*
G02*
X141624780Y-140775780I150000J0D01*
G01*
X141924780Y-140775780D01*
G75*
G02*
X142074780Y-140925780I0J-150000D01*
G01*
X142074780Y-142275780D01*
G75*
G02*
X141924780Y-142425780I-150000J0D01*
G01*
G37*
G36*
G01*
X140654780Y-142425780D02*
X140354780Y-142425780D01*
G75*
G02*
X140204780Y-142275780I0J150000D01*
G01*
X140204780Y-140925780D01*
G75*
G02*
X140354780Y-140775780I150000J0D01*
G01*
X140654780Y-140775780D01*
G75*
G02*
X140804780Y-140925780I0J-150000D01*
G01*
X140804780Y-142275780D01*
G75*
G02*
X140654780Y-142425780I-150000J0D01*
G01*
G37*
G36*
G01*
X139384780Y-142425780D02*
X139084780Y-142425780D01*
G75*
G02*
X138934780Y-142275780I0J150000D01*
G01*
X138934780Y-140925780D01*
G75*
G02*
X139084780Y-140775780I150000J0D01*
G01*
X139384780Y-140775780D01*
G75*
G02*
X139534780Y-140925780I0J-150000D01*
G01*
X139534780Y-142275780D01*
G75*
G02*
X139384780Y-142425780I-150000J0D01*
G01*
G37*
G36*
G01*
X138114780Y-142425780D02*
X137814780Y-142425780D01*
G75*
G02*
X137664780Y-142275780I0J150000D01*
G01*
X137664780Y-140925780D01*
G75*
G02*
X137814780Y-140775780I150000J0D01*
G01*
X138114780Y-140775780D01*
G75*
G02*
X138264780Y-140925780I0J-150000D01*
G01*
X138264780Y-142275780D01*
G75*
G02*
X138114780Y-142425780I-150000J0D01*
G01*
G37*
G36*
G01*
X138114780Y-137175780D02*
X137814780Y-137175780D01*
G75*
G02*
X137664780Y-137025780I0J150000D01*
G01*
X137664780Y-135675780D01*
G75*
G02*
X137814780Y-135525780I150000J0D01*
G01*
X138114780Y-135525780D01*
G75*
G02*
X138264780Y-135675780I0J-150000D01*
G01*
X138264780Y-137025780D01*
G75*
G02*
X138114780Y-137175780I-150000J0D01*
G01*
G37*
G36*
G01*
X139384780Y-137175780D02*
X139084780Y-137175780D01*
G75*
G02*
X138934780Y-137025780I0J150000D01*
G01*
X138934780Y-135675780D01*
G75*
G02*
X139084780Y-135525780I150000J0D01*
G01*
X139384780Y-135525780D01*
G75*
G02*
X139534780Y-135675780I0J-150000D01*
G01*
X139534780Y-137025780D01*
G75*
G02*
X139384780Y-137175780I-150000J0D01*
G01*
G37*
G36*
G01*
X140654780Y-137175780D02*
X140354780Y-137175780D01*
G75*
G02*
X140204780Y-137025780I0J150000D01*
G01*
X140204780Y-135675780D01*
G75*
G02*
X140354780Y-135525780I150000J0D01*
G01*
X140654780Y-135525780D01*
G75*
G02*
X140804780Y-135675780I0J-150000D01*
G01*
X140804780Y-137025780D01*
G75*
G02*
X140654780Y-137175780I-150000J0D01*
G01*
G37*
G36*
G01*
X141924780Y-137175780D02*
X141624780Y-137175780D01*
G75*
G02*
X141474780Y-137025780I0J150000D01*
G01*
X141474780Y-135675780D01*
G75*
G02*
X141624780Y-135525780I150000J0D01*
G01*
X141924780Y-135525780D01*
G75*
G02*
X142074780Y-135675780I0J-150000D01*
G01*
X142074780Y-137025780D01*
G75*
G02*
X141924780Y-137175780I-150000J0D01*
G01*
G37*
G36*
G01*
X142024780Y-104575780D02*
X141724780Y-104575780D01*
G75*
G02*
X141574780Y-104425780I0J150000D01*
G01*
X141574780Y-103075780D01*
G75*
G02*
X141724780Y-102925780I150000J0D01*
G01*
X142024780Y-102925780D01*
G75*
G02*
X142174780Y-103075780I0J-150000D01*
G01*
X142174780Y-104425780D01*
G75*
G02*
X142024780Y-104575780I-150000J0D01*
G01*
G37*
G36*
G01*
X140754780Y-104575780D02*
X140454780Y-104575780D01*
G75*
G02*
X140304780Y-104425780I0J150000D01*
G01*
X140304780Y-103075780D01*
G75*
G02*
X140454780Y-102925780I150000J0D01*
G01*
X140754780Y-102925780D01*
G75*
G02*
X140904780Y-103075780I0J-150000D01*
G01*
X140904780Y-104425780D01*
G75*
G02*
X140754780Y-104575780I-150000J0D01*
G01*
G37*
G36*
G01*
X139484780Y-104575780D02*
X139184780Y-104575780D01*
G75*
G02*
X139034780Y-104425780I0J150000D01*
G01*
X139034780Y-103075780D01*
G75*
G02*
X139184780Y-102925780I150000J0D01*
G01*
X139484780Y-102925780D01*
G75*
G02*
X139634780Y-103075780I0J-150000D01*
G01*
X139634780Y-104425780D01*
G75*
G02*
X139484780Y-104575780I-150000J0D01*
G01*
G37*
G36*
G01*
X138214780Y-104575780D02*
X137914780Y-104575780D01*
G75*
G02*
X137764780Y-104425780I0J150000D01*
G01*
X137764780Y-103075780D01*
G75*
G02*
X137914780Y-102925780I150000J0D01*
G01*
X138214780Y-102925780D01*
G75*
G02*
X138364780Y-103075780I0J-150000D01*
G01*
X138364780Y-104425780D01*
G75*
G02*
X138214780Y-104575780I-150000J0D01*
G01*
G37*
G36*
G01*
X138214780Y-109825780D02*
X137914780Y-109825780D01*
G75*
G02*
X137764780Y-109675780I0J150000D01*
G01*
X137764780Y-108325780D01*
G75*
G02*
X137914780Y-108175780I150000J0D01*
G01*
X138214780Y-108175780D01*
G75*
G02*
X138364780Y-108325780I0J-150000D01*
G01*
X138364780Y-109675780D01*
G75*
G02*
X138214780Y-109825780I-150000J0D01*
G01*
G37*
G36*
G01*
X139484780Y-109825780D02*
X139184780Y-109825780D01*
G75*
G02*
X139034780Y-109675780I0J150000D01*
G01*
X139034780Y-108325780D01*
G75*
G02*
X139184780Y-108175780I150000J0D01*
G01*
X139484780Y-108175780D01*
G75*
G02*
X139634780Y-108325780I0J-150000D01*
G01*
X139634780Y-109675780D01*
G75*
G02*
X139484780Y-109825780I-150000J0D01*
G01*
G37*
G36*
G01*
X140754780Y-109825780D02*
X140454780Y-109825780D01*
G75*
G02*
X140304780Y-109675780I0J150000D01*
G01*
X140304780Y-108325780D01*
G75*
G02*
X140454780Y-108175780I150000J0D01*
G01*
X140754780Y-108175780D01*
G75*
G02*
X140904780Y-108325780I0J-150000D01*
G01*
X140904780Y-109675780D01*
G75*
G02*
X140754780Y-109825780I-150000J0D01*
G01*
G37*
G36*
G01*
X142024780Y-109825780D02*
X141724780Y-109825780D01*
G75*
G02*
X141574780Y-109675780I0J150000D01*
G01*
X141574780Y-108325780D01*
G75*
G02*
X141724780Y-108175780I150000J0D01*
G01*
X142024780Y-108175780D01*
G75*
G02*
X142174780Y-108325780I0J-150000D01*
G01*
X142174780Y-109675780D01*
G75*
G02*
X142024780Y-109825780I-150000J0D01*
G01*
G37*
G36*
G01*
X141949780Y-72100780D02*
X141649780Y-72100780D01*
G75*
G02*
X141499780Y-71950780I0J150000D01*
G01*
X141499780Y-70600780D01*
G75*
G02*
X141649780Y-70450780I150000J0D01*
G01*
X141949780Y-70450780D01*
G75*
G02*
X142099780Y-70600780I0J-150000D01*
G01*
X142099780Y-71950780D01*
G75*
G02*
X141949780Y-72100780I-150000J0D01*
G01*
G37*
G36*
G01*
X140679780Y-72100780D02*
X140379780Y-72100780D01*
G75*
G02*
X140229780Y-71950780I0J150000D01*
G01*
X140229780Y-70600780D01*
G75*
G02*
X140379780Y-70450780I150000J0D01*
G01*
X140679780Y-70450780D01*
G75*
G02*
X140829780Y-70600780I0J-150000D01*
G01*
X140829780Y-71950780D01*
G75*
G02*
X140679780Y-72100780I-150000J0D01*
G01*
G37*
G36*
G01*
X139409780Y-72100780D02*
X139109780Y-72100780D01*
G75*
G02*
X138959780Y-71950780I0J150000D01*
G01*
X138959780Y-70600780D01*
G75*
G02*
X139109780Y-70450780I150000J0D01*
G01*
X139409780Y-70450780D01*
G75*
G02*
X139559780Y-70600780I0J-150000D01*
G01*
X139559780Y-71950780D01*
G75*
G02*
X139409780Y-72100780I-150000J0D01*
G01*
G37*
G36*
G01*
X138139780Y-72100780D02*
X137839780Y-72100780D01*
G75*
G02*
X137689780Y-71950780I0J150000D01*
G01*
X137689780Y-70600780D01*
G75*
G02*
X137839780Y-70450780I150000J0D01*
G01*
X138139780Y-70450780D01*
G75*
G02*
X138289780Y-70600780I0J-150000D01*
G01*
X138289780Y-71950780D01*
G75*
G02*
X138139780Y-72100780I-150000J0D01*
G01*
G37*
G36*
G01*
X138139780Y-77350780D02*
X137839780Y-77350780D01*
G75*
G02*
X137689780Y-77200780I0J150000D01*
G01*
X137689780Y-75850780D01*
G75*
G02*
X137839780Y-75700780I150000J0D01*
G01*
X138139780Y-75700780D01*
G75*
G02*
X138289780Y-75850780I0J-150000D01*
G01*
X138289780Y-77200780D01*
G75*
G02*
X138139780Y-77350780I-150000J0D01*
G01*
G37*
G36*
G01*
X139409780Y-77350780D02*
X139109780Y-77350780D01*
G75*
G02*
X138959780Y-77200780I0J150000D01*
G01*
X138959780Y-75850780D01*
G75*
G02*
X139109780Y-75700780I150000J0D01*
G01*
X139409780Y-75700780D01*
G75*
G02*
X139559780Y-75850780I0J-150000D01*
G01*
X139559780Y-77200780D01*
G75*
G02*
X139409780Y-77350780I-150000J0D01*
G01*
G37*
G36*
G01*
X140679780Y-77350780D02*
X140379780Y-77350780D01*
G75*
G02*
X140229780Y-77200780I0J150000D01*
G01*
X140229780Y-75850780D01*
G75*
G02*
X140379780Y-75700780I150000J0D01*
G01*
X140679780Y-75700780D01*
G75*
G02*
X140829780Y-75850780I0J-150000D01*
G01*
X140829780Y-77200780D01*
G75*
G02*
X140679780Y-77350780I-150000J0D01*
G01*
G37*
G36*
G01*
X141949780Y-77350780D02*
X141649780Y-77350780D01*
G75*
G02*
X141499780Y-77200780I0J150000D01*
G01*
X141499780Y-75850780D01*
G75*
G02*
X141649780Y-75700780I150000J0D01*
G01*
X141949780Y-75700780D01*
G75*
G02*
X142099780Y-75850780I0J-150000D01*
G01*
X142099780Y-77200780D01*
G75*
G02*
X141949780Y-77350780I-150000J0D01*
G01*
G37*
G36*
G01*
X141999780Y-39650780D02*
X141699780Y-39650780D01*
G75*
G02*
X141549780Y-39500780I0J150000D01*
G01*
X141549780Y-38150780D01*
G75*
G02*
X141699780Y-38000780I150000J0D01*
G01*
X141999780Y-38000780D01*
G75*
G02*
X142149780Y-38150780I0J-150000D01*
G01*
X142149780Y-39500780D01*
G75*
G02*
X141999780Y-39650780I-150000J0D01*
G01*
G37*
G36*
G01*
X140729780Y-39650780D02*
X140429780Y-39650780D01*
G75*
G02*
X140279780Y-39500780I0J150000D01*
G01*
X140279780Y-38150780D01*
G75*
G02*
X140429780Y-38000780I150000J0D01*
G01*
X140729780Y-38000780D01*
G75*
G02*
X140879780Y-38150780I0J-150000D01*
G01*
X140879780Y-39500780D01*
G75*
G02*
X140729780Y-39650780I-150000J0D01*
G01*
G37*
G36*
G01*
X139459780Y-39650780D02*
X139159780Y-39650780D01*
G75*
G02*
X139009780Y-39500780I0J150000D01*
G01*
X139009780Y-38150780D01*
G75*
G02*
X139159780Y-38000780I150000J0D01*
G01*
X139459780Y-38000780D01*
G75*
G02*
X139609780Y-38150780I0J-150000D01*
G01*
X139609780Y-39500780D01*
G75*
G02*
X139459780Y-39650780I-150000J0D01*
G01*
G37*
G36*
G01*
X138189780Y-39650780D02*
X137889780Y-39650780D01*
G75*
G02*
X137739780Y-39500780I0J150000D01*
G01*
X137739780Y-38150780D01*
G75*
G02*
X137889780Y-38000780I150000J0D01*
G01*
X138189780Y-38000780D01*
G75*
G02*
X138339780Y-38150780I0J-150000D01*
G01*
X138339780Y-39500780D01*
G75*
G02*
X138189780Y-39650780I-150000J0D01*
G01*
G37*
G36*
G01*
X138189780Y-44900780D02*
X137889780Y-44900780D01*
G75*
G02*
X137739780Y-44750780I0J150000D01*
G01*
X137739780Y-43400780D01*
G75*
G02*
X137889780Y-43250780I150000J0D01*
G01*
X138189780Y-43250780D01*
G75*
G02*
X138339780Y-43400780I0J-150000D01*
G01*
X138339780Y-44750780D01*
G75*
G02*
X138189780Y-44900780I-150000J0D01*
G01*
G37*
G36*
G01*
X139459780Y-44900780D02*
X139159780Y-44900780D01*
G75*
G02*
X139009780Y-44750780I0J150000D01*
G01*
X139009780Y-43400780D01*
G75*
G02*
X139159780Y-43250780I150000J0D01*
G01*
X139459780Y-43250780D01*
G75*
G02*
X139609780Y-43400780I0J-150000D01*
G01*
X139609780Y-44750780D01*
G75*
G02*
X139459780Y-44900780I-150000J0D01*
G01*
G37*
G36*
G01*
X140729780Y-44900780D02*
X140429780Y-44900780D01*
G75*
G02*
X140279780Y-44750780I0J150000D01*
G01*
X140279780Y-43400780D01*
G75*
G02*
X140429780Y-43250780I150000J0D01*
G01*
X140729780Y-43250780D01*
G75*
G02*
X140879780Y-43400780I0J-150000D01*
G01*
X140879780Y-44750780D01*
G75*
G02*
X140729780Y-44900780I-150000J0D01*
G01*
G37*
G36*
G01*
X141999780Y-44900780D02*
X141699780Y-44900780D01*
G75*
G02*
X141549780Y-44750780I0J150000D01*
G01*
X141549780Y-43400780D01*
G75*
G02*
X141699780Y-43250780I150000J0D01*
G01*
X141999780Y-43250780D01*
G75*
G02*
X142149780Y-43400780I0J-150000D01*
G01*
X142149780Y-44750780D01*
G75*
G02*
X141999780Y-44900780I-150000J0D01*
G01*
G37*
M02*
