%TF.GenerationSoftware,KiCad,Pcbnew,5.1.9*%
%TF.CreationDate,2021-03-03T15:04:46+01:00*%
%TF.ProjectId,mixer.pcb,6d697865-722e-4706-9362-2e6b69636164,0.2*%
%TF.SameCoordinates,Original*%
%TF.FileFunction,Other,User*%
%FSLAX46Y46*%
G04 Gerber Fmt 4.6, Leading zero omitted, Abs format (unit mm)*
G04 Created by KiCad (PCBNEW 5.1.9) date 2021-03-03 15:04:46*
%MOMM*%
%LPD*%
G01*
G04 APERTURE LIST*
%ADD10C,0.050000*%
G04 APERTURE END LIST*
D10*
%TO.C,REF\u002A\u002A*%
X157690000Y-68580000D02*
G75*
G03*
X157690000Y-68580000I-2750000J0D01*
G01*
X52280000Y-68580000D02*
G75*
G03*
X52280000Y-68580000I-2750000J0D01*
G01*
X86570000Y-68580000D02*
G75*
G03*
X86570000Y-68580000I-2750000J0D01*
G01*
X123400000Y-68580000D02*
G75*
G03*
X123400000Y-68580000I-2750000J0D01*
G01*
X148800000Y-205740000D02*
G75*
G03*
X148800000Y-205740000I-2750000J0D01*
G01*
X92920000Y-240030000D02*
G75*
G03*
X92920000Y-240030000I-2750000J0D01*
G01*
X63710000Y-205740000D02*
G75*
G03*
X63710000Y-205740000I-2750000J0D01*
G01*
X100540000Y-118110000D02*
G75*
G03*
X100540000Y-118110000I-2750000J0D01*
G01*
X19260000Y-68580000D02*
G75*
G03*
X19260000Y-68580000I-2750000J0D01*
G01*
X19260000Y-118110000D02*
G75*
G03*
X19260000Y-118110000I-2750000J0D01*
G01*
X19260000Y-166370000D02*
G75*
G03*
X19260000Y-166370000I-2750000J0D01*
G01*
X19260000Y-218440000D02*
G75*
G03*
X19260000Y-218440000I-2750000J0D01*
G01*
X151340000Y-279400000D02*
G75*
G03*
X151340000Y-279400000I-2750000J0D01*
G01*
X19260000Y-279400000D02*
G75*
G03*
X19260000Y-279400000I-2750000J0D01*
G01*
X61170000Y-279400000D02*
G75*
G03*
X61170000Y-279400000I-2750000J0D01*
G01*
X105620000Y-279400000D02*
G75*
G03*
X105620000Y-279400000I-2750000J0D01*
G01*
X195790000Y-279400000D02*
G75*
G03*
X195790000Y-279400000I-2750000J0D01*
G01*
X194520000Y-218440000D02*
G75*
G03*
X194520000Y-218440000I-2750000J0D01*
G01*
X195790000Y-166370000D02*
G75*
G03*
X195790000Y-166370000I-2750000J0D01*
G01*
X195790000Y-118110000D02*
G75*
G03*
X195790000Y-118110000I-2750000J0D01*
G01*
X195790000Y-68580000D02*
G75*
G03*
X195790000Y-68580000I-2750000J0D01*
G01*
X195790000Y-16510000D02*
G75*
G03*
X195790000Y-16510000I-2750000J0D01*
G01*
X138640000Y-16510000D02*
G75*
G03*
X138640000Y-16510000I-2750000J0D01*
G01*
X67520000Y-16510000D02*
G75*
G03*
X67520000Y-16510000I-2750000J0D01*
G01*
X19260000Y-16510000D02*
G75*
G03*
X19260000Y-16510000I-2750000J0D01*
G01*
%TO.C,R2*%
X63730000Y-261840000D02*
X60730000Y-261840000D01*
X60730000Y-261840000D02*
X60730000Y-274100000D01*
X60730000Y-274100000D02*
X63730000Y-274100000D01*
X63730000Y-274100000D02*
X63730000Y-261840000D01*
%TO.C,R13*%
X16740000Y-94200000D02*
X13740000Y-94200000D01*
X13740000Y-94200000D02*
X13740000Y-106460000D01*
X13740000Y-106460000D02*
X16740000Y-106460000D01*
X16740000Y-106460000D02*
X16740000Y-94200000D01*
%TO.C,FX-BTNs1*%
X73380000Y-271610000D02*
X94230000Y-271610000D01*
X94230000Y-271610000D02*
X94230000Y-261810000D01*
X94230000Y-261810000D02*
X73380000Y-261810000D01*
X73380000Y-261810000D02*
X73380000Y-271610000D01*
%TO.C,fx1_enc2*%
X25090000Y-259490000D02*
X31840000Y-259490000D01*
X31840000Y-259490000D02*
X31840000Y-243590000D01*
X31840000Y-243590000D02*
X25090000Y-243590000D01*
X25090000Y-243590000D02*
X25090000Y-259490000D01*
%TO.C,MuxCh1_4*%
X23720000Y-44140000D02*
X23720000Y-50890000D01*
X23720000Y-50890000D02*
X34620000Y-50890000D01*
X34620000Y-50890000D02*
X34620000Y-44140000D01*
X34620000Y-44140000D02*
X23720000Y-44140000D01*
%TO.C,MuxCh1_5*%
X23720000Y-53030000D02*
X23720000Y-59780000D01*
X23720000Y-59780000D02*
X34620000Y-59780000D01*
X34620000Y-59780000D02*
X34620000Y-53030000D01*
X34620000Y-53030000D02*
X23720000Y-53030000D01*
%TO.C,MuxCh1_2*%
X34620000Y-26360000D02*
X23720000Y-26360000D01*
X34620000Y-33110000D02*
X34620000Y-26360000D01*
X23720000Y-33110000D02*
X34620000Y-33110000D01*
X23720000Y-26360000D02*
X23720000Y-33110000D01*
%TO.C,MuxCh1*%
X34100000Y-89890000D02*
X24300000Y-89890000D01*
X34100000Y-110740000D02*
X34100000Y-89890000D01*
X24300000Y-110740000D02*
X34100000Y-110740000D01*
X24300000Y-89890000D02*
X24300000Y-110740000D01*
%TO.C,MuxCh1_3*%
X23720000Y-35250000D02*
X23720000Y-42000000D01*
X23720000Y-42000000D02*
X34620000Y-42000000D01*
X34620000Y-42000000D02*
X34620000Y-35250000D01*
X34620000Y-35250000D02*
X23720000Y-35250000D01*
%TO.C,MuxCh1_6*%
X34620000Y-61920000D02*
X23720000Y-61920000D01*
X34620000Y-68670000D02*
X34620000Y-61920000D01*
X23720000Y-68670000D02*
X34620000Y-68670000D01*
X23720000Y-61920000D02*
X23720000Y-68670000D01*
%TO.C,MuxCh1_7*%
X34620000Y-70810000D02*
X23720000Y-70810000D01*
X34620000Y-77560000D02*
X34620000Y-70810000D01*
X23720000Y-77560000D02*
X34620000Y-77560000D01*
X23720000Y-70810000D02*
X23720000Y-77560000D01*
%TO.C,MuxCh1_8*%
X23720000Y-79700000D02*
X23720000Y-86450000D01*
X23720000Y-86450000D02*
X34620000Y-86450000D01*
X34620000Y-86450000D02*
X34620000Y-79700000D01*
X34620000Y-79700000D02*
X23720000Y-79700000D01*
%TO.C,MuxCh1_1*%
X23720000Y-17470000D02*
X23720000Y-24220000D01*
X23720000Y-24220000D02*
X34620000Y-24220000D01*
X34620000Y-24220000D02*
X34620000Y-17470000D01*
X34620000Y-17470000D02*
X23720000Y-17470000D01*
%TO.C,NeoPixel1*%
X25090000Y-195250000D02*
X25090000Y-206150000D01*
X31840000Y-195250000D02*
X25090000Y-195250000D01*
X31840000Y-206150000D02*
X31840000Y-195250000D01*
X25090000Y-206150000D02*
X31840000Y-206150000D01*
%TO.C,VU_Matrix1*%
X150170000Y-185010000D02*
X143420000Y-185010000D01*
X143420000Y-185010000D02*
X143420000Y-200910000D01*
X143420000Y-200910000D02*
X150170000Y-200910000D01*
X150170000Y-200910000D02*
X150170000Y-185010000D01*
%TO.C,display_1*%
X25090000Y-210530000D02*
X25090000Y-223930000D01*
X31840000Y-210530000D02*
X25090000Y-210530000D01*
X31840000Y-223930000D02*
X31840000Y-210530000D01*
X25090000Y-223930000D02*
X31840000Y-223930000D01*
%TO.C,display_2*%
X177490000Y-223930000D02*
X184240000Y-223930000D01*
X184240000Y-223930000D02*
X184240000Y-210530000D01*
X184240000Y-210530000D02*
X177490000Y-210530000D01*
X177490000Y-210530000D02*
X177490000Y-223930000D01*
%TO.C,fx1_btn1*%
X104450000Y-268340000D02*
X104450000Y-259940000D01*
X97700000Y-268340000D02*
X104450000Y-268340000D01*
X97700000Y-259940000D02*
X97700000Y-268340000D01*
X104450000Y-259940000D02*
X97700000Y-259940000D01*
%TO.C,fx1_btn2*%
X51110000Y-233270000D02*
X44360000Y-233270000D01*
X44360000Y-233270000D02*
X44360000Y-241670000D01*
X44360000Y-241670000D02*
X51110000Y-241670000D01*
X51110000Y-241670000D02*
X51110000Y-233270000D01*
%TO.C,fx1_btn3*%
X60000000Y-233270000D02*
X53250000Y-233270000D01*
X53250000Y-233270000D02*
X53250000Y-241670000D01*
X53250000Y-241670000D02*
X60000000Y-241670000D01*
X60000000Y-241670000D02*
X60000000Y-233270000D01*
%TO.C,fx1_btn4*%
X68890000Y-241670000D02*
X68890000Y-233270000D01*
X62140000Y-241670000D02*
X68890000Y-241670000D01*
X62140000Y-233270000D02*
X62140000Y-241670000D01*
X68890000Y-233270000D02*
X62140000Y-233270000D01*
%TO.C,fx1_enc1*%
X25090000Y-241710000D02*
X31840000Y-241710000D01*
X31840000Y-241710000D02*
X31840000Y-225810000D01*
X31840000Y-225810000D02*
X25090000Y-225810000D01*
X25090000Y-225810000D02*
X25090000Y-241710000D01*
%TO.C,fx1_enc3*%
X25090000Y-277270000D02*
X31840000Y-277270000D01*
X31840000Y-277270000D02*
X31840000Y-261370000D01*
X31840000Y-261370000D02*
X25090000Y-261370000D01*
X25090000Y-261370000D02*
X25090000Y-277270000D01*
%TO.C,fx2_btn1*%
X42220000Y-233270000D02*
X35470000Y-233270000D01*
X35470000Y-233270000D02*
X35470000Y-241670000D01*
X35470000Y-241670000D02*
X42220000Y-241670000D01*
X42220000Y-241670000D02*
X42220000Y-233270000D01*
%TO.C,fx2_btn2*%
X113340000Y-268340000D02*
X113340000Y-259940000D01*
X106590000Y-268340000D02*
X113340000Y-268340000D01*
X106590000Y-259940000D02*
X106590000Y-268340000D01*
X113340000Y-259940000D02*
X106590000Y-259940000D01*
%TO.C,fx2_btn3*%
X122230000Y-259940000D02*
X115480000Y-259940000D01*
X115480000Y-259940000D02*
X115480000Y-268340000D01*
X115480000Y-268340000D02*
X122230000Y-268340000D01*
X122230000Y-268340000D02*
X122230000Y-259940000D01*
%TO.C,fx2_btn4*%
X131120000Y-268340000D02*
X131120000Y-259940000D01*
X124370000Y-268340000D02*
X131120000Y-268340000D01*
X124370000Y-259940000D02*
X124370000Y-268340000D01*
X131120000Y-259940000D02*
X124370000Y-259940000D01*
%TO.C,fx2_enc1*%
X177490000Y-225810000D02*
X177490000Y-241710000D01*
X184240000Y-225810000D02*
X177490000Y-225810000D01*
X184240000Y-241710000D02*
X184240000Y-225810000D01*
X177490000Y-241710000D02*
X184240000Y-241710000D01*
%TO.C,fx2_enc2*%
X177490000Y-259490000D02*
X184240000Y-259490000D01*
X184240000Y-259490000D02*
X184240000Y-243590000D01*
X184240000Y-243590000D02*
X177490000Y-243590000D01*
X177490000Y-243590000D02*
X177490000Y-259490000D01*
%TO.C,fx2_enc3*%
X177490000Y-261370000D02*
X177490000Y-277270000D01*
X184240000Y-261370000D02*
X177490000Y-261370000D01*
X184240000Y-277270000D02*
X184240000Y-261370000D01*
X177490000Y-277270000D02*
X184240000Y-277270000D01*
%TO.C,fxEncBtns1*%
X134340000Y-254190000D02*
X134340000Y-263990000D01*
X155190000Y-254190000D02*
X134340000Y-254190000D01*
X155190000Y-263990000D02*
X155190000Y-254190000D01*
X134340000Y-263990000D02*
X155190000Y-263990000D01*
%TO.C,pfl_btn_1*%
X36520000Y-138060000D02*
X36520000Y-146460000D01*
X43270000Y-138060000D02*
X36520000Y-138060000D01*
X43270000Y-146460000D02*
X43270000Y-138060000D01*
X36520000Y-146460000D02*
X43270000Y-146460000D01*
%TO.C,pfl_btn_2*%
X68270000Y-146460000D02*
X75020000Y-146460000D01*
X75020000Y-146460000D02*
X75020000Y-138060000D01*
X75020000Y-138060000D02*
X68270000Y-138060000D01*
X68270000Y-138060000D02*
X68270000Y-146460000D01*
%TO.C,pfl_btn_3*%
X105100000Y-138060000D02*
X105100000Y-146460000D01*
X111850000Y-138060000D02*
X105100000Y-138060000D01*
X111850000Y-146460000D02*
X111850000Y-138060000D01*
X105100000Y-146460000D02*
X111850000Y-146460000D01*
%TO.C,pfl_btn_4*%
X151540000Y-145090000D02*
X151540000Y-138340000D01*
X151540000Y-138340000D02*
X143140000Y-138340000D01*
X143140000Y-138340000D02*
X143140000Y-145090000D01*
X143140000Y-145090000D02*
X151540000Y-145090000D01*
%TO.C,pfl_btn_master1*%
X180030000Y-139330000D02*
X180030000Y-147730000D01*
X186780000Y-139330000D02*
X180030000Y-139330000D01*
X186780000Y-147730000D02*
X186780000Y-139330000D01*
X180030000Y-147730000D02*
X186780000Y-147730000D01*
%TO.C,pfl_led_1*%
X33330000Y-138020000D02*
X26580000Y-138020000D01*
X26580000Y-138020000D02*
X26580000Y-146420000D01*
X26580000Y-146420000D02*
X33330000Y-146420000D01*
X33330000Y-146420000D02*
X33330000Y-138020000D01*
%TO.C,pfl_led_2*%
X65080000Y-146420000D02*
X65080000Y-138020000D01*
X58330000Y-146420000D02*
X65080000Y-146420000D01*
X58330000Y-138020000D02*
X58330000Y-146420000D01*
X65080000Y-138020000D02*
X58330000Y-138020000D01*
%TO.C,pfl_led_3*%
X101910000Y-146420000D02*
X101910000Y-138020000D01*
X95160000Y-146420000D02*
X101910000Y-146420000D01*
X95160000Y-138020000D02*
X95160000Y-146420000D01*
X101910000Y-138020000D02*
X95160000Y-138020000D01*
%TO.C,pfl_led_4*%
X133760000Y-145090000D02*
X133760000Y-138340000D01*
X133760000Y-138340000D02*
X125360000Y-138340000D01*
X125360000Y-138340000D02*
X125360000Y-145090000D01*
X125360000Y-145090000D02*
X133760000Y-145090000D01*
%TO.C,pfl_led_master1*%
X176840000Y-139290000D02*
X170090000Y-139290000D01*
X170090000Y-139290000D02*
X170090000Y-147690000D01*
X170090000Y-147690000D02*
X176840000Y-147690000D01*
X176840000Y-147690000D02*
X176840000Y-139290000D01*
%TO.C,spare(28)1*%
X177490000Y-195990000D02*
X184240000Y-195990000D01*
X184240000Y-195990000D02*
X184240000Y-185090000D01*
X184240000Y-185090000D02*
X177490000Y-185090000D01*
X177490000Y-185090000D02*
X177490000Y-195990000D01*
%TO.C,spare(29)1*%
X177490000Y-208690000D02*
X184240000Y-208690000D01*
X184240000Y-208690000D02*
X184240000Y-197790000D01*
X184240000Y-197790000D02*
X177490000Y-197790000D01*
X177490000Y-197790000D02*
X177490000Y-208690000D01*
%TO.C,C1*%
X33190000Y-187980000D02*
G75*
G03*
X33190000Y-187980000I-5250000J0D01*
G01*
%TO.C,MuxCh2*%
X69660000Y-106400000D02*
X59860000Y-106400000D01*
X69660000Y-127250000D02*
X69660000Y-106400000D01*
X59860000Y-127250000D02*
X69660000Y-127250000D01*
X59860000Y-106400000D02*
X59860000Y-127250000D01*
%TO.C,MuxCh3*%
X105220000Y-89890000D02*
X95420000Y-89890000D01*
X105220000Y-110740000D02*
X105220000Y-89890000D01*
X95420000Y-110740000D02*
X105220000Y-110740000D01*
X95420000Y-89890000D02*
X95420000Y-110740000D01*
%TO.C,MuxCh4*%
X130980000Y-106400000D02*
X130980000Y-127250000D01*
X130980000Y-127250000D02*
X140780000Y-127250000D01*
X140780000Y-127250000D02*
X140780000Y-106400000D01*
X140780000Y-106400000D02*
X130980000Y-106400000D01*
%TO.C,MuxCh5*%
X165270000Y-88620000D02*
X165270000Y-109470000D01*
X165270000Y-109470000D02*
X175070000Y-109470000D01*
X175070000Y-109470000D02*
X175070000Y-88620000D01*
X175070000Y-88620000D02*
X165270000Y-88620000D01*
%TO.C,MuxCh1_9*%
X70180000Y-33980000D02*
X59280000Y-33980000D01*
X70180000Y-40730000D02*
X70180000Y-33980000D01*
X59280000Y-40730000D02*
X70180000Y-40730000D01*
X59280000Y-33980000D02*
X59280000Y-40730000D01*
%TO.C,MuxCh1_10*%
X70180000Y-42870000D02*
X59280000Y-42870000D01*
X70180000Y-49620000D02*
X70180000Y-42870000D01*
X59280000Y-49620000D02*
X70180000Y-49620000D01*
X59280000Y-42870000D02*
X59280000Y-49620000D01*
%TO.C,MuxCh1_11*%
X59280000Y-51760000D02*
X59280000Y-58510000D01*
X59280000Y-58510000D02*
X70180000Y-58510000D01*
X70180000Y-58510000D02*
X70180000Y-51760000D01*
X70180000Y-51760000D02*
X59280000Y-51760000D01*
%TO.C,MuxCh1_12*%
X59280000Y-60650000D02*
X59280000Y-67400000D01*
X59280000Y-67400000D02*
X70180000Y-67400000D01*
X70180000Y-67400000D02*
X70180000Y-60650000D01*
X70180000Y-60650000D02*
X59280000Y-60650000D01*
%TO.C,MuxCh1_13*%
X59280000Y-69540000D02*
X59280000Y-76290000D01*
X59280000Y-76290000D02*
X70180000Y-76290000D01*
X70180000Y-76290000D02*
X70180000Y-69540000D01*
X70180000Y-69540000D02*
X59280000Y-69540000D01*
%TO.C,MuxCh1_14*%
X70180000Y-78430000D02*
X59280000Y-78430000D01*
X70180000Y-85180000D02*
X70180000Y-78430000D01*
X59280000Y-85180000D02*
X70180000Y-85180000D01*
X59280000Y-78430000D02*
X59280000Y-85180000D01*
%TO.C,MuxCh1_15*%
X70180000Y-87320000D02*
X59280000Y-87320000D01*
X70180000Y-94070000D02*
X70180000Y-87320000D01*
X59280000Y-94070000D02*
X70180000Y-94070000D01*
X59280000Y-87320000D02*
X59280000Y-94070000D01*
%TO.C,MuxCh1_16*%
X59280000Y-96210000D02*
X59280000Y-102960000D01*
X59280000Y-102960000D02*
X70180000Y-102960000D01*
X70180000Y-102960000D02*
X70180000Y-96210000D01*
X70180000Y-96210000D02*
X59280000Y-96210000D01*
%TO.C,MuxCh1_17*%
X94840000Y-17470000D02*
X94840000Y-24220000D01*
X94840000Y-24220000D02*
X105740000Y-24220000D01*
X105740000Y-24220000D02*
X105740000Y-17470000D01*
X105740000Y-17470000D02*
X94840000Y-17470000D01*
%TO.C,MuxCh1_18*%
X105740000Y-26360000D02*
X94840000Y-26360000D01*
X105740000Y-33110000D02*
X105740000Y-26360000D01*
X94840000Y-33110000D02*
X105740000Y-33110000D01*
X94840000Y-26360000D02*
X94840000Y-33110000D01*
%TO.C,MuxCh1_19*%
X94840000Y-35250000D02*
X94840000Y-42000000D01*
X94840000Y-42000000D02*
X105740000Y-42000000D01*
X105740000Y-42000000D02*
X105740000Y-35250000D01*
X105740000Y-35250000D02*
X94840000Y-35250000D01*
%TO.C,MuxCh1_20*%
X94840000Y-44140000D02*
X94840000Y-50890000D01*
X94840000Y-50890000D02*
X105740000Y-50890000D01*
X105740000Y-50890000D02*
X105740000Y-44140000D01*
X105740000Y-44140000D02*
X94840000Y-44140000D01*
%TO.C,MuxCh1_21*%
X105740000Y-53030000D02*
X94840000Y-53030000D01*
X105740000Y-59780000D02*
X105740000Y-53030000D01*
X94840000Y-59780000D02*
X105740000Y-59780000D01*
X94840000Y-53030000D02*
X94840000Y-59780000D01*
%TO.C,MuxCh1_22*%
X94840000Y-61920000D02*
X94840000Y-68670000D01*
X94840000Y-68670000D02*
X105740000Y-68670000D01*
X105740000Y-68670000D02*
X105740000Y-61920000D01*
X105740000Y-61920000D02*
X94840000Y-61920000D01*
%TO.C,MuxCh1_23*%
X94840000Y-70810000D02*
X94840000Y-77560000D01*
X94840000Y-77560000D02*
X105740000Y-77560000D01*
X105740000Y-77560000D02*
X105740000Y-70810000D01*
X105740000Y-70810000D02*
X94840000Y-70810000D01*
%TO.C,MuxCh1_24*%
X105740000Y-79700000D02*
X94840000Y-79700000D01*
X105740000Y-86450000D02*
X105740000Y-79700000D01*
X94840000Y-86450000D02*
X105740000Y-86450000D01*
X94840000Y-79700000D02*
X94840000Y-86450000D01*
%TO.C,MuxCh1_25*%
X130400000Y-33980000D02*
X130400000Y-40730000D01*
X130400000Y-40730000D02*
X141300000Y-40730000D01*
X141300000Y-40730000D02*
X141300000Y-33980000D01*
X141300000Y-33980000D02*
X130400000Y-33980000D01*
%TO.C,MuxCh1_26*%
X141300000Y-42870000D02*
X130400000Y-42870000D01*
X141300000Y-49620000D02*
X141300000Y-42870000D01*
X130400000Y-49620000D02*
X141300000Y-49620000D01*
X130400000Y-42870000D02*
X130400000Y-49620000D01*
%TO.C,MuxCh1_27*%
X141300000Y-51760000D02*
X130400000Y-51760000D01*
X141300000Y-58510000D02*
X141300000Y-51760000D01*
X130400000Y-58510000D02*
X141300000Y-58510000D01*
X130400000Y-51760000D02*
X130400000Y-58510000D01*
%TO.C,MuxCh1_28*%
X130400000Y-60650000D02*
X130400000Y-67400000D01*
X130400000Y-67400000D02*
X141300000Y-67400000D01*
X141300000Y-67400000D02*
X141300000Y-60650000D01*
X141300000Y-60650000D02*
X130400000Y-60650000D01*
%TO.C,MuxCh1_29*%
X141300000Y-69540000D02*
X130400000Y-69540000D01*
X141300000Y-76290000D02*
X141300000Y-69540000D01*
X130400000Y-76290000D02*
X141300000Y-76290000D01*
X130400000Y-69540000D02*
X130400000Y-76290000D01*
%TO.C,MuxCh1_30*%
X130400000Y-78430000D02*
X130400000Y-85180000D01*
X130400000Y-85180000D02*
X141300000Y-85180000D01*
X141300000Y-85180000D02*
X141300000Y-78430000D01*
X141300000Y-78430000D02*
X130400000Y-78430000D01*
%TO.C,MuxCh1_31*%
X141300000Y-87320000D02*
X130400000Y-87320000D01*
X141300000Y-94070000D02*
X141300000Y-87320000D01*
X130400000Y-94070000D02*
X141300000Y-94070000D01*
X130400000Y-87320000D02*
X130400000Y-94070000D01*
%TO.C,MuxCh1_32*%
X141300000Y-96210000D02*
X130400000Y-96210000D01*
X141300000Y-102960000D02*
X141300000Y-96210000D01*
X130400000Y-102960000D02*
X141300000Y-102960000D01*
X130400000Y-96210000D02*
X130400000Y-102960000D01*
%TO.C,MuxCh1_33*%
X164690000Y-16200000D02*
X164690000Y-22950000D01*
X164690000Y-22950000D02*
X175590000Y-22950000D01*
X175590000Y-22950000D02*
X175590000Y-16200000D01*
X175590000Y-16200000D02*
X164690000Y-16200000D01*
%TO.C,MuxCh1_34*%
X175590000Y-25090000D02*
X164690000Y-25090000D01*
X175590000Y-31840000D02*
X175590000Y-25090000D01*
X164690000Y-31840000D02*
X175590000Y-31840000D01*
X164690000Y-25090000D02*
X164690000Y-31840000D01*
%TO.C,MuxCh1_35*%
X164690000Y-33980000D02*
X164690000Y-40730000D01*
X164690000Y-40730000D02*
X175590000Y-40730000D01*
X175590000Y-40730000D02*
X175590000Y-33980000D01*
X175590000Y-33980000D02*
X164690000Y-33980000D01*
%TO.C,MuxCh1_36*%
X164690000Y-42870000D02*
X164690000Y-49620000D01*
X164690000Y-49620000D02*
X175590000Y-49620000D01*
X175590000Y-49620000D02*
X175590000Y-42870000D01*
X175590000Y-42870000D02*
X164690000Y-42870000D01*
%TO.C,MuxCh1_37*%
X175590000Y-51760000D02*
X164690000Y-51760000D01*
X175590000Y-58510000D02*
X175590000Y-51760000D01*
X164690000Y-58510000D02*
X175590000Y-58510000D01*
X164690000Y-51760000D02*
X164690000Y-58510000D01*
%TO.C,MuxCh1_38*%
X164690000Y-60650000D02*
X164690000Y-67400000D01*
X164690000Y-67400000D02*
X175590000Y-67400000D01*
X175590000Y-67400000D02*
X175590000Y-60650000D01*
X175590000Y-60650000D02*
X164690000Y-60650000D01*
%TO.C,MuxCh1_39*%
X175590000Y-69540000D02*
X164690000Y-69540000D01*
X175590000Y-76290000D02*
X175590000Y-69540000D01*
X164690000Y-76290000D02*
X175590000Y-76290000D01*
X164690000Y-69540000D02*
X164690000Y-76290000D01*
%TO.C,MuxCh1_40*%
X175590000Y-78430000D02*
X164690000Y-78430000D01*
X175590000Y-85180000D02*
X175590000Y-78430000D01*
X164690000Y-85180000D02*
X175590000Y-85180000D01*
X164690000Y-78430000D02*
X164690000Y-85180000D01*
%TO.C,R1*%
X107730000Y-255040000D02*
X95470000Y-255040000D01*
X107730000Y-258040000D02*
X107730000Y-255040000D01*
X95470000Y-258040000D02*
X107730000Y-258040000D01*
X95470000Y-255040000D02*
X95470000Y-258040000D01*
%TO.C,R3*%
X59920000Y-274100000D02*
X59920000Y-261840000D01*
X56920000Y-274100000D02*
X59920000Y-274100000D01*
X56920000Y-261840000D02*
X56920000Y-274100000D01*
X59920000Y-261840000D02*
X56920000Y-261840000D01*
%TO.C,R4*%
X56110000Y-261840000D02*
X53110000Y-261840000D01*
X53110000Y-261840000D02*
X53110000Y-274100000D01*
X53110000Y-274100000D02*
X56110000Y-274100000D01*
X56110000Y-274100000D02*
X56110000Y-261840000D01*
%TO.C,R5*%
X49300000Y-261840000D02*
X49300000Y-274100000D01*
X52300000Y-261840000D02*
X49300000Y-261840000D01*
X52300000Y-274100000D02*
X52300000Y-261840000D01*
X49300000Y-274100000D02*
X52300000Y-274100000D01*
%TO.C,R6*%
X96740000Y-269010000D02*
X96740000Y-272010000D01*
X96740000Y-272010000D02*
X109000000Y-272010000D01*
X109000000Y-272010000D02*
X109000000Y-269010000D01*
X109000000Y-269010000D02*
X96740000Y-269010000D01*
%TO.C,R7*%
X66260000Y-280900000D02*
X78520000Y-280900000D01*
X66260000Y-277900000D02*
X66260000Y-280900000D01*
X78520000Y-277900000D02*
X66260000Y-277900000D01*
X78520000Y-280900000D02*
X78520000Y-277900000D01*
%TO.C,R8*%
X81500000Y-277900000D02*
X81500000Y-280900000D01*
X81500000Y-280900000D02*
X93760000Y-280900000D01*
X93760000Y-280900000D02*
X93760000Y-277900000D01*
X93760000Y-277900000D02*
X81500000Y-277900000D01*
%TO.C,R9*%
X43400000Y-98830000D02*
X43400000Y-101830000D01*
X43400000Y-101830000D02*
X55660000Y-101830000D01*
X55660000Y-101830000D02*
X55660000Y-98830000D01*
X55660000Y-98830000D02*
X43400000Y-98830000D01*
%TO.C,R10*%
X44220000Y-96300000D02*
X47220000Y-96300000D01*
X47220000Y-96300000D02*
X47220000Y-84040000D01*
X47220000Y-84040000D02*
X44220000Y-84040000D01*
X44220000Y-84040000D02*
X44220000Y-96300000D01*
%TO.C,R11*%
X51030000Y-81500000D02*
X48030000Y-81500000D01*
X48030000Y-81500000D02*
X48030000Y-93760000D01*
X48030000Y-93760000D02*
X51030000Y-93760000D01*
X51030000Y-93760000D02*
X51030000Y-81500000D01*
%TO.C,R12*%
X54840000Y-91220000D02*
X54840000Y-78960000D01*
X51840000Y-91220000D02*
X54840000Y-91220000D01*
X51840000Y-78960000D02*
X51840000Y-91220000D01*
X54840000Y-78960000D02*
X51840000Y-78960000D01*
%TO.C,R14*%
X56930000Y-74700000D02*
X44670000Y-74700000D01*
X56930000Y-77700000D02*
X56930000Y-74700000D01*
X44670000Y-77700000D02*
X56930000Y-77700000D01*
X44670000Y-74700000D02*
X44670000Y-77700000D01*
%TO.C,R15*%
X20550000Y-94200000D02*
X17550000Y-94200000D01*
X17550000Y-94200000D02*
X17550000Y-106460000D01*
X17550000Y-106460000D02*
X20550000Y-106460000D01*
X20550000Y-106460000D02*
X20550000Y-94200000D01*
%TO.C,R16*%
X17550000Y-76420000D02*
X17550000Y-88680000D01*
X20550000Y-76420000D02*
X17550000Y-76420000D01*
X20550000Y-88680000D02*
X20550000Y-76420000D01*
X17550000Y-88680000D02*
X20550000Y-88680000D01*
%TO.C,R17*%
X105190000Y-245340000D02*
X105190000Y-242340000D01*
X105190000Y-242340000D02*
X92930000Y-242340000D01*
X92930000Y-242340000D02*
X92930000Y-245340000D01*
X92930000Y-245340000D02*
X105190000Y-245340000D01*
%TO.C,R18*%
X21360000Y-152180000D02*
X24360000Y-152180000D01*
X24360000Y-152180000D02*
X24360000Y-139920000D01*
X24360000Y-139920000D02*
X21360000Y-139920000D01*
X21360000Y-139920000D02*
X21360000Y-152180000D01*
%TO.C,R19*%
X56100000Y-223750000D02*
X68360000Y-223750000D01*
X56100000Y-220750000D02*
X56100000Y-223750000D01*
X68360000Y-220750000D02*
X56100000Y-220750000D01*
X68360000Y-223750000D02*
X68360000Y-220750000D01*
%TO.C,R20*%
X120430000Y-245340000D02*
X120430000Y-242340000D01*
X120430000Y-242340000D02*
X108170000Y-242340000D01*
X108170000Y-242340000D02*
X108170000Y-245340000D01*
X108170000Y-245340000D02*
X120430000Y-245340000D01*
%TO.C,R21*%
X133130000Y-242340000D02*
X120870000Y-242340000D01*
X133130000Y-245340000D02*
X133130000Y-242340000D01*
X120870000Y-245340000D02*
X133130000Y-245340000D01*
X120870000Y-242340000D02*
X120870000Y-245340000D01*
%TO.C,R22*%
X83600000Y-116610000D02*
X71340000Y-116610000D01*
X83600000Y-119610000D02*
X83600000Y-116610000D01*
X71340000Y-119610000D02*
X83600000Y-119610000D01*
X71340000Y-116610000D02*
X71340000Y-119610000D01*
%TO.C,R23*%
X87400000Y-116620000D02*
X90400000Y-116620000D01*
X90400000Y-116620000D02*
X90400000Y-104360000D01*
X90400000Y-104360000D02*
X87400000Y-104360000D01*
X87400000Y-104360000D02*
X87400000Y-116620000D01*
%TO.C,R24*%
X83590000Y-99280000D02*
X83590000Y-111540000D01*
X86590000Y-99280000D02*
X83590000Y-99280000D01*
X86590000Y-111540000D02*
X86590000Y-99280000D01*
X83590000Y-111540000D02*
X86590000Y-111540000D01*
%TO.C,R25*%
X79780000Y-92930000D02*
X79780000Y-105190000D01*
X82780000Y-92930000D02*
X79780000Y-92930000D01*
X82780000Y-105190000D02*
X82780000Y-92930000D01*
X79780000Y-105190000D02*
X82780000Y-105190000D01*
%TO.C,R26*%
X54390000Y-109450000D02*
X54390000Y-106450000D01*
X54390000Y-106450000D02*
X42130000Y-106450000D01*
X42130000Y-106450000D02*
X42130000Y-109450000D01*
X42130000Y-109450000D02*
X54390000Y-109450000D01*
%TO.C,R27*%
X79780000Y-80230000D02*
X79780000Y-92490000D01*
X82780000Y-80230000D02*
X79780000Y-80230000D01*
X82780000Y-92490000D02*
X82780000Y-80230000D01*
X79780000Y-92490000D02*
X82780000Y-92490000D01*
%TO.C,R28*%
X54390000Y-113260000D02*
X54390000Y-110260000D01*
X54390000Y-110260000D02*
X42130000Y-110260000D01*
X42130000Y-110260000D02*
X42130000Y-113260000D01*
X42130000Y-113260000D02*
X54390000Y-113260000D01*
%TO.C,R29*%
X42130000Y-105640000D02*
X54390000Y-105640000D01*
X42130000Y-102640000D02*
X42130000Y-105640000D01*
X54390000Y-102640000D02*
X42130000Y-102640000D01*
X54390000Y-105640000D02*
X54390000Y-102640000D01*
%TO.C,R30*%
X169140000Y-153450000D02*
X169140000Y-141190000D01*
X166140000Y-153450000D02*
X169140000Y-153450000D01*
X166140000Y-141190000D02*
X166140000Y-153450000D01*
X169140000Y-141190000D02*
X166140000Y-141190000D01*
%TO.C,R31*%
X131860000Y-150090000D02*
X131860000Y-147090000D01*
X131860000Y-147090000D02*
X119600000Y-147090000D01*
X119600000Y-147090000D02*
X119600000Y-150090000D01*
X119600000Y-150090000D02*
X131860000Y-150090000D01*
%TO.C,R32*%
X94210000Y-139920000D02*
X91210000Y-139920000D01*
X91210000Y-139920000D02*
X91210000Y-152180000D01*
X91210000Y-152180000D02*
X94210000Y-152180000D01*
X94210000Y-152180000D02*
X94210000Y-139920000D01*
%TO.C,R33*%
X57380000Y-139920000D02*
X54380000Y-139920000D01*
X54380000Y-139920000D02*
X54380000Y-152180000D01*
X54380000Y-152180000D02*
X57380000Y-152180000D01*
X57380000Y-152180000D02*
X57380000Y-139920000D01*
%TO.C,R34*%
X63720000Y-181840000D02*
X75980000Y-181840000D01*
X63720000Y-178840000D02*
X63720000Y-181840000D01*
X75980000Y-178840000D02*
X63720000Y-178840000D01*
X75980000Y-181840000D02*
X75980000Y-178840000D01*
%TO.C,R35*%
X75980000Y-178030000D02*
X75980000Y-175030000D01*
X75980000Y-175030000D02*
X63720000Y-175030000D01*
X63720000Y-175030000D02*
X63720000Y-178030000D01*
X63720000Y-178030000D02*
X75980000Y-178030000D01*
%TO.C,R36*%
X75980000Y-174220000D02*
X75980000Y-171220000D01*
X75980000Y-171220000D02*
X63720000Y-171220000D01*
X63720000Y-171220000D02*
X63720000Y-174220000D01*
X63720000Y-174220000D02*
X75980000Y-174220000D01*
%TO.C,R37*%
X63720000Y-170410000D02*
X75980000Y-170410000D01*
X63720000Y-167410000D02*
X63720000Y-170410000D01*
X75980000Y-167410000D02*
X63720000Y-167410000D01*
X75980000Y-170410000D02*
X75980000Y-167410000D01*
%TO.C,R38*%
X63720000Y-166600000D02*
X75980000Y-166600000D01*
X63720000Y-163600000D02*
X63720000Y-166600000D01*
X75980000Y-163600000D02*
X63720000Y-163600000D01*
X75980000Y-166600000D02*
X75980000Y-163600000D01*
%TO.C,R39*%
X91660000Y-174220000D02*
X103920000Y-174220000D01*
X91660000Y-171220000D02*
X91660000Y-174220000D01*
X103920000Y-171220000D02*
X91660000Y-171220000D01*
X103920000Y-174220000D02*
X103920000Y-171220000D01*
%TO.C,R40*%
X103920000Y-170410000D02*
X103920000Y-167410000D01*
X103920000Y-167410000D02*
X91660000Y-167410000D01*
X91660000Y-167410000D02*
X91660000Y-170410000D01*
X91660000Y-170410000D02*
X103920000Y-170410000D01*
%TO.C,R41*%
X91660000Y-160250000D02*
X103920000Y-160250000D01*
X91660000Y-157250000D02*
X91660000Y-160250000D01*
X103920000Y-157250000D02*
X91660000Y-157250000D01*
X103920000Y-160250000D02*
X103920000Y-157250000D01*
%TO.C,R42*%
X103920000Y-181840000D02*
X103920000Y-178840000D01*
X103920000Y-178840000D02*
X91660000Y-178840000D01*
X91660000Y-178840000D02*
X91660000Y-181840000D01*
X91660000Y-181840000D02*
X103920000Y-181840000D01*
%TO.C,R43*%
X91660000Y-178030000D02*
X103920000Y-178030000D01*
X91660000Y-175030000D02*
X91660000Y-178030000D01*
X103920000Y-175030000D02*
X91660000Y-175030000D01*
X103920000Y-178030000D02*
X103920000Y-175030000D01*
%TO.C,R44*%
X113250000Y-98830000D02*
X113250000Y-101830000D01*
X113250000Y-101830000D02*
X125510000Y-101830000D01*
X125510000Y-101830000D02*
X125510000Y-98830000D01*
X125510000Y-98830000D02*
X113250000Y-98830000D01*
%TO.C,R45*%
X124230000Y-84040000D02*
X124230000Y-96300000D01*
X127230000Y-84040000D02*
X124230000Y-84040000D01*
X127230000Y-96300000D02*
X127230000Y-84040000D01*
X124230000Y-96300000D02*
X127230000Y-96300000D01*
%TO.C,R46*%
X120420000Y-93760000D02*
X123420000Y-93760000D01*
X123420000Y-93760000D02*
X123420000Y-81500000D01*
X123420000Y-81500000D02*
X120420000Y-81500000D01*
X120420000Y-81500000D02*
X120420000Y-93760000D01*
%TO.C,R47*%
X116610000Y-76420000D02*
X116610000Y-88680000D01*
X119610000Y-76420000D02*
X116610000Y-76420000D01*
X119610000Y-88680000D02*
X119610000Y-76420000D01*
X116610000Y-88680000D02*
X119610000Y-88680000D01*
%TO.C,R48*%
X84860000Y-76420000D02*
X84860000Y-88680000D01*
X87860000Y-76420000D02*
X84860000Y-76420000D01*
X87860000Y-88680000D02*
X87860000Y-76420000D01*
X84860000Y-88680000D02*
X87860000Y-88680000D01*
%TO.C,R49*%
X115790000Y-72160000D02*
X115790000Y-75160000D01*
X115790000Y-75160000D02*
X128050000Y-75160000D01*
X128050000Y-75160000D02*
X128050000Y-72160000D01*
X128050000Y-72160000D02*
X115790000Y-72160000D01*
%TO.C,R50*%
X90400000Y-91660000D02*
X87400000Y-91660000D01*
X87400000Y-91660000D02*
X87400000Y-103920000D01*
X87400000Y-103920000D02*
X90400000Y-103920000D01*
X90400000Y-103920000D02*
X90400000Y-91660000D01*
%TO.C,R51*%
X88670000Y-76420000D02*
X88670000Y-88680000D01*
X91670000Y-76420000D02*
X88670000Y-76420000D01*
X91670000Y-88680000D02*
X91670000Y-76420000D01*
X88670000Y-88680000D02*
X91670000Y-88680000D01*
%TO.C,R52*%
X153450000Y-116610000D02*
X141190000Y-116610000D01*
X153450000Y-119610000D02*
X153450000Y-116610000D01*
X141190000Y-119610000D02*
X153450000Y-119610000D01*
X141190000Y-116610000D02*
X141190000Y-119610000D01*
%TO.C,R53*%
X157710000Y-111980000D02*
X154710000Y-111980000D01*
X154710000Y-111980000D02*
X154710000Y-124240000D01*
X154710000Y-124240000D02*
X157710000Y-124240000D01*
X157710000Y-124240000D02*
X157710000Y-111980000D01*
%TO.C,R54*%
X154710000Y-111540000D02*
X157710000Y-111540000D01*
X157710000Y-111540000D02*
X157710000Y-99280000D01*
X157710000Y-99280000D02*
X154710000Y-99280000D01*
X154710000Y-99280000D02*
X154710000Y-111540000D01*
%TO.C,R55*%
X150900000Y-92930000D02*
X150900000Y-105190000D01*
X153900000Y-92930000D02*
X150900000Y-92930000D01*
X153900000Y-105190000D02*
X153900000Y-92930000D01*
X150900000Y-105190000D02*
X153900000Y-105190000D01*
%TO.C,R56*%
X125510000Y-109450000D02*
X125510000Y-106450000D01*
X125510000Y-106450000D02*
X113250000Y-106450000D01*
X113250000Y-106450000D02*
X113250000Y-109450000D01*
X113250000Y-109450000D02*
X125510000Y-109450000D01*
%TO.C,R57*%
X150900000Y-80230000D02*
X150900000Y-92490000D01*
X153900000Y-80230000D02*
X150900000Y-80230000D01*
X153900000Y-92490000D02*
X153900000Y-80230000D01*
X150900000Y-92490000D02*
X153900000Y-92490000D01*
%TO.C,R58*%
X113250000Y-113260000D02*
X125510000Y-113260000D01*
X113250000Y-110260000D02*
X113250000Y-113260000D01*
X125510000Y-110260000D02*
X113250000Y-110260000D01*
X125510000Y-113260000D02*
X125510000Y-110260000D01*
%TO.C,R59*%
X125510000Y-105640000D02*
X125510000Y-102640000D01*
X125510000Y-102640000D02*
X113250000Y-102640000D01*
X113250000Y-102640000D02*
X113250000Y-105640000D01*
X113250000Y-105640000D02*
X125510000Y-105640000D01*
%TO.C,R60*%
X175480000Y-98830000D02*
X175480000Y-101830000D01*
X175480000Y-101830000D02*
X187740000Y-101830000D01*
X187740000Y-101830000D02*
X187740000Y-98830000D01*
X187740000Y-98830000D02*
X175480000Y-98830000D01*
%TO.C,R61*%
X192000000Y-106460000D02*
X192000000Y-94200000D01*
X189000000Y-106460000D02*
X192000000Y-106460000D01*
X189000000Y-94200000D02*
X189000000Y-106460000D01*
X192000000Y-94200000D02*
X189000000Y-94200000D01*
%TO.C,R62*%
X195810000Y-91660000D02*
X192810000Y-91660000D01*
X192810000Y-91660000D02*
X192810000Y-103920000D01*
X192810000Y-103920000D02*
X195810000Y-103920000D01*
X195810000Y-103920000D02*
X195810000Y-91660000D01*
%TO.C,R63*%
X189000000Y-75150000D02*
X189000000Y-87410000D01*
X192000000Y-75150000D02*
X189000000Y-75150000D01*
X192000000Y-87410000D02*
X192000000Y-75150000D01*
X189000000Y-87410000D02*
X192000000Y-87410000D01*
%TO.C,R64*%
X154710000Y-87410000D02*
X157710000Y-87410000D01*
X157710000Y-87410000D02*
X157710000Y-75150000D01*
X157710000Y-75150000D02*
X154710000Y-75150000D01*
X154710000Y-75150000D02*
X154710000Y-87410000D01*
%TO.C,R65*%
X185190000Y-71340000D02*
X185190000Y-83600000D01*
X188190000Y-71340000D02*
X185190000Y-71340000D01*
X188190000Y-83600000D02*
X188190000Y-71340000D01*
X185190000Y-83600000D02*
X188190000Y-83600000D01*
%TO.C,R66*%
X161520000Y-90390000D02*
X158520000Y-90390000D01*
X158520000Y-90390000D02*
X158520000Y-102650000D01*
X158520000Y-102650000D02*
X161520000Y-102650000D01*
X161520000Y-102650000D02*
X161520000Y-90390000D01*
%TO.C,R67*%
X158520000Y-75150000D02*
X158520000Y-87410000D01*
X161520000Y-75150000D02*
X158520000Y-75150000D01*
X161520000Y-87410000D02*
X161520000Y-75150000D01*
X158520000Y-87410000D02*
X161520000Y-87410000D01*
%TO.C,C2*%
X152570000Y-179090000D02*
G75*
G03*
X152570000Y-179090000I-5250000J0D01*
G01*
%TO.C,C3*%
X157710000Y-219710000D02*
G75*
G03*
X157710000Y-219710000I-2750000J0D01*
G01*
%TO.C,C4*%
X39600000Y-91440000D02*
G75*
G03*
X39600000Y-91440000I-2750000J0D01*
G01*
%TO.C,C5*%
X38330000Y-173990000D02*
G75*
G03*
X38330000Y-173990000I-2750000J0D01*
G01*
%TO.C,C6*%
X75160000Y-107950000D02*
G75*
G03*
X75160000Y-107950000I-2750000J0D01*
G01*
%TO.C,C7*%
X33190000Y-167620000D02*
G75*
G03*
X33190000Y-167620000I-5250000J0D01*
G01*
%TO.C,C8*%
X110720000Y-91440000D02*
G75*
G03*
X110720000Y-91440000I-2750000J0D01*
G01*
%TO.C,C9*%
X146280000Y-107950000D02*
G75*
G03*
X146280000Y-107950000I-2750000J0D01*
G01*
%TO.C,C10*%
X180570000Y-90170000D02*
G75*
G03*
X180570000Y-90170000I-2750000J0D01*
G01*
%TO.C,3.3V_Test1*%
X144470000Y-214260000D02*
X144470000Y-222660000D01*
X151220000Y-214260000D02*
X144470000Y-214260000D01*
X151220000Y-222660000D02*
X151220000Y-214260000D01*
X144470000Y-222660000D02*
X151220000Y-222660000D01*
%TO.C,3.3V_Test2*%
X25090000Y-182020000D02*
X31840000Y-182020000D01*
X31840000Y-182020000D02*
X31840000Y-173620000D01*
X31840000Y-173620000D02*
X25090000Y-173620000D01*
X25090000Y-173620000D02*
X25090000Y-182020000D01*
%TO.C,3.3V_In1*%
X162870000Y-185010000D02*
X156120000Y-185010000D01*
X156120000Y-185010000D02*
X156120000Y-193410000D01*
X156120000Y-193410000D02*
X162870000Y-193410000D01*
X162870000Y-193410000D02*
X162870000Y-185010000D01*
%TO.C,C11*%
X72580000Y-262890000D02*
G75*
G03*
X72580000Y-262890000I-2750000J0D01*
G01*
%TO.C,C12*%
X133540000Y-256540000D02*
G75*
G03*
X133540000Y-256540000I-2750000J0D01*
G01*
%TD*%
M02*
