M48
; DRILL file {KiCad 5.1.8} date Fri Dec  4 10:10:08 2020
; FORMAT={-:-/ absolute / inch / decimal}
; #@! TF.CreationDate,2020-12-04T10:10:08+00:00
; #@! TF.GenerationSoftware,Kicad,Pcbnew,5.1.8
; #@! TF.FileFunction,Plated,1,2,PTH
FMAT,2
INCH
T1C0.0315
T2C0.0350
T3C0.0354
T4C0.0374
T5C0.0394
T6C0.0433
T7C0.0630
T8C0.0906
%
G90
G05
T1
X4.15Y-2.5
X4.15Y-2.6
X4.15Y-2.7
X4.15Y-2.8
X4.15Y-2.9
X4.15Y-3.0
X4.15Y-3.1
X4.15Y-3.2
X4.45Y-2.5
X4.45Y-2.6
X4.45Y-2.7
X4.45Y-2.8
X4.45Y-2.9
X4.45Y-3.0
X4.45Y-3.1
X4.45Y-3.2
X7.15Y-2.5
X7.15Y-2.6
X7.15Y-2.7
X7.15Y-2.8
X7.15Y-2.9
X7.15Y-3.0
X7.15Y-3.1
X7.15Y-3.2
X7.45Y-2.5
X7.45Y-2.6
X7.45Y-2.7
X7.45Y-2.8
X7.45Y-2.9
X7.45Y-3.0
X7.45Y-3.1
X7.45Y-3.2
X4.7Y-4.6
X4.7Y-4.8
X5.15Y-4.6
X5.15Y-4.8
X5.15Y-2.5
X5.15Y-2.6
X5.15Y-2.7
X5.15Y-2.8
X5.15Y-2.9
X5.15Y-3.0
X5.15Y-3.1
X5.15Y-3.2
X5.45Y-2.5
X5.45Y-2.6
X5.45Y-2.7
X5.45Y-2.8
X5.45Y-2.9
X5.45Y-3.0
X5.45Y-3.1
X5.45Y-3.2
X5.3Y-4.6
X5.3Y-4.8
X5.0Y-4.6
X5.0Y-4.8
X3.15Y-2.5
X3.15Y-2.6
X3.15Y-2.7
X3.15Y-2.8
X3.15Y-2.9
X3.15Y-3.0
X3.15Y-3.1
X3.15Y-3.2
X3.45Y-2.5
X3.45Y-2.6
X3.45Y-2.7
X3.45Y-2.8
X3.45Y-2.9
X3.45Y-3.0
X3.45Y-3.1
X3.45Y-3.2
X6.15Y-2.5
X6.15Y-2.6
X6.15Y-2.7
X6.15Y-2.8
X6.15Y-2.9
X6.15Y-3.0
X6.15Y-3.1
X6.15Y-3.2
X6.45Y-2.5
X6.45Y-2.6
X6.45Y-2.7
X6.45Y-2.8
X6.45Y-2.9
X6.45Y-3.0
X6.45Y-3.1
X6.45Y-3.2
X3.1787Y-3.9
X3.1787Y-4.0
X3.6606Y-3.746
X3.6606Y-3.8247
X3.6606Y-3.9035
X3.7394Y-3.746
X3.7394Y-3.8247
X3.7394Y-3.9035
X4.85Y-4.6
X4.85Y-4.8
T2
X2.5575Y-4.826
X2.5575Y-5.224
X2.6173Y-4.926
X2.6173Y-5.324
T3
X3.0Y-4.9
X3.0Y-5.0
X3.0Y-5.1
X3.0Y-5.2
X3.1Y-4.95
X3.1Y-5.05
X3.1Y-5.15
X3.1Y-5.25
T4
X2.8213Y-4.0016
X2.8213Y-4.1
X2.9Y-4.0016
X2.9Y-4.1
T5
X3.95Y-2.0
X4.05Y-2.0
X4.15Y-2.0
X4.25Y-2.0
X4.35Y-2.0
X4.45Y-2.0
X4.55Y-2.0
X4.65Y-2.0
X4.95Y-1.85
X5.05Y-1.85
X5.15Y-1.85
X5.25Y-1.85
X5.35Y-1.85
X5.45Y-1.85
X5.55Y-1.85
X5.65Y-1.85
X3.45Y-3.35
X3.55Y-3.35
X3.65Y-3.35
X3.75Y-3.35
X3.85Y-3.35
X5.95Y-1.85
X6.05Y-1.85
X6.15Y-1.85
X6.25Y-1.85
X6.35Y-1.85
X6.45Y-1.85
X6.55Y-1.85
X6.65Y-1.85
X5.85Y-4.4
X5.85Y-4.5
X5.85Y-4.6
X5.85Y-4.7
X5.85Y-4.8
X2.95Y-1.85
X3.05Y-1.85
X3.15Y-1.85
X3.25Y-1.85
X3.35Y-1.85
X3.45Y-1.85
X3.55Y-1.85
X3.65Y-1.85
X3.45Y-3.5
X3.55Y-3.5
X3.65Y-3.5
X3.75Y-3.5
X3.85Y-3.5
X5.7Y-4.4
X5.7Y-4.5
X5.7Y-4.6
X5.7Y-4.7
X5.7Y-4.8
X3.25Y-4.4
X3.35Y-4.4
X3.45Y-4.4
X3.55Y-4.4
X3.65Y-4.4
X3.75Y-4.4
X3.85Y-4.4
X3.95Y-4.4
X5.95Y-2.0
X6.05Y-2.0
X6.15Y-2.0
X6.25Y-2.0
X6.35Y-2.0
X6.45Y-2.0
X6.55Y-2.0
X6.65Y-2.0
X6.95Y-2.0
X7.05Y-2.0
X7.15Y-2.0
X7.25Y-2.0
X7.35Y-2.0
X7.45Y-2.0
X7.55Y-2.0
X7.65Y-2.0
X4.1Y-5.25
X4.2Y-5.25
X4.3Y-5.25
X4.4Y-5.25
X4.5Y-5.25
X3.25Y-4.55
X3.35Y-4.55
X3.45Y-4.55
X3.55Y-4.55
X3.65Y-4.55
X3.75Y-4.55
X3.85Y-4.55
X3.95Y-4.55
X4.8Y-5.1
X4.9Y-5.1
X5.0Y-5.1
X5.1Y-5.1
X5.2Y-5.1
X3.55Y-4.95
X3.55Y-5.05
X3.55Y-5.15
X4.1Y-4.6
X4.2Y-4.6
X4.3Y-4.6
X4.4Y-4.6
X4.5Y-4.6
X3.4Y-4.95
X3.4Y-5.05
X3.4Y-5.15
X4.1Y-4.75
X4.2Y-4.75
X4.3Y-4.75
X4.4Y-4.75
X4.5Y-4.75
X4.8Y-5.25
X4.9Y-5.25
X5.0Y-5.25
X5.1Y-5.25
X5.2Y-5.25
X4.1Y-5.1
X4.2Y-5.1
X4.3Y-5.1
X4.4Y-5.1
X4.5Y-5.1
X2.95Y-2.0
X3.05Y-2.0
X3.15Y-2.0
X3.25Y-2.0
X3.35Y-2.0
X3.45Y-2.0
X3.55Y-2.0
X3.65Y-2.0
X4.95Y-2.0
X5.05Y-2.0
X5.15Y-2.0
X5.25Y-2.0
X5.35Y-2.0
X5.45Y-2.0
X5.55Y-2.0
X5.65Y-2.0
X2.4094Y-4.55
X3.0Y-4.55
X6.95Y-1.85
X7.05Y-1.85
X7.15Y-1.85
X7.25Y-1.85
X7.35Y-1.85
X7.45Y-1.85
X7.55Y-1.85
X7.65Y-1.85
X3.95Y-1.85
X4.05Y-1.85
X4.15Y-1.85
X4.25Y-1.85
X4.35Y-1.85
X4.45Y-1.85
X4.55Y-1.85
X4.65Y-1.85
T6
X3.15Y-3.65
X3.15Y-4.25
X3.25Y-3.65
X3.25Y-3.75
X3.25Y-4.25
X3.35Y-3.65
X3.35Y-4.25
X3.398Y-4.1299
X3.45Y-3.65
X3.45Y-4.25
X3.498Y-4.1299
X3.55Y-3.65
X3.55Y-4.25
X3.598Y-4.1299
X3.65Y-3.65
X3.65Y-4.25
X3.698Y-4.1299
X3.75Y-3.65
X3.75Y-4.25
X3.798Y-4.1299
X3.85Y-3.65
X3.85Y-4.25
X3.95Y-3.65
X3.95Y-4.25
X4.05Y-3.65
X4.05Y-4.25
X4.15Y-3.65
X4.15Y-4.25
X4.25Y-3.65
X4.25Y-4.25
X4.35Y-3.65
X4.35Y-4.25
X4.45Y-3.65
X4.45Y-4.25
X4.55Y-3.65
X4.55Y-4.25
X4.65Y-3.65
X4.65Y-4.25
X4.75Y-3.65
X4.75Y-4.25
X4.85Y-3.65
X4.85Y-4.25
X4.95Y-3.65
X4.95Y-3.75
X4.95Y-3.85
X4.95Y-3.95
X4.95Y-4.05
X4.95Y-4.15
X4.95Y-4.25
X5.05Y-3.65
X5.05Y-4.25
X5.15Y-3.65
X5.15Y-4.25
X5.25Y-3.65
X5.25Y-4.25
X5.35Y-3.65
X5.35Y-4.25
X5.45Y-3.65
X5.45Y-4.25
T7
X2.8705Y-4.7689
X2.8705Y-5.3811
T8
X2.7087Y-3.8146
X2.7087Y-4.287
T0
M30
