%TF.GenerationSoftware,KiCad,Pcbnew,5.1.8*%
%TF.CreationDate,2020-12-04T02:47:43+00:00*%
%TF.ProjectId,controller_mixer_pcb,636f6e74-726f-46c6-9c65-725f6d697865,rev?*%
%TF.SameCoordinates,Original*%
%TF.FileFunction,Copper,L2,Bot*%
%TF.FilePolarity,Positive*%
%FSLAX46Y46*%
G04 Gerber Fmt 4.6, Leading zero omitted, Abs format (unit mm)*
G04 Created by KiCad (PCBNEW 5.1.8) date 2020-12-04 02:47:43*
%MOMM*%
%LPD*%
G01*
G04 APERTURE LIST*
%TA.AperFunction,NonConductor*%
%ADD10C,0.100000*%
%TD*%
%TA.AperFunction,ComponentPad*%
%ADD11R,1.600000X1.600000*%
%TD*%
%TA.AperFunction,ComponentPad*%
%ADD12O,1.600000X1.600000*%
%TD*%
%TA.AperFunction,ComponentPad*%
%ADD13C,1.600000*%
%TD*%
%TA.AperFunction,ComponentPad*%
%ADD14R,1.300000X1.300000*%
%TD*%
%TA.AperFunction,ComponentPad*%
%ADD15C,1.300000*%
%TD*%
%TA.AperFunction,ComponentPad*%
%ADD16O,1.700000X1.700000*%
%TD*%
%TA.AperFunction,ComponentPad*%
%ADD17R,1.700000X1.700000*%
%TD*%
%TA.AperFunction,ComponentPad*%
%ADD18C,4.000000*%
%TD*%
%TA.AperFunction,ComponentPad*%
%ADD19R,1.900000X1.900000*%
%TD*%
%TA.AperFunction,ComponentPad*%
%ADD20C,1.900000*%
%TD*%
%TA.AperFunction,ComponentPad*%
%ADD21C,1.890000*%
%TD*%
%TA.AperFunction,ComponentPad*%
%ADD22C,2.600000*%
%TD*%
%TA.AperFunction,ComponentPad*%
%ADD23R,2.000000X2.000000*%
%TD*%
%TA.AperFunction,ComponentPad*%
%ADD24O,2.000000X2.000000*%
%TD*%
%TA.AperFunction,Conductor*%
%ADD25C,0.250000*%
%TD*%
G04 APERTURE END LIST*
D10*
X65444761Y-116022380D02*
X64873333Y-116022380D01*
X65159047Y-116022380D02*
X65159047Y-115022380D01*
X65063809Y-115165238D01*
X64968571Y-115260476D01*
X64873333Y-115308095D01*
X66301904Y-115355714D02*
X66301904Y-116022380D01*
X65873333Y-115355714D02*
X65873333Y-115879523D01*
X65920952Y-115974761D01*
X66016190Y-116022380D01*
X66159047Y-116022380D01*
X66254285Y-115974761D01*
X66301904Y-115927142D01*
X67111428Y-115498571D02*
X66778095Y-115498571D01*
X66778095Y-116022380D02*
X66778095Y-115022380D01*
X67254285Y-115022380D01*
D11*
%TO.P,MP2,1*%
%TO.N,Net-(J3-Pad5)*%
X163830000Y-81280000D03*
D12*
%TO.P,MP2,9*%
%TO.N,Net-(MP1-Pad9)*%
X156210000Y-63500000D03*
%TO.P,MP2,2*%
%TO.N,Net-(J3-Pad7)*%
X163830000Y-78740000D03*
%TO.P,MP2,10*%
%TO.N,Net-(MP1-Pad10)*%
X156210000Y-66040000D03*
%TO.P,MP2,3*%
%TO.N,Net-(MP2-Pad3)*%
X163830000Y-76200000D03*
%TO.P,MP2,11*%
%TO.N,Net-(MP1-Pad11)*%
X156210000Y-68580000D03*
%TO.P,MP2,4*%
%TO.N,Net-(J3-Pad8)*%
X163830000Y-73660000D03*
%TO.P,MP2,12*%
%TO.N,Net-(J3-Pad4)*%
X156210000Y-71120000D03*
%TO.P,MP2,5*%
%TO.N,Net-(J3-Pad6)*%
X163830000Y-71120000D03*
%TO.P,MP2,13*%
%TO.N,Net-(J3-Pad1)*%
X156210000Y-73660000D03*
%TO.P,MP2,6*%
%TO.N,Net-(MP2-Pad6)*%
X163830000Y-68580000D03*
%TO.P,MP2,14*%
%TO.N,Net-(J3-Pad2)*%
X156210000Y-76200000D03*
%TO.P,MP2,7*%
%TO.N,Net-(J1-Pad1)*%
X163830000Y-66040000D03*
%TO.P,MP2,15*%
%TO.N,Net-(J3-Pad3)*%
X156210000Y-78740000D03*
%TO.P,MP2,8*%
%TO.N,Net-(J1-Pad1)*%
X163830000Y-63500000D03*
%TO.P,MP2,16*%
%TO.N,Net-(MP1-Pad16)*%
X156210000Y-81280000D03*
%TD*%
%TO.P,MP1,16*%
%TO.N,Net-(MP1-Pad16)*%
X181610000Y-81280000D03*
%TO.P,MP1,8*%
%TO.N,Net-(J1-Pad1)*%
X189230000Y-63500000D03*
%TO.P,MP1,15*%
%TO.N,Net-(J4-Pad3)*%
X181610000Y-78740000D03*
%TO.P,MP1,7*%
%TO.N,Net-(J1-Pad1)*%
X189230000Y-66040000D03*
%TO.P,MP1,14*%
%TO.N,Net-(J4-Pad2)*%
X181610000Y-76200000D03*
%TO.P,MP1,6*%
%TO.N,Net-(MP1-Pad6)*%
X189230000Y-68580000D03*
%TO.P,MP1,13*%
%TO.N,Net-(J4-Pad1)*%
X181610000Y-73660000D03*
%TO.P,MP1,5*%
%TO.N,Net-(J4-Pad6)*%
X189230000Y-71120000D03*
%TO.P,MP1,12*%
%TO.N,Net-(J4-Pad4)*%
X181610000Y-71120000D03*
%TO.P,MP1,4*%
%TO.N,Net-(J4-Pad8)*%
X189230000Y-73660000D03*
%TO.P,MP1,11*%
%TO.N,Net-(MP1-Pad11)*%
X181610000Y-68580000D03*
%TO.P,MP1,3*%
%TO.N,Net-(MP1-Pad3)*%
X189230000Y-76200000D03*
%TO.P,MP1,10*%
%TO.N,Net-(MP1-Pad10)*%
X181610000Y-66040000D03*
%TO.P,MP1,2*%
%TO.N,Net-(J4-Pad7)*%
X189230000Y-78740000D03*
%TO.P,MP1,9*%
%TO.N,Net-(MP1-Pad9)*%
X181610000Y-63500000D03*
D11*
%TO.P,MP1,1*%
%TO.N,Net-(J4-Pad5)*%
X189230000Y-81280000D03*
%TD*%
%TO.P,MP4,1*%
%TO.N,Net-(J9-Pad5)*%
X113030000Y-81280000D03*
D12*
%TO.P,MP4,9*%
%TO.N,Net-(MP1-Pad9)*%
X105410000Y-63500000D03*
%TO.P,MP4,2*%
%TO.N,Net-(J9-Pad7)*%
X113030000Y-78740000D03*
%TO.P,MP4,10*%
%TO.N,Net-(MP1-Pad10)*%
X105410000Y-66040000D03*
%TO.P,MP4,3*%
%TO.N,Net-(MP4-Pad3)*%
X113030000Y-76200000D03*
%TO.P,MP4,11*%
%TO.N,Net-(MP1-Pad11)*%
X105410000Y-68580000D03*
%TO.P,MP4,4*%
%TO.N,Net-(J9-Pad8)*%
X113030000Y-73660000D03*
%TO.P,MP4,12*%
%TO.N,Net-(J9-Pad4)*%
X105410000Y-71120000D03*
%TO.P,MP4,5*%
%TO.N,Net-(J9-Pad6)*%
X113030000Y-71120000D03*
%TO.P,MP4,13*%
%TO.N,Net-(J9-Pad1)*%
X105410000Y-73660000D03*
%TO.P,MP4,6*%
%TO.N,Net-(MP4-Pad6)*%
X113030000Y-68580000D03*
%TO.P,MP4,14*%
%TO.N,Net-(J9-Pad2)*%
X105410000Y-76200000D03*
%TO.P,MP4,7*%
%TO.N,Net-(J1-Pad1)*%
X113030000Y-66040000D03*
%TO.P,MP4,15*%
%TO.N,Net-(J9-Pad3)*%
X105410000Y-78740000D03*
%TO.P,MP4,8*%
%TO.N,Net-(J1-Pad1)*%
X113030000Y-63500000D03*
%TO.P,MP4,16*%
%TO.N,Net-(MP1-Pad16)*%
X105410000Y-81280000D03*
%TD*%
%TO.P,MP3,16*%
%TO.N,Net-(MP1-Pad16)*%
X130810000Y-81280000D03*
%TO.P,MP3,8*%
%TO.N,Net-(J1-Pad1)*%
X138430000Y-63500000D03*
%TO.P,MP3,15*%
%TO.N,Net-(J10-Pad3)*%
X130810000Y-78740000D03*
%TO.P,MP3,7*%
%TO.N,Net-(J1-Pad1)*%
X138430000Y-66040000D03*
%TO.P,MP3,14*%
%TO.N,Net-(J10-Pad2)*%
X130810000Y-76200000D03*
%TO.P,MP3,6*%
%TO.N,Net-(MP3-Pad6)*%
X138430000Y-68580000D03*
%TO.P,MP3,13*%
%TO.N,Net-(J10-Pad1)*%
X130810000Y-73660000D03*
%TO.P,MP3,5*%
%TO.N,Net-(J10-Pad6)*%
X138430000Y-71120000D03*
%TO.P,MP3,12*%
%TO.N,Net-(J10-Pad4)*%
X130810000Y-71120000D03*
%TO.P,MP3,4*%
%TO.N,Net-(J10-Pad8)*%
X138430000Y-73660000D03*
%TO.P,MP3,11*%
%TO.N,Net-(MP1-Pad11)*%
X130810000Y-68580000D03*
%TO.P,MP3,3*%
%TO.N,Net-(MP3-Pad3)*%
X138430000Y-76200000D03*
%TO.P,MP3,10*%
%TO.N,Net-(MP1-Pad10)*%
X130810000Y-66040000D03*
%TO.P,MP3,2*%
%TO.N,Net-(J10-Pad7)*%
X138430000Y-78740000D03*
%TO.P,MP3,9*%
%TO.N,Net-(MP1-Pad9)*%
X130810000Y-63500000D03*
D11*
%TO.P,MP3,1*%
%TO.N,Net-(J10-Pad5)*%
X138430000Y-81280000D03*
%TD*%
%TO.P,MP5,1*%
%TO.N,Net-(J20-Pad5)*%
X87630000Y-81280000D03*
D12*
%TO.P,MP5,9*%
%TO.N,Net-(MP1-Pad9)*%
X80010000Y-63500000D03*
%TO.P,MP5,2*%
%TO.N,Net-(J20-Pad7)*%
X87630000Y-78740000D03*
%TO.P,MP5,10*%
%TO.N,Net-(MP1-Pad10)*%
X80010000Y-66040000D03*
%TO.P,MP5,3*%
%TO.N,Net-(MP5-Pad3)*%
X87630000Y-76200000D03*
%TO.P,MP5,11*%
%TO.N,Net-(MP1-Pad11)*%
X80010000Y-68580000D03*
%TO.P,MP5,4*%
%TO.N,Net-(J20-Pad8)*%
X87630000Y-73660000D03*
%TO.P,MP5,12*%
%TO.N,Net-(J20-Pad4)*%
X80010000Y-71120000D03*
%TO.P,MP5,5*%
%TO.N,Net-(J20-Pad6)*%
X87630000Y-71120000D03*
%TO.P,MP5,13*%
%TO.N,Net-(J20-Pad1)*%
X80010000Y-73660000D03*
%TO.P,MP5,6*%
%TO.N,Net-(MP5-Pad6)*%
X87630000Y-68580000D03*
%TO.P,MP5,14*%
%TO.N,Net-(J20-Pad2)*%
X80010000Y-76200000D03*
%TO.P,MP5,7*%
%TO.N,Net-(J1-Pad1)*%
X87630000Y-66040000D03*
%TO.P,MP5,15*%
%TO.N,Net-(J20-Pad3)*%
X80010000Y-78740000D03*
%TO.P,MP5,8*%
%TO.N,Net-(J1-Pad1)*%
X87630000Y-63500000D03*
%TO.P,MP5,16*%
%TO.N,Net-(MP1-Pad16)*%
X80010000Y-81280000D03*
%TD*%
D13*
%TO.P,U3,49*%
%TO.N,Net-(J11-Pad1)*%
X82550000Y-95250000D03*
%TO.P,U3,59*%
%TO.N,Net-(U3-Pad59)*%
X96469200Y-104899200D03*
%TO.P,U3,58*%
%TO.N,Net-(U3-Pad58)*%
X93929200Y-104899200D03*
%TO.P,U3,57*%
%TO.N,Net-(U3-Pad57)*%
X91389200Y-104899200D03*
%TO.P,U3,56*%
%TO.N,Net-(U3-Pad56)*%
X88849200Y-104899200D03*
D11*
%TO.P,U3,55*%
%TO.N,Net-(U3-Pad55)*%
X86309200Y-104899200D03*
D13*
%TO.P,U3,48*%
%TO.N,Net-(J11-Pad1)*%
X80010000Y-92710000D03*
%TO.P,U3,47*%
%TO.N,Net-(A5-1-Pad1)*%
X82550000Y-92710000D03*
%TO.P,U3,46*%
%TO.N,Net-(MP1-Pad16)*%
X85090000Y-92710000D03*
%TO.P,U3,45*%
%TO.N,Net-(A5-9-Pad5)*%
X87630000Y-92710000D03*
%TO.P,U3,44*%
%TO.N,Net-(A5-9-Pad4)*%
X90170000Y-92710000D03*
%TO.P,U3,43*%
%TO.N,Net-(A5-9-Pad3)*%
X92710000Y-92710000D03*
%TO.P,U3,42*%
%TO.N,Net-(A5-9-Pad2)*%
X95250000Y-92710000D03*
%TO.P,U3,41*%
%TO.N,Net-(A5-9-Pad1)*%
X97790000Y-92710000D03*
%TO.P,U3,40*%
%TO.N,Net-(MP5-Pad3)*%
X100330000Y-92710000D03*
%TO.P,U3,39*%
%TO.N,Net-(MP4-Pad3)*%
X102870000Y-92710000D03*
%TO.P,U3,38*%
%TO.N,Net-(MP3-Pad3)*%
X105410000Y-92710000D03*
%TO.P,U3,37*%
%TO.N,Net-(MP2-Pad3)*%
X107950000Y-92710000D03*
%TO.P,U3,36*%
%TO.N,Net-(MP1-Pad3)*%
X110490000Y-92710000D03*
%TO.P,U3,35*%
%TO.N,Net-(U3-Pad35)*%
X113030000Y-92710000D03*
D11*
%TO.P,U3,1*%
%TO.N,Net-(J1-Pad1)*%
X80010000Y-107950000D03*
D13*
%TO.P,U3,2*%
%TO.N,Net-(D0-7-Pad1)*%
X82550000Y-107950000D03*
%TO.P,U3,3*%
%TO.N,Net-(D0-7-Pad2)*%
X85090000Y-107950000D03*
%TO.P,U3,4*%
%TO.N,Net-(D0-7-Pad3)*%
X87630000Y-107950000D03*
%TO.P,U3,5*%
%TO.N,Net-(D0-7-Pad4)*%
X90170000Y-107950000D03*
%TO.P,U3,6*%
%TO.N,Net-(D0-7-Pad5)*%
X92710000Y-107950000D03*
%TO.P,U3,7*%
%TO.N,Net-(D0-7-Pad6)*%
X95250000Y-107950000D03*
%TO.P,U3,8*%
%TO.N,Net-(D0-7-Pad7)*%
X97790000Y-107950000D03*
%TO.P,U3,9*%
%TO.N,Net-(D0-7-Pad8)*%
X100330000Y-107950000D03*
%TO.P,U3,10*%
%TO.N,Net-(U3-Pad10)*%
X102870000Y-107950000D03*
%TO.P,U3,11*%
%TO.N,Net-(U3-Pad11)*%
X105410000Y-107950000D03*
%TO.P,U3,12*%
%TO.N,Net-(U3-Pad12)*%
X107950000Y-107950000D03*
%TO.P,U3,13*%
%TO.N,Net-(U3-Pad13)*%
X110490000Y-107950000D03*
%TO.P,U3,34*%
%TO.N,Net-(U3-Pad34)*%
X115570000Y-92710000D03*
%TO.P,U3,33*%
%TO.N,Net-(R1-Pad1)*%
X118110000Y-92710000D03*
%TO.P,U3,32*%
%TO.N,Net-(R2-Pad1)*%
X120650000Y-92710000D03*
%TO.P,U3,31*%
%TO.N,Net-(R3-Pad1)*%
X123190000Y-92710000D03*
%TO.P,U3,30*%
%TO.N,Net-(R4-Pad1)*%
X125730000Y-92710000D03*
%TO.P,U3,29*%
%TO.N,Net-(BTNs1-Pad5)*%
X128270000Y-92710000D03*
%TO.P,U3,28*%
%TO.N,Net-(BTNs1-Pad4)*%
X130810000Y-92710000D03*
%TO.P,U3,27*%
%TO.N,Net-(BTNs1-Pad3)*%
X133350000Y-92710000D03*
%TO.P,U3,26*%
%TO.N,Net-(BTNs1-Pad2)*%
X135890000Y-92710000D03*
%TO.P,U3,25*%
%TO.N,Net-(BTNs1-Pad1)*%
X138430000Y-92710000D03*
%TO.P,U3,24*%
%TO.N,Net-(MP1-Pad9)*%
X138430000Y-107950000D03*
%TO.P,U3,23*%
%TO.N,Net-(MP1-Pad10)*%
X135890000Y-107950000D03*
%TO.P,U3,22*%
%TO.N,Net-(MP1-Pad11)*%
X133350000Y-107950000D03*
%TO.P,U3,21*%
%TO.N,Net-(U3-Pad21)*%
X130810000Y-107950000D03*
%TO.P,U3,14*%
%TO.N,Net-(U3-Pad14)*%
X113030000Y-107950000D03*
%TO.P,U3,15*%
%TO.N,Net-(U3-Pad15)*%
X115570000Y-107950000D03*
%TO.P,U3,16*%
%TO.N,Net-(R5-Pad1)*%
X118110000Y-107950000D03*
%TO.P,U3,20*%
%TO.N,Net-(U3-Pad20)*%
X128270000Y-107950000D03*
%TO.P,U3,19*%
%TO.N,Net-(U3-Pad19)*%
X125730000Y-107950000D03*
%TO.P,U3,18*%
%TO.N,Net-(U3-Pad18)*%
X123190000Y-107950000D03*
%TO.P,U3,17*%
%TO.N,Net-(U3-Pad17)*%
X120650000Y-107950000D03*
D14*
%TO.P,U3,60*%
%TO.N,Net-(J13-PadR3)*%
X92980000Y-95148400D03*
D15*
%TO.P,U3,65*%
%TO.N,Net-(J13-PadR6)*%
X94980000Y-95148400D03*
%TO.P,U3,61*%
%TO.N,Net-(J13-PadL4)*%
X92980000Y-97148400D03*
%TO.P,U3,64*%
%TO.N,Net-(C1-Pad2)*%
X94980000Y-97148400D03*
%TO.P,U3,63*%
%TO.N,Net-(J13-PadR1)*%
X94980000Y-99148400D03*
%TO.P,U3,62*%
%TO.N,Net-(J13-PadR2)*%
X92980000Y-99148400D03*
D13*
%TO.P,U3,50*%
%TO.N,Net-(U3-Pad50)*%
X125730000Y-105410000D03*
%TO.P,U3,51*%
%TO.N,Net-(U3-Pad51)*%
X125730000Y-102870000D03*
%TO.P,U3,52*%
%TO.N,Net-(U3-Pad52)*%
X125730000Y-100330000D03*
%TO.P,U3,53*%
%TO.N,Net-(U3-Pad53)*%
X125730000Y-97790000D03*
%TO.P,U3,54*%
%TO.N,Net-(U3-Pad54)*%
X125730000Y-95250000D03*
D15*
%TO.P,U3,66*%
%TO.N,Net-(J11-Pad2)*%
X80740000Y-101600000D03*
%TO.P,U3,67*%
%TO.N,Net-(J11-Pad3)*%
X80740000Y-99060000D03*
%TD*%
D16*
%TO.P,J1,8*%
%TO.N,Net-(J1-Pad1)*%
X168910000Y-46990000D03*
%TO.P,J1,7*%
X166370000Y-46990000D03*
%TO.P,J1,6*%
X163830000Y-46990000D03*
%TO.P,J1,5*%
X161290000Y-46990000D03*
%TO.P,J1,4*%
X158750000Y-46990000D03*
%TO.P,J1,3*%
X156210000Y-46990000D03*
%TO.P,J1,2*%
X153670000Y-46990000D03*
D17*
%TO.P,J1,1*%
X151130000Y-46990000D03*
%TD*%
%TO.P,J2,1*%
%TO.N,Net-(J1-Pad1)*%
X176530000Y-46990000D03*
D16*
%TO.P,J2,2*%
X179070000Y-46990000D03*
%TO.P,J2,3*%
X181610000Y-46990000D03*
%TO.P,J2,4*%
X184150000Y-46990000D03*
%TO.P,J2,5*%
X186690000Y-46990000D03*
%TO.P,J2,6*%
X189230000Y-46990000D03*
%TO.P,J2,7*%
X191770000Y-46990000D03*
%TO.P,J2,8*%
X194310000Y-46990000D03*
%TD*%
D17*
%TO.P,J3,1*%
%TO.N,Net-(J3-Pad1)*%
X151130000Y-50800000D03*
D16*
%TO.P,J3,2*%
%TO.N,Net-(J3-Pad2)*%
X153670000Y-50800000D03*
%TO.P,J3,3*%
%TO.N,Net-(J3-Pad3)*%
X156210000Y-50800000D03*
%TO.P,J3,4*%
%TO.N,Net-(J3-Pad4)*%
X158750000Y-50800000D03*
%TO.P,J3,5*%
%TO.N,Net-(J3-Pad5)*%
X161290000Y-50800000D03*
%TO.P,J3,6*%
%TO.N,Net-(J3-Pad6)*%
X163830000Y-50800000D03*
%TO.P,J3,7*%
%TO.N,Net-(J3-Pad7)*%
X166370000Y-50800000D03*
%TO.P,J3,8*%
%TO.N,Net-(J3-Pad8)*%
X168910000Y-50800000D03*
%TD*%
%TO.P,J4,8*%
%TO.N,Net-(J4-Pad8)*%
X194310000Y-50800000D03*
%TO.P,J4,7*%
%TO.N,Net-(J4-Pad7)*%
X191770000Y-50800000D03*
%TO.P,J4,6*%
%TO.N,Net-(J4-Pad6)*%
X189230000Y-50800000D03*
%TO.P,J4,5*%
%TO.N,Net-(J4-Pad5)*%
X186690000Y-50800000D03*
%TO.P,J4,4*%
%TO.N,Net-(J4-Pad4)*%
X184150000Y-50800000D03*
%TO.P,J4,3*%
%TO.N,Net-(J4-Pad3)*%
X181610000Y-50800000D03*
%TO.P,J4,2*%
%TO.N,Net-(J4-Pad2)*%
X179070000Y-50800000D03*
D17*
%TO.P,J4,1*%
%TO.N,Net-(J4-Pad1)*%
X176530000Y-50800000D03*
%TD*%
%TO.P,J7,1*%
%TO.N,Net-(J1-Pad1)*%
X100330000Y-46990000D03*
D16*
%TO.P,J7,2*%
X102870000Y-46990000D03*
%TO.P,J7,3*%
X105410000Y-46990000D03*
%TO.P,J7,4*%
X107950000Y-46990000D03*
%TO.P,J7,5*%
X110490000Y-46990000D03*
%TO.P,J7,6*%
X113030000Y-46990000D03*
%TO.P,J7,7*%
X115570000Y-46990000D03*
%TO.P,J7,8*%
X118110000Y-46990000D03*
%TD*%
%TO.P,J8,8*%
%TO.N,Net-(J1-Pad1)*%
X143510000Y-46990000D03*
%TO.P,J8,7*%
X140970000Y-46990000D03*
%TO.P,J8,6*%
X138430000Y-46990000D03*
%TO.P,J8,5*%
X135890000Y-46990000D03*
%TO.P,J8,4*%
X133350000Y-46990000D03*
%TO.P,J8,3*%
X130810000Y-46990000D03*
%TO.P,J8,2*%
X128270000Y-46990000D03*
D17*
%TO.P,J8,1*%
X125730000Y-46990000D03*
%TD*%
%TO.P,J9,1*%
%TO.N,Net-(J9-Pad1)*%
X100330000Y-50800000D03*
D16*
%TO.P,J9,2*%
%TO.N,Net-(J9-Pad2)*%
X102870000Y-50800000D03*
%TO.P,J9,3*%
%TO.N,Net-(J9-Pad3)*%
X105410000Y-50800000D03*
%TO.P,J9,4*%
%TO.N,Net-(J9-Pad4)*%
X107950000Y-50800000D03*
%TO.P,J9,5*%
%TO.N,Net-(J9-Pad5)*%
X110490000Y-50800000D03*
%TO.P,J9,6*%
%TO.N,Net-(J9-Pad6)*%
X113030000Y-50800000D03*
%TO.P,J9,7*%
%TO.N,Net-(J9-Pad7)*%
X115570000Y-50800000D03*
%TO.P,J9,8*%
%TO.N,Net-(J9-Pad8)*%
X118110000Y-50800000D03*
%TD*%
D17*
%TO.P,J10,1*%
%TO.N,Net-(J10-Pad1)*%
X125730000Y-50800000D03*
D16*
%TO.P,J10,2*%
%TO.N,Net-(J10-Pad2)*%
X128270000Y-50800000D03*
%TO.P,J10,3*%
%TO.N,Net-(J10-Pad3)*%
X130810000Y-50800000D03*
%TO.P,J10,4*%
%TO.N,Net-(J10-Pad4)*%
X133350000Y-50800000D03*
%TO.P,J10,5*%
%TO.N,Net-(J10-Pad5)*%
X135890000Y-50800000D03*
%TO.P,J10,6*%
%TO.N,Net-(J10-Pad6)*%
X138430000Y-50800000D03*
%TO.P,J10,7*%
%TO.N,Net-(J10-Pad7)*%
X140970000Y-50800000D03*
%TO.P,J10,8*%
%TO.N,Net-(J10-Pad8)*%
X143510000Y-50800000D03*
%TD*%
D17*
%TO.P,LEDs1,1*%
%TO.N,Net-(LEDs1-Pad1)*%
X132080000Y-129540000D03*
D16*
%TO.P,LEDs1,2*%
%TO.N,Net-(LEDs1-Pad2)*%
X129540000Y-129540000D03*
%TO.P,LEDs1,3*%
%TO.N,Net-(LEDs1-Pad3)*%
X127000000Y-129540000D03*
%TO.P,LEDs1,4*%
%TO.N,Net-(LEDs1-Pad4)*%
X124460000Y-129540000D03*
%TO.P,LEDs1,5*%
%TO.N,Net-(LEDs1-Pad5)*%
X121920000Y-129540000D03*
%TD*%
%TO.P,BTNs1,5*%
%TO.N,Net-(BTNs1-Pad5)*%
X144780000Y-121920000D03*
%TO.P,BTNs1,4*%
%TO.N,Net-(BTNs1-Pad4)*%
X144780000Y-119380000D03*
%TO.P,BTNs1,3*%
%TO.N,Net-(BTNs1-Pad3)*%
X144780000Y-116840000D03*
%TO.P,BTNs1,2*%
%TO.N,Net-(BTNs1-Pad2)*%
X144780000Y-114300000D03*
D17*
%TO.P,BTNs1,1*%
%TO.N,Net-(BTNs1-Pad1)*%
X144780000Y-111760000D03*
%TD*%
D16*
%TO.P,J15,5*%
%TO.N,Net-(J1-Pad1)*%
X148590000Y-121920000D03*
%TO.P,J15,4*%
X148590000Y-119380000D03*
%TO.P,J15,3*%
X148590000Y-116840000D03*
%TO.P,J15,2*%
X148590000Y-114300000D03*
D17*
%TO.P,J15,1*%
X148590000Y-111760000D03*
%TD*%
%TO.P,J16,1*%
%TO.N,Net-(J1-Pad1)*%
X132080000Y-133350000D03*
D16*
%TO.P,J16,2*%
X129540000Y-133350000D03*
%TO.P,J16,3*%
X127000000Y-133350000D03*
%TO.P,J16,4*%
X124460000Y-133350000D03*
%TO.P,J16,5*%
X121920000Y-133350000D03*
%TD*%
%TO.P,J19,8*%
%TO.N,Net-(J1-Pad1)*%
X92710000Y-46990000D03*
%TO.P,J19,7*%
X90170000Y-46990000D03*
%TO.P,J19,6*%
X87630000Y-46990000D03*
%TO.P,J19,5*%
X85090000Y-46990000D03*
%TO.P,J19,4*%
X82550000Y-46990000D03*
%TO.P,J19,3*%
X80010000Y-46990000D03*
%TO.P,J19,2*%
X77470000Y-46990000D03*
D17*
%TO.P,J19,1*%
X74930000Y-46990000D03*
%TD*%
D16*
%TO.P,J20,8*%
%TO.N,Net-(J20-Pad8)*%
X92710000Y-50800000D03*
%TO.P,J20,7*%
%TO.N,Net-(J20-Pad7)*%
X90170000Y-50800000D03*
%TO.P,J20,6*%
%TO.N,Net-(J20-Pad6)*%
X87630000Y-50800000D03*
%TO.P,J20,5*%
%TO.N,Net-(J20-Pad5)*%
X85090000Y-50800000D03*
%TO.P,J20,4*%
%TO.N,Net-(J20-Pad4)*%
X82550000Y-50800000D03*
%TO.P,J20,3*%
%TO.N,Net-(J20-Pad3)*%
X80010000Y-50800000D03*
%TO.P,J20,2*%
%TO.N,Net-(J20-Pad2)*%
X77470000Y-50800000D03*
D17*
%TO.P,J20,1*%
%TO.N,Net-(J20-Pad1)*%
X74930000Y-50800000D03*
%TD*%
D16*
%TO.P,T+|GND|R-1,3*%
%TO.N,Net-(J13-PadR6)*%
X90170000Y-130810000D03*
%TO.P,T+|GND|R-1,2*%
%TO.N,Net-(C1-Pad2)*%
X90170000Y-128270000D03*
D17*
%TO.P,T+|GND|R-1,1*%
%TO.N,Net-(J13-PadR1)*%
X90170000Y-125730000D03*
%TD*%
D16*
%TO.P,R+|LED|T-1,3*%
%TO.N,Net-(J13-PadR2)*%
X86360000Y-125730000D03*
%TO.P,R+|LED|T-1,2*%
%TO.N,Net-(J13-PadL4)*%
X86360000Y-128270000D03*
D17*
%TO.P,R+|LED|T-1,1*%
%TO.N,Net-(J13-PadR3)*%
X86360000Y-130810000D03*
%TD*%
%TO.P,J5,1*%
%TO.N,Net-(J1-Pad1)*%
X114300000Y-133350000D03*
D16*
%TO.P,J5,2*%
X111760000Y-133350000D03*
%TO.P,J5,3*%
X109220000Y-133350000D03*
%TO.P,J5,4*%
X106680000Y-133350000D03*
%TO.P,J5,5*%
X104140000Y-133350000D03*
%TD*%
%TO.P,J6,5*%
%TO.N,Net-(J1-Pad1)*%
X104140000Y-120650000D03*
%TO.P,J6,4*%
X106680000Y-120650000D03*
%TO.P,J6,3*%
X109220000Y-120650000D03*
%TO.P,J6,2*%
X111760000Y-120650000D03*
D17*
%TO.P,J6,1*%
X114300000Y-120650000D03*
%TD*%
%TO.P,VUs1,1*%
%TO.N,Net-(U3-Pad14)*%
X114300000Y-116840000D03*
D16*
%TO.P,VUs1,2*%
%TO.N,Net-(U3-Pad13)*%
X111760000Y-116840000D03*
%TO.P,VUs1,3*%
%TO.N,Net-(U3-Pad12)*%
X109220000Y-116840000D03*
%TO.P,VUs1,4*%
%TO.N,Net-(U3-Pad11)*%
X106680000Y-116840000D03*
%TO.P,VUs1,5*%
%TO.N,Net-(U3-Pad10)*%
X104140000Y-116840000D03*
%TD*%
%TO.P,VUVs1,5*%
%TO.N,Net-(J11-Pad1)*%
X104140000Y-129540000D03*
%TO.P,VUVs1,4*%
X106680000Y-129540000D03*
%TO.P,VUVs1,3*%
X109220000Y-129540000D03*
%TO.P,VUVs1,2*%
X111760000Y-129540000D03*
D17*
%TO.P,VUVs1,1*%
X114300000Y-129540000D03*
%TD*%
D13*
%TO.P,R1,1*%
%TO.N,Net-(R1-Pad1)*%
X123190000Y-116840000D03*
D12*
%TO.P,R1,2*%
%TO.N,Net-(LEDs1-Pad5)*%
X123190000Y-121920000D03*
%TD*%
%TO.P,R2,2*%
%TO.N,Net-(LEDs1-Pad4)*%
X127000000Y-121920000D03*
D13*
%TO.P,R2,1*%
%TO.N,Net-(R2-Pad1)*%
X127000000Y-116840000D03*
%TD*%
%TO.P,R3,1*%
%TO.N,Net-(R3-Pad1)*%
X130810000Y-116840000D03*
D12*
%TO.P,R3,2*%
%TO.N,Net-(LEDs1-Pad3)*%
X130810000Y-121920000D03*
%TD*%
%TO.P,R4,2*%
%TO.N,Net-(LEDs1-Pad2)*%
X134620000Y-121920000D03*
D13*
%TO.P,R4,1*%
%TO.N,Net-(R4-Pad1)*%
X134620000Y-116840000D03*
%TD*%
%TO.P,R5,1*%
%TO.N,Net-(R5-Pad1)*%
X119380000Y-116840000D03*
D12*
%TO.P,R5,2*%
%TO.N,Net-(LEDs1-Pad1)*%
X119380000Y-121920000D03*
%TD*%
D17*
%TO.P,D0-7,1*%
%TO.N,Net-(D0-7-Pad1)*%
X82550000Y-111760000D03*
D16*
%TO.P,D0-7,2*%
%TO.N,Net-(D0-7-Pad2)*%
X85090000Y-111760000D03*
%TO.P,D0-7,3*%
%TO.N,Net-(D0-7-Pad3)*%
X87630000Y-111760000D03*
%TO.P,D0-7,4*%
%TO.N,Net-(D0-7-Pad4)*%
X90170000Y-111760000D03*
%TO.P,D0-7,5*%
%TO.N,Net-(D0-7-Pad5)*%
X92710000Y-111760000D03*
%TO.P,D0-7,6*%
%TO.N,Net-(D0-7-Pad6)*%
X95250000Y-111760000D03*
%TO.P,D0-7,7*%
%TO.N,Net-(D0-7-Pad7)*%
X97790000Y-111760000D03*
%TO.P,D0-7,8*%
%TO.N,Net-(D0-7-Pad8)*%
X100330000Y-111760000D03*
%TD*%
D17*
%TO.P,A5-9,1*%
%TO.N,Net-(A5-9-Pad1)*%
X97790000Y-88900000D03*
D16*
%TO.P,A5-9,2*%
%TO.N,Net-(A5-9-Pad2)*%
X95250000Y-88900000D03*
%TO.P,A5-9,3*%
%TO.N,Net-(A5-9-Pad3)*%
X92710000Y-88900000D03*
%TO.P,A5-9,4*%
%TO.N,Net-(A5-9-Pad4)*%
X90170000Y-88900000D03*
%TO.P,A5-9,5*%
%TO.N,Net-(A5-9-Pad5)*%
X87630000Y-88900000D03*
%TD*%
D11*
%TO.P,J11,1*%
%TO.N,Net-(J11-Pad1)*%
X73660000Y-104140000D03*
D13*
%TO.P,J11,2*%
%TO.N,Net-(J11-Pad2)*%
X73660000Y-101640000D03*
%TO.P,J11,3*%
%TO.N,Net-(J11-Pad3)*%
X71660000Y-101640000D03*
%TO.P,J11,4*%
%TO.N,Net-(A5-1-Pad1)*%
X71660000Y-104140000D03*
D18*
%TO.P,J11,5*%
X68800000Y-96890000D03*
X68800000Y-108890000D03*
%TD*%
D17*
%TO.P,A5-1,1*%
%TO.N,Net-(A5-1-Pad1)*%
X97790000Y-85090000D03*
D16*
%TO.P,A5-1,2*%
X95250000Y-85090000D03*
%TO.P,A5-1,3*%
X92710000Y-85090000D03*
%TO.P,A5-1,4*%
X90170000Y-85090000D03*
%TO.P,A5-1,5*%
X87630000Y-85090000D03*
%TD*%
D17*
%TO.P,J12,1*%
%TO.N,Net-(A5-1-Pad1)*%
X82550000Y-115570000D03*
D16*
%TO.P,J12,2*%
X85090000Y-115570000D03*
%TO.P,J12,3*%
X87630000Y-115570000D03*
%TO.P,J12,4*%
X90170000Y-115570000D03*
%TO.P,J12,5*%
X92710000Y-115570000D03*
%TO.P,J12,6*%
X95250000Y-115570000D03*
%TO.P,J12,7*%
X97790000Y-115570000D03*
%TO.P,J12,8*%
X100330000Y-115570000D03*
%TD*%
D19*
%TO.P,J13,R1*%
%TO.N,Net-(J13-PadR1)*%
X76200000Y-124460000D03*
D20*
%TO.P,J13,R2*%
%TO.N,Net-(J13-PadR2)*%
X78740000Y-125730000D03*
%TO.P,J13,R3*%
%TO.N,Net-(J13-PadR3)*%
X76200000Y-127000000D03*
%TO.P,J13,R4*%
%TO.N,Net-(C1-Pad1)*%
X78740000Y-128270000D03*
%TO.P,J13,R5*%
X76200000Y-129540000D03*
%TO.P,J13,R6*%
%TO.N,Net-(J13-PadR6)*%
X78740000Y-130810000D03*
%TO.P,J13,R7*%
%TO.N,Net-(J13-PadR7)*%
X76200000Y-132080000D03*
%TO.P,J13,R8*%
%TO.N,Net-(C1-Pad2)*%
X78740000Y-133350000D03*
D21*
%TO.P,J13,L1*%
%TO.N,Net-(J13-PadL1)*%
X66480000Y-135230000D03*
%TO.P,J13,L2*%
%TO.N,Net-(J13-PadL2)*%
X64960000Y-132690000D03*
%TO.P,J13,L3*%
%TO.N,Net-(C1-Pad2)*%
X66480000Y-125120000D03*
%TO.P,J13,L4*%
%TO.N,Net-(J13-PadL4)*%
X64960000Y-122580000D03*
D22*
%TO.P,J13,13*%
%TO.N,Net-(J13-Pad13)*%
X72910000Y-121130000D03*
X72910000Y-136680000D03*
%TD*%
D23*
%TO.P,C1,1*%
%TO.N,Net-(C1-Pad1)*%
X76200000Y-115570000D03*
D24*
%TO.P,C1,2*%
%TO.N,Net-(C1-Pad2)*%
X61200000Y-115570000D03*
%TD*%
D25*
%TO.N,Net-(J1-Pad1)*%
X80010000Y-107950000D02*
X80010000Y-120650000D01*
X81280000Y-120650000D02*
X104140000Y-120650000D01*
X104140000Y-120650000D02*
X114300000Y-120650000D01*
X148590000Y-121920000D02*
X148590000Y-111760000D01*
X137160000Y-133350000D02*
X148590000Y-121920000D01*
X132080000Y-133350000D02*
X137160000Y-133350000D01*
X79469999Y-64914999D02*
X80550001Y-64914999D01*
X78884999Y-65499999D02*
X79469999Y-64914999D01*
X79469999Y-69705001D02*
X78884999Y-69120001D01*
X78884999Y-69120001D02*
X78884999Y-65499999D01*
X80260003Y-69705001D02*
X79469999Y-69705001D01*
X81675002Y-66040000D02*
X87630000Y-66040000D01*
X81135001Y-70579999D02*
X80260003Y-69705001D01*
X79764999Y-107704999D02*
X79764999Y-98591999D01*
X80550001Y-64914999D02*
X81675002Y-66040000D01*
X79764999Y-98591999D02*
X81135001Y-97221997D01*
X80010000Y-107950000D02*
X79764999Y-107704999D01*
X114205001Y-133255001D02*
X114300000Y-133350000D01*
X81280000Y-120650000D02*
X80010000Y-120650000D01*
X81135001Y-73515001D02*
X81135001Y-70579999D01*
X81135001Y-97221997D02*
X81135001Y-73515001D01*
X81135001Y-73515001D02*
X81135001Y-73119999D01*
X119380000Y-125730000D02*
X119380000Y-133350000D01*
X114300000Y-120650000D02*
X119380000Y-125730000D01*
X119380000Y-133350000D02*
X132080000Y-133350000D01*
X119380000Y-133350000D02*
X104140000Y-133350000D01*
%TO.N,Net-(MP1-Pad11)*%
X104284999Y-69705001D02*
X105410000Y-68580000D01*
X80010000Y-68580000D02*
X81135001Y-69705001D01*
X129684999Y-69705001D02*
X130810000Y-68580000D01*
X105410000Y-68580000D02*
X106535001Y-69705001D01*
X155084999Y-69705001D02*
X156210000Y-68580000D01*
X130810000Y-68580000D02*
X131935001Y-69705001D01*
X180484999Y-69705001D02*
X181610000Y-68580000D01*
X157335001Y-69705001D02*
X180484999Y-69705001D01*
X156210000Y-68580000D02*
X157335001Y-69705001D01*
X81135001Y-69705001D02*
X104284999Y-69705001D01*
X193040000Y-69850000D02*
X192895001Y-69705001D01*
X182735001Y-69705001D02*
X181610000Y-68580000D01*
X193040000Y-100330000D02*
X193040000Y-69850000D01*
X192895001Y-69705001D02*
X182735001Y-69705001D01*
X133350000Y-100330000D02*
X193040000Y-100330000D01*
X133350000Y-107950000D02*
X133350000Y-100330000D01*
X133494999Y-69705001D02*
X131935001Y-69705001D01*
X133205001Y-69705001D02*
X133494999Y-69705001D01*
X133494999Y-69705001D02*
X155084999Y-69705001D01*
X129684999Y-69705001D02*
X106824999Y-69705001D01*
%TO.N,Net-(MP1-Pad3)*%
X169054999Y-96375001D02*
X189230000Y-76200000D01*
X114155001Y-96375001D02*
X169054999Y-96375001D01*
X110490000Y-92710000D02*
X114155001Y-96375001D01*
%TO.N,Net-(MP1-Pad10)*%
X104284999Y-67165001D02*
X105410000Y-66040000D01*
X80010000Y-66040000D02*
X81135001Y-67165001D01*
X129684999Y-67165001D02*
X130810000Y-66040000D01*
X105410000Y-66040000D02*
X106535001Y-67165001D01*
X155084999Y-67165001D02*
X156210000Y-66040000D01*
X130810000Y-66040000D02*
X131935001Y-67165001D01*
X180484999Y-67165001D02*
X181610000Y-66040000D01*
X157335001Y-67165001D02*
X180484999Y-67165001D01*
X156210000Y-66040000D02*
X157335001Y-67165001D01*
X135890000Y-107950000D02*
X135890000Y-101600000D01*
X135890000Y-101600000D02*
X194310000Y-101600000D01*
X194165001Y-67454999D02*
X194310000Y-67310000D01*
X181610000Y-66040000D02*
X183024999Y-67454999D01*
X183024999Y-67454999D02*
X194165001Y-67454999D01*
X81135001Y-67165001D02*
X104284999Y-67165001D01*
X194310000Y-71120000D02*
X194310000Y-67310000D01*
X194310000Y-101600000D02*
X194310000Y-71120000D01*
X194310000Y-71120000D02*
X194310000Y-69850000D01*
X133494999Y-67165001D02*
X131935001Y-67165001D01*
X133205001Y-67165001D02*
X133494999Y-67165001D01*
X133494999Y-67165001D02*
X155084999Y-67165001D01*
X129684999Y-67165001D02*
X106535001Y-67165001D01*
%TO.N,Net-(MP1-Pad9)*%
X104284999Y-64625001D02*
X105410000Y-63500000D01*
X80010000Y-63500000D02*
X81135001Y-64625001D01*
X129684999Y-64625001D02*
X130810000Y-63500000D01*
X105410000Y-63500000D02*
X106535001Y-64625001D01*
X155084999Y-64625001D02*
X156210000Y-63500000D01*
X130810000Y-63500000D02*
X131935001Y-64625001D01*
X180484999Y-64625001D02*
X181610000Y-63500000D01*
X157335001Y-64625001D02*
X180484999Y-64625001D01*
X156210000Y-63500000D02*
X157335001Y-64625001D01*
X182735001Y-64625001D02*
X195435001Y-64625001D01*
X181610000Y-63500000D02*
X182735001Y-64625001D01*
X195580000Y-102870000D02*
X138430000Y-102870000D01*
X195580000Y-100966410D02*
X195580000Y-102870000D01*
X138430000Y-102870000D02*
X138430000Y-107950000D01*
X195580000Y-64770000D02*
X195435001Y-64625001D01*
X195580000Y-68580000D02*
X195580000Y-64770000D01*
X195580000Y-67310000D02*
X195580000Y-68580000D01*
X195580000Y-68580000D02*
X195580000Y-100966410D01*
X133494999Y-64625001D02*
X131935001Y-64625001D01*
X133205001Y-64625001D02*
X133494999Y-64625001D01*
X133494999Y-64625001D02*
X155084999Y-64625001D01*
X129684999Y-64625001D02*
X106535001Y-64625001D01*
X104284999Y-64625001D02*
X81135001Y-64625001D01*
%TO.N,Net-(MP2-Pad3)*%
X157624999Y-82405001D02*
X163830000Y-76200000D01*
X118254999Y-82405001D02*
X157624999Y-82405001D01*
X107950000Y-92710000D02*
X118254999Y-82405001D01*
%TO.N,Net-(MP3-Pad3)*%
X134764999Y-79865001D02*
X138430000Y-76200000D01*
X118254999Y-79865001D02*
X134764999Y-79865001D01*
X105410000Y-92710000D02*
X118254999Y-79865001D01*
%TO.N,Net-(MP4-Pad3)*%
X102870000Y-86360000D02*
X113030000Y-76200000D01*
X102870000Y-92710000D02*
X102870000Y-86360000D01*
%TO.N,Net-(MP5-Pad3)*%
X87630000Y-76338630D02*
X87630000Y-76200000D01*
X87630000Y-76454998D02*
X87630000Y-76200000D01*
X91185002Y-76200000D02*
X87630000Y-76200000D01*
X100330000Y-85344998D02*
X91185002Y-76200000D01*
X100330000Y-92710000D02*
X100330000Y-85344998D01*
%TO.N,Net-(A5-1-Pad1)*%
X82550000Y-115570000D02*
X100330000Y-115570000D01*
X82550000Y-90170000D02*
X87630000Y-85090000D01*
X82550000Y-92710000D02*
X82550000Y-90170000D01*
X87630000Y-85090000D02*
X97790000Y-85090000D01*
%TO.N,Net-(J13-PadR1)*%
X76205001Y-124454999D02*
X76200000Y-124460000D01*
X88894999Y-124454999D02*
X76205001Y-124454999D01*
X90170000Y-125730000D02*
X88894999Y-124454999D01*
%TO.N,Net-(J13-PadR2)*%
X86360000Y-125730000D02*
X78740000Y-125730000D01*
%TO.N,Net-(J13-PadR6)*%
X79915001Y-129634999D02*
X78740000Y-130810000D01*
X88994999Y-129634999D02*
X79915001Y-129634999D01*
X90170000Y-130810000D02*
X88994999Y-129634999D01*
%TO.N,Net-(C1-Pad2)*%
X89369002Y-133350000D02*
X78740000Y-133350000D01*
X91345001Y-131374001D02*
X89369002Y-133350000D01*
X91345001Y-129445001D02*
X91345001Y-131374001D01*
X90170000Y-128270000D02*
X91345001Y-129445001D01*
%TO.N,Net-(J13-PadL4)*%
X66363998Y-122580000D02*
X64960000Y-122580000D01*
X68923999Y-125140001D02*
X66363998Y-122580000D01*
X70796001Y-125140001D02*
X68923999Y-125140001D01*
X72751003Y-123184999D02*
X70796001Y-125140001D01*
X89910001Y-123184999D02*
X72751003Y-123184999D01*
X91345001Y-124619999D02*
X89910001Y-123184999D01*
X91345001Y-126840001D02*
X91345001Y-124619999D01*
X87535001Y-127094999D02*
X91090003Y-127094999D01*
X91090003Y-127094999D02*
X91345001Y-126840001D01*
X86360000Y-128270000D02*
X87535001Y-127094999D01*
%TO.N,Net-(J13-Pad13)*%
X72910000Y-134783998D02*
X72910000Y-136680000D01*
X63689999Y-125563997D02*
X72910000Y-134783998D01*
X63689999Y-121970399D02*
X63689999Y-125563997D01*
X64530398Y-121130000D02*
X63689999Y-121970399D01*
X72910000Y-121130000D02*
X64530398Y-121130000D01*
%TD*%
M02*
