%TF.GenerationSoftware,KiCad,Pcbnew,5.1.8*%
%TF.CreationDate,2020-12-04T02:47:43+00:00*%
%TF.ProjectId,controller_mixer_pcb,636f6e74-726f-46c6-9c65-725f6d697865,rev?*%
%TF.SameCoordinates,Original*%
%TF.FileFunction,Profile,NP*%
%FSLAX46Y46*%
G04 Gerber Fmt 4.6, Leading zero omitted, Abs format (unit mm)*
G04 Created by KiCad (PCBNEW 5.1.8) date 2020-12-04 02:47:43*
%MOMM*%
%LPD*%
G01*
G04 APERTURE LIST*
%TA.AperFunction,Profile*%
%ADD10C,0.050000*%
%TD*%
G04 APERTURE END LIST*
D10*
X129936666Y-41910000D02*
G75*
G03*
X129936666Y-41910000I-1666666J0D01*
G01*
X125770000Y-41910000D02*
X130770000Y-41910000D01*
X128270000Y-39410000D02*
X128270000Y-44410000D01*
X202326666Y-140970000D02*
G75*
G03*
X202326666Y-140970000I-1666666J0D01*
G01*
X198160000Y-140970000D02*
X203160000Y-140970000D01*
X200660000Y-138470000D02*
X200660000Y-143470000D01*
X131206666Y-140970000D02*
G75*
G03*
X131206666Y-140970000I-1666666J0D01*
G01*
X127040000Y-140970000D02*
X132040000Y-140970000D01*
X129540000Y-138470000D02*
X129540000Y-143470000D01*
X62626666Y-140970000D02*
G75*
G03*
X62626666Y-140970000I-1666666J0D01*
G01*
X58460000Y-140970000D02*
X63460000Y-140970000D01*
X60960000Y-138470000D02*
X60960000Y-143470000D01*
X62626666Y-90170000D02*
G75*
G03*
X62626666Y-90170000I-1666666J0D01*
G01*
X58460000Y-90170000D02*
X63460000Y-90170000D01*
X60960000Y-87670000D02*
X60960000Y-92670000D01*
X202326666Y-90170000D02*
G75*
G03*
X202326666Y-90170000I-1666666J0D01*
G01*
X198160000Y-90170000D02*
X203160000Y-90170000D01*
X200660000Y-87670000D02*
X200660000Y-92670000D01*
X129936666Y-85090000D02*
G75*
G03*
X129936666Y-85090000I-1666666J0D01*
G01*
X125770000Y-85090000D02*
X130770000Y-85090000D01*
X128270000Y-82590000D02*
X128270000Y-87590000D01*
X62626666Y-41910000D02*
G75*
G03*
X62626666Y-41910000I-1666666J0D01*
G01*
X58460000Y-41910000D02*
X63460000Y-41910000D01*
X60960000Y-39410000D02*
X60960000Y-44410000D01*
X202326666Y-41910000D02*
G75*
G03*
X202326666Y-41910000I-1666666J0D01*
G01*
X198160000Y-41910000D02*
X203160000Y-41910000D01*
X200660000Y-39410000D02*
X200660000Y-44410000D01*
X203200000Y-39370000D02*
X58420000Y-39370000D01*
X203200000Y-143510000D02*
X203200000Y-39370000D01*
X58420000Y-143510000D02*
X203200000Y-143510000D01*
X58420000Y-39370000D02*
X58420000Y-143510000D01*
M02*
