%TF.GenerationSoftware,KiCad,Pcbnew,5.1.8*%
%TF.CreationDate,2020-12-04T02:47:43+00:00*%
%TF.ProjectId,controller_mixer_pcb,636f6e74-726f-46c6-9c65-725f6d697865,rev?*%
%TF.SameCoordinates,Original*%
%TF.FileFunction,Legend,Top*%
%TF.FilePolarity,Positive*%
%FSLAX46Y46*%
G04 Gerber Fmt 4.6, Leading zero omitted, Abs format (unit mm)*
G04 Created by KiCad (PCBNEW 5.1.8) date 2020-12-04 02:47:43*
%MOMM*%
%LPD*%
G01*
G04 APERTURE LIST*
%ADD10C,0.120000*%
%ADD11C,0.100000*%
%ADD12C,0.150000*%
G04 APERTURE END LIST*
D10*
%TO.C,MP2*%
X161020000Y-82610000D02*
X162670000Y-82610000D01*
X162670000Y-82610000D02*
X162670000Y-62170000D01*
X162670000Y-62170000D02*
X157370000Y-62170000D01*
X157370000Y-62170000D02*
X157370000Y-82610000D01*
X157370000Y-82610000D02*
X159020000Y-82610000D01*
X159020000Y-82610000D02*
G75*
G02*
X161020000Y-82610000I1000000J0D01*
G01*
%TO.C,MP1*%
X182770000Y-82610000D02*
X184420000Y-82610000D01*
X182770000Y-62170000D02*
X182770000Y-82610000D01*
X188070000Y-62170000D02*
X182770000Y-62170000D01*
X188070000Y-82610000D02*
X188070000Y-62170000D01*
X186420000Y-82610000D02*
X188070000Y-82610000D01*
X184420000Y-82610000D02*
G75*
G02*
X186420000Y-82610000I1000000J0D01*
G01*
%TO.C,MP4*%
X110220000Y-82610000D02*
X111870000Y-82610000D01*
X111870000Y-82610000D02*
X111870000Y-62170000D01*
X111870000Y-62170000D02*
X106570000Y-62170000D01*
X106570000Y-62170000D02*
X106570000Y-82610000D01*
X106570000Y-82610000D02*
X108220000Y-82610000D01*
X108220000Y-82610000D02*
G75*
G02*
X110220000Y-82610000I1000000J0D01*
G01*
%TO.C,MP3*%
X131970000Y-82610000D02*
X133620000Y-82610000D01*
X131970000Y-62170000D02*
X131970000Y-82610000D01*
X137270000Y-62170000D02*
X131970000Y-62170000D01*
X137270000Y-82610000D02*
X137270000Y-62170000D01*
X135620000Y-82610000D02*
X137270000Y-82610000D01*
X133620000Y-82610000D02*
G75*
G02*
X135620000Y-82610000I1000000J0D01*
G01*
%TO.C,MP5*%
X84820000Y-82610000D02*
X86470000Y-82610000D01*
X86470000Y-82610000D02*
X86470000Y-62170000D01*
X86470000Y-62170000D02*
X81170000Y-62170000D01*
X81170000Y-62170000D02*
X81170000Y-82610000D01*
X81170000Y-82610000D02*
X82820000Y-82610000D01*
X82820000Y-82610000D02*
G75*
G02*
X84820000Y-82610000I1000000J0D01*
G01*
D11*
%TO.C,U3*%
G36*
X112417000Y-100023000D02*
G01*
X112163000Y-100277000D01*
X111909000Y-99896000D01*
X112163000Y-99642000D01*
X112417000Y-100023000D01*
G37*
X112417000Y-100023000D02*
X112163000Y-100277000D01*
X111909000Y-99896000D01*
X112163000Y-99642000D01*
X112417000Y-100023000D01*
G36*
X112036000Y-100404000D02*
G01*
X111782000Y-100658000D01*
X111528000Y-100277000D01*
X111782000Y-100023000D01*
X112036000Y-100404000D01*
G37*
X112036000Y-100404000D02*
X111782000Y-100658000D01*
X111528000Y-100277000D01*
X111782000Y-100023000D01*
X112036000Y-100404000D01*
G36*
X110131000Y-99642000D02*
G01*
X109877000Y-99896000D01*
X109623000Y-99515000D01*
X109877000Y-99261000D01*
X110131000Y-99642000D01*
G37*
X110131000Y-99642000D02*
X109877000Y-99896000D01*
X109623000Y-99515000D01*
X109877000Y-99261000D01*
X110131000Y-99642000D01*
G36*
X110512000Y-100150000D02*
G01*
X110258000Y-100404000D01*
X110004000Y-100023000D01*
X110258000Y-99769000D01*
X110512000Y-100150000D01*
G37*
X110512000Y-100150000D02*
X110258000Y-100404000D01*
X110004000Y-100023000D01*
X110258000Y-99769000D01*
X110512000Y-100150000D01*
G36*
X110893000Y-100658000D02*
G01*
X110639000Y-100912000D01*
X110385000Y-100531000D01*
X110639000Y-100277000D01*
X110893000Y-100658000D01*
G37*
X110893000Y-100658000D02*
X110639000Y-100912000D01*
X110385000Y-100531000D01*
X110639000Y-100277000D01*
X110893000Y-100658000D01*
G36*
X110893000Y-99769000D02*
G01*
X110639000Y-100023000D01*
X110385000Y-99642000D01*
X110639000Y-99388000D01*
X110893000Y-99769000D01*
G37*
X110893000Y-99769000D02*
X110639000Y-100023000D01*
X110385000Y-99642000D01*
X110639000Y-99388000D01*
X110893000Y-99769000D01*
G36*
X111274000Y-100277000D02*
G01*
X111020000Y-100531000D01*
X110766000Y-100150000D01*
X111020000Y-99896000D01*
X111274000Y-100277000D01*
G37*
X111274000Y-100277000D02*
X111020000Y-100531000D01*
X110766000Y-100150000D01*
X111020000Y-99896000D01*
X111274000Y-100277000D01*
G36*
X111655000Y-100785000D02*
G01*
X111401000Y-101039000D01*
X111147000Y-100658000D01*
X111401000Y-100404000D01*
X111655000Y-100785000D01*
G37*
X111655000Y-100785000D02*
X111401000Y-101039000D01*
X111147000Y-100658000D01*
X111401000Y-100404000D01*
X111655000Y-100785000D01*
D12*
X78740000Y-109220000D02*
X78740000Y-91440000D01*
X139700000Y-109220000D02*
X78740000Y-109220000D01*
X139700000Y-91440000D02*
X139700000Y-109220000D01*
X78740000Y-91440000D02*
X139700000Y-91440000D01*
X83820000Y-104140000D02*
X78740000Y-104140000D01*
X83820000Y-96520000D02*
X78740000Y-96520000D01*
X83820000Y-104140000D02*
X83820000Y-96520000D01*
X77470000Y-96520000D02*
X78740000Y-96520000D01*
X77470000Y-104140000D02*
X77470000Y-96520000D01*
X78740000Y-104140000D02*
X77470000Y-104140000D01*
X139700000Y-93980000D02*
X127000000Y-93980000D01*
X127000000Y-93980000D02*
X127000000Y-106680000D01*
X127000000Y-106680000D02*
X139700000Y-106680000D01*
X139700000Y-95250000D02*
X138430000Y-95250000D01*
X138430000Y-95250000D02*
X138430000Y-105410000D01*
X138430000Y-105410000D02*
X139700000Y-105410000D01*
X123190000Y-99060000D02*
X123190000Y-101600000D01*
X123190000Y-101600000D02*
X119380000Y-101600000D01*
X119380000Y-101600000D02*
X119380000Y-99060000D01*
X119380000Y-99060000D02*
X123190000Y-99060000D01*
X85039200Y-103629200D02*
X97739200Y-103629200D01*
X97739200Y-103629200D02*
X97739200Y-106169200D01*
X97739200Y-106169200D02*
X85039200Y-106169200D01*
X85039200Y-106169200D02*
X85039200Y-103629200D01*
X85039200Y-103629200D02*
X87579200Y-103629200D01*
X87579200Y-103629200D02*
X87579200Y-106169200D01*
X91970000Y-94228400D02*
X91970000Y-100228400D01*
X91970000Y-100228400D02*
X95970000Y-100228400D01*
X95970000Y-100228400D02*
X95970000Y-93978400D01*
X95970000Y-93978400D02*
X91970000Y-93978400D01*
X91970000Y-93978400D02*
X91970000Y-94228400D01*
X101600000Y-106680000D02*
X114300000Y-106680000D01*
X114300000Y-106680000D02*
X114300000Y-93980000D01*
X114300000Y-93980000D02*
X101600000Y-93980000D01*
X101600000Y-93980000D02*
X101600000Y-106680000D01*
X122183026Y-100330000D02*
G75*
G03*
X122183026Y-100330000I-898026J0D01*
G01*
D10*
%TO.C,J1*%
X149800000Y-48320000D02*
X149800000Y-46990000D01*
X151130000Y-48320000D02*
X149800000Y-48320000D01*
X152400000Y-48320000D02*
X152400000Y-45660000D01*
X152400000Y-45660000D02*
X170240000Y-45660000D01*
X152400000Y-48320000D02*
X170240000Y-48320000D01*
X170240000Y-48320000D02*
X170240000Y-45660000D01*
%TO.C,J2*%
X195640000Y-48320000D02*
X195640000Y-45660000D01*
X177800000Y-48320000D02*
X195640000Y-48320000D01*
X177800000Y-45660000D02*
X195640000Y-45660000D01*
X177800000Y-48320000D02*
X177800000Y-45660000D01*
X176530000Y-48320000D02*
X175200000Y-48320000D01*
X175200000Y-48320000D02*
X175200000Y-46990000D01*
%TO.C,J3*%
X170240000Y-52130000D02*
X170240000Y-49470000D01*
X152400000Y-52130000D02*
X170240000Y-52130000D01*
X152400000Y-49470000D02*
X170240000Y-49470000D01*
X152400000Y-52130000D02*
X152400000Y-49470000D01*
X151130000Y-52130000D02*
X149800000Y-52130000D01*
X149800000Y-52130000D02*
X149800000Y-50800000D01*
%TO.C,J4*%
X175200000Y-52130000D02*
X175200000Y-50800000D01*
X176530000Y-52130000D02*
X175200000Y-52130000D01*
X177800000Y-52130000D02*
X177800000Y-49470000D01*
X177800000Y-49470000D02*
X195640000Y-49470000D01*
X177800000Y-52130000D02*
X195640000Y-52130000D01*
X195640000Y-52130000D02*
X195640000Y-49470000D01*
%TO.C,J7*%
X119440000Y-48320000D02*
X119440000Y-45660000D01*
X101600000Y-48320000D02*
X119440000Y-48320000D01*
X101600000Y-45660000D02*
X119440000Y-45660000D01*
X101600000Y-48320000D02*
X101600000Y-45660000D01*
X100330000Y-48320000D02*
X99000000Y-48320000D01*
X99000000Y-48320000D02*
X99000000Y-46990000D01*
%TO.C,J8*%
X124400000Y-48320000D02*
X124400000Y-46990000D01*
X125730000Y-48320000D02*
X124400000Y-48320000D01*
X127000000Y-48320000D02*
X127000000Y-45660000D01*
X127000000Y-45660000D02*
X144840000Y-45660000D01*
X127000000Y-48320000D02*
X144840000Y-48320000D01*
X144840000Y-48320000D02*
X144840000Y-45660000D01*
%TO.C,J9*%
X119440000Y-52130000D02*
X119440000Y-49470000D01*
X101600000Y-52130000D02*
X119440000Y-52130000D01*
X101600000Y-49470000D02*
X119440000Y-49470000D01*
X101600000Y-52130000D02*
X101600000Y-49470000D01*
X100330000Y-52130000D02*
X99000000Y-52130000D01*
X99000000Y-52130000D02*
X99000000Y-50800000D01*
%TO.C,J10*%
X144840000Y-52130000D02*
X144840000Y-49470000D01*
X127000000Y-52130000D02*
X144840000Y-52130000D01*
X127000000Y-49470000D02*
X144840000Y-49470000D01*
X127000000Y-52130000D02*
X127000000Y-49470000D01*
X125730000Y-52130000D02*
X124400000Y-52130000D01*
X124400000Y-52130000D02*
X124400000Y-50800000D01*
%TO.C,LEDs1*%
X120590000Y-128210000D02*
X120590000Y-130870000D01*
X130810000Y-128210000D02*
X120590000Y-128210000D01*
X130810000Y-130870000D02*
X120590000Y-130870000D01*
X130810000Y-128210000D02*
X130810000Y-130870000D01*
X132080000Y-128210000D02*
X133410000Y-128210000D01*
X133410000Y-128210000D02*
X133410000Y-129540000D01*
%TO.C,BTNs1*%
X143450000Y-110430000D02*
X144780000Y-110430000D01*
X143450000Y-111760000D02*
X143450000Y-110430000D01*
X143450000Y-113030000D02*
X146110000Y-113030000D01*
X146110000Y-113030000D02*
X146110000Y-123250000D01*
X143450000Y-113030000D02*
X143450000Y-123250000D01*
X143450000Y-123250000D02*
X146110000Y-123250000D01*
%TO.C,J15*%
X147260000Y-110430000D02*
X148590000Y-110430000D01*
X147260000Y-111760000D02*
X147260000Y-110430000D01*
X147260000Y-113030000D02*
X149920000Y-113030000D01*
X149920000Y-113030000D02*
X149920000Y-123250000D01*
X147260000Y-113030000D02*
X147260000Y-123250000D01*
X147260000Y-123250000D02*
X149920000Y-123250000D01*
%TO.C,J16*%
X120590000Y-132020000D02*
X120590000Y-134680000D01*
X130810000Y-132020000D02*
X120590000Y-132020000D01*
X130810000Y-134680000D02*
X120590000Y-134680000D01*
X130810000Y-132020000D02*
X130810000Y-134680000D01*
X132080000Y-132020000D02*
X133410000Y-132020000D01*
X133410000Y-132020000D02*
X133410000Y-133350000D01*
%TO.C,J19*%
X73600000Y-48320000D02*
X73600000Y-46990000D01*
X74930000Y-48320000D02*
X73600000Y-48320000D01*
X76200000Y-48320000D02*
X76200000Y-45660000D01*
X76200000Y-45660000D02*
X94040000Y-45660000D01*
X76200000Y-48320000D02*
X94040000Y-48320000D01*
X94040000Y-48320000D02*
X94040000Y-45660000D01*
%TO.C,J20*%
X73600000Y-52130000D02*
X73600000Y-50800000D01*
X74930000Y-52130000D02*
X73600000Y-52130000D01*
X76200000Y-52130000D02*
X76200000Y-49470000D01*
X76200000Y-49470000D02*
X94040000Y-49470000D01*
X76200000Y-52130000D02*
X94040000Y-52130000D01*
X94040000Y-52130000D02*
X94040000Y-49470000D01*
%TO.C,T+|GND|R-1*%
X88840000Y-124400000D02*
X90170000Y-124400000D01*
X88840000Y-125730000D02*
X88840000Y-124400000D01*
X88840000Y-127000000D02*
X91500000Y-127000000D01*
X91500000Y-127000000D02*
X91500000Y-132140000D01*
X88840000Y-127000000D02*
X88840000Y-132140000D01*
X88840000Y-132140000D02*
X91500000Y-132140000D01*
%TO.C,R+|LED|T-1*%
X87690000Y-132140000D02*
X86360000Y-132140000D01*
X87690000Y-130810000D02*
X87690000Y-132140000D01*
X87690000Y-129540000D02*
X85030000Y-129540000D01*
X85030000Y-129540000D02*
X85030000Y-124400000D01*
X87690000Y-129540000D02*
X87690000Y-124400000D01*
X87690000Y-124400000D02*
X85030000Y-124400000D01*
%TO.C,J5*%
X115630000Y-132020000D02*
X115630000Y-133350000D01*
X114300000Y-132020000D02*
X115630000Y-132020000D01*
X113030000Y-132020000D02*
X113030000Y-134680000D01*
X113030000Y-134680000D02*
X102810000Y-134680000D01*
X113030000Y-132020000D02*
X102810000Y-132020000D01*
X102810000Y-132020000D02*
X102810000Y-134680000D01*
%TO.C,J6*%
X102810000Y-119320000D02*
X102810000Y-121980000D01*
X113030000Y-119320000D02*
X102810000Y-119320000D01*
X113030000Y-121980000D02*
X102810000Y-121980000D01*
X113030000Y-119320000D02*
X113030000Y-121980000D01*
X114300000Y-119320000D02*
X115630000Y-119320000D01*
X115630000Y-119320000D02*
X115630000Y-120650000D01*
%TO.C,VUs1*%
X115630000Y-115510000D02*
X115630000Y-116840000D01*
X114300000Y-115510000D02*
X115630000Y-115510000D01*
X113030000Y-115510000D02*
X113030000Y-118170000D01*
X113030000Y-118170000D02*
X102810000Y-118170000D01*
X113030000Y-115510000D02*
X102810000Y-115510000D01*
X102810000Y-115510000D02*
X102810000Y-118170000D01*
%TO.C,VUVs1*%
X102810000Y-128210000D02*
X102810000Y-130870000D01*
X113030000Y-128210000D02*
X102810000Y-128210000D01*
X113030000Y-130870000D02*
X102810000Y-130870000D01*
X113030000Y-128210000D02*
X113030000Y-130870000D01*
X114300000Y-128210000D02*
X115630000Y-128210000D01*
X115630000Y-128210000D02*
X115630000Y-129540000D01*
%TO.C,R1*%
X124560000Y-116840000D02*
G75*
G03*
X124560000Y-116840000I-1370000J0D01*
G01*
X123190000Y-118210000D02*
X123190000Y-120820000D01*
%TO.C,R2*%
X127000000Y-118210000D02*
X127000000Y-120820000D01*
X128370000Y-116840000D02*
G75*
G03*
X128370000Y-116840000I-1370000J0D01*
G01*
%TO.C,R3*%
X132180000Y-116840000D02*
G75*
G03*
X132180000Y-116840000I-1370000J0D01*
G01*
X130810000Y-118210000D02*
X130810000Y-120820000D01*
%TO.C,R4*%
X134620000Y-118210000D02*
X134620000Y-120820000D01*
X135990000Y-116840000D02*
G75*
G03*
X135990000Y-116840000I-1370000J0D01*
G01*
%TO.C,R5*%
X120750000Y-116840000D02*
G75*
G03*
X120750000Y-116840000I-1370000J0D01*
G01*
X119380000Y-118210000D02*
X119380000Y-120820000D01*
%TO.C,D0-7*%
X81220000Y-113090000D02*
X81220000Y-111760000D01*
X82550000Y-113090000D02*
X81220000Y-113090000D01*
X83820000Y-113090000D02*
X83820000Y-110430000D01*
X83820000Y-110430000D02*
X101660000Y-110430000D01*
X83820000Y-113090000D02*
X101660000Y-113090000D01*
X101660000Y-113090000D02*
X101660000Y-110430000D01*
%TO.C,A5-9*%
X99120000Y-87570000D02*
X99120000Y-88900000D01*
X97790000Y-87570000D02*
X99120000Y-87570000D01*
X96520000Y-87570000D02*
X96520000Y-90230000D01*
X96520000Y-90230000D02*
X86300000Y-90230000D01*
X96520000Y-87570000D02*
X86300000Y-87570000D01*
X86300000Y-87570000D02*
X86300000Y-90230000D01*
%TO.C,J11*%
X75710000Y-103640000D02*
X75210000Y-104140000D01*
X75710000Y-104640000D02*
X75710000Y-103640000D01*
X75210000Y-104140000D02*
X75710000Y-104640000D01*
X58390000Y-96780000D02*
X66360000Y-96780000D01*
X58390000Y-109000000D02*
X66360000Y-109000000D01*
X58390000Y-96780000D02*
X58390000Y-109000000D01*
X75010000Y-109000000D02*
X71260000Y-109000000D01*
X75010000Y-96780000D02*
X71260000Y-96780000D01*
X75010000Y-96780000D02*
X75010000Y-109000000D01*
%TO.C,A5-1*%
X99120000Y-83760000D02*
X99120000Y-85090000D01*
X97790000Y-83760000D02*
X99120000Y-83760000D01*
X96520000Y-83760000D02*
X96520000Y-86420000D01*
X96520000Y-86420000D02*
X86300000Y-86420000D01*
X96520000Y-83760000D02*
X86300000Y-83760000D01*
X86300000Y-83760000D02*
X86300000Y-86420000D01*
%TO.C,J12*%
X81220000Y-116900000D02*
X81220000Y-115570000D01*
X82550000Y-116900000D02*
X81220000Y-116900000D01*
X83820000Y-116900000D02*
X83820000Y-114240000D01*
X83820000Y-114240000D02*
X101660000Y-114240000D01*
X83820000Y-116900000D02*
X101660000Y-116900000D01*
X101660000Y-116900000D02*
X101660000Y-114240000D01*
%TO.C,J13*%
X74510000Y-120930000D02*
X80790000Y-120930000D01*
X80790000Y-120930000D02*
X80790000Y-136880000D01*
X80790000Y-136880000D02*
X74510000Y-136880000D01*
X71310000Y-136880000D02*
X58870000Y-136880000D01*
X58870000Y-136880000D02*
X58870000Y-120930000D01*
X58870000Y-120930000D02*
X71310000Y-120930000D01*
X77200000Y-120730000D02*
X75200000Y-120730000D01*
%TO.C,C1*%
X75570000Y-117770000D02*
X74070000Y-117770000D01*
X74820000Y-118520000D02*
X74820000Y-117020000D01*
X73820000Y-117940000D02*
X73820000Y-113200000D01*
X63580000Y-117940000D02*
X63580000Y-113200000D01*
X73820000Y-117940000D02*
X72320000Y-117940000D01*
X72320000Y-117940000D02*
X71570000Y-117190000D01*
X71570000Y-117190000D02*
X70820000Y-117940000D01*
X70820000Y-117940000D02*
X63580000Y-117940000D01*
X73820000Y-113200000D02*
X72320000Y-113200000D01*
X72320000Y-113200000D02*
X71570000Y-113950000D01*
X71570000Y-113950000D02*
X70820000Y-113200000D01*
X70820000Y-113200000D02*
X63580000Y-113200000D01*
X74960000Y-115570000D02*
X73820000Y-115570000D01*
X62440000Y-115570000D02*
X63580000Y-115570000D01*
%TO.C,MP2*%
D12*
X158710476Y-84062380D02*
X158710476Y-83062380D01*
X159043809Y-83776666D01*
X159377142Y-83062380D01*
X159377142Y-84062380D01*
X159853333Y-84062380D02*
X159853333Y-83062380D01*
X160234285Y-83062380D01*
X160329523Y-83110000D01*
X160377142Y-83157619D01*
X160424761Y-83252857D01*
X160424761Y-83395714D01*
X160377142Y-83490952D01*
X160329523Y-83538571D01*
X160234285Y-83586190D01*
X159853333Y-83586190D01*
X160805714Y-83157619D02*
X160853333Y-83110000D01*
X160948571Y-83062380D01*
X161186666Y-83062380D01*
X161281904Y-83110000D01*
X161329523Y-83157619D01*
X161377142Y-83252857D01*
X161377142Y-83348095D01*
X161329523Y-83490952D01*
X160758095Y-84062380D01*
X161377142Y-84062380D01*
%TO.C,MP1*%
X184110476Y-84062380D02*
X184110476Y-83062380D01*
X184443809Y-83776666D01*
X184777142Y-83062380D01*
X184777142Y-84062380D01*
X185253333Y-84062380D02*
X185253333Y-83062380D01*
X185634285Y-83062380D01*
X185729523Y-83110000D01*
X185777142Y-83157619D01*
X185824761Y-83252857D01*
X185824761Y-83395714D01*
X185777142Y-83490952D01*
X185729523Y-83538571D01*
X185634285Y-83586190D01*
X185253333Y-83586190D01*
X186777142Y-84062380D02*
X186205714Y-84062380D01*
X186491428Y-84062380D02*
X186491428Y-83062380D01*
X186396190Y-83205238D01*
X186300952Y-83300476D01*
X186205714Y-83348095D01*
%TO.C,MP4*%
X107910476Y-84062380D02*
X107910476Y-83062380D01*
X108243809Y-83776666D01*
X108577142Y-83062380D01*
X108577142Y-84062380D01*
X109053333Y-84062380D02*
X109053333Y-83062380D01*
X109434285Y-83062380D01*
X109529523Y-83110000D01*
X109577142Y-83157619D01*
X109624761Y-83252857D01*
X109624761Y-83395714D01*
X109577142Y-83490952D01*
X109529523Y-83538571D01*
X109434285Y-83586190D01*
X109053333Y-83586190D01*
X110481904Y-83395714D02*
X110481904Y-84062380D01*
X110243809Y-83014761D02*
X110005714Y-83729047D01*
X110624761Y-83729047D01*
%TO.C,MP3*%
X133310476Y-84062380D02*
X133310476Y-83062380D01*
X133643809Y-83776666D01*
X133977142Y-83062380D01*
X133977142Y-84062380D01*
X134453333Y-84062380D02*
X134453333Y-83062380D01*
X134834285Y-83062380D01*
X134929523Y-83110000D01*
X134977142Y-83157619D01*
X135024761Y-83252857D01*
X135024761Y-83395714D01*
X134977142Y-83490952D01*
X134929523Y-83538571D01*
X134834285Y-83586190D01*
X134453333Y-83586190D01*
X135358095Y-83062380D02*
X135977142Y-83062380D01*
X135643809Y-83443333D01*
X135786666Y-83443333D01*
X135881904Y-83490952D01*
X135929523Y-83538571D01*
X135977142Y-83633809D01*
X135977142Y-83871904D01*
X135929523Y-83967142D01*
X135881904Y-84014761D01*
X135786666Y-84062380D01*
X135500952Y-84062380D01*
X135405714Y-84014761D01*
X135358095Y-83967142D01*
%TO.C,MP5*%
X82510476Y-84062380D02*
X82510476Y-83062380D01*
X82843809Y-83776666D01*
X83177142Y-83062380D01*
X83177142Y-84062380D01*
X83653333Y-84062380D02*
X83653333Y-83062380D01*
X84034285Y-83062380D01*
X84129523Y-83110000D01*
X84177142Y-83157619D01*
X84224761Y-83252857D01*
X84224761Y-83395714D01*
X84177142Y-83490952D01*
X84129523Y-83538571D01*
X84034285Y-83586190D01*
X83653333Y-83586190D01*
X85129523Y-83062380D02*
X84653333Y-83062380D01*
X84605714Y-83538571D01*
X84653333Y-83490952D01*
X84748571Y-83443333D01*
X84986666Y-83443333D01*
X85081904Y-83490952D01*
X85129523Y-83538571D01*
X85177142Y-83633809D01*
X85177142Y-83871904D01*
X85129523Y-83967142D01*
X85081904Y-84014761D01*
X84986666Y-84062380D01*
X84748571Y-84062380D01*
X84653333Y-84014761D01*
X84605714Y-83967142D01*
%TO.C,U3*%
X108458095Y-89622380D02*
X108458095Y-90431904D01*
X108505714Y-90527142D01*
X108553333Y-90574761D01*
X108648571Y-90622380D01*
X108839047Y-90622380D01*
X108934285Y-90574761D01*
X108981904Y-90527142D01*
X109029523Y-90431904D01*
X109029523Y-89622380D01*
X109410476Y-89622380D02*
X110029523Y-89622380D01*
X109696190Y-90003333D01*
X109839047Y-90003333D01*
X109934285Y-90050952D01*
X109981904Y-90098571D01*
X110029523Y-90193809D01*
X110029523Y-90431904D01*
X109981904Y-90527142D01*
X109934285Y-90574761D01*
X109839047Y-90622380D01*
X109553333Y-90622380D01*
X109458095Y-90574761D01*
X109410476Y-90527142D01*
X106363333Y-98766666D02*
X107063333Y-98766666D01*
X107063333Y-98933333D01*
X107030000Y-99033333D01*
X106963333Y-99100000D01*
X106896666Y-99133333D01*
X106763333Y-99166666D01*
X106663333Y-99166666D01*
X106530000Y-99133333D01*
X106463333Y-99100000D01*
X106396666Y-99033333D01*
X106363333Y-98933333D01*
X106363333Y-98766666D01*
X107063333Y-99366666D02*
X106363333Y-99600000D01*
X107063333Y-99833333D01*
X107063333Y-100266666D02*
X106563333Y-100266666D01*
X106463333Y-100233333D01*
X106396666Y-100166666D01*
X106363333Y-100066666D01*
X106363333Y-100000000D01*
X107063333Y-100900000D02*
X107063333Y-100766666D01*
X107030000Y-100700000D01*
X106996666Y-100666666D01*
X106896666Y-100600000D01*
X106763333Y-100566666D01*
X106496666Y-100566666D01*
X106430000Y-100600000D01*
X106396666Y-100633333D01*
X106363333Y-100700000D01*
X106363333Y-100833333D01*
X106396666Y-100900000D01*
X106430000Y-100933333D01*
X106496666Y-100966666D01*
X106663333Y-100966666D01*
X106730000Y-100933333D01*
X106763333Y-100900000D01*
X106796666Y-100833333D01*
X106796666Y-100700000D01*
X106763333Y-100633333D01*
X106730000Y-100600000D01*
X106663333Y-100566666D01*
X106563333Y-101233333D02*
X106563333Y-101566666D01*
X106363333Y-101166666D02*
X107063333Y-101400000D01*
X106363333Y-101633333D01*
X107633333Y-97246666D02*
X108333333Y-97246666D01*
X107833333Y-97480000D01*
X108333333Y-97713333D01*
X107633333Y-97713333D01*
X107633333Y-98046666D02*
X108333333Y-98046666D01*
X107633333Y-98380000D02*
X108333333Y-98380000D01*
X107833333Y-98613333D01*
X108333333Y-98846666D01*
X107633333Y-98846666D01*
X108333333Y-99113333D02*
X107633333Y-99580000D01*
X108333333Y-99580000D02*
X107633333Y-99113333D01*
X107633333Y-100246666D02*
X107966666Y-100013333D01*
X107633333Y-99846666D02*
X108333333Y-99846666D01*
X108333333Y-100113333D01*
X108300000Y-100180000D01*
X108266666Y-100213333D01*
X108200000Y-100246666D01*
X108100000Y-100246666D01*
X108033333Y-100213333D01*
X108000000Y-100180000D01*
X107966666Y-100113333D01*
X107966666Y-99846666D01*
X108333333Y-100446666D02*
X108333333Y-100846666D01*
X107633333Y-100646666D02*
X108333333Y-100646666D01*
X107633333Y-101446666D02*
X107633333Y-101046666D01*
X107633333Y-101246666D02*
X108333333Y-101246666D01*
X108233333Y-101180000D01*
X108166666Y-101113333D01*
X108133333Y-101046666D01*
X108333333Y-101880000D02*
X108333333Y-101946666D01*
X108300000Y-102013333D01*
X108266666Y-102046666D01*
X108200000Y-102080000D01*
X108066666Y-102113333D01*
X107900000Y-102113333D01*
X107766666Y-102080000D01*
X107700000Y-102046666D01*
X107666666Y-102013333D01*
X107633333Y-101946666D01*
X107633333Y-101880000D01*
X107666666Y-101813333D01*
X107700000Y-101780000D01*
X107766666Y-101746666D01*
X107900000Y-101713333D01*
X108066666Y-101713333D01*
X108200000Y-101746666D01*
X108266666Y-101780000D01*
X108300000Y-101813333D01*
X108333333Y-101880000D01*
X108333333Y-102713333D02*
X108333333Y-102580000D01*
X108300000Y-102513333D01*
X108266666Y-102480000D01*
X108166666Y-102413333D01*
X108033333Y-102380000D01*
X107766666Y-102380000D01*
X107700000Y-102413333D01*
X107666666Y-102446666D01*
X107633333Y-102513333D01*
X107633333Y-102646666D01*
X107666666Y-102713333D01*
X107700000Y-102746666D01*
X107766666Y-102780000D01*
X107933333Y-102780000D01*
X108000000Y-102746666D01*
X108033333Y-102713333D01*
X108066666Y-102646666D01*
X108066666Y-102513333D01*
X108033333Y-102446666D01*
X108000000Y-102413333D01*
X107933333Y-102380000D01*
X108266666Y-103046666D02*
X108300000Y-103080000D01*
X108333333Y-103146666D01*
X108333333Y-103313333D01*
X108300000Y-103380000D01*
X108266666Y-103413333D01*
X108200000Y-103446666D01*
X108133333Y-103446666D01*
X108033333Y-103413333D01*
X107633333Y-103013333D01*
X107633333Y-103446666D01*
X130230952Y-100782380D02*
X130230952Y-99782380D01*
X130564285Y-100496666D01*
X130897619Y-99782380D01*
X130897619Y-100782380D01*
X131373809Y-100782380D02*
X131373809Y-100115714D01*
X131373809Y-99782380D02*
X131326190Y-99830000D01*
X131373809Y-99877619D01*
X131421428Y-99830000D01*
X131373809Y-99782380D01*
X131373809Y-99877619D01*
X132278571Y-100734761D02*
X132183333Y-100782380D01*
X131992857Y-100782380D01*
X131897619Y-100734761D01*
X131850000Y-100687142D01*
X131802380Y-100591904D01*
X131802380Y-100306190D01*
X131850000Y-100210952D01*
X131897619Y-100163333D01*
X131992857Y-100115714D01*
X132183333Y-100115714D01*
X132278571Y-100163333D01*
X132707142Y-100782380D02*
X132707142Y-100115714D01*
X132707142Y-100306190D02*
X132754761Y-100210952D01*
X132802380Y-100163333D01*
X132897619Y-100115714D01*
X132992857Y-100115714D01*
X133469047Y-100782380D02*
X133373809Y-100734761D01*
X133326190Y-100687142D01*
X133278571Y-100591904D01*
X133278571Y-100306190D01*
X133326190Y-100210952D01*
X133373809Y-100163333D01*
X133469047Y-100115714D01*
X133611904Y-100115714D01*
X133707142Y-100163333D01*
X133754761Y-100210952D01*
X133802380Y-100306190D01*
X133802380Y-100591904D01*
X133754761Y-100687142D01*
X133707142Y-100734761D01*
X133611904Y-100782380D01*
X133469047Y-100782380D01*
X134945238Y-100734761D02*
X135088095Y-100782380D01*
X135326190Y-100782380D01*
X135421428Y-100734761D01*
X135469047Y-100687142D01*
X135516666Y-100591904D01*
X135516666Y-100496666D01*
X135469047Y-100401428D01*
X135421428Y-100353809D01*
X135326190Y-100306190D01*
X135135714Y-100258571D01*
X135040476Y-100210952D01*
X134992857Y-100163333D01*
X134945238Y-100068095D01*
X134945238Y-99972857D01*
X134992857Y-99877619D01*
X135040476Y-99830000D01*
X135135714Y-99782380D01*
X135373809Y-99782380D01*
X135516666Y-99830000D01*
X135945238Y-100782380D02*
X135945238Y-99782380D01*
X136183333Y-99782380D01*
X136326190Y-99830000D01*
X136421428Y-99925238D01*
X136469047Y-100020476D01*
X136516666Y-100210952D01*
X136516666Y-100353809D01*
X136469047Y-100544285D01*
X136421428Y-100639523D01*
X136326190Y-100734761D01*
X136183333Y-100782380D01*
X135945238Y-100782380D01*
X82002380Y-101591904D02*
X82811904Y-101591904D01*
X82907142Y-101544285D01*
X82954761Y-101496666D01*
X83002380Y-101401428D01*
X83002380Y-101210952D01*
X82954761Y-101115714D01*
X82907142Y-101068095D01*
X82811904Y-101020476D01*
X82002380Y-101020476D01*
X82954761Y-100591904D02*
X83002380Y-100449047D01*
X83002380Y-100210952D01*
X82954761Y-100115714D01*
X82907142Y-100068095D01*
X82811904Y-100020476D01*
X82716666Y-100020476D01*
X82621428Y-100068095D01*
X82573809Y-100115714D01*
X82526190Y-100210952D01*
X82478571Y-100401428D01*
X82430952Y-100496666D01*
X82383333Y-100544285D01*
X82288095Y-100591904D01*
X82192857Y-100591904D01*
X82097619Y-100544285D01*
X82050000Y-100496666D01*
X82002380Y-100401428D01*
X82002380Y-100163333D01*
X82050000Y-100020476D01*
X82478571Y-99258571D02*
X82526190Y-99115714D01*
X82573809Y-99068095D01*
X82669047Y-99020476D01*
X82811904Y-99020476D01*
X82907142Y-99068095D01*
X82954761Y-99115714D01*
X83002380Y-99210952D01*
X83002380Y-99591904D01*
X82002380Y-99591904D01*
X82002380Y-99258571D01*
X82050000Y-99163333D01*
X82097619Y-99115714D01*
X82192857Y-99068095D01*
X82288095Y-99068095D01*
X82383333Y-99115714D01*
X82430952Y-99163333D01*
X82478571Y-99258571D01*
X82478571Y-99591904D01*
X97083571Y-99910542D02*
X97083571Y-99577209D01*
X97607380Y-99434352D02*
X97607380Y-99910542D01*
X96607380Y-99910542D01*
X96607380Y-99434352D01*
X96940714Y-99148638D02*
X96940714Y-98767685D01*
X96607380Y-99005780D02*
X97464523Y-99005780D01*
X97559761Y-98958161D01*
X97607380Y-98862923D01*
X97607380Y-98767685D01*
X97607380Y-98434352D02*
X96607380Y-98434352D01*
X97607380Y-98005780D02*
X97083571Y-98005780D01*
X96988333Y-98053400D01*
X96940714Y-98148638D01*
X96940714Y-98291495D01*
X96988333Y-98386733D01*
X97035952Y-98434352D01*
X97559761Y-97148638D02*
X97607380Y-97243876D01*
X97607380Y-97434352D01*
X97559761Y-97529590D01*
X97464523Y-97577209D01*
X97083571Y-97577209D01*
X96988333Y-97529590D01*
X96940714Y-97434352D01*
X96940714Y-97243876D01*
X96988333Y-97148638D01*
X97083571Y-97101019D01*
X97178809Y-97101019D01*
X97274047Y-97577209D01*
X97607380Y-96672447D02*
X96940714Y-96672447D01*
X97131190Y-96672447D02*
X97035952Y-96624828D01*
X96988333Y-96577209D01*
X96940714Y-96481971D01*
X96940714Y-96386733D01*
X96940714Y-96053400D02*
X97607380Y-96053400D01*
X97035952Y-96053400D02*
X96988333Y-96005780D01*
X96940714Y-95910542D01*
X96940714Y-95767685D01*
X96988333Y-95672447D01*
X97083571Y-95624828D01*
X97607380Y-95624828D01*
X97559761Y-94767685D02*
X97607380Y-94862923D01*
X97607380Y-95053400D01*
X97559761Y-95148638D01*
X97464523Y-95196257D01*
X97083571Y-95196257D01*
X96988333Y-95148638D01*
X96940714Y-95053400D01*
X96940714Y-94862923D01*
X96988333Y-94767685D01*
X97083571Y-94720066D01*
X97178809Y-94720066D01*
X97274047Y-95196257D01*
X96940714Y-94434352D02*
X96940714Y-94053400D01*
X96607380Y-94291495D02*
X97464523Y-94291495D01*
X97559761Y-94243876D01*
X97607380Y-94148638D01*
X97607380Y-94053400D01*
X87444676Y-102271580D02*
X87444676Y-103081104D01*
X87492295Y-103176342D01*
X87539914Y-103223961D01*
X87635152Y-103271580D01*
X87825628Y-103271580D01*
X87920866Y-103223961D01*
X87968485Y-103176342D01*
X88016104Y-103081104D01*
X88016104Y-102271580D01*
X88444676Y-103223961D02*
X88587533Y-103271580D01*
X88825628Y-103271580D01*
X88920866Y-103223961D01*
X88968485Y-103176342D01*
X89016104Y-103081104D01*
X89016104Y-102985866D01*
X88968485Y-102890628D01*
X88920866Y-102843009D01*
X88825628Y-102795390D01*
X88635152Y-102747771D01*
X88539914Y-102700152D01*
X88492295Y-102652533D01*
X88444676Y-102557295D01*
X88444676Y-102462057D01*
X88492295Y-102366819D01*
X88539914Y-102319200D01*
X88635152Y-102271580D01*
X88873247Y-102271580D01*
X89016104Y-102319200D01*
X89778009Y-102747771D02*
X89920866Y-102795390D01*
X89968485Y-102843009D01*
X90016104Y-102938247D01*
X90016104Y-103081104D01*
X89968485Y-103176342D01*
X89920866Y-103223961D01*
X89825628Y-103271580D01*
X89444676Y-103271580D01*
X89444676Y-102271580D01*
X89778009Y-102271580D01*
X89873247Y-102319200D01*
X89920866Y-102366819D01*
X89968485Y-102462057D01*
X89968485Y-102557295D01*
X89920866Y-102652533D01*
X89873247Y-102700152D01*
X89778009Y-102747771D01*
X89444676Y-102747771D01*
X91206580Y-103271580D02*
X91206580Y-102271580D01*
X91206580Y-102747771D02*
X91778009Y-102747771D01*
X91778009Y-103271580D02*
X91778009Y-102271580D01*
X92397057Y-103271580D02*
X92301819Y-103223961D01*
X92254200Y-103176342D01*
X92206580Y-103081104D01*
X92206580Y-102795390D01*
X92254200Y-102700152D01*
X92301819Y-102652533D01*
X92397057Y-102604914D01*
X92539914Y-102604914D01*
X92635152Y-102652533D01*
X92682771Y-102700152D01*
X92730390Y-102795390D01*
X92730390Y-103081104D01*
X92682771Y-103176342D01*
X92635152Y-103223961D01*
X92539914Y-103271580D01*
X92397057Y-103271580D01*
X93111342Y-103223961D02*
X93206580Y-103271580D01*
X93397057Y-103271580D01*
X93492295Y-103223961D01*
X93539914Y-103128723D01*
X93539914Y-103081104D01*
X93492295Y-102985866D01*
X93397057Y-102938247D01*
X93254200Y-102938247D01*
X93158961Y-102890628D01*
X93111342Y-102795390D01*
X93111342Y-102747771D01*
X93158961Y-102652533D01*
X93254200Y-102604914D01*
X93397057Y-102604914D01*
X93492295Y-102652533D01*
X93825628Y-102604914D02*
X94206580Y-102604914D01*
X93968485Y-102271580D02*
X93968485Y-103128723D01*
X94016104Y-103223961D01*
X94111342Y-103271580D01*
X94206580Y-103271580D01*
%TO.C,J1*%
X148252380Y-47323333D02*
X148966666Y-47323333D01*
X149109523Y-47370952D01*
X149204761Y-47466190D01*
X149252380Y-47609047D01*
X149252380Y-47704285D01*
X149252380Y-46323333D02*
X149252380Y-46894761D01*
X149252380Y-46609047D02*
X148252380Y-46609047D01*
X148395238Y-46704285D01*
X148490476Y-46799523D01*
X148538095Y-46894761D01*
%TO.C,J2*%
X173652380Y-47323333D02*
X174366666Y-47323333D01*
X174509523Y-47370952D01*
X174604761Y-47466190D01*
X174652380Y-47609047D01*
X174652380Y-47704285D01*
X173747619Y-46894761D02*
X173700000Y-46847142D01*
X173652380Y-46751904D01*
X173652380Y-46513809D01*
X173700000Y-46418571D01*
X173747619Y-46370952D01*
X173842857Y-46323333D01*
X173938095Y-46323333D01*
X174080952Y-46370952D01*
X174652380Y-46942380D01*
X174652380Y-46323333D01*
%TO.C,J3*%
X148252380Y-51133333D02*
X148966666Y-51133333D01*
X149109523Y-51180952D01*
X149204761Y-51276190D01*
X149252380Y-51419047D01*
X149252380Y-51514285D01*
X148252380Y-50752380D02*
X148252380Y-50133333D01*
X148633333Y-50466666D01*
X148633333Y-50323809D01*
X148680952Y-50228571D01*
X148728571Y-50180952D01*
X148823809Y-50133333D01*
X149061904Y-50133333D01*
X149157142Y-50180952D01*
X149204761Y-50228571D01*
X149252380Y-50323809D01*
X149252380Y-50609523D01*
X149204761Y-50704761D01*
X149157142Y-50752380D01*
%TO.C,J4*%
X173652380Y-51133333D02*
X174366666Y-51133333D01*
X174509523Y-51180952D01*
X174604761Y-51276190D01*
X174652380Y-51419047D01*
X174652380Y-51514285D01*
X173985714Y-50228571D02*
X174652380Y-50228571D01*
X173604761Y-50466666D02*
X174319047Y-50704761D01*
X174319047Y-50085714D01*
%TO.C,J7*%
X97452380Y-47323333D02*
X98166666Y-47323333D01*
X98309523Y-47370952D01*
X98404761Y-47466190D01*
X98452380Y-47609047D01*
X98452380Y-47704285D01*
X97452380Y-46942380D02*
X97452380Y-46275714D01*
X98452380Y-46704285D01*
%TO.C,J8*%
X122852380Y-47323333D02*
X123566666Y-47323333D01*
X123709523Y-47370952D01*
X123804761Y-47466190D01*
X123852380Y-47609047D01*
X123852380Y-47704285D01*
X123280952Y-46704285D02*
X123233333Y-46799523D01*
X123185714Y-46847142D01*
X123090476Y-46894761D01*
X123042857Y-46894761D01*
X122947619Y-46847142D01*
X122900000Y-46799523D01*
X122852380Y-46704285D01*
X122852380Y-46513809D01*
X122900000Y-46418571D01*
X122947619Y-46370952D01*
X123042857Y-46323333D01*
X123090476Y-46323333D01*
X123185714Y-46370952D01*
X123233333Y-46418571D01*
X123280952Y-46513809D01*
X123280952Y-46704285D01*
X123328571Y-46799523D01*
X123376190Y-46847142D01*
X123471428Y-46894761D01*
X123661904Y-46894761D01*
X123757142Y-46847142D01*
X123804761Y-46799523D01*
X123852380Y-46704285D01*
X123852380Y-46513809D01*
X123804761Y-46418571D01*
X123757142Y-46370952D01*
X123661904Y-46323333D01*
X123471428Y-46323333D01*
X123376190Y-46370952D01*
X123328571Y-46418571D01*
X123280952Y-46513809D01*
%TO.C,J9*%
X97452380Y-51133333D02*
X98166666Y-51133333D01*
X98309523Y-51180952D01*
X98404761Y-51276190D01*
X98452380Y-51419047D01*
X98452380Y-51514285D01*
X98452380Y-50609523D02*
X98452380Y-50419047D01*
X98404761Y-50323809D01*
X98357142Y-50276190D01*
X98214285Y-50180952D01*
X98023809Y-50133333D01*
X97642857Y-50133333D01*
X97547619Y-50180952D01*
X97500000Y-50228571D01*
X97452380Y-50323809D01*
X97452380Y-50514285D01*
X97500000Y-50609523D01*
X97547619Y-50657142D01*
X97642857Y-50704761D01*
X97880952Y-50704761D01*
X97976190Y-50657142D01*
X98023809Y-50609523D01*
X98071428Y-50514285D01*
X98071428Y-50323809D01*
X98023809Y-50228571D01*
X97976190Y-50180952D01*
X97880952Y-50133333D01*
%TO.C,J10*%
X122852380Y-51609523D02*
X123566666Y-51609523D01*
X123709523Y-51657142D01*
X123804761Y-51752380D01*
X123852380Y-51895238D01*
X123852380Y-51990476D01*
X123852380Y-50609523D02*
X123852380Y-51180952D01*
X123852380Y-50895238D02*
X122852380Y-50895238D01*
X122995238Y-50990476D01*
X123090476Y-51085714D01*
X123138095Y-51180952D01*
X122852380Y-49990476D02*
X122852380Y-49895238D01*
X122900000Y-49800000D01*
X122947619Y-49752380D01*
X123042857Y-49704761D01*
X123233333Y-49657142D01*
X123471428Y-49657142D01*
X123661904Y-49704761D01*
X123757142Y-49752380D01*
X123804761Y-49800000D01*
X123852380Y-49895238D01*
X123852380Y-49990476D01*
X123804761Y-50085714D01*
X123757142Y-50133333D01*
X123661904Y-50180952D01*
X123471428Y-50228571D01*
X123233333Y-50228571D01*
X123042857Y-50180952D01*
X122947619Y-50133333D01*
X122900000Y-50085714D01*
X122852380Y-49990476D01*
%TO.C,LEDs1*%
X134862380Y-131063809D02*
X134862380Y-131540000D01*
X133862380Y-131540000D01*
X134338571Y-130730476D02*
X134338571Y-130397142D01*
X134862380Y-130254285D02*
X134862380Y-130730476D01*
X133862380Y-130730476D01*
X133862380Y-130254285D01*
X134862380Y-129825714D02*
X133862380Y-129825714D01*
X133862380Y-129587619D01*
X133910000Y-129444761D01*
X134005238Y-129349523D01*
X134100476Y-129301904D01*
X134290952Y-129254285D01*
X134433809Y-129254285D01*
X134624285Y-129301904D01*
X134719523Y-129349523D01*
X134814761Y-129444761D01*
X134862380Y-129587619D01*
X134862380Y-129825714D01*
X134814761Y-128873333D02*
X134862380Y-128778095D01*
X134862380Y-128587619D01*
X134814761Y-128492380D01*
X134719523Y-128444761D01*
X134671904Y-128444761D01*
X134576666Y-128492380D01*
X134529047Y-128587619D01*
X134529047Y-128730476D01*
X134481428Y-128825714D01*
X134386190Y-128873333D01*
X134338571Y-128873333D01*
X134243333Y-128825714D01*
X134195714Y-128730476D01*
X134195714Y-128587619D01*
X134243333Y-128492380D01*
X134862380Y-127492380D02*
X134862380Y-128063809D01*
X134862380Y-127778095D02*
X133862380Y-127778095D01*
X134005238Y-127873333D01*
X134100476Y-127968571D01*
X134148095Y-128063809D01*
%TO.C,BTNs1*%
X143065714Y-109358571D02*
X143208571Y-109406190D01*
X143256190Y-109453809D01*
X143303809Y-109549047D01*
X143303809Y-109691904D01*
X143256190Y-109787142D01*
X143208571Y-109834761D01*
X143113333Y-109882380D01*
X142732380Y-109882380D01*
X142732380Y-108882380D01*
X143065714Y-108882380D01*
X143160952Y-108930000D01*
X143208571Y-108977619D01*
X143256190Y-109072857D01*
X143256190Y-109168095D01*
X143208571Y-109263333D01*
X143160952Y-109310952D01*
X143065714Y-109358571D01*
X142732380Y-109358571D01*
X143589523Y-108882380D02*
X144160952Y-108882380D01*
X143875238Y-109882380D02*
X143875238Y-108882380D01*
X144494285Y-109882380D02*
X144494285Y-108882380D01*
X145065714Y-109882380D01*
X145065714Y-108882380D01*
X145494285Y-109834761D02*
X145589523Y-109882380D01*
X145780000Y-109882380D01*
X145875238Y-109834761D01*
X145922857Y-109739523D01*
X145922857Y-109691904D01*
X145875238Y-109596666D01*
X145780000Y-109549047D01*
X145637142Y-109549047D01*
X145541904Y-109501428D01*
X145494285Y-109406190D01*
X145494285Y-109358571D01*
X145541904Y-109263333D01*
X145637142Y-109215714D01*
X145780000Y-109215714D01*
X145875238Y-109263333D01*
X146875238Y-109882380D02*
X146303809Y-109882380D01*
X146589523Y-109882380D02*
X146589523Y-108882380D01*
X146494285Y-109025238D01*
X146399047Y-109120476D01*
X146303809Y-109168095D01*
%TO.C,J15*%
X147780476Y-108882380D02*
X147780476Y-109596666D01*
X147732857Y-109739523D01*
X147637619Y-109834761D01*
X147494761Y-109882380D01*
X147399523Y-109882380D01*
X148780476Y-109882380D02*
X148209047Y-109882380D01*
X148494761Y-109882380D02*
X148494761Y-108882380D01*
X148399523Y-109025238D01*
X148304285Y-109120476D01*
X148209047Y-109168095D01*
X149685238Y-108882380D02*
X149209047Y-108882380D01*
X149161428Y-109358571D01*
X149209047Y-109310952D01*
X149304285Y-109263333D01*
X149542380Y-109263333D01*
X149637619Y-109310952D01*
X149685238Y-109358571D01*
X149732857Y-109453809D01*
X149732857Y-109691904D01*
X149685238Y-109787142D01*
X149637619Y-109834761D01*
X149542380Y-109882380D01*
X149304285Y-109882380D01*
X149209047Y-109834761D01*
X149161428Y-109787142D01*
%TO.C,J16*%
X133862380Y-134159523D02*
X134576666Y-134159523D01*
X134719523Y-134207142D01*
X134814761Y-134302380D01*
X134862380Y-134445238D01*
X134862380Y-134540476D01*
X134862380Y-133159523D02*
X134862380Y-133730952D01*
X134862380Y-133445238D02*
X133862380Y-133445238D01*
X134005238Y-133540476D01*
X134100476Y-133635714D01*
X134148095Y-133730952D01*
X133862380Y-132302380D02*
X133862380Y-132492857D01*
X133910000Y-132588095D01*
X133957619Y-132635714D01*
X134100476Y-132730952D01*
X134290952Y-132778571D01*
X134671904Y-132778571D01*
X134767142Y-132730952D01*
X134814761Y-132683333D01*
X134862380Y-132588095D01*
X134862380Y-132397619D01*
X134814761Y-132302380D01*
X134767142Y-132254761D01*
X134671904Y-132207142D01*
X134433809Y-132207142D01*
X134338571Y-132254761D01*
X134290952Y-132302380D01*
X134243333Y-132397619D01*
X134243333Y-132588095D01*
X134290952Y-132683333D01*
X134338571Y-132730952D01*
X134433809Y-132778571D01*
%TO.C,J19*%
X72052380Y-47799523D02*
X72766666Y-47799523D01*
X72909523Y-47847142D01*
X73004761Y-47942380D01*
X73052380Y-48085238D01*
X73052380Y-48180476D01*
X73052380Y-46799523D02*
X73052380Y-47370952D01*
X73052380Y-47085238D02*
X72052380Y-47085238D01*
X72195238Y-47180476D01*
X72290476Y-47275714D01*
X72338095Y-47370952D01*
X73052380Y-46323333D02*
X73052380Y-46132857D01*
X73004761Y-46037619D01*
X72957142Y-45990000D01*
X72814285Y-45894761D01*
X72623809Y-45847142D01*
X72242857Y-45847142D01*
X72147619Y-45894761D01*
X72100000Y-45942380D01*
X72052380Y-46037619D01*
X72052380Y-46228095D01*
X72100000Y-46323333D01*
X72147619Y-46370952D01*
X72242857Y-46418571D01*
X72480952Y-46418571D01*
X72576190Y-46370952D01*
X72623809Y-46323333D01*
X72671428Y-46228095D01*
X72671428Y-46037619D01*
X72623809Y-45942380D01*
X72576190Y-45894761D01*
X72480952Y-45847142D01*
%TO.C,J20*%
X72052380Y-51609523D02*
X72766666Y-51609523D01*
X72909523Y-51657142D01*
X73004761Y-51752380D01*
X73052380Y-51895238D01*
X73052380Y-51990476D01*
X72147619Y-51180952D02*
X72100000Y-51133333D01*
X72052380Y-51038095D01*
X72052380Y-50800000D01*
X72100000Y-50704761D01*
X72147619Y-50657142D01*
X72242857Y-50609523D01*
X72338095Y-50609523D01*
X72480952Y-50657142D01*
X73052380Y-51228571D01*
X73052380Y-50609523D01*
X72052380Y-49990476D02*
X72052380Y-49895238D01*
X72100000Y-49800000D01*
X72147619Y-49752380D01*
X72242857Y-49704761D01*
X72433333Y-49657142D01*
X72671428Y-49657142D01*
X72861904Y-49704761D01*
X72957142Y-49752380D01*
X73004761Y-49800000D01*
X73052380Y-49895238D01*
X73052380Y-49990476D01*
X73004761Y-50085714D01*
X72957142Y-50133333D01*
X72861904Y-50180952D01*
X72671428Y-50228571D01*
X72433333Y-50228571D01*
X72242857Y-50180952D01*
X72147619Y-50133333D01*
X72100000Y-50085714D01*
X72052380Y-49990476D01*
%TO.C,T+|GND|R-1*%
X85193809Y-122852380D02*
X85765238Y-122852380D01*
X85479523Y-123852380D02*
X85479523Y-122852380D01*
X86098571Y-123471428D02*
X86860476Y-123471428D01*
X86479523Y-123852380D02*
X86479523Y-123090476D01*
X87574761Y-124185714D02*
X87574761Y-122757142D01*
X88812857Y-122900000D02*
X88717619Y-122852380D01*
X88574761Y-122852380D01*
X88431904Y-122900000D01*
X88336666Y-122995238D01*
X88289047Y-123090476D01*
X88241428Y-123280952D01*
X88241428Y-123423809D01*
X88289047Y-123614285D01*
X88336666Y-123709523D01*
X88431904Y-123804761D01*
X88574761Y-123852380D01*
X88670000Y-123852380D01*
X88812857Y-123804761D01*
X88860476Y-123757142D01*
X88860476Y-123423809D01*
X88670000Y-123423809D01*
X89289047Y-123852380D02*
X89289047Y-122852380D01*
X89860476Y-123852380D01*
X89860476Y-122852380D01*
X90336666Y-123852380D02*
X90336666Y-122852380D01*
X90574761Y-122852380D01*
X90717619Y-122900000D01*
X90812857Y-122995238D01*
X90860476Y-123090476D01*
X90908095Y-123280952D01*
X90908095Y-123423809D01*
X90860476Y-123614285D01*
X90812857Y-123709523D01*
X90717619Y-123804761D01*
X90574761Y-123852380D01*
X90336666Y-123852380D01*
X91574761Y-124185714D02*
X91574761Y-122757142D01*
X92860476Y-123852380D02*
X92527142Y-123376190D01*
X92289047Y-123852380D02*
X92289047Y-122852380D01*
X92670000Y-122852380D01*
X92765238Y-122900000D01*
X92812857Y-122947619D01*
X92860476Y-123042857D01*
X92860476Y-123185714D01*
X92812857Y-123280952D01*
X92765238Y-123328571D01*
X92670000Y-123376190D01*
X92289047Y-123376190D01*
X93289047Y-123471428D02*
X94050952Y-123471428D01*
X95050952Y-123852380D02*
X94479523Y-123852380D01*
X94765238Y-123852380D02*
X94765238Y-122852380D01*
X94670000Y-122995238D01*
X94574761Y-123090476D01*
X94479523Y-123138095D01*
%TO.C,R+|LED|T-1*%
X82264761Y-133592380D02*
X81931428Y-133116190D01*
X81693333Y-133592380D02*
X81693333Y-132592380D01*
X82074285Y-132592380D01*
X82169523Y-132640000D01*
X82217142Y-132687619D01*
X82264761Y-132782857D01*
X82264761Y-132925714D01*
X82217142Y-133020952D01*
X82169523Y-133068571D01*
X82074285Y-133116190D01*
X81693333Y-133116190D01*
X82693333Y-133211428D02*
X83455238Y-133211428D01*
X83074285Y-133592380D02*
X83074285Y-132830476D01*
X84169523Y-133925714D02*
X84169523Y-132497142D01*
X85360000Y-133592380D02*
X84883809Y-133592380D01*
X84883809Y-132592380D01*
X85693333Y-133068571D02*
X86026666Y-133068571D01*
X86169523Y-133592380D02*
X85693333Y-133592380D01*
X85693333Y-132592380D01*
X86169523Y-132592380D01*
X86598095Y-133592380D02*
X86598095Y-132592380D01*
X86836190Y-132592380D01*
X86979047Y-132640000D01*
X87074285Y-132735238D01*
X87121904Y-132830476D01*
X87169523Y-133020952D01*
X87169523Y-133163809D01*
X87121904Y-133354285D01*
X87074285Y-133449523D01*
X86979047Y-133544761D01*
X86836190Y-133592380D01*
X86598095Y-133592380D01*
X87836190Y-133925714D02*
X87836190Y-132497142D01*
X88407619Y-132592380D02*
X88979047Y-132592380D01*
X88693333Y-133592380D02*
X88693333Y-132592380D01*
X89312380Y-133211428D02*
X90074285Y-133211428D01*
X91074285Y-133592380D02*
X90502857Y-133592380D01*
X90788571Y-133592380D02*
X90788571Y-132592380D01*
X90693333Y-132735238D01*
X90598095Y-132830476D01*
X90502857Y-132878095D01*
%TO.C,J5*%
X116082380Y-133683333D02*
X116796666Y-133683333D01*
X116939523Y-133730952D01*
X117034761Y-133826190D01*
X117082380Y-133969047D01*
X117082380Y-134064285D01*
X116082380Y-132730952D02*
X116082380Y-133207142D01*
X116558571Y-133254761D01*
X116510952Y-133207142D01*
X116463333Y-133111904D01*
X116463333Y-132873809D01*
X116510952Y-132778571D01*
X116558571Y-132730952D01*
X116653809Y-132683333D01*
X116891904Y-132683333D01*
X116987142Y-132730952D01*
X117034761Y-132778571D01*
X117082380Y-132873809D01*
X117082380Y-133111904D01*
X117034761Y-133207142D01*
X116987142Y-133254761D01*
%TO.C,J6*%
X116082380Y-120983333D02*
X116796666Y-120983333D01*
X116939523Y-121030952D01*
X117034761Y-121126190D01*
X117082380Y-121269047D01*
X117082380Y-121364285D01*
X116082380Y-120078571D02*
X116082380Y-120269047D01*
X116130000Y-120364285D01*
X116177619Y-120411904D01*
X116320476Y-120507142D01*
X116510952Y-120554761D01*
X116891904Y-120554761D01*
X116987142Y-120507142D01*
X117034761Y-120459523D01*
X117082380Y-120364285D01*
X117082380Y-120173809D01*
X117034761Y-120078571D01*
X116987142Y-120030952D01*
X116891904Y-119983333D01*
X116653809Y-119983333D01*
X116558571Y-120030952D01*
X116510952Y-120078571D01*
X116463333Y-120173809D01*
X116463333Y-120364285D01*
X116510952Y-120459523D01*
X116558571Y-120507142D01*
X116653809Y-120554761D01*
%TO.C,VUs1*%
X116082380Y-118578095D02*
X117082380Y-118244761D01*
X116082380Y-117911428D01*
X116082380Y-117578095D02*
X116891904Y-117578095D01*
X116987142Y-117530476D01*
X117034761Y-117482857D01*
X117082380Y-117387619D01*
X117082380Y-117197142D01*
X117034761Y-117101904D01*
X116987142Y-117054285D01*
X116891904Y-117006666D01*
X116082380Y-117006666D01*
X117034761Y-116578095D02*
X117082380Y-116482857D01*
X117082380Y-116292380D01*
X117034761Y-116197142D01*
X116939523Y-116149523D01*
X116891904Y-116149523D01*
X116796666Y-116197142D01*
X116749047Y-116292380D01*
X116749047Y-116435238D01*
X116701428Y-116530476D01*
X116606190Y-116578095D01*
X116558571Y-116578095D01*
X116463333Y-116530476D01*
X116415714Y-116435238D01*
X116415714Y-116292380D01*
X116463333Y-116197142D01*
X117082380Y-115197142D02*
X117082380Y-115768571D01*
X117082380Y-115482857D02*
X116082380Y-115482857D01*
X116225238Y-115578095D01*
X116320476Y-115673333D01*
X116368095Y-115768571D01*
%TO.C,VUVs1*%
X116082380Y-131706666D02*
X117082380Y-131373333D01*
X116082380Y-131040000D01*
X116082380Y-130706666D02*
X116891904Y-130706666D01*
X116987142Y-130659047D01*
X117034761Y-130611428D01*
X117082380Y-130516190D01*
X117082380Y-130325714D01*
X117034761Y-130230476D01*
X116987142Y-130182857D01*
X116891904Y-130135238D01*
X116082380Y-130135238D01*
X116082380Y-129801904D02*
X117082380Y-129468571D01*
X116082380Y-129135238D01*
X117034761Y-128849523D02*
X117082380Y-128754285D01*
X117082380Y-128563809D01*
X117034761Y-128468571D01*
X116939523Y-128420952D01*
X116891904Y-128420952D01*
X116796666Y-128468571D01*
X116749047Y-128563809D01*
X116749047Y-128706666D01*
X116701428Y-128801904D01*
X116606190Y-128849523D01*
X116558571Y-128849523D01*
X116463333Y-128801904D01*
X116415714Y-128706666D01*
X116415714Y-128563809D01*
X116463333Y-128468571D01*
X117082380Y-127468571D02*
X117082380Y-128040000D01*
X117082380Y-127754285D02*
X116082380Y-127754285D01*
X116225238Y-127849523D01*
X116320476Y-127944761D01*
X116368095Y-128040000D01*
%TO.C,R1*%
X126012380Y-119546666D02*
X125536190Y-119880000D01*
X126012380Y-120118095D02*
X125012380Y-120118095D01*
X125012380Y-119737142D01*
X125060000Y-119641904D01*
X125107619Y-119594285D01*
X125202857Y-119546666D01*
X125345714Y-119546666D01*
X125440952Y-119594285D01*
X125488571Y-119641904D01*
X125536190Y-119737142D01*
X125536190Y-120118095D01*
X126012380Y-118594285D02*
X126012380Y-119165714D01*
X126012380Y-118880000D02*
X125012380Y-118880000D01*
X125155238Y-118975238D01*
X125250476Y-119070476D01*
X125298095Y-119165714D01*
%TO.C,R2*%
X129822380Y-119546666D02*
X129346190Y-119880000D01*
X129822380Y-120118095D02*
X128822380Y-120118095D01*
X128822380Y-119737142D01*
X128870000Y-119641904D01*
X128917619Y-119594285D01*
X129012857Y-119546666D01*
X129155714Y-119546666D01*
X129250952Y-119594285D01*
X129298571Y-119641904D01*
X129346190Y-119737142D01*
X129346190Y-120118095D01*
X128917619Y-119165714D02*
X128870000Y-119118095D01*
X128822380Y-119022857D01*
X128822380Y-118784761D01*
X128870000Y-118689523D01*
X128917619Y-118641904D01*
X129012857Y-118594285D01*
X129108095Y-118594285D01*
X129250952Y-118641904D01*
X129822380Y-119213333D01*
X129822380Y-118594285D01*
%TO.C,R3*%
X133632380Y-119546666D02*
X133156190Y-119880000D01*
X133632380Y-120118095D02*
X132632380Y-120118095D01*
X132632380Y-119737142D01*
X132680000Y-119641904D01*
X132727619Y-119594285D01*
X132822857Y-119546666D01*
X132965714Y-119546666D01*
X133060952Y-119594285D01*
X133108571Y-119641904D01*
X133156190Y-119737142D01*
X133156190Y-120118095D01*
X132632380Y-119213333D02*
X132632380Y-118594285D01*
X133013333Y-118927619D01*
X133013333Y-118784761D01*
X133060952Y-118689523D01*
X133108571Y-118641904D01*
X133203809Y-118594285D01*
X133441904Y-118594285D01*
X133537142Y-118641904D01*
X133584761Y-118689523D01*
X133632380Y-118784761D01*
X133632380Y-119070476D01*
X133584761Y-119165714D01*
X133537142Y-119213333D01*
%TO.C,R4*%
X137442380Y-119546666D02*
X136966190Y-119880000D01*
X137442380Y-120118095D02*
X136442380Y-120118095D01*
X136442380Y-119737142D01*
X136490000Y-119641904D01*
X136537619Y-119594285D01*
X136632857Y-119546666D01*
X136775714Y-119546666D01*
X136870952Y-119594285D01*
X136918571Y-119641904D01*
X136966190Y-119737142D01*
X136966190Y-120118095D01*
X136775714Y-118689523D02*
X137442380Y-118689523D01*
X136394761Y-118927619D02*
X137109047Y-119165714D01*
X137109047Y-118546666D01*
%TO.C,R5*%
X122202380Y-119546666D02*
X121726190Y-119880000D01*
X122202380Y-120118095D02*
X121202380Y-120118095D01*
X121202380Y-119737142D01*
X121250000Y-119641904D01*
X121297619Y-119594285D01*
X121392857Y-119546666D01*
X121535714Y-119546666D01*
X121630952Y-119594285D01*
X121678571Y-119641904D01*
X121726190Y-119737142D01*
X121726190Y-120118095D01*
X121202380Y-118641904D02*
X121202380Y-119118095D01*
X121678571Y-119165714D01*
X121630952Y-119118095D01*
X121583333Y-119022857D01*
X121583333Y-118784761D01*
X121630952Y-118689523D01*
X121678571Y-118641904D01*
X121773809Y-118594285D01*
X122011904Y-118594285D01*
X122107142Y-118641904D01*
X122154761Y-118689523D01*
X122202380Y-118784761D01*
X122202380Y-119022857D01*
X122154761Y-119118095D01*
X122107142Y-119165714D01*
%TO.C,D0-7*%
X80672380Y-113593333D02*
X79672380Y-113593333D01*
X79672380Y-113355238D01*
X79720000Y-113212380D01*
X79815238Y-113117142D01*
X79910476Y-113069523D01*
X80100952Y-113021904D01*
X80243809Y-113021904D01*
X80434285Y-113069523D01*
X80529523Y-113117142D01*
X80624761Y-113212380D01*
X80672380Y-113355238D01*
X80672380Y-113593333D01*
X79672380Y-112402857D02*
X79672380Y-112307619D01*
X79720000Y-112212380D01*
X79767619Y-112164761D01*
X79862857Y-112117142D01*
X80053333Y-112069523D01*
X80291428Y-112069523D01*
X80481904Y-112117142D01*
X80577142Y-112164761D01*
X80624761Y-112212380D01*
X80672380Y-112307619D01*
X80672380Y-112402857D01*
X80624761Y-112498095D01*
X80577142Y-112545714D01*
X80481904Y-112593333D01*
X80291428Y-112640952D01*
X80053333Y-112640952D01*
X79862857Y-112593333D01*
X79767619Y-112545714D01*
X79720000Y-112498095D01*
X79672380Y-112402857D01*
X80291428Y-111640952D02*
X80291428Y-110879047D01*
X79672380Y-110498095D02*
X79672380Y-109831428D01*
X80672380Y-110260000D01*
%TO.C,A5-9*%
X100286666Y-90709523D02*
X100286666Y-90233333D01*
X100572380Y-90804761D02*
X99572380Y-90471428D01*
X100572380Y-90138095D01*
X99572380Y-89328571D02*
X99572380Y-89804761D01*
X100048571Y-89852380D01*
X100000952Y-89804761D01*
X99953333Y-89709523D01*
X99953333Y-89471428D01*
X100000952Y-89376190D01*
X100048571Y-89328571D01*
X100143809Y-89280952D01*
X100381904Y-89280952D01*
X100477142Y-89328571D01*
X100524761Y-89376190D01*
X100572380Y-89471428D01*
X100572380Y-89709523D01*
X100524761Y-89804761D01*
X100477142Y-89852380D01*
X100191428Y-88852380D02*
X100191428Y-88090476D01*
X100572380Y-87566666D02*
X100572380Y-87376190D01*
X100524761Y-87280952D01*
X100477142Y-87233333D01*
X100334285Y-87138095D01*
X100143809Y-87090476D01*
X99762857Y-87090476D01*
X99667619Y-87138095D01*
X99620000Y-87185714D01*
X99572380Y-87280952D01*
X99572380Y-87471428D01*
X99620000Y-87566666D01*
X99667619Y-87614285D01*
X99762857Y-87661904D01*
X100000952Y-87661904D01*
X100096190Y-87614285D01*
X100143809Y-87566666D01*
X100191428Y-87471428D01*
X100191428Y-87280952D01*
X100143809Y-87185714D01*
X100096190Y-87138095D01*
X100000952Y-87090476D01*
%TO.C,J11*%
X65350476Y-111242380D02*
X65350476Y-111956666D01*
X65302857Y-112099523D01*
X65207619Y-112194761D01*
X65064761Y-112242380D01*
X64969523Y-112242380D01*
X66350476Y-112242380D02*
X65779047Y-112242380D01*
X66064761Y-112242380D02*
X66064761Y-111242380D01*
X65969523Y-111385238D01*
X65874285Y-111480476D01*
X65779047Y-111528095D01*
X67302857Y-112242380D02*
X66731428Y-112242380D01*
X67017142Y-112242380D02*
X67017142Y-111242380D01*
X66921904Y-111385238D01*
X66826666Y-111480476D01*
X66731428Y-111528095D01*
%TO.C,A5-1*%
X100286666Y-86899523D02*
X100286666Y-86423333D01*
X100572380Y-86994761D02*
X99572380Y-86661428D01*
X100572380Y-86328095D01*
X99572380Y-85518571D02*
X99572380Y-85994761D01*
X100048571Y-86042380D01*
X100000952Y-85994761D01*
X99953333Y-85899523D01*
X99953333Y-85661428D01*
X100000952Y-85566190D01*
X100048571Y-85518571D01*
X100143809Y-85470952D01*
X100381904Y-85470952D01*
X100477142Y-85518571D01*
X100524761Y-85566190D01*
X100572380Y-85661428D01*
X100572380Y-85899523D01*
X100524761Y-85994761D01*
X100477142Y-86042380D01*
X100191428Y-85042380D02*
X100191428Y-84280476D01*
X100572380Y-83280476D02*
X100572380Y-83851904D01*
X100572380Y-83566190D02*
X99572380Y-83566190D01*
X99715238Y-83661428D01*
X99810476Y-83756666D01*
X99858095Y-83851904D01*
%TO.C,J12*%
X79672380Y-116379523D02*
X80386666Y-116379523D01*
X80529523Y-116427142D01*
X80624761Y-116522380D01*
X80672380Y-116665238D01*
X80672380Y-116760476D01*
X80672380Y-115379523D02*
X80672380Y-115950952D01*
X80672380Y-115665238D02*
X79672380Y-115665238D01*
X79815238Y-115760476D01*
X79910476Y-115855714D01*
X79958095Y-115950952D01*
X79767619Y-114998571D02*
X79720000Y-114950952D01*
X79672380Y-114855714D01*
X79672380Y-114617619D01*
X79720000Y-114522380D01*
X79767619Y-114474761D01*
X79862857Y-114427142D01*
X79958095Y-114427142D01*
X80100952Y-114474761D01*
X80672380Y-115046190D01*
X80672380Y-114427142D01*
%TO.C,J13*%
X81142380Y-129714523D02*
X81856666Y-129714523D01*
X81999523Y-129762142D01*
X82094761Y-129857380D01*
X82142380Y-130000238D01*
X82142380Y-130095476D01*
X82142380Y-128714523D02*
X82142380Y-129285952D01*
X82142380Y-129000238D02*
X81142380Y-129000238D01*
X81285238Y-129095476D01*
X81380476Y-129190714D01*
X81428095Y-129285952D01*
X81142380Y-128381190D02*
X81142380Y-127762142D01*
X81523333Y-128095476D01*
X81523333Y-127952619D01*
X81570952Y-127857380D01*
X81618571Y-127809761D01*
X81713809Y-127762142D01*
X81951904Y-127762142D01*
X82047142Y-127809761D01*
X82094761Y-127857380D01*
X82142380Y-127952619D01*
X82142380Y-128238333D01*
X82094761Y-128333571D01*
X82047142Y-128381190D01*
%TO.C,C1*%
X68533333Y-119297142D02*
X68485714Y-119344761D01*
X68342857Y-119392380D01*
X68247619Y-119392380D01*
X68104761Y-119344761D01*
X68009523Y-119249523D01*
X67961904Y-119154285D01*
X67914285Y-118963809D01*
X67914285Y-118820952D01*
X67961904Y-118630476D01*
X68009523Y-118535238D01*
X68104761Y-118440000D01*
X68247619Y-118392380D01*
X68342857Y-118392380D01*
X68485714Y-118440000D01*
X68533333Y-118487619D01*
X69485714Y-119392380D02*
X68914285Y-119392380D01*
X69200000Y-119392380D02*
X69200000Y-118392380D01*
X69104761Y-118535238D01*
X69009523Y-118630476D01*
X68914285Y-118678095D01*
%TD*%
M02*
