%TF.GenerationSoftware,KiCad,Pcbnew,(5.1.7-0-10_14)*%
%TF.CreationDate,2020-11-02T21:12:23+01:00*%
%TF.ProjectId,controller_motion_pcb,636f6e74-726f-46c6-9c65-725f6d6f7469,rev?*%
%TF.SameCoordinates,Original*%
%TF.FileFunction,Soldermask,Top*%
%TF.FilePolarity,Negative*%
%FSLAX46Y46*%
G04 Gerber Fmt 4.6, Leading zero omitted, Abs format (unit mm)*
G04 Created by KiCad (PCBNEW (5.1.7-0-10_14)) date 2020-11-02 21:12:23*
%MOMM*%
%LPD*%
G01*
G04 APERTURE LIST*
%ADD10C,1.600000*%
%ADD11R,1.600000X1.600000*%
%ADD12C,0.800000*%
%ADD13C,6.400000*%
%ADD14C,1.700000*%
%ADD15O,1.700000X1.950000*%
%ADD16R,1.700000X1.700000*%
%ADD17O,1.700000X1.700000*%
%ADD18O,1.600000X1.600000*%
G04 APERTURE END LIST*
D10*
%TO.C,CTR1*%
X122255001Y-66585001D03*
X124795001Y-66585001D03*
X127335001Y-66585001D03*
X129875001Y-66585001D03*
X119715001Y-66585001D03*
X117175001Y-66585001D03*
X114635001Y-66585001D03*
X132415001Y-66585001D03*
X134955001Y-66585001D03*
X137495001Y-66585001D03*
X140035001Y-66585001D03*
X140035001Y-51345001D03*
X137495001Y-51345001D03*
X134955001Y-51345001D03*
X132415001Y-51345001D03*
X129875001Y-51345001D03*
X127335001Y-51345001D03*
X124795001Y-51345001D03*
X122255001Y-51345001D03*
X119715001Y-51345001D03*
X117175001Y-51345001D03*
X112095001Y-66585001D03*
X109555001Y-66585001D03*
X107015001Y-66585001D03*
X104475001Y-66585001D03*
X101935001Y-66585001D03*
X99395001Y-66585001D03*
X96855001Y-66585001D03*
X94315001Y-66585001D03*
X91775001Y-66585001D03*
X89235001Y-66585001D03*
X86695001Y-66585001D03*
X84155001Y-66585001D03*
D11*
X81615001Y-66585001D03*
D10*
X114635001Y-51345001D03*
X112095001Y-51345001D03*
X109555001Y-51345001D03*
X107015001Y-51345001D03*
X104475001Y-51345001D03*
X101935001Y-51345001D03*
X99395001Y-51345001D03*
X96855001Y-51345001D03*
X94315001Y-51345001D03*
X91775001Y-51345001D03*
X89235001Y-51345001D03*
X86695001Y-51345001D03*
X84155001Y-51345001D03*
X81615001Y-51345001D03*
%TD*%
D12*
%TO.C,REF\u002A\u002A*%
X84197056Y-81302944D03*
X82500000Y-80600000D03*
X80802944Y-81302944D03*
X80100000Y-83000000D03*
X80802944Y-84697056D03*
X82500000Y-85400000D03*
X84197056Y-84697056D03*
X84900000Y-83000000D03*
D13*
X82500000Y-83000000D03*
%TD*%
D12*
%TO.C,REF\u002A\u002A*%
X84197056Y-35302944D03*
X82500000Y-34600000D03*
X80802944Y-35302944D03*
X80100000Y-37000000D03*
X80802944Y-38697056D03*
X82500000Y-39400000D03*
X84197056Y-38697056D03*
X84900000Y-37000000D03*
D13*
X82500000Y-37000000D03*
%TD*%
D12*
%TO.C,REF\u002A\u002A*%
X189197056Y-81302944D03*
X187500000Y-80600000D03*
X185802944Y-81302944D03*
X185100000Y-83000000D03*
X185802944Y-84697056D03*
X187500000Y-85400000D03*
X189197056Y-84697056D03*
X189900000Y-83000000D03*
D13*
X187500000Y-83000000D03*
%TD*%
D12*
%TO.C,REF\u002A\u002A*%
X189197056Y-35302944D03*
X187500000Y-34600000D03*
X185802944Y-35302944D03*
X185100000Y-37000000D03*
X185802944Y-38697056D03*
X187500000Y-39400000D03*
X189197056Y-38697056D03*
X189900000Y-37000000D03*
D13*
X187500000Y-37000000D03*
%TD*%
%TO.C,BtnMx1*%
G36*
G01*
X182650000Y-49100000D02*
X182650000Y-47900000D01*
G75*
G02*
X182900000Y-47650000I250000J0D01*
G01*
X184100000Y-47650000D01*
G75*
G02*
X184350000Y-47900000I0J-250000D01*
G01*
X184350000Y-49100000D01*
G75*
G02*
X184100000Y-49350000I-250000J0D01*
G01*
X182900000Y-49350000D01*
G75*
G02*
X182650000Y-49100000I0J250000D01*
G01*
G37*
D14*
X183500000Y-51040000D03*
X183500000Y-53580000D03*
X183500000Y-56120000D03*
X183500000Y-58660000D03*
X183500000Y-61200000D03*
X183500000Y-63740000D03*
X183500000Y-66280000D03*
X183500000Y-68820000D03*
X183500000Y-71360000D03*
X186040000Y-48500000D03*
X186040000Y-51040000D03*
X186040000Y-53580000D03*
X186040000Y-56120000D03*
X186040000Y-58660000D03*
X186040000Y-61200000D03*
X186040000Y-63740000D03*
X186040000Y-66280000D03*
X186040000Y-68820000D03*
X186040000Y-71360000D03*
%TD*%
%TO.C,ENC0*%
G36*
G01*
X88150000Y-71725000D02*
X88150000Y-70275000D01*
G75*
G02*
X88400000Y-70025000I250000J0D01*
G01*
X89600000Y-70025000D01*
G75*
G02*
X89850000Y-70275000I0J-250000D01*
G01*
X89850000Y-71725000D01*
G75*
G02*
X89600000Y-71975000I-250000J0D01*
G01*
X88400000Y-71975000D01*
G75*
G02*
X88150000Y-71725000I0J250000D01*
G01*
G37*
D15*
X91500000Y-71000000D03*
X94000000Y-71000000D03*
X96500000Y-71000000D03*
X99000000Y-71000000D03*
%TD*%
%TO.C,ENC1*%
X104000000Y-77500000D03*
X101500000Y-77500000D03*
X99000000Y-77500000D03*
X96500000Y-77500000D03*
G36*
G01*
X93150000Y-78225000D02*
X93150000Y-76775000D01*
G75*
G02*
X93400000Y-76525000I250000J0D01*
G01*
X94600000Y-76525000D01*
G75*
G02*
X94850000Y-76775000I0J-250000D01*
G01*
X94850000Y-78225000D01*
G75*
G02*
X94600000Y-78475000I-250000J0D01*
G01*
X93400000Y-78475000D01*
G75*
G02*
X93150000Y-78225000I0J250000D01*
G01*
G37*
%TD*%
%TO.C,ENC2*%
G36*
G01*
X111150000Y-78225000D02*
X111150000Y-76775000D01*
G75*
G02*
X111400000Y-76525000I250000J0D01*
G01*
X112600000Y-76525000D01*
G75*
G02*
X112850000Y-76775000I0J-250000D01*
G01*
X112850000Y-78225000D01*
G75*
G02*
X112600000Y-78475000I-250000J0D01*
G01*
X111400000Y-78475000D01*
G75*
G02*
X111150000Y-78225000I0J250000D01*
G01*
G37*
X114500000Y-77500000D03*
X117000000Y-77500000D03*
X119500000Y-77500000D03*
X122000000Y-77500000D03*
%TD*%
%TO.C,ENC3*%
X140000000Y-77500000D03*
X137500000Y-77500000D03*
X135000000Y-77500000D03*
X132500000Y-77500000D03*
G36*
G01*
X129150000Y-78225000D02*
X129150000Y-76775000D01*
G75*
G02*
X129400000Y-76525000I250000J0D01*
G01*
X130600000Y-76525000D01*
G75*
G02*
X130850000Y-76775000I0J-250000D01*
G01*
X130850000Y-78225000D01*
G75*
G02*
X130600000Y-78475000I-250000J0D01*
G01*
X129400000Y-78475000D01*
G75*
G02*
X129150000Y-78225000I0J250000D01*
G01*
G37*
%TD*%
D16*
%TO.C,J1*%
X107060000Y-70500000D03*
D17*
X109600000Y-70500000D03*
X112140000Y-70500000D03*
X114680000Y-70500000D03*
X117220000Y-70500000D03*
X119760000Y-70500000D03*
X122300000Y-70500000D03*
X124840000Y-70500000D03*
X127380000Y-70500000D03*
X129920000Y-70500000D03*
X132460000Y-70500000D03*
X135000000Y-70500000D03*
X137540000Y-70500000D03*
X140080000Y-70500000D03*
%TD*%
D16*
%TO.C,J3*%
X140000000Y-47500000D03*
D17*
X137460000Y-47500000D03*
X134920000Y-47500000D03*
X132380000Y-47500000D03*
X129840000Y-47500000D03*
X127300000Y-47500000D03*
X124760000Y-47500000D03*
X122220000Y-47500000D03*
X119680000Y-47500000D03*
X117140000Y-47500000D03*
X114600000Y-47500000D03*
X112060000Y-47500000D03*
X109520000Y-47500000D03*
X106980000Y-47500000D03*
X104440000Y-47500000D03*
%TD*%
D11*
%TO.C,mux1*%
X176000000Y-55500000D03*
D18*
X168380000Y-37720000D03*
X176000000Y-52960000D03*
X168380000Y-40260000D03*
X176000000Y-50420000D03*
X168380000Y-42800000D03*
X176000000Y-47880000D03*
X168380000Y-45340000D03*
X176000000Y-45340000D03*
X168380000Y-47880000D03*
X176000000Y-42800000D03*
X168380000Y-50420000D03*
X176000000Y-40260000D03*
X168380000Y-52960000D03*
X176000000Y-37720000D03*
X168380000Y-55500000D03*
%TD*%
%TO.C,mux2*%
X168380000Y-82000000D03*
X176000000Y-64220000D03*
X168380000Y-79460000D03*
X176000000Y-66760000D03*
X168380000Y-76920000D03*
X176000000Y-69300000D03*
X168380000Y-74380000D03*
X176000000Y-71840000D03*
X168380000Y-71840000D03*
X176000000Y-74380000D03*
X168380000Y-69300000D03*
X176000000Y-76920000D03*
X168380000Y-66760000D03*
X176000000Y-79460000D03*
X168380000Y-64220000D03*
D11*
X176000000Y-82000000D03*
%TD*%
%TO.C,mux3*%
X163500000Y-55500000D03*
D18*
X155880000Y-37720000D03*
X163500000Y-52960000D03*
X155880000Y-40260000D03*
X163500000Y-50420000D03*
X155880000Y-42800000D03*
X163500000Y-47880000D03*
X155880000Y-45340000D03*
X163500000Y-45340000D03*
X155880000Y-47880000D03*
X163500000Y-42800000D03*
X155880000Y-50420000D03*
X163500000Y-40260000D03*
X155880000Y-52960000D03*
X163500000Y-37720000D03*
X155880000Y-55500000D03*
%TD*%
%TO.C,mux4*%
X155880000Y-82000000D03*
X163500000Y-64220000D03*
X155880000Y-79460000D03*
X163500000Y-66760000D03*
X155880000Y-76920000D03*
X163500000Y-69300000D03*
X155880000Y-74380000D03*
X163500000Y-71840000D03*
X155880000Y-71840000D03*
X163500000Y-74380000D03*
X155880000Y-69300000D03*
X163500000Y-76920000D03*
X155880000Y-66760000D03*
X163500000Y-79460000D03*
X155880000Y-64220000D03*
D11*
X163500000Y-82000000D03*
%TD*%
%TO.C,P0*%
G36*
G01*
X91150000Y-45725000D02*
X91150000Y-44275000D01*
G75*
G02*
X91400000Y-44025000I250000J0D01*
G01*
X92600000Y-44025000D01*
G75*
G02*
X92850000Y-44275000I0J-250000D01*
G01*
X92850000Y-45725000D01*
G75*
G02*
X92600000Y-45975000I-250000J0D01*
G01*
X91400000Y-45975000D01*
G75*
G02*
X91150000Y-45725000I0J250000D01*
G01*
G37*
D15*
X94500000Y-45000000D03*
X97000000Y-45000000D03*
%TD*%
%TO.C,P1*%
X112000000Y-40500000D03*
X109500000Y-40500000D03*
G36*
G01*
X106150000Y-41225000D02*
X106150000Y-39775000D01*
G75*
G02*
X106400000Y-39525000I250000J0D01*
G01*
X107600000Y-39525000D01*
G75*
G02*
X107850000Y-39775000I0J-250000D01*
G01*
X107850000Y-41225000D01*
G75*
G02*
X107600000Y-41475000I-250000J0D01*
G01*
X106400000Y-41475000D01*
G75*
G02*
X106150000Y-41225000I0J250000D01*
G01*
G37*
%TD*%
%TO.C,P2*%
G36*
G01*
X118650000Y-41225000D02*
X118650000Y-39775000D01*
G75*
G02*
X118900000Y-39525000I250000J0D01*
G01*
X120100000Y-39525000D01*
G75*
G02*
X120350000Y-39775000I0J-250000D01*
G01*
X120350000Y-41225000D01*
G75*
G02*
X120100000Y-41475000I-250000J0D01*
G01*
X118900000Y-41475000D01*
G75*
G02*
X118650000Y-41225000I0J250000D01*
G01*
G37*
X122000000Y-40500000D03*
X124500000Y-40500000D03*
%TD*%
%TO.C,P3*%
X137000000Y-40500000D03*
X134500000Y-40500000D03*
G36*
G01*
X131150000Y-41225000D02*
X131150000Y-39775000D01*
G75*
G02*
X131400000Y-39525000I250000J0D01*
G01*
X132600000Y-39525000D01*
G75*
G02*
X132850000Y-39775000I0J-250000D01*
G01*
X132850000Y-41225000D01*
G75*
G02*
X132600000Y-41475000I-250000J0D01*
G01*
X131400000Y-41475000D01*
G75*
G02*
X131150000Y-41225000I0J250000D01*
G01*
G37*
%TD*%
%TO.C,P4*%
G36*
G01*
X145150000Y-50725000D02*
X145150000Y-49275000D01*
G75*
G02*
X145400000Y-49025000I250000J0D01*
G01*
X146600000Y-49025000D01*
G75*
G02*
X146850000Y-49275000I0J-250000D01*
G01*
X146850000Y-50725000D01*
G75*
G02*
X146600000Y-50975000I-250000J0D01*
G01*
X145400000Y-50975000D01*
G75*
G02*
X145150000Y-50725000I0J250000D01*
G01*
G37*
X148500000Y-50000000D03*
X151000000Y-50000000D03*
%TD*%
%TO.C,P5*%
X151055001Y-56325001D03*
X148555001Y-56325001D03*
G36*
G01*
X145205001Y-57050001D02*
X145205001Y-55600001D01*
G75*
G02*
X145455001Y-55350001I250000J0D01*
G01*
X146655001Y-55350001D01*
G75*
G02*
X146905001Y-55600001I0J-250000D01*
G01*
X146905001Y-57050001D01*
G75*
G02*
X146655001Y-57300001I-250000J0D01*
G01*
X145455001Y-57300001D01*
G75*
G02*
X145205001Y-57050001I0J250000D01*
G01*
G37*
%TD*%
%TO.C,P6*%
G36*
G01*
X145205001Y-62900001D02*
X145205001Y-61450001D01*
G75*
G02*
X145455001Y-61200001I250000J0D01*
G01*
X146655001Y-61200001D01*
G75*
G02*
X146905001Y-61450001I0J-250000D01*
G01*
X146905001Y-62900001D01*
G75*
G02*
X146655001Y-63150001I-250000J0D01*
G01*
X145455001Y-63150001D01*
G75*
G02*
X145205001Y-62900001I0J250000D01*
G01*
G37*
X148555001Y-62175001D03*
X151055001Y-62175001D03*
%TD*%
%TO.C,P7*%
X151000000Y-68500000D03*
X148500000Y-68500000D03*
G36*
G01*
X145150000Y-69225000D02*
X145150000Y-67775000D01*
G75*
G02*
X145400000Y-67525000I250000J0D01*
G01*
X146600000Y-67525000D01*
G75*
G02*
X146850000Y-67775000I0J-250000D01*
G01*
X146850000Y-69225000D01*
G75*
G02*
X146600000Y-69475000I-250000J0D01*
G01*
X145400000Y-69475000D01*
G75*
G02*
X145150000Y-69225000I0J250000D01*
G01*
G37*
%TD*%
M02*
