M48
; DRILL file {KiCad (5.1.7-0-10_14)} date Monday, November 02, 2020 at 10:01:29 AM
; FORMAT={-:-/ absolute / inch / decimal}
; #@! TF.CreationDate,2020-11-02T10:01:29+01:00
; #@! TF.GenerationSoftware,Kicad,Pcbnew,(5.1.7-0-10_14)
; #@! TF.FileFunction,Plated,1,4,PTH
FMAT,2
INCH
T1C0.0197
T2C0.0315
T3C0.0374
T4C0.0394
T5C0.0433
T6C0.1260
%
G90
G05
T1
X3.1535Y-1.4567
X3.1812Y-1.3899
X3.1812Y-1.5235
X3.248Y-1.3622
X3.248Y-1.5512
X3.3148Y-1.3899
X3.3148Y-1.5235
X3.3425Y-1.4567
X7.2874Y-3.2677
X7.3151Y-3.2009
X7.3151Y-3.3345
X7.3819Y-3.1732
X7.3819Y-3.3622
X7.4487Y-3.2009
X7.4487Y-3.3345
X7.4764Y-3.2677
X3.1535Y-3.2677
X3.1812Y-3.2009
X3.1812Y-3.3345
X3.248Y-3.1732
X3.248Y-3.3622
X3.3148Y-3.2009
X3.3148Y-3.3345
X3.3425Y-3.2677
X7.2874Y-1.4567
X7.3151Y-1.3899
X7.3151Y-1.5235
X7.3819Y-1.3622
X7.3819Y-1.5512
X7.4487Y-1.3899
X7.4487Y-1.5235
X7.4764Y-1.4567
T2
X6.6291Y-2.5283
X6.6291Y-2.6283
X6.6291Y-2.7283
X6.6291Y-2.8283
X6.6291Y-2.9283
X6.6291Y-3.0283
X6.6291Y-3.1283
X6.6291Y-3.2283
X6.9291Y-2.5283
X6.9291Y-2.6283
X6.9291Y-2.7283
X6.9291Y-2.8283
X6.9291Y-2.9283
X6.9291Y-3.0283
X6.9291Y-3.1283
X6.9291Y-3.2283
X6.137Y-2.5283
X6.137Y-2.6283
X6.137Y-2.7283
X6.137Y-2.8283
X6.137Y-2.9283
X6.137Y-3.0283
X6.137Y-3.1283
X6.137Y-3.2283
X6.437Y-2.5283
X6.437Y-2.6283
X6.437Y-2.7283
X6.437Y-2.8283
X6.437Y-2.9283
X6.437Y-3.0283
X6.437Y-3.1283
X6.437Y-3.2283
X6.6291Y-1.485
X6.6291Y-1.585
X6.6291Y-1.685
X6.6291Y-1.785
X6.6291Y-1.885
X6.6291Y-1.985
X6.6291Y-2.085
X6.6291Y-2.185
X6.9291Y-1.485
X6.9291Y-1.585
X6.9291Y-1.685
X6.9291Y-1.785
X6.9291Y-1.885
X6.9291Y-1.985
X6.9291Y-2.085
X6.9291Y-2.185
X6.137Y-1.485
X6.137Y-1.585
X6.137Y-1.685
X6.137Y-1.785
X6.137Y-1.885
X6.137Y-1.985
X6.137Y-2.085
X6.137Y-2.185
X6.437Y-1.485
X6.437Y-1.585
X6.437Y-1.685
X6.437Y-1.785
X6.437Y-1.885
X6.437Y-1.985
X6.437Y-2.085
X6.437Y-2.185
T3
X4.2126Y-1.5945
X4.311Y-1.5945
X4.4094Y-1.5945
X4.7047Y-1.5945
X4.8031Y-1.5945
X4.9016Y-1.5945
X5.7502Y-2.2175
X5.8486Y-2.2175
X5.947Y-2.2175
X3.7008Y-3.0512
X3.7992Y-3.0512
X3.8976Y-3.0512
X3.9961Y-3.0512
X4.0945Y-3.0512
X5.748Y-2.6969
X5.8465Y-2.6969
X5.9449Y-2.6969
X5.7502Y-2.4478
X5.8486Y-2.4478
X5.947Y-2.4478
X3.5039Y-2.7953
X3.6024Y-2.7953
X3.7008Y-2.7953
X3.7992Y-2.7953
X3.8976Y-2.7953
X5.1181Y-3.0512
X5.2165Y-3.0512
X5.315Y-3.0512
X5.4134Y-3.0512
X5.5118Y-3.0512
X5.1969Y-1.5945
X5.2953Y-1.5945
X5.3937Y-1.5945
X4.4094Y-3.0512
X4.5079Y-3.0512
X4.6063Y-3.0512
X4.7047Y-3.0512
X4.8031Y-3.0512
X3.622Y-1.7717
X3.7205Y-1.7717
X3.8189Y-1.7717
X5.748Y-1.9685
X5.8465Y-1.9685
X5.9449Y-1.9685
T4
X4.215Y-2.7756
X4.315Y-2.7756
X4.415Y-2.7756
X4.515Y-2.7756
X4.615Y-2.7756
X4.715Y-2.7756
X4.815Y-2.7756
X4.915Y-2.7756
X5.015Y-2.7756
X5.115Y-2.7756
X5.215Y-2.7756
X5.315Y-2.7756
X5.415Y-2.7756
X5.515Y-2.7756
X4.1118Y-1.8701
X4.2118Y-1.8701
X4.3118Y-1.8701
X4.4118Y-1.8701
X4.5118Y-1.8701
X4.6118Y-1.8701
X4.7118Y-1.8701
X4.8118Y-1.8701
X4.9118Y-1.8701
X5.0118Y-1.8701
X5.1118Y-1.8701
X5.2118Y-1.8701
X5.3118Y-1.8701
X5.4118Y-1.8701
X5.5118Y-1.8701
X7.2244Y-1.9094
X7.2244Y-2.0094
X7.2244Y-2.1094
X7.2244Y-2.2094
X7.2244Y-2.3094
X7.2244Y-2.4094
X7.2244Y-2.5094
X7.2244Y-2.6094
X7.2244Y-2.7094
X7.2244Y-2.8094
X7.3244Y-1.9094
X7.3244Y-2.0094
X7.3244Y-2.1094
X7.3244Y-2.2094
X7.3244Y-2.3094
X7.3244Y-2.4094
X7.3244Y-2.5094
X7.3244Y-2.6094
X7.3244Y-2.7094
X7.3244Y-2.8094
T5
X3.2132Y-2.0215
X3.2132Y-2.6215
X3.3132Y-2.0215
X3.3132Y-2.6215
X3.4132Y-2.0215
X3.4132Y-2.6215
X3.5132Y-2.0215
X3.5132Y-2.6215
X3.6132Y-2.0215
X3.6132Y-2.6215
X3.7132Y-2.0215
X3.7132Y-2.6215
X3.8132Y-2.0215
X3.8132Y-2.6215
X3.9132Y-2.0215
X3.9132Y-2.6215
X4.0132Y-2.0215
X4.0132Y-2.6215
X4.1132Y-2.0215
X4.1132Y-2.6215
X4.2132Y-2.0215
X4.2132Y-2.6215
X4.3132Y-2.0215
X4.3132Y-2.6215
X4.4132Y-2.0215
X4.4132Y-2.6215
X4.5132Y-2.0215
X4.5132Y-2.6215
X4.6132Y-2.0215
X4.6132Y-2.6215
X4.7132Y-2.0215
X4.7132Y-2.6215
X4.8132Y-2.0215
X4.8132Y-2.6215
X4.9132Y-2.0215
X4.9132Y-2.6215
X5.0132Y-2.0215
X5.0132Y-2.6215
X5.1132Y-2.0215
X5.1132Y-2.6215
X5.2132Y-2.0215
X5.2132Y-2.6215
X5.3132Y-2.0215
X5.3132Y-2.6215
X5.4132Y-2.0215
X5.4132Y-2.6215
X5.5132Y-2.0215
X5.5132Y-2.6215
T6
X7.3819Y-1.4567
X3.248Y-1.4567
X7.3819Y-3.2677
X3.248Y-3.2677
T0
M30
