%TF.GenerationSoftware,KiCad,Pcbnew,(5.1.7-0-10_14)*%
%TF.CreationDate,2020-11-02T10:01:54+01:00*%
%TF.ProjectId,controller_motion_pcb,636f6e74-726f-46c6-9c65-725f6d6f7469,rev?*%
%TF.SameCoordinates,Original*%
%TF.FileFunction,Copper,L4,Bot*%
%TF.FilePolarity,Positive*%
%FSLAX46Y46*%
G04 Gerber Fmt 4.6, Leading zero omitted, Abs format (unit mm)*
G04 Created by KiCad (PCBNEW (5.1.7-0-10_14)) date 2020-11-02 10:01:54*
%MOMM*%
%LPD*%
G01*
G04 APERTURE LIST*
%TA.AperFunction,ComponentPad*%
%ADD10C,1.600000*%
%TD*%
%TA.AperFunction,ComponentPad*%
%ADD11R,1.600000X1.600000*%
%TD*%
%TA.AperFunction,ComponentPad*%
%ADD12C,0.800000*%
%TD*%
%TA.AperFunction,ComponentPad*%
%ADD13C,6.400000*%
%TD*%
%TA.AperFunction,ComponentPad*%
%ADD14C,1.700000*%
%TD*%
%TA.AperFunction,ComponentPad*%
%ADD15O,1.700000X1.950000*%
%TD*%
%TA.AperFunction,ComponentPad*%
%ADD16R,1.700000X1.700000*%
%TD*%
%TA.AperFunction,ComponentPad*%
%ADD17O,1.700000X1.700000*%
%TD*%
%TA.AperFunction,ComponentPad*%
%ADD18O,1.600000X1.600000*%
%TD*%
%TA.AperFunction,Conductor*%
%ADD19C,0.250000*%
%TD*%
G04 APERTURE END LIST*
D10*
%TO.P,CTR1,17*%
%TO.N,Net-(CTR1-Pad17)*%
X122255001Y-66585001D03*
%TO.P,CTR1,18*%
%TO.N,Net-(CTR1-Pad18)*%
X124795001Y-66585001D03*
%TO.P,CTR1,19*%
%TO.N,Net-(CTR1-Pad19)*%
X127335001Y-66585001D03*
%TO.P,CTR1,20*%
%TO.N,Net-(CTR1-Pad20)*%
X129875001Y-66585001D03*
%TO.P,CTR1,16*%
%TO.N,Net-(CTR1-Pad16)*%
X119715001Y-66585001D03*
%TO.P,CTR1,15*%
%TO.N,+3V3*%
X117175001Y-66585001D03*
%TO.P,CTR1,14*%
%TO.N,Net-(CTR1-Pad14)*%
X114635001Y-66585001D03*
%TO.P,CTR1,21*%
%TO.N,Net-(CTR1-Pad21)*%
X132415001Y-66585001D03*
%TO.P,CTR1,22*%
%TO.N,Net-(CTR1-Pad22)*%
X134955001Y-66585001D03*
%TO.P,CTR1,23*%
%TO.N,Net-(CTR1-Pad23)*%
X137495001Y-66585001D03*
%TO.P,CTR1,24*%
%TO.N,Net-(CTR1-Pad24)*%
X140035001Y-66585001D03*
%TO.P,CTR1,25*%
%TO.N,Net-(CTR1-Pad25)*%
X140035001Y-51345001D03*
%TO.P,CTR1,26*%
%TO.N,Net-(CTR1-Pad26)*%
X137495001Y-51345001D03*
%TO.P,CTR1,27*%
%TO.N,Net-(CTR1-Pad27)*%
X134955001Y-51345001D03*
%TO.P,CTR1,28*%
%TO.N,Net-(CTR1-Pad28)*%
X132415001Y-51345001D03*
%TO.P,CTR1,29*%
%TO.N,Net-(CTR1-Pad29)*%
X129875001Y-51345001D03*
%TO.P,CTR1,30*%
%TO.N,Net-(CTR1-Pad30)*%
X127335001Y-51345001D03*
%TO.P,CTR1,31*%
%TO.N,Net-(CTR1-Pad31)*%
X124795001Y-51345001D03*
%TO.P,CTR1,32*%
%TO.N,Net-(CTR1-Pad32)*%
X122255001Y-51345001D03*
%TO.P,CTR1,33*%
%TO.N,Net-(CTR1-Pad33)*%
X119715001Y-51345001D03*
%TO.P,CTR1,34*%
%TO.N,GND*%
X117175001Y-51345001D03*
%TO.P,CTR1,13*%
%TO.N,Net-(CTR1-Pad13)*%
X112095001Y-66585001D03*
%TO.P,CTR1,12*%
%TO.N,Net-(CTR1-Pad12)*%
X109555001Y-66585001D03*
%TO.P,CTR1,11*%
%TO.N,Net-(CTR1-Pad11)*%
X107015001Y-66585001D03*
%TO.P,CTR1,10*%
%TO.N,mux_btn_rEnc*%
X104475001Y-66585001D03*
%TO.P,CTR1,9*%
%TO.N,rEnc3_CLK*%
X101935001Y-66585001D03*
%TO.P,CTR1,8*%
%TO.N,rEnc3_DT*%
X99395001Y-66585001D03*
%TO.P,CTR1,7*%
%TO.N,rEnc2_CLK*%
X96855001Y-66585001D03*
%TO.P,CTR1,6*%
%TO.N,rEnc2_DT*%
X94315001Y-66585001D03*
%TO.P,CTR1,5*%
%TO.N,rEnc1_CLK*%
X91775001Y-66585001D03*
%TO.P,CTR1,4*%
%TO.N,rEnc1_DT*%
X89235001Y-66585001D03*
%TO.P,CTR1,3*%
%TO.N,rEnc0_CLK*%
X86695001Y-66585001D03*
%TO.P,CTR1,2*%
%TO.N,rEnc0_DT*%
X84155001Y-66585001D03*
D11*
%TO.P,CTR1,1*%
%TO.N,GND*%
X81615001Y-66585001D03*
D10*
%TO.P,CTR1,35*%
%TO.N,Net-(CTR1-Pad35)*%
X114635001Y-51345001D03*
%TO.P,CTR1,36*%
%TO.N,Net-(CTR1-Pad36)*%
X112095001Y-51345001D03*
%TO.P,CTR1,37*%
%TO.N,Net-(CTR1-Pad37)*%
X109555001Y-51345001D03*
%TO.P,CTR1,38*%
%TO.N,Net-(CTR1-Pad38)*%
X107015001Y-51345001D03*
%TO.P,CTR1,39*%
%TO.N,Net-(CTR1-Pad39)*%
X104475001Y-51345001D03*
%TO.P,CTR1,40*%
%TO.N,mux_porty*%
X101935001Y-51345001D03*
%TO.P,CTR1,41*%
%TO.N,mux_btnMx2*%
X99395001Y-51345001D03*
%TO.P,CTR1,42*%
%TO.N,mux_btnMx1*%
X96855001Y-51345001D03*
%TO.P,CTR1,43*%
%TO.N,s2*%
X94315001Y-51345001D03*
%TO.P,CTR1,44*%
%TO.N,s1*%
X91775001Y-51345001D03*
%TO.P,CTR1,45*%
%TO.N,s0*%
X89235001Y-51345001D03*
%TO.P,CTR1,46*%
%TO.N,+3V3*%
X86695001Y-51345001D03*
%TO.P,CTR1,47*%
%TO.N,GND*%
X84155001Y-51345001D03*
%TO.P,CTR1,48*%
%TO.N,Net-(CTR1-Pad48)*%
X81615001Y-51345001D03*
%TD*%
D12*
%TO.P,REF\u002A\u002A,1*%
%TO.N,N/C*%
X84197056Y-81302944D03*
X82500000Y-80600000D03*
X80802944Y-81302944D03*
X80100000Y-83000000D03*
X80802944Y-84697056D03*
X82500000Y-85400000D03*
X84197056Y-84697056D03*
X84900000Y-83000000D03*
D13*
X82500000Y-83000000D03*
%TD*%
D12*
%TO.P,REF\u002A\u002A,1*%
%TO.N,N/C*%
X84197056Y-35302944D03*
X82500000Y-34600000D03*
X80802944Y-35302944D03*
X80100000Y-37000000D03*
X80802944Y-38697056D03*
X82500000Y-39400000D03*
X84197056Y-38697056D03*
X84900000Y-37000000D03*
D13*
X82500000Y-37000000D03*
%TD*%
D12*
%TO.P,REF\u002A\u002A,1*%
%TO.N,N/C*%
X189197056Y-81302944D03*
X187500000Y-80600000D03*
X185802944Y-81302944D03*
X185100000Y-83000000D03*
X185802944Y-84697056D03*
X187500000Y-85400000D03*
X189197056Y-84697056D03*
X189900000Y-83000000D03*
D13*
X187500000Y-83000000D03*
%TD*%
D12*
%TO.P,REF\u002A\u002A,1*%
%TO.N,N/C*%
X189197056Y-35302944D03*
X187500000Y-34600000D03*
X185802944Y-35302944D03*
X185100000Y-37000000D03*
X185802944Y-38697056D03*
X187500000Y-39400000D03*
X189197056Y-38697056D03*
X189900000Y-37000000D03*
D13*
X187500000Y-37000000D03*
%TD*%
%TO.P,BtnMx1,1*%
%TO.N,Net-(BtnMx1-Pad1)*%
%TA.AperFunction,ComponentPad*%
G36*
G01*
X182650000Y-49100000D02*
X182650000Y-47900000D01*
G75*
G02*
X182900000Y-47650000I250000J0D01*
G01*
X184100000Y-47650000D01*
G75*
G02*
X184350000Y-47900000I0J-250000D01*
G01*
X184350000Y-49100000D01*
G75*
G02*
X184100000Y-49350000I-250000J0D01*
G01*
X182900000Y-49350000D01*
G75*
G02*
X182650000Y-49100000I0J250000D01*
G01*
G37*
%TD.AperFunction*%
D14*
%TO.P,BtnMx1,3*%
%TO.N,Net-(BtnMx1-Pad3)*%
X183500000Y-51040000D03*
%TO.P,BtnMx1,5*%
%TO.N,Net-(BtnMx1-Pad5)*%
X183500000Y-53580000D03*
%TO.P,BtnMx1,7*%
%TO.N,Net-(BtnMx1-Pad7)*%
X183500000Y-56120000D03*
%TO.P,BtnMx1,9*%
%TO.N,Net-(BtnMx1-Pad9)*%
X183500000Y-58660000D03*
%TO.P,BtnMx1,11*%
%TO.N,Net-(BtnMx1-Pad11)*%
X183500000Y-61200000D03*
%TO.P,BtnMx1,13*%
%TO.N,Net-(BtnMx1-Pad13)*%
X183500000Y-63740000D03*
%TO.P,BtnMx1,15*%
%TO.N,Net-(BtnMx1-Pad15)*%
X183500000Y-66280000D03*
%TO.P,BtnMx1,17*%
%TO.N,Net-(BtnMx1-Pad17)*%
X183500000Y-68820000D03*
%TO.P,BtnMx1,19*%
%TO.N,GND*%
X183500000Y-71360000D03*
%TO.P,BtnMx1,2*%
%TO.N,Net-(BtnMx1-Pad2)*%
X186040000Y-48500000D03*
%TO.P,BtnMx1,4*%
%TO.N,Net-(BtnMx1-Pad4)*%
X186040000Y-51040000D03*
%TO.P,BtnMx1,6*%
%TO.N,Net-(BtnMx1-Pad6)*%
X186040000Y-53580000D03*
%TO.P,BtnMx1,8*%
%TO.N,Net-(BtnMx1-Pad8)*%
X186040000Y-56120000D03*
%TO.P,BtnMx1,10*%
%TO.N,Net-(BtnMx1-Pad10)*%
X186040000Y-58660000D03*
%TO.P,BtnMx1,12*%
%TO.N,Net-(BtnMx1-Pad12)*%
X186040000Y-61200000D03*
%TO.P,BtnMx1,14*%
%TO.N,Net-(BtnMx1-Pad14)*%
X186040000Y-63740000D03*
%TO.P,BtnMx1,16*%
%TO.N,Net-(BtnMx1-Pad16)*%
X186040000Y-66280000D03*
%TO.P,BtnMx1,18*%
%TO.N,Net-(BtnMx1-Pad18)*%
X186040000Y-68820000D03*
%TO.P,BtnMx1,20*%
%TO.N,+3V3*%
X186040000Y-71360000D03*
%TD*%
%TO.P,ENC0,1*%
%TO.N,GND*%
%TA.AperFunction,ComponentPad*%
G36*
G01*
X88150000Y-71725000D02*
X88150000Y-70275000D01*
G75*
G02*
X88400000Y-70025000I250000J0D01*
G01*
X89600000Y-70025000D01*
G75*
G02*
X89850000Y-70275000I0J-250000D01*
G01*
X89850000Y-71725000D01*
G75*
G02*
X89600000Y-71975000I-250000J0D01*
G01*
X88400000Y-71975000D01*
G75*
G02*
X88150000Y-71725000I0J250000D01*
G01*
G37*
%TD.AperFunction*%
D15*
%TO.P,ENC0,2*%
%TO.N,+3V3*%
X91500000Y-71000000D03*
%TO.P,ENC0,3*%
%TO.N,Net-(ENC0-Pad3)*%
X94000000Y-71000000D03*
%TO.P,ENC0,4*%
%TO.N,rEnc0_DT*%
X96500000Y-71000000D03*
%TO.P,ENC0,5*%
%TO.N,rEnc0_CLK*%
X99000000Y-71000000D03*
%TD*%
%TO.P,ENC1,5*%
%TO.N,rEnc1_CLK*%
X104000000Y-77500000D03*
%TO.P,ENC1,4*%
%TO.N,rEnc1_DT*%
X101500000Y-77500000D03*
%TO.P,ENC1,3*%
%TO.N,Net-(ENC1-Pad3)*%
X99000000Y-77500000D03*
%TO.P,ENC1,2*%
%TO.N,+3V3*%
X96500000Y-77500000D03*
%TO.P,ENC1,1*%
%TO.N,GND*%
%TA.AperFunction,ComponentPad*%
G36*
G01*
X93150000Y-78225000D02*
X93150000Y-76775000D01*
G75*
G02*
X93400000Y-76525000I250000J0D01*
G01*
X94600000Y-76525000D01*
G75*
G02*
X94850000Y-76775000I0J-250000D01*
G01*
X94850000Y-78225000D01*
G75*
G02*
X94600000Y-78475000I-250000J0D01*
G01*
X93400000Y-78475000D01*
G75*
G02*
X93150000Y-78225000I0J250000D01*
G01*
G37*
%TD.AperFunction*%
%TD*%
%TO.P,ENC2,1*%
%TO.N,GND*%
%TA.AperFunction,ComponentPad*%
G36*
G01*
X111150000Y-78225000D02*
X111150000Y-76775000D01*
G75*
G02*
X111400000Y-76525000I250000J0D01*
G01*
X112600000Y-76525000D01*
G75*
G02*
X112850000Y-76775000I0J-250000D01*
G01*
X112850000Y-78225000D01*
G75*
G02*
X112600000Y-78475000I-250000J0D01*
G01*
X111400000Y-78475000D01*
G75*
G02*
X111150000Y-78225000I0J250000D01*
G01*
G37*
%TD.AperFunction*%
%TO.P,ENC2,2*%
%TO.N,+3V3*%
X114500000Y-77500000D03*
%TO.P,ENC2,3*%
%TO.N,Net-(ENC2-Pad3)*%
X117000000Y-77500000D03*
%TO.P,ENC2,4*%
%TO.N,rEnc2_DT*%
X119500000Y-77500000D03*
%TO.P,ENC2,5*%
%TO.N,rEnc2_CLK*%
X122000000Y-77500000D03*
%TD*%
%TO.P,ENC3,5*%
%TO.N,rEnc3_CLK*%
X140000000Y-77500000D03*
%TO.P,ENC3,4*%
%TO.N,rEnc3_DT*%
X137500000Y-77500000D03*
%TO.P,ENC3,3*%
%TO.N,Net-(ENC3-Pad3)*%
X135000000Y-77500000D03*
%TO.P,ENC3,2*%
%TO.N,+3V3*%
X132500000Y-77500000D03*
%TO.P,ENC3,1*%
%TO.N,GND*%
%TA.AperFunction,ComponentPad*%
G36*
G01*
X129150000Y-78225000D02*
X129150000Y-76775000D01*
G75*
G02*
X129400000Y-76525000I250000J0D01*
G01*
X130600000Y-76525000D01*
G75*
G02*
X130850000Y-76775000I0J-250000D01*
G01*
X130850000Y-78225000D01*
G75*
G02*
X130600000Y-78475000I-250000J0D01*
G01*
X129400000Y-78475000D01*
G75*
G02*
X129150000Y-78225000I0J250000D01*
G01*
G37*
%TD.AperFunction*%
%TD*%
D16*
%TO.P,J1,1*%
%TO.N,Net-(CTR1-Pad11)*%
X107060000Y-70500000D03*
D17*
%TO.P,J1,2*%
%TO.N,Net-(CTR1-Pad12)*%
X109600000Y-70500000D03*
%TO.P,J1,3*%
%TO.N,Net-(CTR1-Pad13)*%
X112140000Y-70500000D03*
%TO.P,J1,4*%
%TO.N,Net-(CTR1-Pad14)*%
X114680000Y-70500000D03*
%TO.P,J1,5*%
%TO.N,+3V3*%
X117220000Y-70500000D03*
%TO.P,J1,6*%
%TO.N,Net-(CTR1-Pad16)*%
X119760000Y-70500000D03*
%TO.P,J1,7*%
%TO.N,Net-(CTR1-Pad17)*%
X122300000Y-70500000D03*
%TO.P,J1,8*%
%TO.N,Net-(CTR1-Pad18)*%
X124840000Y-70500000D03*
%TO.P,J1,9*%
%TO.N,Net-(CTR1-Pad19)*%
X127380000Y-70500000D03*
%TO.P,J1,10*%
%TO.N,Net-(CTR1-Pad20)*%
X129920000Y-70500000D03*
%TO.P,J1,11*%
%TO.N,Net-(CTR1-Pad21)*%
X132460000Y-70500000D03*
%TO.P,J1,12*%
%TO.N,Net-(CTR1-Pad22)*%
X135000000Y-70500000D03*
%TO.P,J1,13*%
%TO.N,Net-(CTR1-Pad23)*%
X137540000Y-70500000D03*
%TO.P,J1,14*%
%TO.N,Net-(CTR1-Pad24)*%
X140080000Y-70500000D03*
%TD*%
D16*
%TO.P,J3,1*%
%TO.N,Net-(CTR1-Pad25)*%
X140000000Y-47500000D03*
D17*
%TO.P,J3,2*%
%TO.N,Net-(CTR1-Pad26)*%
X137460000Y-47500000D03*
%TO.P,J3,3*%
%TO.N,Net-(CTR1-Pad27)*%
X134920000Y-47500000D03*
%TO.P,J3,4*%
%TO.N,Net-(CTR1-Pad28)*%
X132380000Y-47500000D03*
%TO.P,J3,5*%
%TO.N,Net-(CTR1-Pad29)*%
X129840000Y-47500000D03*
%TO.P,J3,6*%
%TO.N,Net-(CTR1-Pad30)*%
X127300000Y-47500000D03*
%TO.P,J3,7*%
%TO.N,Net-(CTR1-Pad31)*%
X124760000Y-47500000D03*
%TO.P,J3,8*%
%TO.N,Net-(CTR1-Pad32)*%
X122220000Y-47500000D03*
%TO.P,J3,9*%
%TO.N,Net-(CTR1-Pad33)*%
X119680000Y-47500000D03*
%TO.P,J3,10*%
%TO.N,GND*%
X117140000Y-47500000D03*
%TO.P,J3,11*%
%TO.N,Net-(CTR1-Pad35)*%
X114600000Y-47500000D03*
%TO.P,J3,12*%
%TO.N,Net-(CTR1-Pad36)*%
X112060000Y-47500000D03*
%TO.P,J3,13*%
%TO.N,Net-(CTR1-Pad37)*%
X109520000Y-47500000D03*
%TO.P,J3,14*%
%TO.N,Net-(CTR1-Pad38)*%
X106980000Y-47500000D03*
%TO.P,J3,15*%
%TO.N,Net-(CTR1-Pad39)*%
X104440000Y-47500000D03*
%TD*%
D11*
%TO.P,mux1,1*%
%TO.N,Net-(BtnMx1-Pad5)*%
X176000000Y-55500000D03*
D18*
%TO.P,mux1,9*%
%TO.N,s2*%
X168380000Y-37720000D03*
%TO.P,mux1,2*%
%TO.N,Net-(BtnMx1-Pad7)*%
X176000000Y-52960000D03*
%TO.P,mux1,10*%
%TO.N,s1*%
X168380000Y-40260000D03*
%TO.P,mux1,3*%
%TO.N,mux_btnMx1*%
X176000000Y-50420000D03*
%TO.P,mux1,11*%
%TO.N,s0*%
X168380000Y-42800000D03*
%TO.P,mux1,4*%
%TO.N,Net-(BtnMx1-Pad8)*%
X176000000Y-47880000D03*
%TO.P,mux1,12*%
%TO.N,Net-(BtnMx1-Pad4)*%
X168380000Y-45340000D03*
%TO.P,mux1,5*%
%TO.N,Net-(BtnMx1-Pad6)*%
X176000000Y-45340000D03*
%TO.P,mux1,13*%
%TO.N,Net-(BtnMx1-Pad1)*%
X168380000Y-47880000D03*
%TO.P,mux1,6*%
%TO.N,GND*%
X176000000Y-42800000D03*
%TO.P,mux1,14*%
%TO.N,Net-(BtnMx1-Pad2)*%
X168380000Y-50420000D03*
%TO.P,mux1,7*%
%TO.N,GND*%
X176000000Y-40260000D03*
%TO.P,mux1,15*%
%TO.N,Net-(BtnMx1-Pad3)*%
X168380000Y-52960000D03*
%TO.P,mux1,8*%
%TO.N,GND*%
X176000000Y-37720000D03*
%TO.P,mux1,16*%
%TO.N,+3V3*%
X168380000Y-55500000D03*
%TD*%
%TO.P,mux2,16*%
%TO.N,+3V3*%
X168380000Y-82000000D03*
%TO.P,mux2,8*%
%TO.N,GND*%
X176000000Y-64220000D03*
%TO.P,mux2,15*%
%TO.N,Net-(BtnMx1-Pad11)*%
X168380000Y-79460000D03*
%TO.P,mux2,7*%
%TO.N,GND*%
X176000000Y-66760000D03*
%TO.P,mux2,14*%
%TO.N,Net-(BtnMx1-Pad10)*%
X168380000Y-76920000D03*
%TO.P,mux2,6*%
%TO.N,GND*%
X176000000Y-69300000D03*
%TO.P,mux2,13*%
%TO.N,Net-(BtnMx1-Pad9)*%
X168380000Y-74380000D03*
%TO.P,mux2,5*%
%TO.N,Net-(BtnMx1-Pad14)*%
X176000000Y-71840000D03*
%TO.P,mux2,12*%
%TO.N,Net-(BtnMx1-Pad12)*%
X168380000Y-71840000D03*
%TO.P,mux2,4*%
%TO.N,Net-(BtnMx1-Pad16)*%
X176000000Y-74380000D03*
%TO.P,mux2,11*%
%TO.N,s0*%
X168380000Y-69300000D03*
%TO.P,mux2,3*%
%TO.N,mux_btnMx2*%
X176000000Y-76920000D03*
%TO.P,mux2,10*%
%TO.N,s1*%
X168380000Y-66760000D03*
%TO.P,mux2,2*%
%TO.N,Net-(BtnMx1-Pad15)*%
X176000000Y-79460000D03*
%TO.P,mux2,9*%
%TO.N,s2*%
X168380000Y-64220000D03*
D11*
%TO.P,mux2,1*%
%TO.N,Net-(BtnMx1-Pad13)*%
X176000000Y-82000000D03*
%TD*%
%TO.P,mux3,1*%
%TO.N,Net-(P4-Pad1)*%
X163500000Y-55500000D03*
D18*
%TO.P,mux3,9*%
%TO.N,s2*%
X155880000Y-37720000D03*
%TO.P,mux3,2*%
%TO.N,Net-(P6-Pad1)*%
X163500000Y-52960000D03*
%TO.P,mux3,10*%
%TO.N,s1*%
X155880000Y-40260000D03*
%TO.P,mux3,3*%
%TO.N,mux_porty*%
X163500000Y-50420000D03*
%TO.P,mux3,11*%
%TO.N,s0*%
X155880000Y-42800000D03*
%TO.P,mux3,4*%
%TO.N,Net-(P7-Pad1)*%
X163500000Y-47880000D03*
%TO.P,mux3,12*%
%TO.N,Net-(P3-Pad1)*%
X155880000Y-45340000D03*
%TO.P,mux3,5*%
%TO.N,Net-(P5-Pad1)*%
X163500000Y-45340000D03*
%TO.P,mux3,13*%
%TO.N,Net-(P0-Pad1)*%
X155880000Y-47880000D03*
%TO.P,mux3,6*%
%TO.N,GND*%
X163500000Y-42800000D03*
%TO.P,mux3,14*%
%TO.N,Net-(P1-Pad1)*%
X155880000Y-50420000D03*
%TO.P,mux3,7*%
%TO.N,GND*%
X163500000Y-40260000D03*
%TO.P,mux3,15*%
%TO.N,Net-(P2-Pad1)*%
X155880000Y-52960000D03*
%TO.P,mux3,8*%
%TO.N,GND*%
X163500000Y-37720000D03*
%TO.P,mux3,16*%
%TO.N,+3V3*%
X155880000Y-55500000D03*
%TD*%
%TO.P,mux4,16*%
%TO.N,+3V3*%
X155880000Y-82000000D03*
%TO.P,mux4,8*%
%TO.N,GND*%
X163500000Y-64220000D03*
%TO.P,mux4,15*%
%TO.N,Net-(ENC2-Pad3)*%
X155880000Y-79460000D03*
%TO.P,mux4,7*%
%TO.N,GND*%
X163500000Y-66760000D03*
%TO.P,mux4,14*%
%TO.N,Net-(ENC1-Pad3)*%
X155880000Y-76920000D03*
%TO.P,mux4,6*%
%TO.N,GND*%
X163500000Y-69300000D03*
%TO.P,mux4,13*%
%TO.N,Net-(ENC0-Pad3)*%
X155880000Y-74380000D03*
%TO.P,mux4,5*%
%TO.N,Net-(mux4-Pad5)*%
X163500000Y-71840000D03*
%TO.P,mux4,12*%
%TO.N,Net-(ENC3-Pad3)*%
X155880000Y-71840000D03*
%TO.P,mux4,4*%
%TO.N,Net-(mux4-Pad4)*%
X163500000Y-74380000D03*
%TO.P,mux4,11*%
%TO.N,s0*%
X155880000Y-69300000D03*
%TO.P,mux4,3*%
%TO.N,mux_btn_rEnc*%
X163500000Y-76920000D03*
%TO.P,mux4,10*%
%TO.N,s1*%
X155880000Y-66760000D03*
%TO.P,mux4,2*%
%TO.N,Net-(mux4-Pad2)*%
X163500000Y-79460000D03*
%TO.P,mux4,9*%
%TO.N,s2*%
X155880000Y-64220000D03*
D11*
%TO.P,mux4,1*%
%TO.N,Net-(mux4-Pad1)*%
X163500000Y-82000000D03*
%TD*%
%TO.P,P0,1*%
%TO.N,Net-(P0-Pad1)*%
%TA.AperFunction,ComponentPad*%
G36*
G01*
X91150000Y-45725000D02*
X91150000Y-44275000D01*
G75*
G02*
X91400000Y-44025000I250000J0D01*
G01*
X92600000Y-44025000D01*
G75*
G02*
X92850000Y-44275000I0J-250000D01*
G01*
X92850000Y-45725000D01*
G75*
G02*
X92600000Y-45975000I-250000J0D01*
G01*
X91400000Y-45975000D01*
G75*
G02*
X91150000Y-45725000I0J250000D01*
G01*
G37*
%TD.AperFunction*%
D15*
%TO.P,P0,2*%
%TO.N,GND*%
X94500000Y-45000000D03*
%TO.P,P0,3*%
%TO.N,+3V3*%
X97000000Y-45000000D03*
%TD*%
%TO.P,P1,3*%
%TO.N,+3V3*%
X112000000Y-40500000D03*
%TO.P,P1,2*%
%TO.N,GND*%
X109500000Y-40500000D03*
%TO.P,P1,1*%
%TO.N,Net-(P1-Pad1)*%
%TA.AperFunction,ComponentPad*%
G36*
G01*
X106150000Y-41225000D02*
X106150000Y-39775000D01*
G75*
G02*
X106400000Y-39525000I250000J0D01*
G01*
X107600000Y-39525000D01*
G75*
G02*
X107850000Y-39775000I0J-250000D01*
G01*
X107850000Y-41225000D01*
G75*
G02*
X107600000Y-41475000I-250000J0D01*
G01*
X106400000Y-41475000D01*
G75*
G02*
X106150000Y-41225000I0J250000D01*
G01*
G37*
%TD.AperFunction*%
%TD*%
%TO.P,P2,1*%
%TO.N,Net-(P2-Pad1)*%
%TA.AperFunction,ComponentPad*%
G36*
G01*
X118650000Y-41225000D02*
X118650000Y-39775000D01*
G75*
G02*
X118900000Y-39525000I250000J0D01*
G01*
X120100000Y-39525000D01*
G75*
G02*
X120350000Y-39775000I0J-250000D01*
G01*
X120350000Y-41225000D01*
G75*
G02*
X120100000Y-41475000I-250000J0D01*
G01*
X118900000Y-41475000D01*
G75*
G02*
X118650000Y-41225000I0J250000D01*
G01*
G37*
%TD.AperFunction*%
%TO.P,P2,2*%
%TO.N,GND*%
X122000000Y-40500000D03*
%TO.P,P2,3*%
%TO.N,+3V3*%
X124500000Y-40500000D03*
%TD*%
%TO.P,P3,3*%
%TO.N,+3V3*%
X137000000Y-40500000D03*
%TO.P,P3,2*%
%TO.N,GND*%
X134500000Y-40500000D03*
%TO.P,P3,1*%
%TO.N,Net-(P3-Pad1)*%
%TA.AperFunction,ComponentPad*%
G36*
G01*
X131150000Y-41225000D02*
X131150000Y-39775000D01*
G75*
G02*
X131400000Y-39525000I250000J0D01*
G01*
X132600000Y-39525000D01*
G75*
G02*
X132850000Y-39775000I0J-250000D01*
G01*
X132850000Y-41225000D01*
G75*
G02*
X132600000Y-41475000I-250000J0D01*
G01*
X131400000Y-41475000D01*
G75*
G02*
X131150000Y-41225000I0J250000D01*
G01*
G37*
%TD.AperFunction*%
%TD*%
%TO.P,P4,1*%
%TO.N,Net-(P4-Pad1)*%
%TA.AperFunction,ComponentPad*%
G36*
G01*
X145150000Y-50725000D02*
X145150000Y-49275000D01*
G75*
G02*
X145400000Y-49025000I250000J0D01*
G01*
X146600000Y-49025000D01*
G75*
G02*
X146850000Y-49275000I0J-250000D01*
G01*
X146850000Y-50725000D01*
G75*
G02*
X146600000Y-50975000I-250000J0D01*
G01*
X145400000Y-50975000D01*
G75*
G02*
X145150000Y-50725000I0J250000D01*
G01*
G37*
%TD.AperFunction*%
%TO.P,P4,2*%
%TO.N,GND*%
X148500000Y-50000000D03*
%TO.P,P4,3*%
%TO.N,+3V3*%
X151000000Y-50000000D03*
%TD*%
%TO.P,P5,3*%
%TO.N,+3V3*%
X151055001Y-56325001D03*
%TO.P,P5,2*%
%TO.N,GND*%
X148555001Y-56325001D03*
%TO.P,P5,1*%
%TO.N,Net-(P5-Pad1)*%
%TA.AperFunction,ComponentPad*%
G36*
G01*
X145205001Y-57050001D02*
X145205001Y-55600001D01*
G75*
G02*
X145455001Y-55350001I250000J0D01*
G01*
X146655001Y-55350001D01*
G75*
G02*
X146905001Y-55600001I0J-250000D01*
G01*
X146905001Y-57050001D01*
G75*
G02*
X146655001Y-57300001I-250000J0D01*
G01*
X145455001Y-57300001D01*
G75*
G02*
X145205001Y-57050001I0J250000D01*
G01*
G37*
%TD.AperFunction*%
%TD*%
%TO.P,P6,1*%
%TO.N,Net-(P6-Pad1)*%
%TA.AperFunction,ComponentPad*%
G36*
G01*
X145205001Y-62900001D02*
X145205001Y-61450001D01*
G75*
G02*
X145455001Y-61200001I250000J0D01*
G01*
X146655001Y-61200001D01*
G75*
G02*
X146905001Y-61450001I0J-250000D01*
G01*
X146905001Y-62900001D01*
G75*
G02*
X146655001Y-63150001I-250000J0D01*
G01*
X145455001Y-63150001D01*
G75*
G02*
X145205001Y-62900001I0J250000D01*
G01*
G37*
%TD.AperFunction*%
%TO.P,P6,2*%
%TO.N,GND*%
X148555001Y-62175001D03*
%TO.P,P6,3*%
%TO.N,+3V3*%
X151055001Y-62175001D03*
%TD*%
%TO.P,P7,3*%
%TO.N,+3V3*%
X151000000Y-68500000D03*
%TO.P,P7,2*%
%TO.N,GND*%
X148500000Y-68500000D03*
%TO.P,P7,1*%
%TO.N,Net-(P7-Pad1)*%
%TA.AperFunction,ComponentPad*%
G36*
G01*
X145150000Y-69225000D02*
X145150000Y-67775000D01*
G75*
G02*
X145400000Y-67525000I250000J0D01*
G01*
X146600000Y-67525000D01*
G75*
G02*
X146850000Y-67775000I0J-250000D01*
G01*
X146850000Y-69225000D01*
G75*
G02*
X146600000Y-69475000I-250000J0D01*
G01*
X145400000Y-69475000D01*
G75*
G02*
X145150000Y-69225000I0J250000D01*
G01*
G37*
%TD.AperFunction*%
%TD*%
D19*
%TO.N,Net-(BtnMx1-Pad1)*%
X168380000Y-47880000D02*
X169760000Y-46500000D01*
X181500000Y-46500000D02*
X183500000Y-48500000D01*
X169760000Y-46500000D02*
X181500000Y-46500000D01*
%TO.N,Net-(BtnMx1-Pad3)*%
X169794999Y-51545001D02*
X168380000Y-52960000D01*
X176540001Y-51545001D02*
X169794999Y-51545001D01*
X177045002Y-51040000D02*
X176540001Y-51545001D01*
X183500000Y-51040000D02*
X177045002Y-51040000D01*
%TO.N,Net-(BtnMx1-Pad5)*%
X181580000Y-55500000D02*
X183500000Y-53580000D01*
X176000000Y-55500000D02*
X181580000Y-55500000D01*
%TO.N,Net-(BtnMx1-Pad7)*%
X182994999Y-56625001D02*
X183500000Y-56120000D01*
X174939999Y-56625001D02*
X182994999Y-56625001D01*
X174874999Y-56560001D02*
X174939999Y-56625001D01*
X174874999Y-54085001D02*
X174874999Y-56560001D01*
X176000000Y-52960000D02*
X174874999Y-54085001D01*
%TO.N,Net-(BtnMx1-Pad13)*%
X175749997Y-70425001D02*
X174874999Y-71299999D01*
X176814999Y-70425001D02*
X175749997Y-70425001D01*
X183500000Y-63740000D02*
X176814999Y-70425001D01*
X174424989Y-80424989D02*
X176000000Y-82000000D01*
X174424989Y-73653599D02*
X174424989Y-80424989D01*
X174874999Y-73203589D02*
X174424989Y-73653599D01*
X174874999Y-71299999D02*
X174874999Y-73203589D01*
%TO.N,Net-(BtnMx1-Pad15)*%
X174874999Y-78334999D02*
X176000000Y-79460000D01*
X174874999Y-73839999D02*
X174874999Y-78334999D01*
X176814999Y-72965001D02*
X175749997Y-72965001D01*
X175749997Y-72965001D02*
X174874999Y-73839999D01*
X183500000Y-66280000D02*
X176814999Y-72965001D01*
%TO.N,Net-(BtnMx1-Pad2)*%
X186040000Y-48500000D02*
X186000000Y-48500000D01*
X169505001Y-49294999D02*
X168380000Y-50420000D01*
X176540001Y-49294999D02*
X169505001Y-49294999D01*
X176920012Y-49675010D02*
X176540001Y-49294999D01*
X184824990Y-49675010D02*
X176920012Y-49675010D01*
X186000000Y-48500000D02*
X184824990Y-49675010D01*
%TO.N,Net-(BtnMx1-Pad6)*%
X176000000Y-45340000D02*
X176000000Y-45500000D01*
X186120000Y-53500000D02*
X186040000Y-53580000D01*
X187215001Y-52404999D02*
X186040000Y-53580000D01*
X187215001Y-47935999D02*
X187215001Y-52404999D01*
X184619002Y-45340000D02*
X187215001Y-47935999D01*
X176000000Y-45340000D02*
X184619002Y-45340000D01*
%TO.N,Net-(BtnMx1-Pad10)*%
X176250003Y-65634999D02*
X173865001Y-65634999D01*
X182050001Y-59835001D02*
X176250003Y-65634999D01*
X167254999Y-71299999D02*
X167254999Y-75794999D01*
X173865001Y-65634999D02*
X168785001Y-70714999D01*
X184864999Y-59835001D02*
X182050001Y-59835001D01*
X167254999Y-75794999D02*
X168380000Y-76920000D01*
X167839999Y-70714999D02*
X167254999Y-71299999D01*
X168785001Y-70714999D02*
X167839999Y-70714999D01*
X186040000Y-58660000D02*
X184864999Y-59835001D01*
%TO.N,Net-(BtnMx1-Pad12)*%
X172045001Y-68174999D02*
X168380000Y-71840000D01*
X176250003Y-68174999D02*
X172045001Y-68174999D01*
X182050001Y-62375001D02*
X176250003Y-68174999D01*
X184864999Y-62375001D02*
X182050001Y-62375001D01*
X186040000Y-61200000D02*
X184864999Y-62375001D01*
%TO.N,Net-(BtnMx1-Pad14)*%
X176036410Y-71840000D02*
X176000000Y-71840000D01*
X184675001Y-65104999D02*
X182771411Y-65104999D01*
X182771411Y-65104999D02*
X176036410Y-71840000D01*
X186040000Y-63740000D02*
X184675001Y-65104999D01*
%TO.N,Net-(BtnMx1-Pad16)*%
X183080998Y-67500000D02*
X176200998Y-74380000D01*
X184019002Y-67500000D02*
X183080998Y-67500000D01*
X176200998Y-74380000D02*
X176000000Y-74380000D01*
X185239002Y-66280000D02*
X184019002Y-67500000D01*
X186040000Y-66280000D02*
X185239002Y-66280000D01*
%TO.N,s0*%
X100810000Y-50805000D02*
X100810000Y-53310000D01*
X90000000Y-53500000D02*
X89235001Y-52735001D01*
X102065010Y-49549990D02*
X100810000Y-50805000D01*
X138635001Y-48064001D02*
X137149012Y-49549990D01*
X138889999Y-46324999D02*
X138635001Y-46579997D01*
X100620000Y-53500000D02*
X90000000Y-53500000D01*
X89235001Y-52735001D02*
X89235001Y-51345001D01*
X138635001Y-46579997D02*
X138635001Y-48064001D01*
X100810000Y-53310000D02*
X100620000Y-53500000D01*
X152355001Y-46324999D02*
X138889999Y-46324999D01*
X137149012Y-49549990D02*
X102065010Y-49549990D01*
X155880000Y-42800000D02*
X152355001Y-46324999D01*
%TO.N,s1*%
X155880000Y-66760000D02*
X166500000Y-56140000D01*
X166500000Y-42140000D02*
X168380000Y-40260000D01*
X166500000Y-56140000D02*
X166500000Y-42140000D01*
X155880000Y-40260000D02*
X151640000Y-44500000D01*
X94780000Y-50220000D02*
X92900002Y-50220000D01*
X100500000Y-44500000D02*
X94780000Y-50220000D01*
X92900002Y-50220000D02*
X91775001Y-51345001D01*
X151640000Y-44500000D02*
X100500000Y-44500000D01*
%TO.N,s2*%
X157011370Y-64220000D02*
X165731370Y-55500000D01*
X155880000Y-64220000D02*
X157011370Y-64220000D01*
X168380000Y-38594998D02*
X168380000Y-37720000D01*
X165731370Y-41243628D02*
X168380000Y-38594998D01*
X165731370Y-55500000D02*
X165731370Y-41243628D01*
X155391409Y-41385001D02*
X150901421Y-45874989D01*
X156420001Y-41385001D02*
X155391409Y-41385001D01*
X157005001Y-40800001D02*
X156420001Y-41385001D01*
X99785013Y-45874989D02*
X94315001Y-51345001D01*
X157005001Y-38845001D02*
X157005001Y-40800001D01*
X150901421Y-45874989D02*
X99785013Y-45874989D01*
X155880000Y-37720000D02*
X157005001Y-38845001D01*
%TO.N,mux_btnMx1*%
X168920001Y-36594999D02*
X107405001Y-36594999D01*
X169505001Y-40800001D02*
X169505001Y-37179999D01*
X168129997Y-41385001D02*
X168920001Y-41385001D01*
X167254999Y-42259999D02*
X168129997Y-41385001D01*
X167254999Y-50960001D02*
X167254999Y-42259999D01*
X169505001Y-37179999D02*
X168920001Y-36594999D01*
X168920001Y-41385001D02*
X169505001Y-40800001D01*
X169158589Y-51545001D02*
X167839999Y-51545001D01*
X170283590Y-50420000D02*
X169158589Y-51545001D01*
X167839999Y-51545001D02*
X167254999Y-50960001D01*
X176000000Y-50420000D02*
X170283590Y-50420000D01*
X95730000Y-52470002D02*
X96855001Y-51345001D01*
X91235000Y-52470002D02*
X95730000Y-52470002D01*
X90650000Y-50805000D02*
X90650000Y-51885002D01*
X91685010Y-49769990D02*
X90650000Y-50805000D01*
X90650000Y-51885002D02*
X91235000Y-52470002D01*
X94230010Y-49769990D02*
X91685010Y-49769990D01*
X107405001Y-36594999D02*
X94230010Y-49769990D01*
%TO.N,mux_porty*%
X152081714Y-49294999D02*
X151461716Y-48675001D01*
X162374999Y-49294999D02*
X152081714Y-49294999D01*
X151461716Y-48675001D02*
X142824999Y-48675001D01*
X163500000Y-50420000D02*
X162374999Y-49294999D01*
X142824999Y-48675001D02*
X141500000Y-50000000D01*
X103280002Y-50000000D02*
X101935001Y-51345001D01*
X141500000Y-50000000D02*
X103280002Y-50000000D01*
%TO.N,rEnc1_DT*%
X92824990Y-71611705D02*
X92824990Y-70174990D01*
X92824990Y-70174990D02*
X89235001Y-66585001D01*
X97413275Y-76199990D02*
X92824990Y-71611705D01*
X100199990Y-76199990D02*
X97413275Y-76199990D01*
X101500000Y-77500000D02*
X100199990Y-76199990D01*
%TO.N,rEnc1_CLK*%
X94889990Y-69699990D02*
X91775001Y-66585001D01*
X97675010Y-70388295D02*
X96986705Y-69699990D01*
X97675010Y-71611705D02*
X97675010Y-70388295D01*
X96986705Y-69699990D02*
X94889990Y-69699990D01*
X103563305Y-77500000D02*
X97675010Y-71611705D01*
X104000000Y-77500000D02*
X103563305Y-77500000D01*
%TO.N,rEnc2_DT*%
X119500000Y-77500000D02*
X119500000Y-77000000D01*
X106950010Y-73450010D02*
X102560032Y-69060032D01*
X115950010Y-73450010D02*
X106950010Y-73450010D01*
X96790032Y-69060032D02*
X94315001Y-66585001D01*
X102560032Y-69060032D02*
X96790032Y-69060032D01*
X119500000Y-77000000D02*
X115950010Y-73450010D01*
%TO.N,rEnc2_CLK*%
X122000000Y-77500000D02*
X117500000Y-73000000D01*
X107274998Y-73000000D02*
X102885020Y-68610022D01*
X117500000Y-73000000D02*
X107274998Y-73000000D01*
X98880022Y-68610022D02*
X96855001Y-66585001D01*
X102885020Y-68610022D02*
X98880022Y-68610022D01*
%TO.N,rEnc3_DT*%
X137500000Y-77500000D02*
X137500000Y-77000000D01*
X107005014Y-68160012D02*
X100970012Y-68160012D01*
X100970012Y-68160012D02*
X99395001Y-66585001D01*
X108424999Y-69579997D02*
X107005014Y-68160012D01*
X108424999Y-71064001D02*
X108424999Y-69579997D01*
X109811008Y-72450010D02*
X108424999Y-71064001D01*
X132950010Y-72450010D02*
X109811008Y-72450010D01*
X137500000Y-77000000D02*
X132950010Y-72450010D01*
%TO.N,rEnc3_CLK*%
X108549004Y-67710002D02*
X103060002Y-67710002D01*
X110775001Y-69935999D02*
X108549004Y-67710002D01*
X111900998Y-72000000D02*
X110775001Y-70874003D01*
X103060002Y-67710002D02*
X101935001Y-66585001D01*
X134500000Y-72000000D02*
X111900998Y-72000000D01*
X110775001Y-70874003D02*
X110775001Y-69935999D01*
X140000000Y-77500000D02*
X134500000Y-72000000D01*
%TO.N,Net-(ENC3-Pad3)*%
X155880000Y-71840000D02*
X152500000Y-75220000D01*
X152500000Y-75220000D02*
X152500000Y-79000000D01*
X136500000Y-79000000D02*
X135000000Y-77500000D01*
X152500000Y-79000000D02*
X136500000Y-79000000D01*
%TO.N,Net-(P4-Pad1)*%
X150085001Y-54085001D02*
X146000000Y-50000000D01*
X163135001Y-54085001D02*
X150085001Y-54085001D01*
X163500000Y-54450000D02*
X163135001Y-54085001D01*
X163500000Y-55500000D02*
X163500000Y-54450000D01*
%TD*%
M02*
