%TF.GenerationSoftware,KiCad,Pcbnew,(5.1.7-0-10_14)*%
%TF.CreationDate,2020-11-02T10:01:54+01:00*%
%TF.ProjectId,controller_motion_pcb,636f6e74-726f-46c6-9c65-725f6d6f7469,rev?*%
%TF.SameCoordinates,Original*%
%TF.FileFunction,Legend,Top*%
%TF.FilePolarity,Positive*%
%FSLAX46Y46*%
G04 Gerber Fmt 4.6, Leading zero omitted, Abs format (unit mm)*
G04 Created by KiCad (PCBNEW (5.1.7-0-10_14)) date 2020-11-02 10:01:54*
%MOMM*%
%LPD*%
G01*
G04 APERTURE LIST*
%ADD10C,0.100000*%
%ADD11C,0.150000*%
%ADD12C,0.120000*%
G04 APERTURE END LIST*
D10*
%TO.C,CTR1*%
G36*
X114022001Y-58658001D02*
G01*
X113768001Y-58912001D01*
X113514001Y-58531001D01*
X113768001Y-58277001D01*
X114022001Y-58658001D01*
G37*
X114022001Y-58658001D02*
X113768001Y-58912001D01*
X113514001Y-58531001D01*
X113768001Y-58277001D01*
X114022001Y-58658001D01*
G36*
X113641001Y-59039001D02*
G01*
X113387001Y-59293001D01*
X113133001Y-58912001D01*
X113387001Y-58658001D01*
X113641001Y-59039001D01*
G37*
X113641001Y-59039001D02*
X113387001Y-59293001D01*
X113133001Y-58912001D01*
X113387001Y-58658001D01*
X113641001Y-59039001D01*
G36*
X111736001Y-58277001D02*
G01*
X111482001Y-58531001D01*
X111228001Y-58150001D01*
X111482001Y-57896001D01*
X111736001Y-58277001D01*
G37*
X111736001Y-58277001D02*
X111482001Y-58531001D01*
X111228001Y-58150001D01*
X111482001Y-57896001D01*
X111736001Y-58277001D01*
G36*
X112117001Y-58785001D02*
G01*
X111863001Y-59039001D01*
X111609001Y-58658001D01*
X111863001Y-58404001D01*
X112117001Y-58785001D01*
G37*
X112117001Y-58785001D02*
X111863001Y-59039001D01*
X111609001Y-58658001D01*
X111863001Y-58404001D01*
X112117001Y-58785001D01*
G36*
X112498001Y-59293001D02*
G01*
X112244001Y-59547001D01*
X111990001Y-59166001D01*
X112244001Y-58912001D01*
X112498001Y-59293001D01*
G37*
X112498001Y-59293001D02*
X112244001Y-59547001D01*
X111990001Y-59166001D01*
X112244001Y-58912001D01*
X112498001Y-59293001D01*
G36*
X112498001Y-58404001D02*
G01*
X112244001Y-58658001D01*
X111990001Y-58277001D01*
X112244001Y-58023001D01*
X112498001Y-58404001D01*
G37*
X112498001Y-58404001D02*
X112244001Y-58658001D01*
X111990001Y-58277001D01*
X112244001Y-58023001D01*
X112498001Y-58404001D01*
G36*
X112879001Y-58912001D02*
G01*
X112625001Y-59166001D01*
X112371001Y-58785001D01*
X112625001Y-58531001D01*
X112879001Y-58912001D01*
G37*
X112879001Y-58912001D02*
X112625001Y-59166001D01*
X112371001Y-58785001D01*
X112625001Y-58531001D01*
X112879001Y-58912001D01*
G36*
X113260001Y-59420001D02*
G01*
X113006001Y-59674001D01*
X112752001Y-59293001D01*
X113006001Y-59039001D01*
X113260001Y-59420001D01*
G37*
X113260001Y-59420001D02*
X113006001Y-59674001D01*
X112752001Y-59293001D01*
X113006001Y-59039001D01*
X113260001Y-59420001D01*
D11*
X80345001Y-67855001D02*
X80345001Y-50075001D01*
X141305001Y-67855001D02*
X80345001Y-67855001D01*
X141305001Y-50075001D02*
X141305001Y-67855001D01*
X80345001Y-50075001D02*
X141305001Y-50075001D01*
X85425001Y-62775001D02*
X80345001Y-62775001D01*
X85425001Y-55155001D02*
X80345001Y-55155001D01*
X85425001Y-62775001D02*
X85425001Y-55155001D01*
X79075001Y-55155001D02*
X80345001Y-55155001D01*
X79075001Y-62775001D02*
X79075001Y-55155001D01*
X80345001Y-62775001D02*
X79075001Y-62775001D01*
X141305001Y-52615001D02*
X128605001Y-52615001D01*
X128605001Y-52615001D02*
X128605001Y-65315001D01*
X128605001Y-65315001D02*
X141305001Y-65315001D01*
X141305001Y-53885001D02*
X140035001Y-53885001D01*
X140035001Y-53885001D02*
X140035001Y-64045001D01*
X140035001Y-64045001D02*
X141305001Y-64045001D01*
X124795001Y-57695001D02*
X124795001Y-60235001D01*
X124795001Y-60235001D02*
X120985001Y-60235001D01*
X120985001Y-60235001D02*
X120985001Y-57695001D01*
X120985001Y-57695001D02*
X124795001Y-57695001D01*
X103205001Y-65315001D02*
X115905001Y-65315001D01*
X115905001Y-65315001D02*
X115905001Y-52615001D01*
X115905001Y-52615001D02*
X103205001Y-52615001D01*
X103205001Y-52615001D02*
X103205001Y-65315001D01*
X123788027Y-58965001D02*
G75*
G03*
X123788027Y-58965001I-898026J0D01*
G01*
D12*
%TO.C,BtnMx1*%
X178820000Y-49000000D02*
X179820000Y-48500000D01*
X178820000Y-48000000D02*
X178820000Y-49000000D01*
X179820000Y-48500000D02*
X178820000Y-48000000D01*
X181520000Y-61980000D02*
X180210000Y-61980000D01*
X181520000Y-61980000D02*
X181520000Y-61980000D01*
X181520000Y-75270000D02*
X181520000Y-61980000D01*
X188020000Y-75270000D02*
X181520000Y-75270000D01*
X188020000Y-44590000D02*
X188020000Y-75270000D01*
X181520000Y-44590000D02*
X188020000Y-44590000D01*
X181520000Y-57880000D02*
X181520000Y-44590000D01*
X180210000Y-57880000D02*
X181520000Y-57880000D01*
X180210000Y-76570000D02*
X180210000Y-43290000D01*
X189330000Y-76570000D02*
X180210000Y-76570000D01*
X189330000Y-43290000D02*
X189330000Y-76570000D01*
X180210000Y-43290000D02*
X189330000Y-43290000D01*
%TO.C,ENC0*%
X86090000Y-73610000D02*
X88590000Y-73610000D01*
X86090000Y-71110000D02*
X86090000Y-73610000D01*
X100610000Y-71810000D02*
X100610000Y-73310000D01*
X101610000Y-71810000D02*
X100610000Y-71810000D01*
X87390000Y-71810000D02*
X87390000Y-73310000D01*
X86390000Y-71810000D02*
X87390000Y-71810000D01*
X101110000Y-71000000D02*
X101610000Y-71000000D01*
X101110000Y-69790000D02*
X101110000Y-71000000D01*
X86890000Y-69790000D02*
X101110000Y-69790000D01*
X86890000Y-71000000D02*
X86890000Y-69790000D01*
X86390000Y-71000000D02*
X86890000Y-71000000D01*
X101610000Y-69290000D02*
X86390000Y-69290000D01*
X101610000Y-73310000D02*
X101610000Y-69290000D01*
X86390000Y-73310000D02*
X101610000Y-73310000D01*
X86390000Y-69290000D02*
X86390000Y-73310000D01*
%TO.C,ENC1*%
X91390000Y-75790000D02*
X91390000Y-79810000D01*
X91390000Y-79810000D02*
X106610000Y-79810000D01*
X106610000Y-79810000D02*
X106610000Y-75790000D01*
X106610000Y-75790000D02*
X91390000Y-75790000D01*
X91390000Y-77500000D02*
X91890000Y-77500000D01*
X91890000Y-77500000D02*
X91890000Y-76290000D01*
X91890000Y-76290000D02*
X106110000Y-76290000D01*
X106110000Y-76290000D02*
X106110000Y-77500000D01*
X106110000Y-77500000D02*
X106610000Y-77500000D01*
X91390000Y-78310000D02*
X92390000Y-78310000D01*
X92390000Y-78310000D02*
X92390000Y-79810000D01*
X106610000Y-78310000D02*
X105610000Y-78310000D01*
X105610000Y-78310000D02*
X105610000Y-79810000D01*
X91090000Y-77610000D02*
X91090000Y-80110000D01*
X91090000Y-80110000D02*
X93590000Y-80110000D01*
%TO.C,ENC2*%
X109090000Y-80110000D02*
X111590000Y-80110000D01*
X109090000Y-77610000D02*
X109090000Y-80110000D01*
X123610000Y-78310000D02*
X123610000Y-79810000D01*
X124610000Y-78310000D02*
X123610000Y-78310000D01*
X110390000Y-78310000D02*
X110390000Y-79810000D01*
X109390000Y-78310000D02*
X110390000Y-78310000D01*
X124110000Y-77500000D02*
X124610000Y-77500000D01*
X124110000Y-76290000D02*
X124110000Y-77500000D01*
X109890000Y-76290000D02*
X124110000Y-76290000D01*
X109890000Y-77500000D02*
X109890000Y-76290000D01*
X109390000Y-77500000D02*
X109890000Y-77500000D01*
X124610000Y-75790000D02*
X109390000Y-75790000D01*
X124610000Y-79810000D02*
X124610000Y-75790000D01*
X109390000Y-79810000D02*
X124610000Y-79810000D01*
X109390000Y-75790000D02*
X109390000Y-79810000D01*
%TO.C,ENC3*%
X127390000Y-75790000D02*
X127390000Y-79810000D01*
X127390000Y-79810000D02*
X142610000Y-79810000D01*
X142610000Y-79810000D02*
X142610000Y-75790000D01*
X142610000Y-75790000D02*
X127390000Y-75790000D01*
X127390000Y-77500000D02*
X127890000Y-77500000D01*
X127890000Y-77500000D02*
X127890000Y-76290000D01*
X127890000Y-76290000D02*
X142110000Y-76290000D01*
X142110000Y-76290000D02*
X142110000Y-77500000D01*
X142110000Y-77500000D02*
X142610000Y-77500000D01*
X127390000Y-78310000D02*
X128390000Y-78310000D01*
X128390000Y-78310000D02*
X128390000Y-79810000D01*
X142610000Y-78310000D02*
X141610000Y-78310000D01*
X141610000Y-78310000D02*
X141610000Y-79810000D01*
X127090000Y-77610000D02*
X127090000Y-80110000D01*
X127090000Y-80110000D02*
X129590000Y-80110000D01*
%TO.C,J1*%
X105730000Y-71830000D02*
X105730000Y-70500000D01*
X107060000Y-71830000D02*
X105730000Y-71830000D01*
X108330000Y-71830000D02*
X108330000Y-69170000D01*
X108330000Y-69170000D02*
X141410000Y-69170000D01*
X108330000Y-71830000D02*
X141410000Y-71830000D01*
X141410000Y-71830000D02*
X141410000Y-69170000D01*
%TO.C,J3*%
X141330000Y-46170000D02*
X141330000Y-47500000D01*
X140000000Y-46170000D02*
X141330000Y-46170000D01*
X138730000Y-46170000D02*
X138730000Y-48830000D01*
X138730000Y-48830000D02*
X103110000Y-48830000D01*
X138730000Y-46170000D02*
X103110000Y-46170000D01*
X103110000Y-46170000D02*
X103110000Y-48830000D01*
%TO.C,mux1*%
X169540000Y-56830000D02*
X171190000Y-56830000D01*
X169540000Y-36390000D02*
X169540000Y-56830000D01*
X174840000Y-36390000D02*
X169540000Y-36390000D01*
X174840000Y-56830000D02*
X174840000Y-36390000D01*
X173190000Y-56830000D02*
X174840000Y-56830000D01*
X171190000Y-56830000D02*
G75*
G02*
X173190000Y-56830000I1000000J0D01*
G01*
%TO.C,mux2*%
X171190000Y-83330000D02*
G75*
G02*
X173190000Y-83330000I1000000J0D01*
G01*
X173190000Y-83330000D02*
X174840000Y-83330000D01*
X174840000Y-83330000D02*
X174840000Y-62890000D01*
X174840000Y-62890000D02*
X169540000Y-62890000D01*
X169540000Y-62890000D02*
X169540000Y-83330000D01*
X169540000Y-83330000D02*
X171190000Y-83330000D01*
%TO.C,mux3*%
X157040000Y-56830000D02*
X158690000Y-56830000D01*
X157040000Y-36390000D02*
X157040000Y-56830000D01*
X162340000Y-36390000D02*
X157040000Y-36390000D01*
X162340000Y-56830000D02*
X162340000Y-36390000D01*
X160690000Y-56830000D02*
X162340000Y-56830000D01*
X158690000Y-56830000D02*
G75*
G02*
X160690000Y-56830000I1000000J0D01*
G01*
%TO.C,mux4*%
X158690000Y-83330000D02*
G75*
G02*
X160690000Y-83330000I1000000J0D01*
G01*
X160690000Y-83330000D02*
X162340000Y-83330000D01*
X162340000Y-83330000D02*
X162340000Y-62890000D01*
X162340000Y-62890000D02*
X157040000Y-62890000D01*
X157040000Y-62890000D02*
X157040000Y-83330000D01*
X157040000Y-83330000D02*
X158690000Y-83330000D01*
%TO.C,P0*%
X89090000Y-47610000D02*
X91590000Y-47610000D01*
X89090000Y-45110000D02*
X89090000Y-47610000D01*
X98610000Y-45810000D02*
X98610000Y-47310000D01*
X99610000Y-45810000D02*
X98610000Y-45810000D01*
X90390000Y-45810000D02*
X90390000Y-47310000D01*
X89390000Y-45810000D02*
X90390000Y-45810000D01*
X99110000Y-45000000D02*
X99610000Y-45000000D01*
X99110000Y-43790000D02*
X99110000Y-45000000D01*
X89890000Y-43790000D02*
X99110000Y-43790000D01*
X89890000Y-45000000D02*
X89890000Y-43790000D01*
X89390000Y-45000000D02*
X89890000Y-45000000D01*
X99610000Y-43290000D02*
X89390000Y-43290000D01*
X99610000Y-47310000D02*
X99610000Y-43290000D01*
X89390000Y-47310000D02*
X99610000Y-47310000D01*
X89390000Y-43290000D02*
X89390000Y-47310000D01*
%TO.C,P1*%
X104390000Y-38790000D02*
X104390000Y-42810000D01*
X104390000Y-42810000D02*
X114610000Y-42810000D01*
X114610000Y-42810000D02*
X114610000Y-38790000D01*
X114610000Y-38790000D02*
X104390000Y-38790000D01*
X104390000Y-40500000D02*
X104890000Y-40500000D01*
X104890000Y-40500000D02*
X104890000Y-39290000D01*
X104890000Y-39290000D02*
X114110000Y-39290000D01*
X114110000Y-39290000D02*
X114110000Y-40500000D01*
X114110000Y-40500000D02*
X114610000Y-40500000D01*
X104390000Y-41310000D02*
X105390000Y-41310000D01*
X105390000Y-41310000D02*
X105390000Y-42810000D01*
X114610000Y-41310000D02*
X113610000Y-41310000D01*
X113610000Y-41310000D02*
X113610000Y-42810000D01*
X104090000Y-40610000D02*
X104090000Y-43110000D01*
X104090000Y-43110000D02*
X106590000Y-43110000D01*
%TO.C,P2*%
X116590000Y-43110000D02*
X119090000Y-43110000D01*
X116590000Y-40610000D02*
X116590000Y-43110000D01*
X126110000Y-41310000D02*
X126110000Y-42810000D01*
X127110000Y-41310000D02*
X126110000Y-41310000D01*
X117890000Y-41310000D02*
X117890000Y-42810000D01*
X116890000Y-41310000D02*
X117890000Y-41310000D01*
X126610000Y-40500000D02*
X127110000Y-40500000D01*
X126610000Y-39290000D02*
X126610000Y-40500000D01*
X117390000Y-39290000D02*
X126610000Y-39290000D01*
X117390000Y-40500000D02*
X117390000Y-39290000D01*
X116890000Y-40500000D02*
X117390000Y-40500000D01*
X127110000Y-38790000D02*
X116890000Y-38790000D01*
X127110000Y-42810000D02*
X127110000Y-38790000D01*
X116890000Y-42810000D02*
X127110000Y-42810000D01*
X116890000Y-38790000D02*
X116890000Y-42810000D01*
%TO.C,P3*%
X129390000Y-38790000D02*
X129390000Y-42810000D01*
X129390000Y-42810000D02*
X139610000Y-42810000D01*
X139610000Y-42810000D02*
X139610000Y-38790000D01*
X139610000Y-38790000D02*
X129390000Y-38790000D01*
X129390000Y-40500000D02*
X129890000Y-40500000D01*
X129890000Y-40500000D02*
X129890000Y-39290000D01*
X129890000Y-39290000D02*
X139110000Y-39290000D01*
X139110000Y-39290000D02*
X139110000Y-40500000D01*
X139110000Y-40500000D02*
X139610000Y-40500000D01*
X129390000Y-41310000D02*
X130390000Y-41310000D01*
X130390000Y-41310000D02*
X130390000Y-42810000D01*
X139610000Y-41310000D02*
X138610000Y-41310000D01*
X138610000Y-41310000D02*
X138610000Y-42810000D01*
X129090000Y-40610000D02*
X129090000Y-43110000D01*
X129090000Y-43110000D02*
X131590000Y-43110000D01*
%TO.C,P4*%
X143090000Y-52610000D02*
X145590000Y-52610000D01*
X143090000Y-50110000D02*
X143090000Y-52610000D01*
X152610000Y-50810000D02*
X152610000Y-52310000D01*
X153610000Y-50810000D02*
X152610000Y-50810000D01*
X144390000Y-50810000D02*
X144390000Y-52310000D01*
X143390000Y-50810000D02*
X144390000Y-50810000D01*
X153110000Y-50000000D02*
X153610000Y-50000000D01*
X153110000Y-48790000D02*
X153110000Y-50000000D01*
X143890000Y-48790000D02*
X153110000Y-48790000D01*
X143890000Y-50000000D02*
X143890000Y-48790000D01*
X143390000Y-50000000D02*
X143890000Y-50000000D01*
X153610000Y-48290000D02*
X143390000Y-48290000D01*
X153610000Y-52310000D02*
X153610000Y-48290000D01*
X143390000Y-52310000D02*
X153610000Y-52310000D01*
X143390000Y-48290000D02*
X143390000Y-52310000D01*
%TO.C,P5*%
X143445001Y-54615001D02*
X143445001Y-58635001D01*
X143445001Y-58635001D02*
X153665001Y-58635001D01*
X153665001Y-58635001D02*
X153665001Y-54615001D01*
X153665001Y-54615001D02*
X143445001Y-54615001D01*
X143445001Y-56325001D02*
X143945001Y-56325001D01*
X143945001Y-56325001D02*
X143945001Y-55115001D01*
X143945001Y-55115001D02*
X153165001Y-55115001D01*
X153165001Y-55115001D02*
X153165001Y-56325001D01*
X153165001Y-56325001D02*
X153665001Y-56325001D01*
X143445001Y-57135001D02*
X144445001Y-57135001D01*
X144445001Y-57135001D02*
X144445001Y-58635001D01*
X153665001Y-57135001D02*
X152665001Y-57135001D01*
X152665001Y-57135001D02*
X152665001Y-58635001D01*
X143145001Y-56435001D02*
X143145001Y-58935001D01*
X143145001Y-58935001D02*
X145645001Y-58935001D01*
%TO.C,P6*%
X143145001Y-64785001D02*
X145645001Y-64785001D01*
X143145001Y-62285001D02*
X143145001Y-64785001D01*
X152665001Y-62985001D02*
X152665001Y-64485001D01*
X153665001Y-62985001D02*
X152665001Y-62985001D01*
X144445001Y-62985001D02*
X144445001Y-64485001D01*
X143445001Y-62985001D02*
X144445001Y-62985001D01*
X153165001Y-62175001D02*
X153665001Y-62175001D01*
X153165001Y-60965001D02*
X153165001Y-62175001D01*
X143945001Y-60965001D02*
X153165001Y-60965001D01*
X143945001Y-62175001D02*
X143945001Y-60965001D01*
X143445001Y-62175001D02*
X143945001Y-62175001D01*
X153665001Y-60465001D02*
X143445001Y-60465001D01*
X153665001Y-64485001D02*
X153665001Y-60465001D01*
X143445001Y-64485001D02*
X153665001Y-64485001D01*
X143445001Y-60465001D02*
X143445001Y-64485001D01*
%TO.C,P7*%
X143390000Y-66790000D02*
X143390000Y-70810000D01*
X143390000Y-70810000D02*
X153610000Y-70810000D01*
X153610000Y-70810000D02*
X153610000Y-66790000D01*
X153610000Y-66790000D02*
X143390000Y-66790000D01*
X143390000Y-68500000D02*
X143890000Y-68500000D01*
X143890000Y-68500000D02*
X143890000Y-67290000D01*
X143890000Y-67290000D02*
X153110000Y-67290000D01*
X153110000Y-67290000D02*
X153110000Y-68500000D01*
X153110000Y-68500000D02*
X153610000Y-68500000D01*
X143390000Y-69310000D02*
X144390000Y-69310000D01*
X144390000Y-69310000D02*
X144390000Y-70810000D01*
X153610000Y-69310000D02*
X152610000Y-69310000D01*
X152610000Y-69310000D02*
X152610000Y-70810000D01*
X143090000Y-68610000D02*
X143090000Y-71110000D01*
X143090000Y-71110000D02*
X145590000Y-71110000D01*
%TO.C,CTR1*%
D11*
X109777381Y-49162143D02*
X109729762Y-49209762D01*
X109586905Y-49257381D01*
X109491667Y-49257381D01*
X109348810Y-49209762D01*
X109253572Y-49114524D01*
X109205953Y-49019286D01*
X109158334Y-48828810D01*
X109158334Y-48685953D01*
X109205953Y-48495477D01*
X109253572Y-48400239D01*
X109348810Y-48305001D01*
X109491667Y-48257381D01*
X109586905Y-48257381D01*
X109729762Y-48305001D01*
X109777381Y-48352620D01*
X110063096Y-48257381D02*
X110634524Y-48257381D01*
X110348810Y-49257381D02*
X110348810Y-48257381D01*
X111539286Y-49257381D02*
X111205953Y-48781191D01*
X110967858Y-49257381D02*
X110967858Y-48257381D01*
X111348810Y-48257381D01*
X111444048Y-48305001D01*
X111491667Y-48352620D01*
X111539286Y-48447858D01*
X111539286Y-48590715D01*
X111491667Y-48685953D01*
X111444048Y-48733572D01*
X111348810Y-48781191D01*
X110967858Y-48781191D01*
X112491667Y-49257381D02*
X111920239Y-49257381D01*
X112205953Y-49257381D02*
X112205953Y-48257381D01*
X112110715Y-48400239D01*
X112015477Y-48495477D01*
X111920239Y-48543096D01*
X83607381Y-60226905D02*
X84416905Y-60226905D01*
X84512143Y-60179286D01*
X84559762Y-60131667D01*
X84607381Y-60036429D01*
X84607381Y-59845953D01*
X84559762Y-59750715D01*
X84512143Y-59703096D01*
X84416905Y-59655477D01*
X83607381Y-59655477D01*
X84559762Y-59226905D02*
X84607381Y-59084048D01*
X84607381Y-58845953D01*
X84559762Y-58750715D01*
X84512143Y-58703096D01*
X84416905Y-58655477D01*
X84321667Y-58655477D01*
X84226429Y-58703096D01*
X84178810Y-58750715D01*
X84131191Y-58845953D01*
X84083572Y-59036429D01*
X84035953Y-59131667D01*
X83988334Y-59179286D01*
X83893096Y-59226905D01*
X83797858Y-59226905D01*
X83702620Y-59179286D01*
X83655001Y-59131667D01*
X83607381Y-59036429D01*
X83607381Y-58798334D01*
X83655001Y-58655477D01*
X84083572Y-57893572D02*
X84131191Y-57750715D01*
X84178810Y-57703096D01*
X84274048Y-57655477D01*
X84416905Y-57655477D01*
X84512143Y-57703096D01*
X84559762Y-57750715D01*
X84607381Y-57845953D01*
X84607381Y-58226905D01*
X83607381Y-58226905D01*
X83607381Y-57893572D01*
X83655001Y-57798334D01*
X83702620Y-57750715D01*
X83797858Y-57703096D01*
X83893096Y-57703096D01*
X83988334Y-57750715D01*
X84035953Y-57798334D01*
X84083572Y-57893572D01*
X84083572Y-58226905D01*
X131835953Y-59417381D02*
X131835953Y-58417381D01*
X132169286Y-59131667D01*
X132502620Y-58417381D01*
X132502620Y-59417381D01*
X132978810Y-59417381D02*
X132978810Y-58750715D01*
X132978810Y-58417381D02*
X132931191Y-58465001D01*
X132978810Y-58512620D01*
X133026429Y-58465001D01*
X132978810Y-58417381D01*
X132978810Y-58512620D01*
X133883572Y-59369762D02*
X133788334Y-59417381D01*
X133597858Y-59417381D01*
X133502620Y-59369762D01*
X133455001Y-59322143D01*
X133407381Y-59226905D01*
X133407381Y-58941191D01*
X133455001Y-58845953D01*
X133502620Y-58798334D01*
X133597858Y-58750715D01*
X133788334Y-58750715D01*
X133883572Y-58798334D01*
X134312143Y-59417381D02*
X134312143Y-58750715D01*
X134312143Y-58941191D02*
X134359762Y-58845953D01*
X134407381Y-58798334D01*
X134502620Y-58750715D01*
X134597858Y-58750715D01*
X135074048Y-59417381D02*
X134978810Y-59369762D01*
X134931191Y-59322143D01*
X134883572Y-59226905D01*
X134883572Y-58941191D01*
X134931191Y-58845953D01*
X134978810Y-58798334D01*
X135074048Y-58750715D01*
X135216905Y-58750715D01*
X135312143Y-58798334D01*
X135359762Y-58845953D01*
X135407381Y-58941191D01*
X135407381Y-59226905D01*
X135359762Y-59322143D01*
X135312143Y-59369762D01*
X135216905Y-59417381D01*
X135074048Y-59417381D01*
X136550239Y-59369762D02*
X136693096Y-59417381D01*
X136931191Y-59417381D01*
X137026429Y-59369762D01*
X137074048Y-59322143D01*
X137121667Y-59226905D01*
X137121667Y-59131667D01*
X137074048Y-59036429D01*
X137026429Y-58988810D01*
X136931191Y-58941191D01*
X136740715Y-58893572D01*
X136645477Y-58845953D01*
X136597858Y-58798334D01*
X136550239Y-58703096D01*
X136550239Y-58607858D01*
X136597858Y-58512620D01*
X136645477Y-58465001D01*
X136740715Y-58417381D01*
X136978810Y-58417381D01*
X137121667Y-58465001D01*
X137550239Y-59417381D02*
X137550239Y-58417381D01*
X137788334Y-58417381D01*
X137931191Y-58465001D01*
X138026429Y-58560239D01*
X138074048Y-58655477D01*
X138121667Y-58845953D01*
X138121667Y-58988810D01*
X138074048Y-59179286D01*
X138026429Y-59274524D01*
X137931191Y-59369762D01*
X137788334Y-59417381D01*
X137550239Y-59417381D01*
X109238334Y-55881667D02*
X109938334Y-55881667D01*
X109438334Y-56115001D01*
X109938334Y-56348334D01*
X109238334Y-56348334D01*
X109238334Y-56681667D02*
X109938334Y-56681667D01*
X109238334Y-57015001D02*
X109938334Y-57015001D01*
X109438334Y-57248334D01*
X109938334Y-57481667D01*
X109238334Y-57481667D01*
X109938334Y-57748334D02*
X109238334Y-58215001D01*
X109938334Y-58215001D02*
X109238334Y-57748334D01*
X109238334Y-58881667D02*
X109571667Y-58648334D01*
X109238334Y-58481667D02*
X109938334Y-58481667D01*
X109938334Y-58748334D01*
X109905001Y-58815001D01*
X109871667Y-58848334D01*
X109805001Y-58881667D01*
X109705001Y-58881667D01*
X109638334Y-58848334D01*
X109605001Y-58815001D01*
X109571667Y-58748334D01*
X109571667Y-58481667D01*
X109938334Y-59081667D02*
X109938334Y-59481667D01*
X109238334Y-59281667D02*
X109938334Y-59281667D01*
X109238334Y-60081667D02*
X109238334Y-59681667D01*
X109238334Y-59881667D02*
X109938334Y-59881667D01*
X109838334Y-59815001D01*
X109771667Y-59748334D01*
X109738334Y-59681667D01*
X109938334Y-60515001D02*
X109938334Y-60581667D01*
X109905001Y-60648334D01*
X109871667Y-60681667D01*
X109805001Y-60715001D01*
X109671667Y-60748334D01*
X109505001Y-60748334D01*
X109371667Y-60715001D01*
X109305001Y-60681667D01*
X109271667Y-60648334D01*
X109238334Y-60581667D01*
X109238334Y-60515001D01*
X109271667Y-60448334D01*
X109305001Y-60415001D01*
X109371667Y-60381667D01*
X109505001Y-60348334D01*
X109671667Y-60348334D01*
X109805001Y-60381667D01*
X109871667Y-60415001D01*
X109905001Y-60448334D01*
X109938334Y-60515001D01*
X109938334Y-61348334D02*
X109938334Y-61215001D01*
X109905001Y-61148334D01*
X109871667Y-61115001D01*
X109771667Y-61048334D01*
X109638334Y-61015001D01*
X109371667Y-61015001D01*
X109305001Y-61048334D01*
X109271667Y-61081667D01*
X109238334Y-61148334D01*
X109238334Y-61281667D01*
X109271667Y-61348334D01*
X109305001Y-61381667D01*
X109371667Y-61415001D01*
X109538334Y-61415001D01*
X109605001Y-61381667D01*
X109638334Y-61348334D01*
X109671667Y-61281667D01*
X109671667Y-61148334D01*
X109638334Y-61081667D01*
X109605001Y-61048334D01*
X109538334Y-61015001D01*
X109871667Y-61681667D02*
X109905001Y-61715001D01*
X109938334Y-61781667D01*
X109938334Y-61948334D01*
X109905001Y-62015001D01*
X109871667Y-62048334D01*
X109805001Y-62081667D01*
X109738334Y-62081667D01*
X109638334Y-62048334D01*
X109238334Y-61648334D01*
X109238334Y-62081667D01*
X107968334Y-57401667D02*
X108668334Y-57401667D01*
X108668334Y-57568334D01*
X108635001Y-57668334D01*
X108568334Y-57735001D01*
X108501667Y-57768334D01*
X108368334Y-57801667D01*
X108268334Y-57801667D01*
X108135001Y-57768334D01*
X108068334Y-57735001D01*
X108001667Y-57668334D01*
X107968334Y-57568334D01*
X107968334Y-57401667D01*
X108668334Y-58001667D02*
X107968334Y-58235001D01*
X108668334Y-58468334D01*
X108668334Y-58901667D02*
X108168334Y-58901667D01*
X108068334Y-58868334D01*
X108001667Y-58801667D01*
X107968334Y-58701667D01*
X107968334Y-58635001D01*
X108668334Y-59535001D02*
X108668334Y-59401667D01*
X108635001Y-59335001D01*
X108601667Y-59301667D01*
X108501667Y-59235001D01*
X108368334Y-59201667D01*
X108101667Y-59201667D01*
X108035001Y-59235001D01*
X108001667Y-59268334D01*
X107968334Y-59335001D01*
X107968334Y-59468334D01*
X108001667Y-59535001D01*
X108035001Y-59568334D01*
X108101667Y-59601667D01*
X108268334Y-59601667D01*
X108335001Y-59568334D01*
X108368334Y-59535001D01*
X108401667Y-59468334D01*
X108401667Y-59335001D01*
X108368334Y-59268334D01*
X108335001Y-59235001D01*
X108268334Y-59201667D01*
X108168334Y-59868334D02*
X108168334Y-60201667D01*
X107968334Y-59801667D02*
X108668334Y-60035001D01*
X107968334Y-60268334D01*
%TO.C,BtnMx1*%
X182650952Y-42328571D02*
X182793809Y-42376190D01*
X182841428Y-42423809D01*
X182889047Y-42519047D01*
X182889047Y-42661904D01*
X182841428Y-42757142D01*
X182793809Y-42804761D01*
X182698571Y-42852380D01*
X182317619Y-42852380D01*
X182317619Y-41852380D01*
X182650952Y-41852380D01*
X182746190Y-41900000D01*
X182793809Y-41947619D01*
X182841428Y-42042857D01*
X182841428Y-42138095D01*
X182793809Y-42233333D01*
X182746190Y-42280952D01*
X182650952Y-42328571D01*
X182317619Y-42328571D01*
X183174761Y-42185714D02*
X183555714Y-42185714D01*
X183317619Y-41852380D02*
X183317619Y-42709523D01*
X183365238Y-42804761D01*
X183460476Y-42852380D01*
X183555714Y-42852380D01*
X183889047Y-42185714D02*
X183889047Y-42852380D01*
X183889047Y-42280952D02*
X183936666Y-42233333D01*
X184031904Y-42185714D01*
X184174761Y-42185714D01*
X184270000Y-42233333D01*
X184317619Y-42328571D01*
X184317619Y-42852380D01*
X184793809Y-42852380D02*
X184793809Y-41852380D01*
X185127142Y-42566666D01*
X185460476Y-41852380D01*
X185460476Y-42852380D01*
X185841428Y-42852380D02*
X186365238Y-42185714D01*
X185841428Y-42185714D02*
X186365238Y-42852380D01*
X187270000Y-42852380D02*
X186698571Y-42852380D01*
X186984285Y-42852380D02*
X186984285Y-41852380D01*
X186889047Y-41995238D01*
X186793809Y-42090476D01*
X186698571Y-42138095D01*
%TO.C,ENC0*%
X92285714Y-68128571D02*
X92619047Y-68128571D01*
X92761904Y-68652380D02*
X92285714Y-68652380D01*
X92285714Y-67652380D01*
X92761904Y-67652380D01*
X93190476Y-68652380D02*
X93190476Y-67652380D01*
X93761904Y-68652380D01*
X93761904Y-67652380D01*
X94809523Y-68557142D02*
X94761904Y-68604761D01*
X94619047Y-68652380D01*
X94523809Y-68652380D01*
X94380952Y-68604761D01*
X94285714Y-68509523D01*
X94238095Y-68414285D01*
X94190476Y-68223809D01*
X94190476Y-68080952D01*
X94238095Y-67890476D01*
X94285714Y-67795238D01*
X94380952Y-67700000D01*
X94523809Y-67652380D01*
X94619047Y-67652380D01*
X94761904Y-67700000D01*
X94809523Y-67747619D01*
X95428571Y-67652380D02*
X95523809Y-67652380D01*
X95619047Y-67700000D01*
X95666666Y-67747619D01*
X95714285Y-67842857D01*
X95761904Y-68033333D01*
X95761904Y-68271428D01*
X95714285Y-68461904D01*
X95666666Y-68557142D01*
X95619047Y-68604761D01*
X95523809Y-68652380D01*
X95428571Y-68652380D01*
X95333333Y-68604761D01*
X95285714Y-68557142D01*
X95238095Y-68461904D01*
X95190476Y-68271428D01*
X95190476Y-68033333D01*
X95238095Y-67842857D01*
X95285714Y-67747619D01*
X95333333Y-67700000D01*
X95428571Y-67652380D01*
%TO.C,ENC1*%
X97285714Y-74628571D02*
X97619047Y-74628571D01*
X97761904Y-75152380D02*
X97285714Y-75152380D01*
X97285714Y-74152380D01*
X97761904Y-74152380D01*
X98190476Y-75152380D02*
X98190476Y-74152380D01*
X98761904Y-75152380D01*
X98761904Y-74152380D01*
X99809523Y-75057142D02*
X99761904Y-75104761D01*
X99619047Y-75152380D01*
X99523809Y-75152380D01*
X99380952Y-75104761D01*
X99285714Y-75009523D01*
X99238095Y-74914285D01*
X99190476Y-74723809D01*
X99190476Y-74580952D01*
X99238095Y-74390476D01*
X99285714Y-74295238D01*
X99380952Y-74200000D01*
X99523809Y-74152380D01*
X99619047Y-74152380D01*
X99761904Y-74200000D01*
X99809523Y-74247619D01*
X100761904Y-75152380D02*
X100190476Y-75152380D01*
X100476190Y-75152380D02*
X100476190Y-74152380D01*
X100380952Y-74295238D01*
X100285714Y-74390476D01*
X100190476Y-74438095D01*
%TO.C,ENC2*%
X115285714Y-74628571D02*
X115619047Y-74628571D01*
X115761904Y-75152380D02*
X115285714Y-75152380D01*
X115285714Y-74152380D01*
X115761904Y-74152380D01*
X116190476Y-75152380D02*
X116190476Y-74152380D01*
X116761904Y-75152380D01*
X116761904Y-74152380D01*
X117809523Y-75057142D02*
X117761904Y-75104761D01*
X117619047Y-75152380D01*
X117523809Y-75152380D01*
X117380952Y-75104761D01*
X117285714Y-75009523D01*
X117238095Y-74914285D01*
X117190476Y-74723809D01*
X117190476Y-74580952D01*
X117238095Y-74390476D01*
X117285714Y-74295238D01*
X117380952Y-74200000D01*
X117523809Y-74152380D01*
X117619047Y-74152380D01*
X117761904Y-74200000D01*
X117809523Y-74247619D01*
X118190476Y-74247619D02*
X118238095Y-74200000D01*
X118333333Y-74152380D01*
X118571428Y-74152380D01*
X118666666Y-74200000D01*
X118714285Y-74247619D01*
X118761904Y-74342857D01*
X118761904Y-74438095D01*
X118714285Y-74580952D01*
X118142857Y-75152380D01*
X118761904Y-75152380D01*
%TO.C,ENC3*%
X133285714Y-74628571D02*
X133619047Y-74628571D01*
X133761904Y-75152380D02*
X133285714Y-75152380D01*
X133285714Y-74152380D01*
X133761904Y-74152380D01*
X134190476Y-75152380D02*
X134190476Y-74152380D01*
X134761904Y-75152380D01*
X134761904Y-74152380D01*
X135809523Y-75057142D02*
X135761904Y-75104761D01*
X135619047Y-75152380D01*
X135523809Y-75152380D01*
X135380952Y-75104761D01*
X135285714Y-75009523D01*
X135238095Y-74914285D01*
X135190476Y-74723809D01*
X135190476Y-74580952D01*
X135238095Y-74390476D01*
X135285714Y-74295238D01*
X135380952Y-74200000D01*
X135523809Y-74152380D01*
X135619047Y-74152380D01*
X135761904Y-74200000D01*
X135809523Y-74247619D01*
X136142857Y-74152380D02*
X136761904Y-74152380D01*
X136428571Y-74533333D01*
X136571428Y-74533333D01*
X136666666Y-74580952D01*
X136714285Y-74628571D01*
X136761904Y-74723809D01*
X136761904Y-74961904D01*
X136714285Y-75057142D01*
X136666666Y-75104761D01*
X136571428Y-75152380D01*
X136285714Y-75152380D01*
X136190476Y-75104761D01*
X136142857Y-75057142D01*
%TO.C,J1*%
X104182380Y-70833333D02*
X104896666Y-70833333D01*
X105039523Y-70880952D01*
X105134761Y-70976190D01*
X105182380Y-71119047D01*
X105182380Y-71214285D01*
X105182380Y-69833333D02*
X105182380Y-70404761D01*
X105182380Y-70119047D02*
X104182380Y-70119047D01*
X104325238Y-70214285D01*
X104420476Y-70309523D01*
X104468095Y-70404761D01*
%TO.C,J3*%
X141782380Y-47833333D02*
X142496666Y-47833333D01*
X142639523Y-47880952D01*
X142734761Y-47976190D01*
X142782380Y-48119047D01*
X142782380Y-48214285D01*
X141782380Y-47452380D02*
X141782380Y-46833333D01*
X142163333Y-47166666D01*
X142163333Y-47023809D01*
X142210952Y-46928571D01*
X142258571Y-46880952D01*
X142353809Y-46833333D01*
X142591904Y-46833333D01*
X142687142Y-46880952D01*
X142734761Y-46928571D01*
X142782380Y-47023809D01*
X142782380Y-47309523D01*
X142734761Y-47404761D01*
X142687142Y-47452380D01*
%TO.C,mux1*%
X170428095Y-58282380D02*
X170428095Y-57615714D01*
X170428095Y-57710952D02*
X170475714Y-57663333D01*
X170570952Y-57615714D01*
X170713809Y-57615714D01*
X170809047Y-57663333D01*
X170856666Y-57758571D01*
X170856666Y-58282380D01*
X170856666Y-57758571D02*
X170904285Y-57663333D01*
X170999523Y-57615714D01*
X171142380Y-57615714D01*
X171237619Y-57663333D01*
X171285238Y-57758571D01*
X171285238Y-58282380D01*
X172190000Y-57615714D02*
X172190000Y-58282380D01*
X171761428Y-57615714D02*
X171761428Y-58139523D01*
X171809047Y-58234761D01*
X171904285Y-58282380D01*
X172047142Y-58282380D01*
X172142380Y-58234761D01*
X172190000Y-58187142D01*
X172570952Y-58282380D02*
X173094761Y-57615714D01*
X172570952Y-57615714D02*
X173094761Y-58282380D01*
X173999523Y-58282380D02*
X173428095Y-58282380D01*
X173713809Y-58282380D02*
X173713809Y-57282380D01*
X173618571Y-57425238D01*
X173523333Y-57520476D01*
X173428095Y-57568095D01*
%TO.C,mux2*%
X170428095Y-84782380D02*
X170428095Y-84115714D01*
X170428095Y-84210952D02*
X170475714Y-84163333D01*
X170570952Y-84115714D01*
X170713809Y-84115714D01*
X170809047Y-84163333D01*
X170856666Y-84258571D01*
X170856666Y-84782380D01*
X170856666Y-84258571D02*
X170904285Y-84163333D01*
X170999523Y-84115714D01*
X171142380Y-84115714D01*
X171237619Y-84163333D01*
X171285238Y-84258571D01*
X171285238Y-84782380D01*
X172190000Y-84115714D02*
X172190000Y-84782380D01*
X171761428Y-84115714D02*
X171761428Y-84639523D01*
X171809047Y-84734761D01*
X171904285Y-84782380D01*
X172047142Y-84782380D01*
X172142380Y-84734761D01*
X172190000Y-84687142D01*
X172570952Y-84782380D02*
X173094761Y-84115714D01*
X172570952Y-84115714D02*
X173094761Y-84782380D01*
X173428095Y-83877619D02*
X173475714Y-83830000D01*
X173570952Y-83782380D01*
X173809047Y-83782380D01*
X173904285Y-83830000D01*
X173951904Y-83877619D01*
X173999523Y-83972857D01*
X173999523Y-84068095D01*
X173951904Y-84210952D01*
X173380476Y-84782380D01*
X173999523Y-84782380D01*
%TO.C,mux3*%
X157928095Y-58282380D02*
X157928095Y-57615714D01*
X157928095Y-57710952D02*
X157975714Y-57663333D01*
X158070952Y-57615714D01*
X158213809Y-57615714D01*
X158309047Y-57663333D01*
X158356666Y-57758571D01*
X158356666Y-58282380D01*
X158356666Y-57758571D02*
X158404285Y-57663333D01*
X158499523Y-57615714D01*
X158642380Y-57615714D01*
X158737619Y-57663333D01*
X158785238Y-57758571D01*
X158785238Y-58282380D01*
X159690000Y-57615714D02*
X159690000Y-58282380D01*
X159261428Y-57615714D02*
X159261428Y-58139523D01*
X159309047Y-58234761D01*
X159404285Y-58282380D01*
X159547142Y-58282380D01*
X159642380Y-58234761D01*
X159690000Y-58187142D01*
X160070952Y-58282380D02*
X160594761Y-57615714D01*
X160070952Y-57615714D02*
X160594761Y-58282380D01*
X160880476Y-57282380D02*
X161499523Y-57282380D01*
X161166190Y-57663333D01*
X161309047Y-57663333D01*
X161404285Y-57710952D01*
X161451904Y-57758571D01*
X161499523Y-57853809D01*
X161499523Y-58091904D01*
X161451904Y-58187142D01*
X161404285Y-58234761D01*
X161309047Y-58282380D01*
X161023333Y-58282380D01*
X160928095Y-58234761D01*
X160880476Y-58187142D01*
%TO.C,mux4*%
X157928095Y-84782380D02*
X157928095Y-84115714D01*
X157928095Y-84210952D02*
X157975714Y-84163333D01*
X158070952Y-84115714D01*
X158213809Y-84115714D01*
X158309047Y-84163333D01*
X158356666Y-84258571D01*
X158356666Y-84782380D01*
X158356666Y-84258571D02*
X158404285Y-84163333D01*
X158499523Y-84115714D01*
X158642380Y-84115714D01*
X158737619Y-84163333D01*
X158785238Y-84258571D01*
X158785238Y-84782380D01*
X159690000Y-84115714D02*
X159690000Y-84782380D01*
X159261428Y-84115714D02*
X159261428Y-84639523D01*
X159309047Y-84734761D01*
X159404285Y-84782380D01*
X159547142Y-84782380D01*
X159642380Y-84734761D01*
X159690000Y-84687142D01*
X160070952Y-84782380D02*
X160594761Y-84115714D01*
X160070952Y-84115714D02*
X160594761Y-84782380D01*
X161404285Y-84115714D02*
X161404285Y-84782380D01*
X161166190Y-83734761D02*
X160928095Y-84449047D01*
X161547142Y-84449047D01*
%TO.C,P0*%
X93761904Y-42652380D02*
X93761904Y-41652380D01*
X94142857Y-41652380D01*
X94238095Y-41700000D01*
X94285714Y-41747619D01*
X94333333Y-41842857D01*
X94333333Y-41985714D01*
X94285714Y-42080952D01*
X94238095Y-42128571D01*
X94142857Y-42176190D01*
X93761904Y-42176190D01*
X94952380Y-41652380D02*
X95047619Y-41652380D01*
X95142857Y-41700000D01*
X95190476Y-41747619D01*
X95238095Y-41842857D01*
X95285714Y-42033333D01*
X95285714Y-42271428D01*
X95238095Y-42461904D01*
X95190476Y-42557142D01*
X95142857Y-42604761D01*
X95047619Y-42652380D01*
X94952380Y-42652380D01*
X94857142Y-42604761D01*
X94809523Y-42557142D01*
X94761904Y-42461904D01*
X94714285Y-42271428D01*
X94714285Y-42033333D01*
X94761904Y-41842857D01*
X94809523Y-41747619D01*
X94857142Y-41700000D01*
X94952380Y-41652380D01*
%TO.C,P1*%
X108761904Y-38152380D02*
X108761904Y-37152380D01*
X109142857Y-37152380D01*
X109238095Y-37200000D01*
X109285714Y-37247619D01*
X109333333Y-37342857D01*
X109333333Y-37485714D01*
X109285714Y-37580952D01*
X109238095Y-37628571D01*
X109142857Y-37676190D01*
X108761904Y-37676190D01*
X110285714Y-38152380D02*
X109714285Y-38152380D01*
X110000000Y-38152380D02*
X110000000Y-37152380D01*
X109904761Y-37295238D01*
X109809523Y-37390476D01*
X109714285Y-37438095D01*
%TO.C,P2*%
X121261904Y-38152380D02*
X121261904Y-37152380D01*
X121642857Y-37152380D01*
X121738095Y-37200000D01*
X121785714Y-37247619D01*
X121833333Y-37342857D01*
X121833333Y-37485714D01*
X121785714Y-37580952D01*
X121738095Y-37628571D01*
X121642857Y-37676190D01*
X121261904Y-37676190D01*
X122214285Y-37247619D02*
X122261904Y-37200000D01*
X122357142Y-37152380D01*
X122595238Y-37152380D01*
X122690476Y-37200000D01*
X122738095Y-37247619D01*
X122785714Y-37342857D01*
X122785714Y-37438095D01*
X122738095Y-37580952D01*
X122166666Y-38152380D01*
X122785714Y-38152380D01*
%TO.C,P3*%
X133761904Y-38152380D02*
X133761904Y-37152380D01*
X134142857Y-37152380D01*
X134238095Y-37200000D01*
X134285714Y-37247619D01*
X134333333Y-37342857D01*
X134333333Y-37485714D01*
X134285714Y-37580952D01*
X134238095Y-37628571D01*
X134142857Y-37676190D01*
X133761904Y-37676190D01*
X134666666Y-37152380D02*
X135285714Y-37152380D01*
X134952380Y-37533333D01*
X135095238Y-37533333D01*
X135190476Y-37580952D01*
X135238095Y-37628571D01*
X135285714Y-37723809D01*
X135285714Y-37961904D01*
X135238095Y-38057142D01*
X135190476Y-38104761D01*
X135095238Y-38152380D01*
X134809523Y-38152380D01*
X134714285Y-38104761D01*
X134666666Y-38057142D01*
%TO.C,P4*%
X147761904Y-47652380D02*
X147761904Y-46652380D01*
X148142857Y-46652380D01*
X148238095Y-46700000D01*
X148285714Y-46747619D01*
X148333333Y-46842857D01*
X148333333Y-46985714D01*
X148285714Y-47080952D01*
X148238095Y-47128571D01*
X148142857Y-47176190D01*
X147761904Y-47176190D01*
X149190476Y-46985714D02*
X149190476Y-47652380D01*
X148952380Y-46604761D02*
X148714285Y-47319047D01*
X149333333Y-47319047D01*
%TO.C,P5*%
X147816905Y-53977381D02*
X147816905Y-52977381D01*
X148197858Y-52977381D01*
X148293096Y-53025001D01*
X148340715Y-53072620D01*
X148388334Y-53167858D01*
X148388334Y-53310715D01*
X148340715Y-53405953D01*
X148293096Y-53453572D01*
X148197858Y-53501191D01*
X147816905Y-53501191D01*
X149293096Y-52977381D02*
X148816905Y-52977381D01*
X148769286Y-53453572D01*
X148816905Y-53405953D01*
X148912143Y-53358334D01*
X149150239Y-53358334D01*
X149245477Y-53405953D01*
X149293096Y-53453572D01*
X149340715Y-53548810D01*
X149340715Y-53786905D01*
X149293096Y-53882143D01*
X149245477Y-53929762D01*
X149150239Y-53977381D01*
X148912143Y-53977381D01*
X148816905Y-53929762D01*
X148769286Y-53882143D01*
%TO.C,P6*%
X147816905Y-59827381D02*
X147816905Y-58827381D01*
X148197858Y-58827381D01*
X148293096Y-58875001D01*
X148340715Y-58922620D01*
X148388334Y-59017858D01*
X148388334Y-59160715D01*
X148340715Y-59255953D01*
X148293096Y-59303572D01*
X148197858Y-59351191D01*
X147816905Y-59351191D01*
X149245477Y-58827381D02*
X149055001Y-58827381D01*
X148959762Y-58875001D01*
X148912143Y-58922620D01*
X148816905Y-59065477D01*
X148769286Y-59255953D01*
X148769286Y-59636905D01*
X148816905Y-59732143D01*
X148864524Y-59779762D01*
X148959762Y-59827381D01*
X149150239Y-59827381D01*
X149245477Y-59779762D01*
X149293096Y-59732143D01*
X149340715Y-59636905D01*
X149340715Y-59398810D01*
X149293096Y-59303572D01*
X149245477Y-59255953D01*
X149150239Y-59208334D01*
X148959762Y-59208334D01*
X148864524Y-59255953D01*
X148816905Y-59303572D01*
X148769286Y-59398810D01*
%TO.C,P7*%
X147761904Y-66152380D02*
X147761904Y-65152380D01*
X148142857Y-65152380D01*
X148238095Y-65200000D01*
X148285714Y-65247619D01*
X148333333Y-65342857D01*
X148333333Y-65485714D01*
X148285714Y-65580952D01*
X148238095Y-65628571D01*
X148142857Y-65676190D01*
X147761904Y-65676190D01*
X148666666Y-65152380D02*
X149333333Y-65152380D01*
X148904761Y-66152380D01*
%TD*%
M02*
