%FSLAX45Y45*%
G04 Gerber Fmt 4.5, Leading zero omitted, Abs format (unit mm)*
G04 Created by KiCad (PCBNEW (5.1.7-0-10_14)) date 2020-11-02 10:01:42*
%MOMM*%
%LPD*%
G01*
G04 APERTURE LIST*
%TA.AperFunction,Profile*%
%ADD10C,0.050000*%
%TD*%
%ADD11C,0.200000*%
%ADD12C,0.300000*%
G04 APERTURE END LIST*
D10*
X7850000Y-3700000D02*
G75*
G02*
X8250000Y-3300000I400000J0D01*
G01*
X8250000Y-8700000D02*
G75*
G02*
X7850000Y-8300000I0J400000D01*
G01*
X19150000Y-8300000D02*
G75*
G02*
X18750000Y-8700000I-400000J0D01*
G01*
X18750000Y-3300000D02*
G75*
G02*
X19150000Y-3700000I0J-400000D01*
G01*
X7850000Y-3700000D02*
X7850000Y-8300000D01*
X18750000Y-8700000D02*
X8250000Y-8700000D01*
X19150000Y-3700000D02*
X19150000Y-8300000D01*
X8250000Y-3300000D02*
X18750000Y-3300000D01*
D11*
X7985000Y-3675000D02*
X8035000Y-3725000D01*
X8035000Y-3675000D02*
X7985000Y-3725000D01*
X8055294Y-3505294D02*
X8105294Y-3555294D01*
X8105294Y-3505294D02*
X8055294Y-3555294D01*
X8055294Y-3844706D02*
X8105294Y-3894706D01*
X8105294Y-3844706D02*
X8055294Y-3894706D01*
X8225000Y-3435000D02*
X8275000Y-3485000D01*
X8275000Y-3435000D02*
X8225000Y-3485000D01*
X8225000Y-3915000D02*
X8275000Y-3965000D01*
X8275000Y-3915000D02*
X8225000Y-3965000D01*
X8394706Y-3505294D02*
X8444706Y-3555294D01*
X8444706Y-3505294D02*
X8394706Y-3555294D01*
X8394706Y-3844706D02*
X8444706Y-3894706D01*
X8444706Y-3844706D02*
X8394706Y-3894706D01*
X8465000Y-3675000D02*
X8515000Y-3725000D01*
X8515000Y-3675000D02*
X8465000Y-3725000D01*
X18485000Y-8275000D02*
X18535000Y-8325000D01*
X18535000Y-8275000D02*
X18485000Y-8325000D01*
X18555294Y-8105294D02*
X18605294Y-8155294D01*
X18605294Y-8105294D02*
X18555294Y-8155294D01*
X18555294Y-8444706D02*
X18605294Y-8494706D01*
X18605294Y-8444706D02*
X18555294Y-8494706D01*
X18725000Y-8035000D02*
X18775000Y-8085000D01*
X18775000Y-8035000D02*
X18725000Y-8085000D01*
X18725000Y-8515000D02*
X18775000Y-8565000D01*
X18775000Y-8515000D02*
X18725000Y-8565000D01*
X18894706Y-8105294D02*
X18944706Y-8155294D01*
X18944706Y-8105294D02*
X18894706Y-8155294D01*
X18894706Y-8444706D02*
X18944706Y-8494706D01*
X18944706Y-8444706D02*
X18894706Y-8494706D01*
X18965000Y-8275000D02*
X19015000Y-8325000D01*
X19015000Y-8275000D02*
X18965000Y-8325000D01*
X7985000Y-8275000D02*
X8035000Y-8325000D01*
X8035000Y-8275000D02*
X7985000Y-8325000D01*
X8055294Y-8105294D02*
X8105294Y-8155294D01*
X8105294Y-8105294D02*
X8055294Y-8155294D01*
X8055294Y-8444706D02*
X8105294Y-8494706D01*
X8105294Y-8444706D02*
X8055294Y-8494706D01*
X8225000Y-8035000D02*
X8275000Y-8085000D01*
X8275000Y-8035000D02*
X8225000Y-8085000D01*
X8225000Y-8515000D02*
X8275000Y-8565000D01*
X8275000Y-8515000D02*
X8225000Y-8565000D01*
X8394706Y-8105294D02*
X8444706Y-8155294D01*
X8444706Y-8105294D02*
X8394706Y-8155294D01*
X8394706Y-8444706D02*
X8444706Y-8494706D01*
X8444706Y-8444706D02*
X8394706Y-8494706D01*
X8465000Y-8275000D02*
X8515000Y-8325000D01*
X8515000Y-8275000D02*
X8465000Y-8325000D01*
X18485000Y-3675000D02*
X18535000Y-3725000D01*
X18535000Y-3675000D02*
X18485000Y-3725000D01*
X18555294Y-3505294D02*
X18605294Y-3555294D01*
X18605294Y-3505294D02*
X18555294Y-3555294D01*
X18555294Y-3844706D02*
X18605294Y-3894706D01*
X18605294Y-3844706D02*
X18555294Y-3894706D01*
X18725000Y-3435000D02*
X18775000Y-3485000D01*
X18775000Y-3435000D02*
X18725000Y-3485000D01*
X18725000Y-3915000D02*
X18775000Y-3965000D01*
X18775000Y-3915000D02*
X18725000Y-3965000D01*
X18894706Y-3505294D02*
X18944706Y-3555294D01*
X18944706Y-3505294D02*
X18894706Y-3555294D01*
X18894706Y-3844706D02*
X18944706Y-3894706D01*
X18944706Y-3844706D02*
X18894706Y-3894706D01*
X18965000Y-3675000D02*
X19015000Y-3725000D01*
X19015000Y-3675000D02*
X18965000Y-3725000D01*
X16878000Y-6422000D02*
G75*
G03*
X16878000Y-6422000I-40000J0D01*
G01*
X16878000Y-6676000D02*
G75*
G03*
X16878000Y-6676000I-40000J0D01*
G01*
X16878000Y-6930000D02*
G75*
G03*
X16878000Y-6930000I-40000J0D01*
G01*
X16878000Y-7184000D02*
G75*
G03*
X16878000Y-7184000I-40000J0D01*
G01*
X16878000Y-7438000D02*
G75*
G03*
X16878000Y-7438000I-40000J0D01*
G01*
X16878000Y-7692000D02*
G75*
G03*
X16878000Y-7692000I-40000J0D01*
G01*
X16878000Y-7946000D02*
G75*
G03*
X16878000Y-7946000I-40000J0D01*
G01*
X16878000Y-8200000D02*
G75*
G03*
X16878000Y-8200000I-40000J0D01*
G01*
X17640000Y-6422000D02*
G75*
G03*
X17640000Y-6422000I-40000J0D01*
G01*
X17640000Y-6676000D02*
G75*
G03*
X17640000Y-6676000I-40000J0D01*
G01*
X17640000Y-6930000D02*
G75*
G03*
X17640000Y-6930000I-40000J0D01*
G01*
X17640000Y-7184000D02*
G75*
G03*
X17640000Y-7184000I-40000J0D01*
G01*
X17640000Y-7438000D02*
G75*
G03*
X17640000Y-7438000I-40000J0D01*
G01*
X17640000Y-7692000D02*
G75*
G03*
X17640000Y-7692000I-40000J0D01*
G01*
X17640000Y-7946000D02*
G75*
G03*
X17640000Y-7946000I-40000J0D01*
G01*
X17640000Y-8200000D02*
G75*
G03*
X17640000Y-8200000I-40000J0D01*
G01*
X15628000Y-6422000D02*
G75*
G03*
X15628000Y-6422000I-40000J0D01*
G01*
X15628000Y-6676000D02*
G75*
G03*
X15628000Y-6676000I-40000J0D01*
G01*
X15628000Y-6930000D02*
G75*
G03*
X15628000Y-6930000I-40000J0D01*
G01*
X15628000Y-7184000D02*
G75*
G03*
X15628000Y-7184000I-40000J0D01*
G01*
X15628000Y-7438000D02*
G75*
G03*
X15628000Y-7438000I-40000J0D01*
G01*
X15628000Y-7692000D02*
G75*
G03*
X15628000Y-7692000I-40000J0D01*
G01*
X15628000Y-7946000D02*
G75*
G03*
X15628000Y-7946000I-40000J0D01*
G01*
X15628000Y-8200000D02*
G75*
G03*
X15628000Y-8200000I-40000J0D01*
G01*
X16390000Y-6422000D02*
G75*
G03*
X16390000Y-6422000I-40000J0D01*
G01*
X16390000Y-6676000D02*
G75*
G03*
X16390000Y-6676000I-40000J0D01*
G01*
X16390000Y-6930000D02*
G75*
G03*
X16390000Y-6930000I-40000J0D01*
G01*
X16390000Y-7184000D02*
G75*
G03*
X16390000Y-7184000I-40000J0D01*
G01*
X16390000Y-7438000D02*
G75*
G03*
X16390000Y-7438000I-40000J0D01*
G01*
X16390000Y-7692000D02*
G75*
G03*
X16390000Y-7692000I-40000J0D01*
G01*
X16390000Y-7946000D02*
G75*
G03*
X16390000Y-7946000I-40000J0D01*
G01*
X16390000Y-8200000D02*
G75*
G03*
X16390000Y-8200000I-40000J0D01*
G01*
X16878000Y-3772000D02*
G75*
G03*
X16878000Y-3772000I-40000J0D01*
G01*
X16878000Y-4026000D02*
G75*
G03*
X16878000Y-4026000I-40000J0D01*
G01*
X16878000Y-4280000D02*
G75*
G03*
X16878000Y-4280000I-40000J0D01*
G01*
X16878000Y-4534000D02*
G75*
G03*
X16878000Y-4534000I-40000J0D01*
G01*
X16878000Y-4788000D02*
G75*
G03*
X16878000Y-4788000I-40000J0D01*
G01*
X16878000Y-5042000D02*
G75*
G03*
X16878000Y-5042000I-40000J0D01*
G01*
X16878000Y-5296000D02*
G75*
G03*
X16878000Y-5296000I-40000J0D01*
G01*
X16878000Y-5550000D02*
G75*
G03*
X16878000Y-5550000I-40000J0D01*
G01*
X17640000Y-3772000D02*
G75*
G03*
X17640000Y-3772000I-40000J0D01*
G01*
X17640000Y-4026000D02*
G75*
G03*
X17640000Y-4026000I-40000J0D01*
G01*
X17640000Y-4280000D02*
G75*
G03*
X17640000Y-4280000I-40000J0D01*
G01*
X17640000Y-4534000D02*
G75*
G03*
X17640000Y-4534000I-40000J0D01*
G01*
X17640000Y-4788000D02*
G75*
G03*
X17640000Y-4788000I-40000J0D01*
G01*
X17640000Y-5042000D02*
G75*
G03*
X17640000Y-5042000I-40000J0D01*
G01*
X17640000Y-5296000D02*
G75*
G03*
X17640000Y-5296000I-40000J0D01*
G01*
X17640000Y-5550000D02*
G75*
G03*
X17640000Y-5550000I-40000J0D01*
G01*
X15628000Y-3772000D02*
G75*
G03*
X15628000Y-3772000I-40000J0D01*
G01*
X15628000Y-4026000D02*
G75*
G03*
X15628000Y-4026000I-40000J0D01*
G01*
X15628000Y-4280000D02*
G75*
G03*
X15628000Y-4280000I-40000J0D01*
G01*
X15628000Y-4534000D02*
G75*
G03*
X15628000Y-4534000I-40000J0D01*
G01*
X15628000Y-4788000D02*
G75*
G03*
X15628000Y-4788000I-40000J0D01*
G01*
X15628000Y-5042000D02*
G75*
G03*
X15628000Y-5042000I-40000J0D01*
G01*
X15628000Y-5296000D02*
G75*
G03*
X15628000Y-5296000I-40000J0D01*
G01*
X15628000Y-5550000D02*
G75*
G03*
X15628000Y-5550000I-40000J0D01*
G01*
X16390000Y-3772000D02*
G75*
G03*
X16390000Y-3772000I-40000J0D01*
G01*
X16390000Y-4026000D02*
G75*
G03*
X16390000Y-4026000I-40000J0D01*
G01*
X16390000Y-4280000D02*
G75*
G03*
X16390000Y-4280000I-40000J0D01*
G01*
X16390000Y-4534000D02*
G75*
G03*
X16390000Y-4534000I-40000J0D01*
G01*
X16390000Y-4788000D02*
G75*
G03*
X16390000Y-4788000I-40000J0D01*
G01*
X16390000Y-5042000D02*
G75*
G03*
X16390000Y-5042000I-40000J0D01*
G01*
X16390000Y-5296000D02*
G75*
G03*
X16390000Y-5296000I-40000J0D01*
G01*
X16390000Y-5550000D02*
G75*
G03*
X16390000Y-5550000I-40000J0D01*
G01*
X10700000Y-4002500D02*
X10700000Y-4097500D01*
X10652500Y-4050000D02*
X10747500Y-4050000D01*
X10950000Y-4002500D02*
X10950000Y-4097500D01*
X10902500Y-4050000D02*
X10997500Y-4050000D01*
X11200000Y-4002500D02*
X11200000Y-4097500D01*
X11152500Y-4050000D02*
X11247500Y-4050000D01*
X11950000Y-4002500D02*
X11950000Y-4097500D01*
X11902500Y-4050000D02*
X11997500Y-4050000D01*
X12200000Y-4002500D02*
X12200000Y-4097500D01*
X12152500Y-4050000D02*
X12247500Y-4050000D01*
X12450000Y-4002500D02*
X12450000Y-4097500D01*
X12402500Y-4050000D02*
X12497500Y-4050000D01*
X14605500Y-5585000D02*
X14605500Y-5680000D01*
X14558000Y-5632500D02*
X14653000Y-5632500D01*
X14855500Y-5585000D02*
X14855500Y-5680000D01*
X14808000Y-5632500D02*
X14903000Y-5632500D01*
X15105500Y-5585000D02*
X15105500Y-5680000D01*
X15058000Y-5632500D02*
X15153000Y-5632500D01*
X9400000Y-7702500D02*
X9400000Y-7797500D01*
X9352500Y-7750000D02*
X9447500Y-7750000D01*
X9650000Y-7702500D02*
X9650000Y-7797500D01*
X9602500Y-7750000D02*
X9697500Y-7750000D01*
X9900000Y-7702500D02*
X9900000Y-7797500D01*
X9852500Y-7750000D02*
X9947500Y-7750000D01*
X10150000Y-7702500D02*
X10150000Y-7797500D01*
X10102500Y-7750000D02*
X10197500Y-7750000D01*
X10400000Y-7702500D02*
X10400000Y-7797500D01*
X10352500Y-7750000D02*
X10447500Y-7750000D01*
X14600000Y-6802500D02*
X14600000Y-6897500D01*
X14552500Y-6850000D02*
X14647500Y-6850000D01*
X14850000Y-6802500D02*
X14850000Y-6897500D01*
X14802500Y-6850000D02*
X14897500Y-6850000D01*
X15100000Y-6802500D02*
X15100000Y-6897500D01*
X15052500Y-6850000D02*
X15147500Y-6850000D01*
X14605500Y-6170000D02*
X14605500Y-6265000D01*
X14558000Y-6217500D02*
X14653000Y-6217500D01*
X14855500Y-6170000D02*
X14855500Y-6265000D01*
X14808000Y-6217500D02*
X14903000Y-6217500D01*
X15105500Y-6170000D02*
X15105500Y-6265000D01*
X15058000Y-6217500D02*
X15153000Y-6217500D01*
X8900000Y-7052500D02*
X8900000Y-7147500D01*
X8852500Y-7100000D02*
X8947500Y-7100000D01*
X9150000Y-7052500D02*
X9150000Y-7147500D01*
X9102500Y-7100000D02*
X9197500Y-7100000D01*
X9400000Y-7052500D02*
X9400000Y-7147500D01*
X9352500Y-7100000D02*
X9447500Y-7100000D01*
X9650000Y-7052500D02*
X9650000Y-7147500D01*
X9602500Y-7100000D02*
X9697500Y-7100000D01*
X9900000Y-7052500D02*
X9900000Y-7147500D01*
X9852500Y-7100000D02*
X9947500Y-7100000D01*
X13000000Y-7702500D02*
X13000000Y-7797500D01*
X12952500Y-7750000D02*
X13047500Y-7750000D01*
X13250000Y-7702500D02*
X13250000Y-7797500D01*
X13202500Y-7750000D02*
X13297500Y-7750000D01*
X13500000Y-7702500D02*
X13500000Y-7797500D01*
X13452500Y-7750000D02*
X13547500Y-7750000D01*
X13750000Y-7702500D02*
X13750000Y-7797500D01*
X13702500Y-7750000D02*
X13797500Y-7750000D01*
X14000000Y-7702500D02*
X14000000Y-7797500D01*
X13952500Y-7750000D02*
X14047500Y-7750000D01*
X13200000Y-4002500D02*
X13200000Y-4097500D01*
X13152500Y-4050000D02*
X13247500Y-4050000D01*
X13450000Y-4002500D02*
X13450000Y-4097500D01*
X13402500Y-4050000D02*
X13497500Y-4050000D01*
X13700000Y-4002500D02*
X13700000Y-4097500D01*
X13652500Y-4050000D02*
X13747500Y-4050000D01*
X11200000Y-7702500D02*
X11200000Y-7797500D01*
X11152500Y-7750000D02*
X11247500Y-7750000D01*
X11450000Y-7702500D02*
X11450000Y-7797500D01*
X11402500Y-7750000D02*
X11497500Y-7750000D01*
X11700000Y-7702500D02*
X11700000Y-7797500D01*
X11652500Y-7750000D02*
X11747500Y-7750000D01*
X11950000Y-7702500D02*
X11950000Y-7797500D01*
X11902500Y-7750000D02*
X11997500Y-7750000D01*
X12200000Y-7702500D02*
X12200000Y-7797500D01*
X12152500Y-7750000D02*
X12247500Y-7750000D01*
X9200000Y-4452500D02*
X9200000Y-4547500D01*
X9152500Y-4500000D02*
X9247500Y-4500000D01*
X9450000Y-4452500D02*
X9450000Y-4547500D01*
X9402500Y-4500000D02*
X9497500Y-4500000D01*
X9700000Y-4452500D02*
X9700000Y-4547500D01*
X9652500Y-4500000D02*
X9747500Y-4500000D01*
X14600000Y-4952500D02*
X14600000Y-5047500D01*
X14552500Y-5000000D02*
X14647500Y-5000000D01*
X14850000Y-4952500D02*
X14850000Y-5047500D01*
X14802500Y-5000000D02*
X14897500Y-5000000D01*
X15100000Y-4952500D02*
X15100000Y-5047500D01*
X15052500Y-5000000D02*
X15147500Y-5000000D01*
X10741356Y-7085356D02*
X10741356Y-7014644D01*
X10670644Y-7014644D01*
X10670644Y-7085356D01*
X10741356Y-7085356D01*
X10995356Y-7085356D02*
X10995356Y-7014644D01*
X10924644Y-7014644D01*
X10924644Y-7085356D01*
X10995356Y-7085356D01*
X11249356Y-7085356D02*
X11249356Y-7014644D01*
X11178644Y-7014644D01*
X11178644Y-7085356D01*
X11249356Y-7085356D01*
X11503356Y-7085356D02*
X11503356Y-7014644D01*
X11432644Y-7014644D01*
X11432644Y-7085356D01*
X11503356Y-7085356D01*
X11757356Y-7085356D02*
X11757356Y-7014644D01*
X11686644Y-7014644D01*
X11686644Y-7085356D01*
X11757356Y-7085356D01*
X12011356Y-7085356D02*
X12011356Y-7014644D01*
X11940644Y-7014644D01*
X11940644Y-7085356D01*
X12011356Y-7085356D01*
X12265356Y-7085356D02*
X12265356Y-7014644D01*
X12194644Y-7014644D01*
X12194644Y-7085356D01*
X12265356Y-7085356D01*
X12519356Y-7085356D02*
X12519356Y-7014644D01*
X12448644Y-7014644D01*
X12448644Y-7085356D01*
X12519356Y-7085356D01*
X12773356Y-7085356D02*
X12773356Y-7014644D01*
X12702644Y-7014644D01*
X12702644Y-7085356D01*
X12773356Y-7085356D01*
X13027356Y-7085356D02*
X13027356Y-7014644D01*
X12956644Y-7014644D01*
X12956644Y-7085356D01*
X13027356Y-7085356D01*
X13281356Y-7085356D02*
X13281356Y-7014644D01*
X13210644Y-7014644D01*
X13210644Y-7085356D01*
X13281356Y-7085356D01*
X13535356Y-7085356D02*
X13535356Y-7014644D01*
X13464644Y-7014644D01*
X13464644Y-7085356D01*
X13535356Y-7085356D01*
X13789356Y-7085356D02*
X13789356Y-7014644D01*
X13718644Y-7014644D01*
X13718644Y-7085356D01*
X13789356Y-7085356D01*
X14043356Y-7085356D02*
X14043356Y-7014644D01*
X13972644Y-7014644D01*
X13972644Y-7085356D01*
X14043356Y-7085356D01*
X10479356Y-4785356D02*
X10479356Y-4714644D01*
X10408644Y-4714644D01*
X10408644Y-4785356D01*
X10479356Y-4785356D01*
X10733356Y-4785356D02*
X10733356Y-4714644D01*
X10662644Y-4714644D01*
X10662644Y-4785356D01*
X10733356Y-4785356D01*
X10987356Y-4785356D02*
X10987356Y-4714644D01*
X10916644Y-4714644D01*
X10916644Y-4785356D01*
X10987356Y-4785356D01*
X11241356Y-4785356D02*
X11241356Y-4714644D01*
X11170644Y-4714644D01*
X11170644Y-4785356D01*
X11241356Y-4785356D01*
X11495356Y-4785356D02*
X11495356Y-4714644D01*
X11424644Y-4714644D01*
X11424644Y-4785356D01*
X11495356Y-4785356D01*
X11749356Y-4785356D02*
X11749356Y-4714644D01*
X11678644Y-4714644D01*
X11678644Y-4785356D01*
X11749356Y-4785356D01*
X12003356Y-4785356D02*
X12003356Y-4714644D01*
X11932644Y-4714644D01*
X11932644Y-4785356D01*
X12003356Y-4785356D01*
X12257356Y-4785356D02*
X12257356Y-4714644D01*
X12186644Y-4714644D01*
X12186644Y-4785356D01*
X12257356Y-4785356D01*
X12511356Y-4785356D02*
X12511356Y-4714644D01*
X12440644Y-4714644D01*
X12440644Y-4785356D01*
X12511356Y-4785356D01*
X12765356Y-4785356D02*
X12765356Y-4714644D01*
X12694644Y-4714644D01*
X12694644Y-4785356D01*
X12765356Y-4785356D01*
X13019356Y-4785356D02*
X13019356Y-4714644D01*
X12948644Y-4714644D01*
X12948644Y-4785356D01*
X13019356Y-4785356D01*
X13273356Y-4785356D02*
X13273356Y-4714644D01*
X13202644Y-4714644D01*
X13202644Y-4785356D01*
X13273356Y-4785356D01*
X13527356Y-4785356D02*
X13527356Y-4714644D01*
X13456644Y-4714644D01*
X13456644Y-4785356D01*
X13527356Y-4785356D01*
X13781356Y-4785356D02*
X13781356Y-4714644D01*
X13710644Y-4714644D01*
X13710644Y-4785356D01*
X13781356Y-4785356D01*
X14035356Y-4785356D02*
X14035356Y-4714644D01*
X13964644Y-4714644D01*
X13964644Y-4785356D01*
X14035356Y-4785356D01*
X18385356Y-4885356D02*
X18385356Y-4814644D01*
X18314644Y-4814644D01*
X18314644Y-4885356D01*
X18385356Y-4885356D01*
X18385356Y-5139356D02*
X18385356Y-5068644D01*
X18314644Y-5068644D01*
X18314644Y-5139356D01*
X18385356Y-5139356D01*
X18385356Y-5393356D02*
X18385356Y-5322644D01*
X18314644Y-5322644D01*
X18314644Y-5393356D01*
X18385356Y-5393356D01*
X18385356Y-5647356D02*
X18385356Y-5576644D01*
X18314644Y-5576644D01*
X18314644Y-5647356D01*
X18385356Y-5647356D01*
X18385356Y-5901356D02*
X18385356Y-5830644D01*
X18314644Y-5830644D01*
X18314644Y-5901356D01*
X18385356Y-5901356D01*
X18385356Y-6155356D02*
X18385356Y-6084644D01*
X18314644Y-6084644D01*
X18314644Y-6155356D01*
X18385356Y-6155356D01*
X18385356Y-6409356D02*
X18385356Y-6338644D01*
X18314644Y-6338644D01*
X18314644Y-6409356D01*
X18385356Y-6409356D01*
X18385356Y-6663356D02*
X18385356Y-6592644D01*
X18314644Y-6592644D01*
X18314644Y-6663356D01*
X18385356Y-6663356D01*
X18385356Y-6917356D02*
X18385356Y-6846644D01*
X18314644Y-6846644D01*
X18314644Y-6917356D01*
X18385356Y-6917356D01*
X18385356Y-7171356D02*
X18385356Y-7100644D01*
X18314644Y-7100644D01*
X18314644Y-7171356D01*
X18385356Y-7171356D01*
X18639356Y-4885356D02*
X18639356Y-4814644D01*
X18568644Y-4814644D01*
X18568644Y-4885356D01*
X18639356Y-4885356D01*
X18639356Y-5139356D02*
X18639356Y-5068644D01*
X18568644Y-5068644D01*
X18568644Y-5139356D01*
X18639356Y-5139356D01*
X18639356Y-5393356D02*
X18639356Y-5322644D01*
X18568644Y-5322644D01*
X18568644Y-5393356D01*
X18639356Y-5393356D01*
X18639356Y-5647356D02*
X18639356Y-5576644D01*
X18568644Y-5576644D01*
X18568644Y-5647356D01*
X18639356Y-5647356D01*
X18639356Y-5901356D02*
X18639356Y-5830644D01*
X18568644Y-5830644D01*
X18568644Y-5901356D01*
X18639356Y-5901356D01*
X18639356Y-6155356D02*
X18639356Y-6084644D01*
X18568644Y-6084644D01*
X18568644Y-6155356D01*
X18639356Y-6155356D01*
X18639356Y-6409356D02*
X18639356Y-6338644D01*
X18568644Y-6338644D01*
X18568644Y-6409356D01*
X18639356Y-6409356D01*
X18639356Y-6663356D02*
X18639356Y-6592644D01*
X18568644Y-6592644D01*
X18568644Y-6663356D01*
X18639356Y-6663356D01*
X18639356Y-6917356D02*
X18639356Y-6846644D01*
X18568644Y-6846644D01*
X18568644Y-6917356D01*
X18639356Y-6917356D01*
X18639356Y-7171356D02*
X18639356Y-7100644D01*
X18568644Y-7100644D01*
X18568644Y-7171356D01*
X18639356Y-7171356D01*
X8161500Y-5189500D02*
X8216500Y-5134500D01*
X8161500Y-5079500D01*
X8106500Y-5134500D01*
X8161500Y-5189500D01*
X8161500Y-6713500D02*
X8216500Y-6658500D01*
X8161500Y-6603500D01*
X8106500Y-6658500D01*
X8161500Y-6713500D01*
X8415500Y-5189500D02*
X8470500Y-5134500D01*
X8415500Y-5079500D01*
X8360500Y-5134500D01*
X8415500Y-5189500D01*
X8415500Y-6713500D02*
X8470500Y-6658500D01*
X8415500Y-6603500D01*
X8360500Y-6658500D01*
X8415500Y-6713500D01*
X8669500Y-5189500D02*
X8724500Y-5134500D01*
X8669500Y-5079500D01*
X8614500Y-5134500D01*
X8669500Y-5189500D01*
X8669500Y-6713500D02*
X8724500Y-6658500D01*
X8669500Y-6603500D01*
X8614500Y-6658500D01*
X8669500Y-6713500D01*
X8923500Y-5189500D02*
X8978500Y-5134500D01*
X8923500Y-5079500D01*
X8868500Y-5134500D01*
X8923500Y-5189500D01*
X8923500Y-6713500D02*
X8978500Y-6658500D01*
X8923500Y-6603500D01*
X8868500Y-6658500D01*
X8923500Y-6713500D01*
X9177500Y-5189500D02*
X9232500Y-5134500D01*
X9177500Y-5079500D01*
X9122500Y-5134500D01*
X9177500Y-5189500D01*
X9177500Y-6713500D02*
X9232500Y-6658500D01*
X9177500Y-6603500D01*
X9122500Y-6658500D01*
X9177500Y-6713500D01*
X9431500Y-5189500D02*
X9486500Y-5134500D01*
X9431500Y-5079500D01*
X9376500Y-5134500D01*
X9431500Y-5189500D01*
X9431500Y-6713500D02*
X9486500Y-6658500D01*
X9431500Y-6603500D01*
X9376500Y-6658500D01*
X9431500Y-6713500D01*
X9685500Y-5189500D02*
X9740500Y-5134500D01*
X9685500Y-5079500D01*
X9630500Y-5134500D01*
X9685500Y-5189500D01*
X9685500Y-6713500D02*
X9740500Y-6658500D01*
X9685500Y-6603500D01*
X9630500Y-6658500D01*
X9685500Y-6713500D01*
X9939500Y-5189500D02*
X9994500Y-5134500D01*
X9939500Y-5079500D01*
X9884500Y-5134500D01*
X9939500Y-5189500D01*
X9939500Y-6713500D02*
X9994500Y-6658500D01*
X9939500Y-6603500D01*
X9884500Y-6658500D01*
X9939500Y-6713500D01*
X10193500Y-5189500D02*
X10248500Y-5134500D01*
X10193500Y-5079500D01*
X10138500Y-5134500D01*
X10193500Y-5189500D01*
X10193500Y-6713500D02*
X10248500Y-6658500D01*
X10193500Y-6603500D01*
X10138500Y-6658500D01*
X10193500Y-6713500D01*
X10447500Y-5189500D02*
X10502500Y-5134500D01*
X10447500Y-5079500D01*
X10392500Y-5134500D01*
X10447500Y-5189500D01*
X10447500Y-6713500D02*
X10502500Y-6658500D01*
X10447500Y-6603500D01*
X10392500Y-6658500D01*
X10447500Y-6713500D01*
X10701500Y-5189500D02*
X10756500Y-5134500D01*
X10701500Y-5079500D01*
X10646500Y-5134500D01*
X10701500Y-5189500D01*
X10701500Y-6713500D02*
X10756500Y-6658500D01*
X10701500Y-6603500D01*
X10646500Y-6658500D01*
X10701500Y-6713500D01*
X10955500Y-5189500D02*
X11010500Y-5134500D01*
X10955500Y-5079500D01*
X10900500Y-5134500D01*
X10955500Y-5189500D01*
X10955500Y-6713500D02*
X11010500Y-6658500D01*
X10955500Y-6603500D01*
X10900500Y-6658500D01*
X10955500Y-6713500D01*
X11209500Y-5189500D02*
X11264500Y-5134500D01*
X11209500Y-5079500D01*
X11154500Y-5134500D01*
X11209500Y-5189500D01*
X11209500Y-6713500D02*
X11264500Y-6658500D01*
X11209500Y-6603500D01*
X11154500Y-6658500D01*
X11209500Y-6713500D01*
X11463500Y-5189500D02*
X11518500Y-5134500D01*
X11463500Y-5079500D01*
X11408500Y-5134500D01*
X11463500Y-5189500D01*
X11463500Y-6713500D02*
X11518500Y-6658500D01*
X11463500Y-6603500D01*
X11408500Y-6658500D01*
X11463500Y-6713500D01*
X11717500Y-5189500D02*
X11772500Y-5134500D01*
X11717500Y-5079500D01*
X11662500Y-5134500D01*
X11717500Y-5189500D01*
X11717500Y-6713500D02*
X11772500Y-6658500D01*
X11717500Y-6603500D01*
X11662500Y-6658500D01*
X11717500Y-6713500D01*
X11971500Y-5189500D02*
X12026500Y-5134500D01*
X11971500Y-5079500D01*
X11916500Y-5134500D01*
X11971500Y-5189500D01*
X11971500Y-6713500D02*
X12026500Y-6658500D01*
X11971500Y-6603500D01*
X11916500Y-6658500D01*
X11971500Y-6713500D01*
X12225500Y-5189500D02*
X12280500Y-5134500D01*
X12225500Y-5079500D01*
X12170500Y-5134500D01*
X12225500Y-5189500D01*
X12225500Y-6713500D02*
X12280500Y-6658500D01*
X12225500Y-6603500D01*
X12170500Y-6658500D01*
X12225500Y-6713500D01*
X12479500Y-5189500D02*
X12534500Y-5134500D01*
X12479500Y-5079500D01*
X12424500Y-5134500D01*
X12479500Y-5189500D01*
X12479500Y-6713500D02*
X12534500Y-6658500D01*
X12479500Y-6603500D01*
X12424500Y-6658500D01*
X12479500Y-6713500D01*
X12733500Y-5189500D02*
X12788500Y-5134500D01*
X12733500Y-5079500D01*
X12678500Y-5134500D01*
X12733500Y-5189500D01*
X12733500Y-6713500D02*
X12788500Y-6658500D01*
X12733500Y-6603500D01*
X12678500Y-6658500D01*
X12733500Y-6713500D01*
X12987500Y-5189500D02*
X13042500Y-5134500D01*
X12987500Y-5079500D01*
X12932500Y-5134500D01*
X12987500Y-5189500D01*
X12987500Y-6713500D02*
X13042500Y-6658500D01*
X12987500Y-6603500D01*
X12932500Y-6658500D01*
X12987500Y-6713500D01*
X13241500Y-5189500D02*
X13296500Y-5134500D01*
X13241500Y-5079500D01*
X13186500Y-5134500D01*
X13241500Y-5189500D01*
X13241500Y-6713500D02*
X13296500Y-6658500D01*
X13241500Y-6603500D01*
X13186500Y-6658500D01*
X13241500Y-6713500D01*
X13495500Y-5189500D02*
X13550500Y-5134500D01*
X13495500Y-5079500D01*
X13440500Y-5134500D01*
X13495500Y-5189500D01*
X13495500Y-6713500D02*
X13550500Y-6658500D01*
X13495500Y-6603500D01*
X13440500Y-6658500D01*
X13495500Y-6713500D01*
X13749500Y-5189500D02*
X13804500Y-5134500D01*
X13749500Y-5079500D01*
X13694500Y-5134500D01*
X13749500Y-5189500D01*
X13749500Y-6713500D02*
X13804500Y-6658500D01*
X13749500Y-6603500D01*
X13694500Y-6658500D01*
X13749500Y-6713500D01*
X14003500Y-5189500D02*
X14058500Y-5134500D01*
X14003500Y-5079500D01*
X13948500Y-5134500D01*
X14003500Y-5189500D01*
X14003500Y-6713500D02*
X14058500Y-6658500D01*
X14003500Y-6603500D01*
X13948500Y-6658500D01*
X14003500Y-6713500D01*
X18590000Y-3540000D02*
X18910000Y-3860000D01*
X18910000Y-3540000D02*
X18590000Y-3860000D01*
X18910000Y-3700000D02*
G75*
G03*
X18910000Y-3700000I-160000J0D01*
G01*
X8090000Y-3540000D02*
X8410000Y-3860000D01*
X8410000Y-3540000D02*
X8090000Y-3860000D01*
X8410000Y-3700000D02*
G75*
G03*
X8410000Y-3700000I-160000J0D01*
G01*
X18590000Y-8140000D02*
X18910000Y-8460000D01*
X18910000Y-8140000D02*
X18590000Y-8460000D01*
X18910000Y-8300000D02*
G75*
G03*
X18910000Y-8300000I-160000J0D01*
G01*
X8090000Y-8140000D02*
X8410000Y-8460000D01*
X8410000Y-8140000D02*
X8090000Y-8460000D01*
X8410000Y-8300000D02*
G75*
G03*
X8410000Y-8300000I-160000J0D01*
G01*
D12*
X8133928Y-9168214D02*
X8133928Y-8868214D01*
X8205357Y-8868214D01*
X8248214Y-8882500D01*
X8276786Y-8911072D01*
X8291071Y-8939643D01*
X8305357Y-8996786D01*
X8305357Y-9039643D01*
X8291071Y-9096786D01*
X8276786Y-9125357D01*
X8248214Y-9153929D01*
X8205357Y-9168214D01*
X8133928Y-9168214D01*
X8433928Y-9168214D02*
X8433928Y-8968214D01*
X8433928Y-9025357D02*
X8448214Y-8996786D01*
X8462500Y-8982500D01*
X8491071Y-8968214D01*
X8519643Y-8968214D01*
X8619643Y-9168214D02*
X8619643Y-8968214D01*
X8619643Y-8868214D02*
X8605357Y-8882500D01*
X8619643Y-8896786D01*
X8633928Y-8882500D01*
X8619643Y-8868214D01*
X8619643Y-8896786D01*
X8805357Y-9168214D02*
X8776786Y-9153929D01*
X8762500Y-9125357D01*
X8762500Y-8868214D01*
X8962500Y-9168214D02*
X8933928Y-9153929D01*
X8919643Y-9125357D01*
X8919643Y-8868214D01*
X9305357Y-9168214D02*
X9305357Y-8868214D01*
X9405357Y-9082500D01*
X9505357Y-8868214D01*
X9505357Y-9168214D01*
X9776786Y-9168214D02*
X9776786Y-9011072D01*
X9762500Y-8982500D01*
X9733928Y-8968214D01*
X9676786Y-8968214D01*
X9648214Y-8982500D01*
X9776786Y-9153929D02*
X9748214Y-9168214D01*
X9676786Y-9168214D01*
X9648214Y-9153929D01*
X9633928Y-9125357D01*
X9633928Y-9096786D01*
X9648214Y-9068214D01*
X9676786Y-9053929D01*
X9748214Y-9053929D01*
X9776786Y-9039643D01*
X9919643Y-8968214D02*
X9919643Y-9268214D01*
X9919643Y-8982500D02*
X9948214Y-8968214D01*
X10005357Y-8968214D01*
X10033928Y-8982500D01*
X10048214Y-8996786D01*
X10062500Y-9025357D01*
X10062500Y-9111072D01*
X10048214Y-9139643D01*
X10033928Y-9153929D01*
X10005357Y-9168214D01*
X9948214Y-9168214D01*
X9919643Y-9153929D01*
X10191071Y-9139643D02*
X10205357Y-9153929D01*
X10191071Y-9168214D01*
X10176786Y-9153929D01*
X10191071Y-9139643D01*
X10191071Y-9168214D01*
X10191071Y-8982500D02*
X10205357Y-8996786D01*
X10191071Y-9011072D01*
X10176786Y-8996786D01*
X10191071Y-8982500D01*
X10191071Y-9011072D01*
X7797500Y-9637500D02*
X7847500Y-9687500D01*
X7847500Y-9637500D02*
X7797500Y-9687500D01*
X8191071Y-9498214D02*
X8219643Y-9498214D01*
X8248214Y-9512500D01*
X8262500Y-9526786D01*
X8276786Y-9555357D01*
X8291071Y-9612500D01*
X8291071Y-9683929D01*
X8276786Y-9741072D01*
X8262500Y-9769643D01*
X8248214Y-9783929D01*
X8219643Y-9798214D01*
X8191071Y-9798214D01*
X8162500Y-9783929D01*
X8148214Y-9769643D01*
X8133928Y-9741072D01*
X8119643Y-9683929D01*
X8119643Y-9612500D01*
X8133928Y-9555357D01*
X8148214Y-9526786D01*
X8162500Y-9512500D01*
X8191071Y-9498214D01*
X8419643Y-9769643D02*
X8433928Y-9783929D01*
X8419643Y-9798214D01*
X8405357Y-9783929D01*
X8419643Y-9769643D01*
X8419643Y-9798214D01*
X8705357Y-9498214D02*
X8562500Y-9498214D01*
X8548214Y-9641072D01*
X8562500Y-9626786D01*
X8591071Y-9612500D01*
X8662500Y-9612500D01*
X8691071Y-9626786D01*
X8705357Y-9641072D01*
X8719643Y-9669643D01*
X8719643Y-9741072D01*
X8705357Y-9769643D01*
X8691071Y-9783929D01*
X8662500Y-9798214D01*
X8591071Y-9798214D01*
X8562500Y-9783929D01*
X8548214Y-9769643D01*
X8905357Y-9498214D02*
X8933928Y-9498214D01*
X8962500Y-9512500D01*
X8976786Y-9526786D01*
X8991071Y-9555357D01*
X9005357Y-9612500D01*
X9005357Y-9683929D01*
X8991071Y-9741072D01*
X8976786Y-9769643D01*
X8962500Y-9783929D01*
X8933928Y-9798214D01*
X8905357Y-9798214D01*
X8876786Y-9783929D01*
X8862500Y-9769643D01*
X8848214Y-9741072D01*
X8833928Y-9683929D01*
X8833928Y-9612500D01*
X8848214Y-9555357D01*
X8862500Y-9526786D01*
X8876786Y-9512500D01*
X8905357Y-9498214D01*
X9133928Y-9798214D02*
X9133928Y-9598214D01*
X9133928Y-9626786D02*
X9148214Y-9612500D01*
X9176786Y-9598214D01*
X9219643Y-9598214D01*
X9248214Y-9612500D01*
X9262500Y-9641072D01*
X9262500Y-9798214D01*
X9262500Y-9641072D02*
X9276786Y-9612500D01*
X9305357Y-9598214D01*
X9348214Y-9598214D01*
X9376786Y-9612500D01*
X9391071Y-9641072D01*
X9391071Y-9798214D01*
X9533928Y-9798214D02*
X9533928Y-9598214D01*
X9533928Y-9626786D02*
X9548214Y-9612500D01*
X9576786Y-9598214D01*
X9619643Y-9598214D01*
X9648214Y-9612500D01*
X9662500Y-9641072D01*
X9662500Y-9798214D01*
X9662500Y-9641072D02*
X9676786Y-9612500D01*
X9705357Y-9598214D01*
X9748214Y-9598214D01*
X9776786Y-9612500D01*
X9791071Y-9641072D01*
X9791071Y-9798214D01*
X10376786Y-9483929D02*
X10119643Y-9869643D01*
X10762500Y-9498214D02*
X10791071Y-9498214D01*
X10819643Y-9512500D01*
X10833928Y-9526786D01*
X10848214Y-9555357D01*
X10862500Y-9612500D01*
X10862500Y-9683929D01*
X10848214Y-9741072D01*
X10833928Y-9769643D01*
X10819643Y-9783929D01*
X10791071Y-9798214D01*
X10762500Y-9798214D01*
X10733928Y-9783929D01*
X10719643Y-9769643D01*
X10705357Y-9741072D01*
X10691071Y-9683929D01*
X10691071Y-9612500D01*
X10705357Y-9555357D01*
X10719643Y-9526786D01*
X10733928Y-9512500D01*
X10762500Y-9498214D01*
X10991071Y-9769643D02*
X11005357Y-9783929D01*
X10991071Y-9798214D01*
X10976786Y-9783929D01*
X10991071Y-9769643D01*
X10991071Y-9798214D01*
X11191071Y-9498214D02*
X11219643Y-9498214D01*
X11248214Y-9512500D01*
X11262500Y-9526786D01*
X11276786Y-9555357D01*
X11291071Y-9612500D01*
X11291071Y-9683929D01*
X11276786Y-9741072D01*
X11262500Y-9769643D01*
X11248214Y-9783929D01*
X11219643Y-9798214D01*
X11191071Y-9798214D01*
X11162500Y-9783929D01*
X11148214Y-9769643D01*
X11133928Y-9741072D01*
X11119643Y-9683929D01*
X11119643Y-9612500D01*
X11133928Y-9555357D01*
X11148214Y-9526786D01*
X11162500Y-9512500D01*
X11191071Y-9498214D01*
X11405357Y-9526786D02*
X11419643Y-9512500D01*
X11448214Y-9498214D01*
X11519643Y-9498214D01*
X11548214Y-9512500D01*
X11562500Y-9526786D01*
X11576786Y-9555357D01*
X11576786Y-9583929D01*
X11562500Y-9626786D01*
X11391071Y-9798214D01*
X11576786Y-9798214D01*
X11762500Y-9498214D02*
X11791071Y-9498214D01*
X11819643Y-9512500D01*
X11833928Y-9526786D01*
X11848214Y-9555357D01*
X11862500Y-9612500D01*
X11862500Y-9683929D01*
X11848214Y-9741072D01*
X11833928Y-9769643D01*
X11819643Y-9783929D01*
X11791071Y-9798214D01*
X11762500Y-9798214D01*
X11733928Y-9783929D01*
X11719643Y-9769643D01*
X11705357Y-9741072D01*
X11691071Y-9683929D01*
X11691071Y-9612500D01*
X11705357Y-9555357D01*
X11719643Y-9526786D01*
X11733928Y-9512500D01*
X11762500Y-9498214D01*
X11976786Y-9498214D02*
X11976786Y-9555357D01*
X12091071Y-9498214D02*
X12091071Y-9555357D01*
X12533928Y-9912500D02*
X12519643Y-9898214D01*
X12491071Y-9855357D01*
X12476786Y-9826786D01*
X12462500Y-9783929D01*
X12448214Y-9712500D01*
X12448214Y-9655357D01*
X12462500Y-9583929D01*
X12476786Y-9541072D01*
X12491071Y-9512500D01*
X12519643Y-9469643D01*
X12533928Y-9455357D01*
X12619643Y-9498214D02*
X12805357Y-9498214D01*
X12705357Y-9612500D01*
X12748214Y-9612500D01*
X12776786Y-9626786D01*
X12791071Y-9641072D01*
X12805357Y-9669643D01*
X12805357Y-9741072D01*
X12791071Y-9769643D01*
X12776786Y-9783929D01*
X12748214Y-9798214D01*
X12662500Y-9798214D01*
X12633928Y-9783929D01*
X12619643Y-9769643D01*
X12919643Y-9526786D02*
X12933928Y-9512500D01*
X12962500Y-9498214D01*
X13033928Y-9498214D01*
X13062500Y-9512500D01*
X13076786Y-9526786D01*
X13091071Y-9555357D01*
X13091071Y-9583929D01*
X13076786Y-9626786D01*
X12905357Y-9798214D01*
X13091071Y-9798214D01*
X13448214Y-9798214D02*
X13448214Y-9498214D01*
X13576786Y-9798214D02*
X13576786Y-9641072D01*
X13562500Y-9612500D01*
X13533928Y-9598214D01*
X13491071Y-9598214D01*
X13462500Y-9612500D01*
X13448214Y-9626786D01*
X13762500Y-9798214D02*
X13733928Y-9783929D01*
X13719643Y-9769643D01*
X13705357Y-9741072D01*
X13705357Y-9655357D01*
X13719643Y-9626786D01*
X13733928Y-9612500D01*
X13762500Y-9598214D01*
X13805357Y-9598214D01*
X13833928Y-9612500D01*
X13848214Y-9626786D01*
X13862500Y-9655357D01*
X13862500Y-9741072D01*
X13848214Y-9769643D01*
X13833928Y-9783929D01*
X13805357Y-9798214D01*
X13762500Y-9798214D01*
X14033928Y-9798214D02*
X14005357Y-9783929D01*
X13991071Y-9755357D01*
X13991071Y-9498214D01*
X14262500Y-9783929D02*
X14233928Y-9798214D01*
X14176786Y-9798214D01*
X14148214Y-9783929D01*
X14133928Y-9755357D01*
X14133928Y-9641072D01*
X14148214Y-9612500D01*
X14176786Y-9598214D01*
X14233928Y-9598214D01*
X14262500Y-9612500D01*
X14276786Y-9641072D01*
X14276786Y-9669643D01*
X14133928Y-9698214D01*
X14391071Y-9783929D02*
X14419643Y-9798214D01*
X14476786Y-9798214D01*
X14505357Y-9783929D01*
X14519643Y-9755357D01*
X14519643Y-9741072D01*
X14505357Y-9712500D01*
X14476786Y-9698214D01*
X14433928Y-9698214D01*
X14405357Y-9683929D01*
X14391071Y-9655357D01*
X14391071Y-9641072D01*
X14405357Y-9612500D01*
X14433928Y-9598214D01*
X14476786Y-9598214D01*
X14505357Y-9612500D01*
X14619643Y-9912500D02*
X14633928Y-9898214D01*
X14662500Y-9855357D01*
X14676786Y-9826786D01*
X14691071Y-9783929D01*
X14705357Y-9712500D01*
X14705357Y-9655357D01*
X14691071Y-9583929D01*
X14676786Y-9541072D01*
X14662500Y-9512500D01*
X14633928Y-9469643D01*
X14619643Y-9455357D01*
X7847500Y-10058500D02*
G75*
G03*
X7847500Y-10058500I-40000J0D01*
G01*
X8191071Y-9894214D02*
X8219643Y-9894214D01*
X8248214Y-9908500D01*
X8262500Y-9922786D01*
X8276786Y-9951357D01*
X8291071Y-10008500D01*
X8291071Y-10079929D01*
X8276786Y-10137072D01*
X8262500Y-10165643D01*
X8248214Y-10179929D01*
X8219643Y-10194214D01*
X8191071Y-10194214D01*
X8162500Y-10179929D01*
X8148214Y-10165643D01*
X8133928Y-10137072D01*
X8119643Y-10079929D01*
X8119643Y-10008500D01*
X8133928Y-9951357D01*
X8148214Y-9922786D01*
X8162500Y-9908500D01*
X8191071Y-9894214D01*
X8419643Y-10165643D02*
X8433928Y-10179929D01*
X8419643Y-10194214D01*
X8405357Y-10179929D01*
X8419643Y-10165643D01*
X8419643Y-10194214D01*
X8605357Y-10022786D02*
X8576786Y-10008500D01*
X8562500Y-9994214D01*
X8548214Y-9965643D01*
X8548214Y-9951357D01*
X8562500Y-9922786D01*
X8576786Y-9908500D01*
X8605357Y-9894214D01*
X8662500Y-9894214D01*
X8691071Y-9908500D01*
X8705357Y-9922786D01*
X8719643Y-9951357D01*
X8719643Y-9965643D01*
X8705357Y-9994214D01*
X8691071Y-10008500D01*
X8662500Y-10022786D01*
X8605357Y-10022786D01*
X8576786Y-10037072D01*
X8562500Y-10051357D01*
X8548214Y-10079929D01*
X8548214Y-10137072D01*
X8562500Y-10165643D01*
X8576786Y-10179929D01*
X8605357Y-10194214D01*
X8662500Y-10194214D01*
X8691071Y-10179929D01*
X8705357Y-10165643D01*
X8719643Y-10137072D01*
X8719643Y-10079929D01*
X8705357Y-10051357D01*
X8691071Y-10037072D01*
X8662500Y-10022786D01*
X8905357Y-9894214D02*
X8933928Y-9894214D01*
X8962500Y-9908500D01*
X8976786Y-9922786D01*
X8991071Y-9951357D01*
X9005357Y-10008500D01*
X9005357Y-10079929D01*
X8991071Y-10137072D01*
X8976786Y-10165643D01*
X8962500Y-10179929D01*
X8933928Y-10194214D01*
X8905357Y-10194214D01*
X8876786Y-10179929D01*
X8862500Y-10165643D01*
X8848214Y-10137072D01*
X8833928Y-10079929D01*
X8833928Y-10008500D01*
X8848214Y-9951357D01*
X8862500Y-9922786D01*
X8876786Y-9908500D01*
X8905357Y-9894214D01*
X9133928Y-10194214D02*
X9133928Y-9994214D01*
X9133928Y-10022786D02*
X9148214Y-10008500D01*
X9176786Y-9994214D01*
X9219643Y-9994214D01*
X9248214Y-10008500D01*
X9262500Y-10037072D01*
X9262500Y-10194214D01*
X9262500Y-10037072D02*
X9276786Y-10008500D01*
X9305357Y-9994214D01*
X9348214Y-9994214D01*
X9376786Y-10008500D01*
X9391071Y-10037072D01*
X9391071Y-10194214D01*
X9533928Y-10194214D02*
X9533928Y-9994214D01*
X9533928Y-10022786D02*
X9548214Y-10008500D01*
X9576786Y-9994214D01*
X9619643Y-9994214D01*
X9648214Y-10008500D01*
X9662500Y-10037072D01*
X9662500Y-10194214D01*
X9662500Y-10037072D02*
X9676786Y-10008500D01*
X9705357Y-9994214D01*
X9748214Y-9994214D01*
X9776786Y-10008500D01*
X9791071Y-10037072D01*
X9791071Y-10194214D01*
X10376786Y-9879929D02*
X10119643Y-10265643D01*
X10762500Y-9894214D02*
X10791071Y-9894214D01*
X10819643Y-9908500D01*
X10833928Y-9922786D01*
X10848214Y-9951357D01*
X10862500Y-10008500D01*
X10862500Y-10079929D01*
X10848214Y-10137072D01*
X10833928Y-10165643D01*
X10819643Y-10179929D01*
X10791071Y-10194214D01*
X10762500Y-10194214D01*
X10733928Y-10179929D01*
X10719643Y-10165643D01*
X10705357Y-10137072D01*
X10691071Y-10079929D01*
X10691071Y-10008500D01*
X10705357Y-9951357D01*
X10719643Y-9922786D01*
X10733928Y-9908500D01*
X10762500Y-9894214D01*
X10991071Y-10165643D02*
X11005357Y-10179929D01*
X10991071Y-10194214D01*
X10976786Y-10179929D01*
X10991071Y-10165643D01*
X10991071Y-10194214D01*
X11191071Y-9894214D02*
X11219643Y-9894214D01*
X11248214Y-9908500D01*
X11262500Y-9922786D01*
X11276786Y-9951357D01*
X11291071Y-10008500D01*
X11291071Y-10079929D01*
X11276786Y-10137072D01*
X11262500Y-10165643D01*
X11248214Y-10179929D01*
X11219643Y-10194214D01*
X11191071Y-10194214D01*
X11162500Y-10179929D01*
X11148214Y-10165643D01*
X11133928Y-10137072D01*
X11119643Y-10079929D01*
X11119643Y-10008500D01*
X11133928Y-9951357D01*
X11148214Y-9922786D01*
X11162500Y-9908500D01*
X11191071Y-9894214D01*
X11391071Y-9894214D02*
X11576786Y-9894214D01*
X11476786Y-10008500D01*
X11519643Y-10008500D01*
X11548214Y-10022786D01*
X11562500Y-10037072D01*
X11576786Y-10065643D01*
X11576786Y-10137072D01*
X11562500Y-10165643D01*
X11548214Y-10179929D01*
X11519643Y-10194214D01*
X11433928Y-10194214D01*
X11405357Y-10179929D01*
X11391071Y-10165643D01*
X11862500Y-10194214D02*
X11691071Y-10194214D01*
X11776786Y-10194214D02*
X11776786Y-9894214D01*
X11748214Y-9937072D01*
X11719643Y-9965643D01*
X11691071Y-9979929D01*
X11976786Y-9894214D02*
X11976786Y-9951357D01*
X12091071Y-9894214D02*
X12091071Y-9951357D01*
X12533928Y-10308500D02*
X12519643Y-10294214D01*
X12491071Y-10251357D01*
X12476786Y-10222786D01*
X12462500Y-10179929D01*
X12448214Y-10108500D01*
X12448214Y-10051357D01*
X12462500Y-9979929D01*
X12476786Y-9937072D01*
X12491071Y-9908500D01*
X12519643Y-9865643D01*
X12533928Y-9851357D01*
X12776786Y-9894214D02*
X12719643Y-9894214D01*
X12691071Y-9908500D01*
X12676786Y-9922786D01*
X12648214Y-9965643D01*
X12633928Y-10022786D01*
X12633928Y-10137072D01*
X12648214Y-10165643D01*
X12662500Y-10179929D01*
X12691071Y-10194214D01*
X12748214Y-10194214D01*
X12776786Y-10179929D01*
X12791071Y-10165643D01*
X12805357Y-10137072D01*
X12805357Y-10065643D01*
X12791071Y-10037072D01*
X12776786Y-10022786D01*
X12748214Y-10008500D01*
X12691071Y-10008500D01*
X12662500Y-10022786D01*
X12648214Y-10037072D01*
X12633928Y-10065643D01*
X13062500Y-9994214D02*
X13062500Y-10194214D01*
X12991071Y-9879929D02*
X12919643Y-10094214D01*
X13105357Y-10094214D01*
X13448214Y-10194214D02*
X13448214Y-9894214D01*
X13576786Y-10194214D02*
X13576786Y-10037072D01*
X13562500Y-10008500D01*
X13533928Y-9994214D01*
X13491071Y-9994214D01*
X13462500Y-10008500D01*
X13448214Y-10022786D01*
X13762500Y-10194214D02*
X13733928Y-10179929D01*
X13719643Y-10165643D01*
X13705357Y-10137072D01*
X13705357Y-10051357D01*
X13719643Y-10022786D01*
X13733928Y-10008500D01*
X13762500Y-9994214D01*
X13805357Y-9994214D01*
X13833928Y-10008500D01*
X13848214Y-10022786D01*
X13862500Y-10051357D01*
X13862500Y-10137072D01*
X13848214Y-10165643D01*
X13833928Y-10179929D01*
X13805357Y-10194214D01*
X13762500Y-10194214D01*
X14033928Y-10194214D02*
X14005357Y-10179929D01*
X13991071Y-10151357D01*
X13991071Y-9894214D01*
X14262500Y-10179929D02*
X14233928Y-10194214D01*
X14176786Y-10194214D01*
X14148214Y-10179929D01*
X14133928Y-10151357D01*
X14133928Y-10037072D01*
X14148214Y-10008500D01*
X14176786Y-9994214D01*
X14233928Y-9994214D01*
X14262500Y-10008500D01*
X14276786Y-10037072D01*
X14276786Y-10065643D01*
X14133928Y-10094214D01*
X14391071Y-10179929D02*
X14419643Y-10194214D01*
X14476786Y-10194214D01*
X14505357Y-10179929D01*
X14519643Y-10151357D01*
X14519643Y-10137072D01*
X14505357Y-10108500D01*
X14476786Y-10094214D01*
X14433928Y-10094214D01*
X14405357Y-10079929D01*
X14391071Y-10051357D01*
X14391071Y-10037072D01*
X14405357Y-10008500D01*
X14433928Y-9994214D01*
X14476786Y-9994214D01*
X14505357Y-10008500D01*
X14619643Y-10308500D02*
X14633928Y-10294214D01*
X14662500Y-10251357D01*
X14676786Y-10222786D01*
X14691071Y-10179929D01*
X14705357Y-10108500D01*
X14705357Y-10051357D01*
X14691071Y-9979929D01*
X14676786Y-9937072D01*
X14662500Y-9908500D01*
X14633928Y-9865643D01*
X14619643Y-9851357D01*
X7800000Y-10407000D02*
X7800000Y-10502000D01*
X7752500Y-10454500D02*
X7847500Y-10454500D01*
X8191071Y-10290214D02*
X8219643Y-10290214D01*
X8248214Y-10304500D01*
X8262500Y-10318786D01*
X8276786Y-10347357D01*
X8291071Y-10404500D01*
X8291071Y-10475929D01*
X8276786Y-10533072D01*
X8262500Y-10561643D01*
X8248214Y-10575929D01*
X8219643Y-10590214D01*
X8191071Y-10590214D01*
X8162500Y-10575929D01*
X8148214Y-10561643D01*
X8133928Y-10533072D01*
X8119643Y-10475929D01*
X8119643Y-10404500D01*
X8133928Y-10347357D01*
X8148214Y-10318786D01*
X8162500Y-10304500D01*
X8191071Y-10290214D01*
X8419643Y-10561643D02*
X8433928Y-10575929D01*
X8419643Y-10590214D01*
X8405357Y-10575929D01*
X8419643Y-10561643D01*
X8419643Y-10590214D01*
X8576786Y-10590214D02*
X8633928Y-10590214D01*
X8662500Y-10575929D01*
X8676786Y-10561643D01*
X8705357Y-10518786D01*
X8719643Y-10461643D01*
X8719643Y-10347357D01*
X8705357Y-10318786D01*
X8691071Y-10304500D01*
X8662500Y-10290214D01*
X8605357Y-10290214D01*
X8576786Y-10304500D01*
X8562500Y-10318786D01*
X8548214Y-10347357D01*
X8548214Y-10418786D01*
X8562500Y-10447357D01*
X8576786Y-10461643D01*
X8605357Y-10475929D01*
X8662500Y-10475929D01*
X8691071Y-10461643D01*
X8705357Y-10447357D01*
X8719643Y-10418786D01*
X8991071Y-10290214D02*
X8848214Y-10290214D01*
X8833928Y-10433072D01*
X8848214Y-10418786D01*
X8876786Y-10404500D01*
X8948214Y-10404500D01*
X8976786Y-10418786D01*
X8991071Y-10433072D01*
X9005357Y-10461643D01*
X9005357Y-10533072D01*
X8991071Y-10561643D01*
X8976786Y-10575929D01*
X8948214Y-10590214D01*
X8876786Y-10590214D01*
X8848214Y-10575929D01*
X8833928Y-10561643D01*
X9133928Y-10590214D02*
X9133928Y-10390214D01*
X9133928Y-10418786D02*
X9148214Y-10404500D01*
X9176786Y-10390214D01*
X9219643Y-10390214D01*
X9248214Y-10404500D01*
X9262500Y-10433072D01*
X9262500Y-10590214D01*
X9262500Y-10433072D02*
X9276786Y-10404500D01*
X9305357Y-10390214D01*
X9348214Y-10390214D01*
X9376786Y-10404500D01*
X9391071Y-10433072D01*
X9391071Y-10590214D01*
X9533928Y-10590214D02*
X9533928Y-10390214D01*
X9533928Y-10418786D02*
X9548214Y-10404500D01*
X9576786Y-10390214D01*
X9619643Y-10390214D01*
X9648214Y-10404500D01*
X9662500Y-10433072D01*
X9662500Y-10590214D01*
X9662500Y-10433072D02*
X9676786Y-10404500D01*
X9705357Y-10390214D01*
X9748214Y-10390214D01*
X9776786Y-10404500D01*
X9791071Y-10433072D01*
X9791071Y-10590214D01*
X10376786Y-10275929D02*
X10119643Y-10661643D01*
X10762500Y-10290214D02*
X10791071Y-10290214D01*
X10819643Y-10304500D01*
X10833928Y-10318786D01*
X10848214Y-10347357D01*
X10862500Y-10404500D01*
X10862500Y-10475929D01*
X10848214Y-10533072D01*
X10833928Y-10561643D01*
X10819643Y-10575929D01*
X10791071Y-10590214D01*
X10762500Y-10590214D01*
X10733928Y-10575929D01*
X10719643Y-10561643D01*
X10705357Y-10533072D01*
X10691071Y-10475929D01*
X10691071Y-10404500D01*
X10705357Y-10347357D01*
X10719643Y-10318786D01*
X10733928Y-10304500D01*
X10762500Y-10290214D01*
X10991071Y-10561643D02*
X11005357Y-10575929D01*
X10991071Y-10590214D01*
X10976786Y-10575929D01*
X10991071Y-10561643D01*
X10991071Y-10590214D01*
X11191071Y-10290214D02*
X11219643Y-10290214D01*
X11248214Y-10304500D01*
X11262500Y-10318786D01*
X11276786Y-10347357D01*
X11291071Y-10404500D01*
X11291071Y-10475929D01*
X11276786Y-10533072D01*
X11262500Y-10561643D01*
X11248214Y-10575929D01*
X11219643Y-10590214D01*
X11191071Y-10590214D01*
X11162500Y-10575929D01*
X11148214Y-10561643D01*
X11133928Y-10533072D01*
X11119643Y-10475929D01*
X11119643Y-10404500D01*
X11133928Y-10347357D01*
X11148214Y-10318786D01*
X11162500Y-10304500D01*
X11191071Y-10290214D01*
X11391071Y-10290214D02*
X11576786Y-10290214D01*
X11476786Y-10404500D01*
X11519643Y-10404500D01*
X11548214Y-10418786D01*
X11562500Y-10433072D01*
X11576786Y-10461643D01*
X11576786Y-10533072D01*
X11562500Y-10561643D01*
X11548214Y-10575929D01*
X11519643Y-10590214D01*
X11433928Y-10590214D01*
X11405357Y-10575929D01*
X11391071Y-10561643D01*
X11676786Y-10290214D02*
X11876786Y-10290214D01*
X11748214Y-10590214D01*
X11976786Y-10290214D02*
X11976786Y-10347357D01*
X12091071Y-10290214D02*
X12091071Y-10347357D01*
X12533928Y-10704500D02*
X12519643Y-10690214D01*
X12491071Y-10647357D01*
X12476786Y-10618786D01*
X12462500Y-10575929D01*
X12448214Y-10504500D01*
X12448214Y-10447357D01*
X12462500Y-10375929D01*
X12476786Y-10333072D01*
X12491071Y-10304500D01*
X12519643Y-10261643D01*
X12533928Y-10247357D01*
X12776786Y-10390214D02*
X12776786Y-10590214D01*
X12705357Y-10275929D02*
X12633928Y-10490214D01*
X12819643Y-10490214D01*
X13062500Y-10390214D02*
X13062500Y-10590214D01*
X12991071Y-10275929D02*
X12919643Y-10490214D01*
X13105357Y-10490214D01*
X13448214Y-10590214D02*
X13448214Y-10290214D01*
X13576786Y-10590214D02*
X13576786Y-10433072D01*
X13562500Y-10404500D01*
X13533928Y-10390214D01*
X13491071Y-10390214D01*
X13462500Y-10404500D01*
X13448214Y-10418786D01*
X13762500Y-10590214D02*
X13733928Y-10575929D01*
X13719643Y-10561643D01*
X13705357Y-10533072D01*
X13705357Y-10447357D01*
X13719643Y-10418786D01*
X13733928Y-10404500D01*
X13762500Y-10390214D01*
X13805357Y-10390214D01*
X13833928Y-10404500D01*
X13848214Y-10418786D01*
X13862500Y-10447357D01*
X13862500Y-10533072D01*
X13848214Y-10561643D01*
X13833928Y-10575929D01*
X13805357Y-10590214D01*
X13762500Y-10590214D01*
X14033928Y-10590214D02*
X14005357Y-10575929D01*
X13991071Y-10547357D01*
X13991071Y-10290214D01*
X14262500Y-10575929D02*
X14233928Y-10590214D01*
X14176786Y-10590214D01*
X14148214Y-10575929D01*
X14133928Y-10547357D01*
X14133928Y-10433072D01*
X14148214Y-10404500D01*
X14176786Y-10390214D01*
X14233928Y-10390214D01*
X14262500Y-10404500D01*
X14276786Y-10433072D01*
X14276786Y-10461643D01*
X14133928Y-10490214D01*
X14391071Y-10575929D02*
X14419643Y-10590214D01*
X14476786Y-10590214D01*
X14505357Y-10575929D01*
X14519643Y-10547357D01*
X14519643Y-10533072D01*
X14505357Y-10504500D01*
X14476786Y-10490214D01*
X14433928Y-10490214D01*
X14405357Y-10475929D01*
X14391071Y-10447357D01*
X14391071Y-10433072D01*
X14405357Y-10404500D01*
X14433928Y-10390214D01*
X14476786Y-10390214D01*
X14505357Y-10404500D01*
X14619643Y-10704500D02*
X14633928Y-10690214D01*
X14662500Y-10647357D01*
X14676786Y-10618786D01*
X14691071Y-10575929D01*
X14705357Y-10504500D01*
X14705357Y-10447357D01*
X14691071Y-10375929D01*
X14676786Y-10333072D01*
X14662500Y-10304500D01*
X14633928Y-10261643D01*
X14619643Y-10247357D01*
X7832856Y-10885856D02*
X7832856Y-10815144D01*
X7762144Y-10815144D01*
X7762144Y-10885856D01*
X7832856Y-10885856D01*
X8291071Y-10986214D02*
X8119643Y-10986214D01*
X8205357Y-10986214D02*
X8205357Y-10686214D01*
X8176786Y-10729072D01*
X8148214Y-10757643D01*
X8119643Y-10771929D01*
X8419643Y-10957643D02*
X8433928Y-10971929D01*
X8419643Y-10986214D01*
X8405357Y-10971929D01*
X8419643Y-10957643D01*
X8419643Y-10986214D01*
X8619643Y-10686214D02*
X8648214Y-10686214D01*
X8676786Y-10700500D01*
X8691071Y-10714786D01*
X8705357Y-10743357D01*
X8719643Y-10800500D01*
X8719643Y-10871929D01*
X8705357Y-10929072D01*
X8691071Y-10957643D01*
X8676786Y-10971929D01*
X8648214Y-10986214D01*
X8619643Y-10986214D01*
X8591071Y-10971929D01*
X8576786Y-10957643D01*
X8562500Y-10929072D01*
X8548214Y-10871929D01*
X8548214Y-10800500D01*
X8562500Y-10743357D01*
X8576786Y-10714786D01*
X8591071Y-10700500D01*
X8619643Y-10686214D01*
X8905357Y-10686214D02*
X8933928Y-10686214D01*
X8962500Y-10700500D01*
X8976786Y-10714786D01*
X8991071Y-10743357D01*
X9005357Y-10800500D01*
X9005357Y-10871929D01*
X8991071Y-10929072D01*
X8976786Y-10957643D01*
X8962500Y-10971929D01*
X8933928Y-10986214D01*
X8905357Y-10986214D01*
X8876786Y-10971929D01*
X8862500Y-10957643D01*
X8848214Y-10929072D01*
X8833928Y-10871929D01*
X8833928Y-10800500D01*
X8848214Y-10743357D01*
X8862500Y-10714786D01*
X8876786Y-10700500D01*
X8905357Y-10686214D01*
X9133928Y-10986214D02*
X9133928Y-10786214D01*
X9133928Y-10814786D02*
X9148214Y-10800500D01*
X9176786Y-10786214D01*
X9219643Y-10786214D01*
X9248214Y-10800500D01*
X9262500Y-10829072D01*
X9262500Y-10986214D01*
X9262500Y-10829072D02*
X9276786Y-10800500D01*
X9305357Y-10786214D01*
X9348214Y-10786214D01*
X9376786Y-10800500D01*
X9391071Y-10829072D01*
X9391071Y-10986214D01*
X9533928Y-10986214D02*
X9533928Y-10786214D01*
X9533928Y-10814786D02*
X9548214Y-10800500D01*
X9576786Y-10786214D01*
X9619643Y-10786214D01*
X9648214Y-10800500D01*
X9662500Y-10829072D01*
X9662500Y-10986214D01*
X9662500Y-10829072D02*
X9676786Y-10800500D01*
X9705357Y-10786214D01*
X9748214Y-10786214D01*
X9776786Y-10800500D01*
X9791071Y-10829072D01*
X9791071Y-10986214D01*
X10376786Y-10671929D02*
X10119643Y-11057643D01*
X10762500Y-10686214D02*
X10791071Y-10686214D01*
X10819643Y-10700500D01*
X10833928Y-10714786D01*
X10848214Y-10743357D01*
X10862500Y-10800500D01*
X10862500Y-10871929D01*
X10848214Y-10929072D01*
X10833928Y-10957643D01*
X10819643Y-10971929D01*
X10791071Y-10986214D01*
X10762500Y-10986214D01*
X10733928Y-10971929D01*
X10719643Y-10957643D01*
X10705357Y-10929072D01*
X10691071Y-10871929D01*
X10691071Y-10800500D01*
X10705357Y-10743357D01*
X10719643Y-10714786D01*
X10733928Y-10700500D01*
X10762500Y-10686214D01*
X10991071Y-10957643D02*
X11005357Y-10971929D01*
X10991071Y-10986214D01*
X10976786Y-10971929D01*
X10991071Y-10957643D01*
X10991071Y-10986214D01*
X11191071Y-10686214D02*
X11219643Y-10686214D01*
X11248214Y-10700500D01*
X11262500Y-10714786D01*
X11276786Y-10743357D01*
X11291071Y-10800500D01*
X11291071Y-10871929D01*
X11276786Y-10929072D01*
X11262500Y-10957643D01*
X11248214Y-10971929D01*
X11219643Y-10986214D01*
X11191071Y-10986214D01*
X11162500Y-10971929D01*
X11148214Y-10957643D01*
X11133928Y-10929072D01*
X11119643Y-10871929D01*
X11119643Y-10800500D01*
X11133928Y-10743357D01*
X11148214Y-10714786D01*
X11162500Y-10700500D01*
X11191071Y-10686214D01*
X11391071Y-10686214D02*
X11576786Y-10686214D01*
X11476786Y-10800500D01*
X11519643Y-10800500D01*
X11548214Y-10814786D01*
X11562500Y-10829072D01*
X11576786Y-10857643D01*
X11576786Y-10929072D01*
X11562500Y-10957643D01*
X11548214Y-10971929D01*
X11519643Y-10986214D01*
X11433928Y-10986214D01*
X11405357Y-10971929D01*
X11391071Y-10957643D01*
X11719643Y-10986214D02*
X11776786Y-10986214D01*
X11805357Y-10971929D01*
X11819643Y-10957643D01*
X11848214Y-10914786D01*
X11862500Y-10857643D01*
X11862500Y-10743357D01*
X11848214Y-10714786D01*
X11833928Y-10700500D01*
X11805357Y-10686214D01*
X11748214Y-10686214D01*
X11719643Y-10700500D01*
X11705357Y-10714786D01*
X11691071Y-10743357D01*
X11691071Y-10814786D01*
X11705357Y-10843357D01*
X11719643Y-10857643D01*
X11748214Y-10871929D01*
X11805357Y-10871929D01*
X11833928Y-10857643D01*
X11848214Y-10843357D01*
X11862500Y-10814786D01*
X11976786Y-10686214D02*
X11976786Y-10743357D01*
X12091071Y-10686214D02*
X12091071Y-10743357D01*
X12533928Y-11100500D02*
X12519643Y-11086214D01*
X12491071Y-11043357D01*
X12476786Y-11014786D01*
X12462500Y-10971929D01*
X12448214Y-10900500D01*
X12448214Y-10843357D01*
X12462500Y-10771929D01*
X12476786Y-10729072D01*
X12491071Y-10700500D01*
X12519643Y-10657643D01*
X12533928Y-10643357D01*
X12776786Y-10786214D02*
X12776786Y-10986214D01*
X12705357Y-10671929D02*
X12633928Y-10886214D01*
X12819643Y-10886214D01*
X12948214Y-10986214D02*
X13005357Y-10986214D01*
X13033928Y-10971929D01*
X13048214Y-10957643D01*
X13076786Y-10914786D01*
X13091071Y-10857643D01*
X13091071Y-10743357D01*
X13076786Y-10714786D01*
X13062500Y-10700500D01*
X13033928Y-10686214D01*
X12976786Y-10686214D01*
X12948214Y-10700500D01*
X12933928Y-10714786D01*
X12919643Y-10743357D01*
X12919643Y-10814786D01*
X12933928Y-10843357D01*
X12948214Y-10857643D01*
X12976786Y-10871929D01*
X13033928Y-10871929D01*
X13062500Y-10857643D01*
X13076786Y-10843357D01*
X13091071Y-10814786D01*
X13448214Y-10986214D02*
X13448214Y-10686214D01*
X13576786Y-10986214D02*
X13576786Y-10829072D01*
X13562500Y-10800500D01*
X13533928Y-10786214D01*
X13491071Y-10786214D01*
X13462500Y-10800500D01*
X13448214Y-10814786D01*
X13762500Y-10986214D02*
X13733928Y-10971929D01*
X13719643Y-10957643D01*
X13705357Y-10929072D01*
X13705357Y-10843357D01*
X13719643Y-10814786D01*
X13733928Y-10800500D01*
X13762500Y-10786214D01*
X13805357Y-10786214D01*
X13833928Y-10800500D01*
X13848214Y-10814786D01*
X13862500Y-10843357D01*
X13862500Y-10929072D01*
X13848214Y-10957643D01*
X13833928Y-10971929D01*
X13805357Y-10986214D01*
X13762500Y-10986214D01*
X14033928Y-10986214D02*
X14005357Y-10971929D01*
X13991071Y-10943357D01*
X13991071Y-10686214D01*
X14262500Y-10971929D02*
X14233928Y-10986214D01*
X14176786Y-10986214D01*
X14148214Y-10971929D01*
X14133928Y-10943357D01*
X14133928Y-10829072D01*
X14148214Y-10800500D01*
X14176786Y-10786214D01*
X14233928Y-10786214D01*
X14262500Y-10800500D01*
X14276786Y-10829072D01*
X14276786Y-10857643D01*
X14133928Y-10886214D01*
X14391071Y-10971929D02*
X14419643Y-10986214D01*
X14476786Y-10986214D01*
X14505357Y-10971929D01*
X14519643Y-10943357D01*
X14519643Y-10929072D01*
X14505357Y-10900500D01*
X14476786Y-10886214D01*
X14433928Y-10886214D01*
X14405357Y-10871929D01*
X14391071Y-10843357D01*
X14391071Y-10829072D01*
X14405357Y-10800500D01*
X14433928Y-10786214D01*
X14476786Y-10786214D01*
X14505357Y-10800500D01*
X14619643Y-11100500D02*
X14633928Y-11086214D01*
X14662500Y-11043357D01*
X14676786Y-11014786D01*
X14691071Y-10971929D01*
X14705357Y-10900500D01*
X14705357Y-10843357D01*
X14691071Y-10771929D01*
X14676786Y-10729072D01*
X14662500Y-10700500D01*
X14633928Y-10657643D01*
X14619643Y-10643357D01*
X7792500Y-11301500D02*
X7847500Y-11246500D01*
X7792500Y-11191500D01*
X7737500Y-11246500D01*
X7792500Y-11301500D01*
X8291071Y-11382214D02*
X8119643Y-11382214D01*
X8205357Y-11382214D02*
X8205357Y-11082214D01*
X8176786Y-11125072D01*
X8148214Y-11153643D01*
X8119643Y-11167929D01*
X8419643Y-11353643D02*
X8433928Y-11367929D01*
X8419643Y-11382214D01*
X8405357Y-11367929D01*
X8419643Y-11353643D01*
X8419643Y-11382214D01*
X8719643Y-11382214D02*
X8548214Y-11382214D01*
X8633928Y-11382214D02*
X8633928Y-11082214D01*
X8605357Y-11125072D01*
X8576786Y-11153643D01*
X8548214Y-11167929D01*
X8905357Y-11082214D02*
X8933928Y-11082214D01*
X8962500Y-11096500D01*
X8976786Y-11110786D01*
X8991071Y-11139357D01*
X9005357Y-11196500D01*
X9005357Y-11267929D01*
X8991071Y-11325071D01*
X8976786Y-11353643D01*
X8962500Y-11367929D01*
X8933928Y-11382214D01*
X8905357Y-11382214D01*
X8876786Y-11367929D01*
X8862500Y-11353643D01*
X8848214Y-11325071D01*
X8833928Y-11267929D01*
X8833928Y-11196500D01*
X8848214Y-11139357D01*
X8862500Y-11110786D01*
X8876786Y-11096500D01*
X8905357Y-11082214D01*
X9133928Y-11382214D02*
X9133928Y-11182214D01*
X9133928Y-11210786D02*
X9148214Y-11196500D01*
X9176786Y-11182214D01*
X9219643Y-11182214D01*
X9248214Y-11196500D01*
X9262500Y-11225071D01*
X9262500Y-11382214D01*
X9262500Y-11225071D02*
X9276786Y-11196500D01*
X9305357Y-11182214D01*
X9348214Y-11182214D01*
X9376786Y-11196500D01*
X9391071Y-11225071D01*
X9391071Y-11382214D01*
X9533928Y-11382214D02*
X9533928Y-11182214D01*
X9533928Y-11210786D02*
X9548214Y-11196500D01*
X9576786Y-11182214D01*
X9619643Y-11182214D01*
X9648214Y-11196500D01*
X9662500Y-11225071D01*
X9662500Y-11382214D01*
X9662500Y-11225071D02*
X9676786Y-11196500D01*
X9705357Y-11182214D01*
X9748214Y-11182214D01*
X9776786Y-11196500D01*
X9791071Y-11225071D01*
X9791071Y-11382214D01*
X10376786Y-11067929D02*
X10119643Y-11453643D01*
X10762500Y-11082214D02*
X10791071Y-11082214D01*
X10819643Y-11096500D01*
X10833928Y-11110786D01*
X10848214Y-11139357D01*
X10862500Y-11196500D01*
X10862500Y-11267929D01*
X10848214Y-11325071D01*
X10833928Y-11353643D01*
X10819643Y-11367929D01*
X10791071Y-11382214D01*
X10762500Y-11382214D01*
X10733928Y-11367929D01*
X10719643Y-11353643D01*
X10705357Y-11325071D01*
X10691071Y-11267929D01*
X10691071Y-11196500D01*
X10705357Y-11139357D01*
X10719643Y-11110786D01*
X10733928Y-11096500D01*
X10762500Y-11082214D01*
X10991071Y-11353643D02*
X11005357Y-11367929D01*
X10991071Y-11382214D01*
X10976786Y-11367929D01*
X10991071Y-11353643D01*
X10991071Y-11382214D01*
X11191071Y-11082214D02*
X11219643Y-11082214D01*
X11248214Y-11096500D01*
X11262500Y-11110786D01*
X11276786Y-11139357D01*
X11291071Y-11196500D01*
X11291071Y-11267929D01*
X11276786Y-11325071D01*
X11262500Y-11353643D01*
X11248214Y-11367929D01*
X11219643Y-11382214D01*
X11191071Y-11382214D01*
X11162500Y-11367929D01*
X11148214Y-11353643D01*
X11133928Y-11325071D01*
X11119643Y-11267929D01*
X11119643Y-11196500D01*
X11133928Y-11139357D01*
X11148214Y-11110786D01*
X11162500Y-11096500D01*
X11191071Y-11082214D01*
X11548214Y-11182214D02*
X11548214Y-11382214D01*
X11476786Y-11067929D02*
X11405357Y-11282214D01*
X11591071Y-11282214D01*
X11676786Y-11082214D02*
X11862500Y-11082214D01*
X11762500Y-11196500D01*
X11805357Y-11196500D01*
X11833928Y-11210786D01*
X11848214Y-11225071D01*
X11862500Y-11253643D01*
X11862500Y-11325071D01*
X11848214Y-11353643D01*
X11833928Y-11367929D01*
X11805357Y-11382214D01*
X11719643Y-11382214D01*
X11691071Y-11367929D01*
X11676786Y-11353643D01*
X11976786Y-11082214D02*
X11976786Y-11139357D01*
X12091071Y-11082214D02*
X12091071Y-11139357D01*
X12533928Y-11496500D02*
X12519643Y-11482214D01*
X12491071Y-11439357D01*
X12476786Y-11410786D01*
X12462500Y-11367929D01*
X12448214Y-11296500D01*
X12448214Y-11239357D01*
X12462500Y-11167929D01*
X12476786Y-11125072D01*
X12491071Y-11096500D01*
X12519643Y-11053643D01*
X12533928Y-11039357D01*
X12776786Y-11182214D02*
X12776786Y-11382214D01*
X12705357Y-11067929D02*
X12633928Y-11282214D01*
X12819643Y-11282214D01*
X12976786Y-11210786D02*
X12948214Y-11196500D01*
X12933928Y-11182214D01*
X12919643Y-11153643D01*
X12919643Y-11139357D01*
X12933928Y-11110786D01*
X12948214Y-11096500D01*
X12976786Y-11082214D01*
X13033928Y-11082214D01*
X13062500Y-11096500D01*
X13076786Y-11110786D01*
X13091071Y-11139357D01*
X13091071Y-11153643D01*
X13076786Y-11182214D01*
X13062500Y-11196500D01*
X13033928Y-11210786D01*
X12976786Y-11210786D01*
X12948214Y-11225071D01*
X12933928Y-11239357D01*
X12919643Y-11267929D01*
X12919643Y-11325071D01*
X12933928Y-11353643D01*
X12948214Y-11367929D01*
X12976786Y-11382214D01*
X13033928Y-11382214D01*
X13062500Y-11367929D01*
X13076786Y-11353643D01*
X13091071Y-11325071D01*
X13091071Y-11267929D01*
X13076786Y-11239357D01*
X13062500Y-11225071D01*
X13033928Y-11210786D01*
X13448214Y-11382214D02*
X13448214Y-11082214D01*
X13576786Y-11382214D02*
X13576786Y-11225071D01*
X13562500Y-11196500D01*
X13533928Y-11182214D01*
X13491071Y-11182214D01*
X13462500Y-11196500D01*
X13448214Y-11210786D01*
X13762500Y-11382214D02*
X13733928Y-11367929D01*
X13719643Y-11353643D01*
X13705357Y-11325071D01*
X13705357Y-11239357D01*
X13719643Y-11210786D01*
X13733928Y-11196500D01*
X13762500Y-11182214D01*
X13805357Y-11182214D01*
X13833928Y-11196500D01*
X13848214Y-11210786D01*
X13862500Y-11239357D01*
X13862500Y-11325071D01*
X13848214Y-11353643D01*
X13833928Y-11367929D01*
X13805357Y-11382214D01*
X13762500Y-11382214D01*
X14033928Y-11382214D02*
X14005357Y-11367929D01*
X13991071Y-11339357D01*
X13991071Y-11082214D01*
X14262500Y-11367929D02*
X14233928Y-11382214D01*
X14176786Y-11382214D01*
X14148214Y-11367929D01*
X14133928Y-11339357D01*
X14133928Y-11225071D01*
X14148214Y-11196500D01*
X14176786Y-11182214D01*
X14233928Y-11182214D01*
X14262500Y-11196500D01*
X14276786Y-11225071D01*
X14276786Y-11253643D01*
X14133928Y-11282214D01*
X14391071Y-11367929D02*
X14419643Y-11382214D01*
X14476786Y-11382214D01*
X14505357Y-11367929D01*
X14519643Y-11339357D01*
X14519643Y-11325071D01*
X14505357Y-11296500D01*
X14476786Y-11282214D01*
X14433928Y-11282214D01*
X14405357Y-11267929D01*
X14391071Y-11239357D01*
X14391071Y-11225071D01*
X14405357Y-11196500D01*
X14433928Y-11182214D01*
X14476786Y-11182214D01*
X14505357Y-11196500D01*
X14619643Y-11496500D02*
X14633928Y-11482214D01*
X14662500Y-11439357D01*
X14676786Y-11410786D01*
X14691071Y-11367929D01*
X14705357Y-11296500D01*
X14705357Y-11239357D01*
X14691071Y-11167929D01*
X14676786Y-11125072D01*
X14662500Y-11096500D01*
X14633928Y-11053643D01*
X14619643Y-11039357D01*
X7527500Y-11482500D02*
X7847500Y-11802500D01*
X7847500Y-11482500D02*
X7527500Y-11802500D01*
X7847500Y-11642500D02*
G75*
G03*
X7847500Y-11642500I-160000J0D01*
G01*
X8105357Y-11478214D02*
X8291071Y-11478214D01*
X8191071Y-11592500D01*
X8233928Y-11592500D01*
X8262500Y-11606786D01*
X8276786Y-11621071D01*
X8291071Y-11649643D01*
X8291071Y-11721071D01*
X8276786Y-11749643D01*
X8262500Y-11763929D01*
X8233928Y-11778214D01*
X8148214Y-11778214D01*
X8119643Y-11763929D01*
X8105357Y-11749643D01*
X8419643Y-11749643D02*
X8433928Y-11763929D01*
X8419643Y-11778214D01*
X8405357Y-11763929D01*
X8419643Y-11749643D01*
X8419643Y-11778214D01*
X8548214Y-11506786D02*
X8562500Y-11492500D01*
X8591071Y-11478214D01*
X8662500Y-11478214D01*
X8691071Y-11492500D01*
X8705357Y-11506786D01*
X8719643Y-11535357D01*
X8719643Y-11563929D01*
X8705357Y-11606786D01*
X8533928Y-11778214D01*
X8719643Y-11778214D01*
X8905357Y-11478214D02*
X8933928Y-11478214D01*
X8962500Y-11492500D01*
X8976786Y-11506786D01*
X8991071Y-11535357D01*
X9005357Y-11592500D01*
X9005357Y-11663929D01*
X8991071Y-11721071D01*
X8976786Y-11749643D01*
X8962500Y-11763929D01*
X8933928Y-11778214D01*
X8905357Y-11778214D01*
X8876786Y-11763929D01*
X8862500Y-11749643D01*
X8848214Y-11721071D01*
X8833928Y-11663929D01*
X8833928Y-11592500D01*
X8848214Y-11535357D01*
X8862500Y-11506786D01*
X8876786Y-11492500D01*
X8905357Y-11478214D01*
X9133928Y-11778214D02*
X9133928Y-11578214D01*
X9133928Y-11606786D02*
X9148214Y-11592500D01*
X9176786Y-11578214D01*
X9219643Y-11578214D01*
X9248214Y-11592500D01*
X9262500Y-11621071D01*
X9262500Y-11778214D01*
X9262500Y-11621071D02*
X9276786Y-11592500D01*
X9305357Y-11578214D01*
X9348214Y-11578214D01*
X9376786Y-11592500D01*
X9391071Y-11621071D01*
X9391071Y-11778214D01*
X9533928Y-11778214D02*
X9533928Y-11578214D01*
X9533928Y-11606786D02*
X9548214Y-11592500D01*
X9576786Y-11578214D01*
X9619643Y-11578214D01*
X9648214Y-11592500D01*
X9662500Y-11621071D01*
X9662500Y-11778214D01*
X9662500Y-11621071D02*
X9676786Y-11592500D01*
X9705357Y-11578214D01*
X9748214Y-11578214D01*
X9776786Y-11592500D01*
X9791071Y-11621071D01*
X9791071Y-11778214D01*
X10376786Y-11463929D02*
X10119643Y-11849643D01*
X10762500Y-11478214D02*
X10791071Y-11478214D01*
X10819643Y-11492500D01*
X10833928Y-11506786D01*
X10848214Y-11535357D01*
X10862500Y-11592500D01*
X10862500Y-11663929D01*
X10848214Y-11721071D01*
X10833928Y-11749643D01*
X10819643Y-11763929D01*
X10791071Y-11778214D01*
X10762500Y-11778214D01*
X10733928Y-11763929D01*
X10719643Y-11749643D01*
X10705357Y-11721071D01*
X10691071Y-11663929D01*
X10691071Y-11592500D01*
X10705357Y-11535357D01*
X10719643Y-11506786D01*
X10733928Y-11492500D01*
X10762500Y-11478214D01*
X10991071Y-11749643D02*
X11005357Y-11763929D01*
X10991071Y-11778214D01*
X10976786Y-11763929D01*
X10991071Y-11749643D01*
X10991071Y-11778214D01*
X11291071Y-11778214D02*
X11119643Y-11778214D01*
X11205357Y-11778214D02*
X11205357Y-11478214D01*
X11176786Y-11521071D01*
X11148214Y-11549643D01*
X11119643Y-11563929D01*
X11405357Y-11506786D02*
X11419643Y-11492500D01*
X11448214Y-11478214D01*
X11519643Y-11478214D01*
X11548214Y-11492500D01*
X11562500Y-11506786D01*
X11576786Y-11535357D01*
X11576786Y-11563929D01*
X11562500Y-11606786D01*
X11391071Y-11778214D01*
X11576786Y-11778214D01*
X11833928Y-11478214D02*
X11776786Y-11478214D01*
X11748214Y-11492500D01*
X11733928Y-11506786D01*
X11705357Y-11549643D01*
X11691071Y-11606786D01*
X11691071Y-11721071D01*
X11705357Y-11749643D01*
X11719643Y-11763929D01*
X11748214Y-11778214D01*
X11805357Y-11778214D01*
X11833928Y-11763929D01*
X11848214Y-11749643D01*
X11862500Y-11721071D01*
X11862500Y-11649643D01*
X11848214Y-11621071D01*
X11833928Y-11606786D01*
X11805357Y-11592500D01*
X11748214Y-11592500D01*
X11719643Y-11606786D01*
X11705357Y-11621071D01*
X11691071Y-11649643D01*
X11976786Y-11478214D02*
X11976786Y-11535357D01*
X12091071Y-11478214D02*
X12091071Y-11535357D01*
X12533928Y-11892500D02*
X12519643Y-11878214D01*
X12491071Y-11835357D01*
X12476786Y-11806786D01*
X12462500Y-11763929D01*
X12448214Y-11692500D01*
X12448214Y-11635357D01*
X12462500Y-11563929D01*
X12476786Y-11521071D01*
X12491071Y-11492500D01*
X12519643Y-11449643D01*
X12533928Y-11435357D01*
X12776786Y-11578214D02*
X12776786Y-11778214D01*
X12705357Y-11463929D02*
X12633928Y-11678214D01*
X12819643Y-11678214D01*
X13162500Y-11778214D02*
X13162500Y-11478214D01*
X13291071Y-11778214D02*
X13291071Y-11621071D01*
X13276786Y-11592500D01*
X13248214Y-11578214D01*
X13205357Y-11578214D01*
X13176786Y-11592500D01*
X13162500Y-11606786D01*
X13476786Y-11778214D02*
X13448214Y-11763929D01*
X13433928Y-11749643D01*
X13419643Y-11721071D01*
X13419643Y-11635357D01*
X13433928Y-11606786D01*
X13448214Y-11592500D01*
X13476786Y-11578214D01*
X13519643Y-11578214D01*
X13548214Y-11592500D01*
X13562500Y-11606786D01*
X13576786Y-11635357D01*
X13576786Y-11721071D01*
X13562500Y-11749643D01*
X13548214Y-11763929D01*
X13519643Y-11778214D01*
X13476786Y-11778214D01*
X13748214Y-11778214D02*
X13719643Y-11763929D01*
X13705357Y-11735357D01*
X13705357Y-11478214D01*
X13976786Y-11763929D02*
X13948214Y-11778214D01*
X13891071Y-11778214D01*
X13862500Y-11763929D01*
X13848214Y-11735357D01*
X13848214Y-11621071D01*
X13862500Y-11592500D01*
X13891071Y-11578214D01*
X13948214Y-11578214D01*
X13976786Y-11592500D01*
X13991071Y-11621071D01*
X13991071Y-11649643D01*
X13848214Y-11678214D01*
X14105357Y-11763929D02*
X14133928Y-11778214D01*
X14191071Y-11778214D01*
X14219643Y-11763929D01*
X14233928Y-11735357D01*
X14233928Y-11721071D01*
X14219643Y-11692500D01*
X14191071Y-11678214D01*
X14148214Y-11678214D01*
X14119643Y-11663929D01*
X14105357Y-11635357D01*
X14105357Y-11621071D01*
X14119643Y-11592500D01*
X14148214Y-11578214D01*
X14191071Y-11578214D01*
X14219643Y-11592500D01*
X14333928Y-11892500D02*
X14348214Y-11878214D01*
X14376786Y-11835357D01*
X14391071Y-11806786D01*
X14405357Y-11763929D01*
X14419643Y-11692500D01*
X14419643Y-11635357D01*
X14405357Y-11563929D01*
X14391071Y-11521071D01*
X14376786Y-11492500D01*
X14348214Y-11449643D01*
X14333928Y-11435357D01*
M02*
