M48
; DRILL file {KiCad (5.1.7-0-10_14)} date Monday, November 02, 2020 at 09:11:31 PM
; FORMAT={-:-/ absolute / metric / decimal}
; #@! TF.CreationDate,2020-11-02T21:11:31+01:00
; #@! TF.GenerationSoftware,Kicad,Pcbnew,(5.1.7-0-10_14)
; #@! TF.FileFunction,Plated,1,4,PTH
FMAT,2
METRIC
T1C0.500
T2C0.800
T3C0.950
T4C1.000
T5C1.100
T6C3.200
%
G90
G05
T1
X80.1Y-83.0
X80.803Y-81.303
X80.803Y-84.697
X82.5Y-80.6
X82.5Y-85.4
X84.197Y-81.303
X84.197Y-84.697
X84.9Y-83.0
X185.1Y-37.0
X185.803Y-35.303
X185.803Y-38.697
X187.5Y-34.6
X187.5Y-39.4
X189.197Y-35.303
X189.197Y-38.697
X189.9Y-37.0
X80.1Y-37.0
X80.803Y-35.303
X80.803Y-38.697
X82.5Y-34.6
X82.5Y-39.4
X84.197Y-35.303
X84.197Y-38.697
X84.9Y-37.0
X185.1Y-83.0
X185.803Y-81.303
X185.803Y-84.697
X187.5Y-80.6
X187.5Y-85.4
X189.197Y-81.303
X189.197Y-84.697
X189.9Y-83.0
T2
X168.38Y-37.72
X168.38Y-40.26
X168.38Y-42.8
X168.38Y-45.34
X168.38Y-47.88
X168.38Y-50.42
X168.38Y-52.96
X168.38Y-55.5
X176.0Y-37.72
X176.0Y-40.26
X176.0Y-42.8
X176.0Y-45.34
X176.0Y-47.88
X176.0Y-50.42
X176.0Y-52.96
X176.0Y-55.5
X155.88Y-64.22
X155.88Y-66.76
X155.88Y-69.3
X155.88Y-71.84
X155.88Y-74.38
X155.88Y-76.92
X155.88Y-79.46
X155.88Y-82.0
X163.5Y-64.22
X163.5Y-66.76
X163.5Y-69.3
X163.5Y-71.84
X163.5Y-74.38
X163.5Y-76.92
X163.5Y-79.46
X163.5Y-82.0
X168.38Y-64.22
X168.38Y-66.76
X168.38Y-69.3
X168.38Y-71.84
X168.38Y-74.38
X168.38Y-76.92
X168.38Y-79.46
X168.38Y-82.0
X176.0Y-64.22
X176.0Y-66.76
X176.0Y-69.3
X176.0Y-71.84
X176.0Y-74.38
X176.0Y-76.92
X176.0Y-79.46
X176.0Y-82.0
X155.88Y-37.72
X155.88Y-40.26
X155.88Y-42.8
X155.88Y-45.34
X155.88Y-47.88
X155.88Y-50.42
X155.88Y-52.96
X155.88Y-55.5
X163.5Y-37.72
X163.5Y-40.26
X163.5Y-42.8
X163.5Y-45.34
X163.5Y-47.88
X163.5Y-50.42
X163.5Y-52.96
X163.5Y-55.5
T3
X94.0Y-77.5
X96.5Y-77.5
X99.0Y-77.5
X101.5Y-77.5
X104.0Y-77.5
X92.0Y-45.0
X94.5Y-45.0
X97.0Y-45.0
X146.055Y-56.325
X148.555Y-56.325
X151.055Y-56.325
X119.5Y-40.5
X122.0Y-40.5
X124.5Y-40.5
X146.0Y-68.5
X148.5Y-68.5
X151.0Y-68.5
X130.0Y-77.5
X132.5Y-77.5
X135.0Y-77.5
X137.5Y-77.5
X140.0Y-77.5
X146.0Y-50.0
X148.5Y-50.0
X151.0Y-50.0
X107.0Y-40.5
X109.5Y-40.5
X112.0Y-40.5
X112.0Y-77.5
X114.5Y-77.5
X117.0Y-77.5
X119.5Y-77.5
X122.0Y-77.5
X89.0Y-71.0
X91.5Y-71.0
X94.0Y-71.0
X96.5Y-71.0
X99.0Y-71.0
X146.055Y-62.175
X148.555Y-62.175
X151.055Y-62.175
X132.0Y-40.5
X134.5Y-40.5
X137.0Y-40.5
T4
X104.44Y-47.5
X106.98Y-47.5
X109.52Y-47.5
X112.06Y-47.5
X114.6Y-47.5
X117.14Y-47.5
X119.68Y-47.5
X122.22Y-47.5
X124.76Y-47.5
X127.3Y-47.5
X129.84Y-47.5
X132.38Y-47.5
X134.92Y-47.5
X137.46Y-47.5
X140.0Y-47.5
X183.5Y-48.5
X183.5Y-51.04
X183.5Y-53.58
X183.5Y-56.12
X183.5Y-58.66
X183.5Y-61.2
X183.5Y-63.74
X183.5Y-66.28
X183.5Y-68.82
X183.5Y-71.36
X186.04Y-48.5
X186.04Y-51.04
X186.04Y-53.58
X186.04Y-56.12
X186.04Y-58.66
X186.04Y-61.2
X186.04Y-63.74
X186.04Y-66.28
X186.04Y-68.82
X186.04Y-71.36
X107.06Y-70.5
X109.6Y-70.5
X112.14Y-70.5
X114.68Y-70.5
X117.22Y-70.5
X119.76Y-70.5
X122.3Y-70.5
X124.84Y-70.5
X127.38Y-70.5
X129.92Y-70.5
X132.46Y-70.5
X135.0Y-70.5
X137.54Y-70.5
X140.08Y-70.5
T5
X81.615Y-51.345
X81.615Y-66.585
X84.155Y-51.345
X84.155Y-66.585
X86.695Y-51.345
X86.695Y-66.585
X89.235Y-51.345
X89.235Y-66.585
X91.775Y-51.345
X91.775Y-66.585
X94.315Y-51.345
X94.315Y-66.585
X96.855Y-51.345
X96.855Y-66.585
X99.395Y-51.345
X99.395Y-66.585
X101.935Y-51.345
X101.935Y-66.585
X104.475Y-51.345
X104.475Y-66.585
X107.015Y-51.345
X107.015Y-66.585
X109.555Y-51.345
X109.555Y-66.585
X112.095Y-51.345
X112.095Y-66.585
X114.635Y-51.345
X114.635Y-66.585
X117.175Y-51.345
X117.175Y-66.585
X119.715Y-51.345
X119.715Y-66.585
X122.255Y-51.345
X122.255Y-66.585
X124.795Y-51.345
X124.795Y-66.585
X127.335Y-51.345
X127.335Y-66.585
X129.875Y-51.345
X129.875Y-66.585
X132.415Y-51.345
X132.415Y-66.585
X134.955Y-51.345
X134.955Y-66.585
X137.495Y-51.345
X137.495Y-66.585
X140.035Y-51.345
X140.035Y-66.585
T6
X187.5Y-83.0
X82.5Y-83.0
X187.5Y-37.0
X82.5Y-37.0
T0
M30
