%FSLAX45Y45*%
G04 Gerber Fmt 4.5, Leading zero omitted, Abs format (unit mm)*
G04 Created by KiCad (PCBNEW (5.1.7-0-10_14)) date 2020-11-02 10:01:42*
%MOMM*%
%LPD*%
G01*
G04 APERTURE LIST*
%TA.AperFunction,Profile*%
%ADD10C,0.050000*%
%TD*%
%ADD11C,0.200000*%
%ADD12C,0.300000*%
G04 APERTURE END LIST*
D10*
X7850000Y-3700000D02*
G75*
G02*
X8250000Y-3300000I400000J0D01*
G01*
X8250000Y-8700000D02*
G75*
G02*
X7850000Y-8300000I0J400000D01*
G01*
X19150000Y-8300000D02*
G75*
G02*
X18750000Y-8700000I-400000J0D01*
G01*
X18750000Y-3300000D02*
G75*
G02*
X19150000Y-3700000I0J-400000D01*
G01*
X7850000Y-3700000D02*
X7850000Y-8300000D01*
X18750000Y-8700000D02*
X8250000Y-8700000D01*
X19150000Y-3700000D02*
X19150000Y-8300000D01*
X8250000Y-3300000D02*
X18750000Y-3300000D01*
D11*
D12*
X8133928Y-9168214D02*
X8133928Y-8868214D01*
X8205357Y-8868214D01*
X8248214Y-8882500D01*
X8276786Y-8911072D01*
X8291071Y-8939643D01*
X8305357Y-8996786D01*
X8305357Y-9039643D01*
X8291071Y-9096786D01*
X8276786Y-9125357D01*
X8248214Y-9153929D01*
X8205357Y-9168214D01*
X8133928Y-9168214D01*
X8433928Y-9168214D02*
X8433928Y-8968214D01*
X8433928Y-9025357D02*
X8448214Y-8996786D01*
X8462500Y-8982500D01*
X8491071Y-8968214D01*
X8519643Y-8968214D01*
X8619643Y-9168214D02*
X8619643Y-8968214D01*
X8619643Y-8868214D02*
X8605357Y-8882500D01*
X8619643Y-8896786D01*
X8633928Y-8882500D01*
X8619643Y-8868214D01*
X8619643Y-8896786D01*
X8805357Y-9168214D02*
X8776786Y-9153929D01*
X8762500Y-9125357D01*
X8762500Y-8868214D01*
X8962500Y-9168214D02*
X8933928Y-9153929D01*
X8919643Y-9125357D01*
X8919643Y-8868214D01*
X9305357Y-9168214D02*
X9305357Y-8868214D01*
X9405357Y-9082500D01*
X9505357Y-8868214D01*
X9505357Y-9168214D01*
X9776786Y-9168214D02*
X9776786Y-9011072D01*
X9762500Y-8982500D01*
X9733928Y-8968214D01*
X9676786Y-8968214D01*
X9648214Y-8982500D01*
X9776786Y-9153929D02*
X9748214Y-9168214D01*
X9676786Y-9168214D01*
X9648214Y-9153929D01*
X9633928Y-9125357D01*
X9633928Y-9096786D01*
X9648214Y-9068214D01*
X9676786Y-9053929D01*
X9748214Y-9053929D01*
X9776786Y-9039643D01*
X9919643Y-8968214D02*
X9919643Y-9268214D01*
X9919643Y-8982500D02*
X9948214Y-8968214D01*
X10005357Y-8968214D01*
X10033928Y-8982500D01*
X10048214Y-8996786D01*
X10062500Y-9025357D01*
X10062500Y-9111072D01*
X10048214Y-9139643D01*
X10033928Y-9153929D01*
X10005357Y-9168214D01*
X9948214Y-9168214D01*
X9919643Y-9153929D01*
X10191071Y-9139643D02*
X10205357Y-9153929D01*
X10191071Y-9168214D01*
X10176786Y-9153929D01*
X10191071Y-9139643D01*
X10191071Y-9168214D01*
X10191071Y-8982500D02*
X10205357Y-8996786D01*
X10191071Y-9011072D01*
X10176786Y-8996786D01*
X10191071Y-8982500D01*
X10191071Y-9011072D01*
M02*
