%FSLAX45Y45*%
G04 Gerber Fmt 4.5, Leading zero omitted, Abs format (unit mm)*
G04 Created by KiCad (PCBNEW 5.1.10) date 2021-05-13 00:13:01*
%MOMM*%
%LPD*%
G01*
G04 APERTURE LIST*
%TA.AperFunction,Profile*%
%ADD10C,0.050000*%
%TD*%
%ADD11C,0.200000*%
%ADD12C,0.300000*%
G04 APERTURE END LIST*
D10*
X2742978Y-15405078D02*
X2740478Y-2407578D01*
X15737978Y-15405078D02*
X2742978Y-15405078D01*
X15737978Y-2407578D02*
X15737978Y-15405078D01*
X2740478Y-2407578D02*
X15737978Y-2407578D01*
D11*
D12*
X3024406Y-15873292D02*
X3024406Y-15573292D01*
X3095835Y-15573292D01*
X3138692Y-15587578D01*
X3167264Y-15616149D01*
X3181549Y-15644721D01*
X3195835Y-15701864D01*
X3195835Y-15744721D01*
X3181549Y-15801864D01*
X3167264Y-15830435D01*
X3138692Y-15859007D01*
X3095835Y-15873292D01*
X3024406Y-15873292D01*
X3324406Y-15873292D02*
X3324406Y-15673292D01*
X3324406Y-15730435D02*
X3338692Y-15701864D01*
X3352978Y-15687578D01*
X3381549Y-15673292D01*
X3410121Y-15673292D01*
X3510121Y-15873292D02*
X3510121Y-15673292D01*
X3510121Y-15573292D02*
X3495835Y-15587578D01*
X3510121Y-15601864D01*
X3524406Y-15587578D01*
X3510121Y-15573292D01*
X3510121Y-15601864D01*
X3695835Y-15873292D02*
X3667264Y-15859007D01*
X3652978Y-15830435D01*
X3652978Y-15573292D01*
X3852978Y-15873292D02*
X3824406Y-15859007D01*
X3810121Y-15830435D01*
X3810121Y-15573292D01*
X4195835Y-15873292D02*
X4195835Y-15573292D01*
X4295835Y-15787578D01*
X4395835Y-15573292D01*
X4395835Y-15873292D01*
X4667264Y-15873292D02*
X4667264Y-15716149D01*
X4652978Y-15687578D01*
X4624406Y-15673292D01*
X4567264Y-15673292D01*
X4538692Y-15687578D01*
X4667264Y-15859007D02*
X4638692Y-15873292D01*
X4567264Y-15873292D01*
X4538692Y-15859007D01*
X4524406Y-15830435D01*
X4524406Y-15801864D01*
X4538692Y-15773292D01*
X4567264Y-15759007D01*
X4638692Y-15759007D01*
X4667264Y-15744721D01*
X4810121Y-15673292D02*
X4810121Y-15973292D01*
X4810121Y-15687578D02*
X4838692Y-15673292D01*
X4895835Y-15673292D01*
X4924406Y-15687578D01*
X4938692Y-15701864D01*
X4952978Y-15730435D01*
X4952978Y-15816149D01*
X4938692Y-15844721D01*
X4924406Y-15859007D01*
X4895835Y-15873292D01*
X4838692Y-15873292D01*
X4810121Y-15859007D01*
X5081549Y-15844721D02*
X5095835Y-15859007D01*
X5081549Y-15873292D01*
X5067264Y-15859007D01*
X5081549Y-15844721D01*
X5081549Y-15873292D01*
X5081549Y-15687578D02*
X5095835Y-15701864D01*
X5081549Y-15716149D01*
X5067264Y-15701864D01*
X5081549Y-15687578D01*
X5081549Y-15716149D01*
M02*
