%TF.GenerationSoftware,KiCad,Pcbnew,5.1.9*%
%TF.CreationDate,2021-03-20T19:28:51+01:00*%
%TF.ProjectId,mixer.pcb,6d697865-722e-4706-9362-2e6b69636164,0.2*%
%TF.SameCoordinates,Original*%
%TF.FileFunction,Other,Fab,Top*%
%FSLAX46Y46*%
G04 Gerber Fmt 4.6, Leading zero omitted, Abs format (unit mm)*
G04 Created by KiCad (PCBNEW 5.1.9) date 2021-03-20 19:28:51*
%MOMM*%
%LPD*%
G01*
G04 APERTURE LIST*
%ADD10C,0.100000*%
G04 APERTURE END LIST*
D10*
%TO.C,pfl_btn_master1*%
X184230000Y-142240000D02*
X185230000Y-142865000D01*
X185230000Y-141615000D02*
X184230000Y-142240000D01*
X185230000Y-147190000D02*
X185230000Y-139790000D01*
X179480000Y-147190000D02*
X185230000Y-147190000D01*
X179480000Y-139790000D02*
X179480000Y-147190000D01*
X185230000Y-139790000D02*
X179480000Y-139790000D01*
%TO.C,R26*%
X51410000Y-109200000D02*
X51410000Y-106700000D01*
X51410000Y-106700000D02*
X45110000Y-106700000D01*
X45110000Y-106700000D02*
X45110000Y-109200000D01*
X45110000Y-109200000D02*
X51410000Y-109200000D01*
X53340000Y-107950000D02*
X51410000Y-107950000D01*
X43180000Y-107950000D02*
X45110000Y-107950000D01*
%TO.C,R2*%
X63480000Y-264820000D02*
X60980000Y-264820000D01*
X60980000Y-264820000D02*
X60980000Y-271120000D01*
X60980000Y-271120000D02*
X63480000Y-271120000D01*
X63480000Y-271120000D02*
X63480000Y-264820000D01*
X62230000Y-262890000D02*
X62230000Y-264820000D01*
X62230000Y-273050000D02*
X62230000Y-271120000D01*
%TO.C,R13*%
X16490000Y-97180000D02*
X13990000Y-97180000D01*
X13990000Y-97180000D02*
X13990000Y-103480000D01*
X13990000Y-103480000D02*
X16490000Y-103480000D01*
X16490000Y-103480000D02*
X16490000Y-97180000D01*
X15240000Y-95250000D02*
X15240000Y-97180000D01*
X15240000Y-105410000D02*
X15240000Y-103480000D01*
%TO.C,FX-BTNs1*%
X73660000Y-268875000D02*
X73660000Y-263525000D01*
X73660000Y-263525000D02*
X93980000Y-263525000D01*
X93980000Y-263525000D02*
X93980000Y-269875000D01*
X93980000Y-269875000D02*
X74660000Y-269875000D01*
X74660000Y-269875000D02*
X73660000Y-268875000D01*
%TO.C,fx1_enc2*%
X25590000Y-258990000D02*
X31340000Y-258990000D01*
X31340000Y-258990000D02*
X31340000Y-244090000D01*
X31340000Y-244090000D02*
X25590000Y-244090000D01*
X25590000Y-244090000D02*
X25590000Y-258990000D01*
X25590000Y-257165000D02*
X26590000Y-256540000D01*
X26590000Y-256540000D02*
X25590000Y-255915000D01*
%TO.C,MuxCh1_4*%
X24220000Y-44640000D02*
X24220000Y-50390000D01*
X24220000Y-50390000D02*
X34120000Y-50390000D01*
X34120000Y-50390000D02*
X34120000Y-44640000D01*
X34120000Y-44640000D02*
X24220000Y-44640000D01*
X26045000Y-44640000D02*
X26670000Y-45640000D01*
X26670000Y-45640000D02*
X27295000Y-44640000D01*
%TO.C,MuxCh1_5*%
X24220000Y-53530000D02*
X24220000Y-59280000D01*
X24220000Y-59280000D02*
X34120000Y-59280000D01*
X34120000Y-59280000D02*
X34120000Y-53530000D01*
X34120000Y-53530000D02*
X24220000Y-53530000D01*
X26045000Y-53530000D02*
X26670000Y-54530000D01*
X26670000Y-54530000D02*
X27295000Y-53530000D01*
%TO.C,MuxCh1_2*%
X26670000Y-27860000D02*
X27295000Y-26860000D01*
X26045000Y-26860000D02*
X26670000Y-27860000D01*
X34120000Y-26860000D02*
X24220000Y-26860000D01*
X34120000Y-32610000D02*
X34120000Y-26860000D01*
X24220000Y-32610000D02*
X34120000Y-32610000D01*
X24220000Y-26860000D02*
X24220000Y-32610000D01*
%TO.C,MuxCh1*%
X26035000Y-91170000D02*
X27035000Y-90170000D01*
X26035000Y-110490000D02*
X26035000Y-91170000D01*
X32385000Y-110490000D02*
X26035000Y-110490000D01*
X32385000Y-90170000D02*
X32385000Y-110490000D01*
X27035000Y-90170000D02*
X32385000Y-90170000D01*
%TO.C,MuxCh1_3*%
X24220000Y-35750000D02*
X24220000Y-41500000D01*
X24220000Y-41500000D02*
X34120000Y-41500000D01*
X34120000Y-41500000D02*
X34120000Y-35750000D01*
X34120000Y-35750000D02*
X24220000Y-35750000D01*
X26045000Y-35750000D02*
X26670000Y-36750000D01*
X26670000Y-36750000D02*
X27295000Y-35750000D01*
%TO.C,MuxCh1_6*%
X26670000Y-63420000D02*
X27295000Y-62420000D01*
X26045000Y-62420000D02*
X26670000Y-63420000D01*
X34120000Y-62420000D02*
X24220000Y-62420000D01*
X34120000Y-68170000D02*
X34120000Y-62420000D01*
X24220000Y-68170000D02*
X34120000Y-68170000D01*
X24220000Y-62420000D02*
X24220000Y-68170000D01*
%TO.C,MuxCh1_7*%
X26670000Y-72310000D02*
X27295000Y-71310000D01*
X26045000Y-71310000D02*
X26670000Y-72310000D01*
X34120000Y-71310000D02*
X24220000Y-71310000D01*
X34120000Y-77060000D02*
X34120000Y-71310000D01*
X24220000Y-77060000D02*
X34120000Y-77060000D01*
X24220000Y-71310000D02*
X24220000Y-77060000D01*
%TO.C,MuxCh1_8*%
X24220000Y-80200000D02*
X24220000Y-85950000D01*
X24220000Y-85950000D02*
X34120000Y-85950000D01*
X34120000Y-85950000D02*
X34120000Y-80200000D01*
X34120000Y-80200000D02*
X24220000Y-80200000D01*
X26045000Y-80200000D02*
X26670000Y-81200000D01*
X26670000Y-81200000D02*
X27295000Y-80200000D01*
%TO.C,MuxCh1_1*%
X24220000Y-17970000D02*
X24220000Y-23720000D01*
X24220000Y-23720000D02*
X34120000Y-23720000D01*
X34120000Y-23720000D02*
X34120000Y-17970000D01*
X34120000Y-17970000D02*
X24220000Y-17970000D01*
X26045000Y-17970000D02*
X26670000Y-18970000D01*
X26670000Y-18970000D02*
X27295000Y-17970000D01*
%TO.C,NeoPixel1*%
X26590000Y-191770000D02*
X25590000Y-191145000D01*
X25590000Y-192395000D02*
X26590000Y-191770000D01*
X25590000Y-184320000D02*
X25590000Y-194220000D01*
X31340000Y-184320000D02*
X25590000Y-184320000D01*
X31340000Y-194220000D02*
X31340000Y-184320000D01*
X25590000Y-194220000D02*
X31340000Y-194220000D01*
%TO.C,vu_matrix*%
X149670000Y-185510000D02*
X143920000Y-185510000D01*
X143920000Y-185510000D02*
X143920000Y-200410000D01*
X143920000Y-200410000D02*
X149670000Y-200410000D01*
X149670000Y-200410000D02*
X149670000Y-185510000D01*
X149670000Y-187335000D02*
X148670000Y-187960000D01*
X148670000Y-187960000D02*
X149670000Y-188585000D01*
%TO.C,display_1*%
X26590000Y-220980000D02*
X25590000Y-220355000D01*
X25590000Y-221605000D02*
X26590000Y-220980000D01*
X25590000Y-211030000D02*
X25590000Y-223430000D01*
X31340000Y-211030000D02*
X25590000Y-211030000D01*
X31340000Y-223430000D02*
X31340000Y-211030000D01*
X25590000Y-223430000D02*
X31340000Y-223430000D01*
%TO.C,display_2*%
X177990000Y-223430000D02*
X183740000Y-223430000D01*
X183740000Y-223430000D02*
X183740000Y-211030000D01*
X183740000Y-211030000D02*
X177990000Y-211030000D01*
X177990000Y-211030000D02*
X177990000Y-223430000D01*
X177990000Y-221605000D02*
X178990000Y-220980000D01*
X178990000Y-220980000D02*
X177990000Y-220355000D01*
%TO.C,fx1_btn1*%
X102950000Y-262890000D02*
X103950000Y-263515000D01*
X103950000Y-262265000D02*
X102950000Y-262890000D01*
X103950000Y-267840000D02*
X103950000Y-260440000D01*
X98200000Y-267840000D02*
X103950000Y-267840000D01*
X98200000Y-260440000D02*
X98200000Y-267840000D01*
X103950000Y-260440000D02*
X98200000Y-260440000D01*
%TO.C,fx1_btn2*%
X50610000Y-233770000D02*
X44860000Y-233770000D01*
X44860000Y-233770000D02*
X44860000Y-241170000D01*
X44860000Y-241170000D02*
X50610000Y-241170000D01*
X50610000Y-241170000D02*
X50610000Y-233770000D01*
X50610000Y-235595000D02*
X49610000Y-236220000D01*
X49610000Y-236220000D02*
X50610000Y-236845000D01*
%TO.C,fx1_btn3*%
X59500000Y-233770000D02*
X53750000Y-233770000D01*
X53750000Y-233770000D02*
X53750000Y-241170000D01*
X53750000Y-241170000D02*
X59500000Y-241170000D01*
X59500000Y-241170000D02*
X59500000Y-233770000D01*
X59500000Y-235595000D02*
X58500000Y-236220000D01*
X58500000Y-236220000D02*
X59500000Y-236845000D01*
%TO.C,fx1_btn4*%
X67390000Y-236220000D02*
X68390000Y-236845000D01*
X68390000Y-235595000D02*
X67390000Y-236220000D01*
X68390000Y-241170000D02*
X68390000Y-233770000D01*
X62640000Y-241170000D02*
X68390000Y-241170000D01*
X62640000Y-233770000D02*
X62640000Y-241170000D01*
X68390000Y-233770000D02*
X62640000Y-233770000D01*
%TO.C,fx1_enc1*%
X25590000Y-241210000D02*
X31340000Y-241210000D01*
X31340000Y-241210000D02*
X31340000Y-226310000D01*
X31340000Y-226310000D02*
X25590000Y-226310000D01*
X25590000Y-226310000D02*
X25590000Y-241210000D01*
X25590000Y-239385000D02*
X26590000Y-238760000D01*
X26590000Y-238760000D02*
X25590000Y-238135000D01*
%TO.C,fx1_enc3*%
X25590000Y-276770000D02*
X31340000Y-276770000D01*
X31340000Y-276770000D02*
X31340000Y-261870000D01*
X31340000Y-261870000D02*
X25590000Y-261870000D01*
X25590000Y-261870000D02*
X25590000Y-276770000D01*
X25590000Y-274945000D02*
X26590000Y-274320000D01*
X26590000Y-274320000D02*
X25590000Y-273695000D01*
%TO.C,fx2_btn1*%
X41720000Y-233770000D02*
X35970000Y-233770000D01*
X35970000Y-233770000D02*
X35970000Y-241170000D01*
X35970000Y-241170000D02*
X41720000Y-241170000D01*
X41720000Y-241170000D02*
X41720000Y-233770000D01*
X41720000Y-235595000D02*
X40720000Y-236220000D01*
X40720000Y-236220000D02*
X41720000Y-236845000D01*
%TO.C,fx2_btn2*%
X111840000Y-262890000D02*
X112840000Y-263515000D01*
X112840000Y-262265000D02*
X111840000Y-262890000D01*
X112840000Y-267840000D02*
X112840000Y-260440000D01*
X107090000Y-267840000D02*
X112840000Y-267840000D01*
X107090000Y-260440000D02*
X107090000Y-267840000D01*
X112840000Y-260440000D02*
X107090000Y-260440000D01*
%TO.C,fx2_btn3*%
X121730000Y-260440000D02*
X115980000Y-260440000D01*
X115980000Y-260440000D02*
X115980000Y-267840000D01*
X115980000Y-267840000D02*
X121730000Y-267840000D01*
X121730000Y-267840000D02*
X121730000Y-260440000D01*
X121730000Y-262265000D02*
X120730000Y-262890000D01*
X120730000Y-262890000D02*
X121730000Y-263515000D01*
%TO.C,fx2_btn4*%
X129620000Y-262890000D02*
X130620000Y-263515000D01*
X130620000Y-262265000D02*
X129620000Y-262890000D01*
X130620000Y-267840000D02*
X130620000Y-260440000D01*
X124870000Y-267840000D02*
X130620000Y-267840000D01*
X124870000Y-260440000D02*
X124870000Y-267840000D01*
X130620000Y-260440000D02*
X124870000Y-260440000D01*
%TO.C,fx2_enc1*%
X178990000Y-238760000D02*
X177990000Y-238135000D01*
X177990000Y-239385000D02*
X178990000Y-238760000D01*
X177990000Y-226310000D02*
X177990000Y-241210000D01*
X183740000Y-226310000D02*
X177990000Y-226310000D01*
X183740000Y-241210000D02*
X183740000Y-226310000D01*
X177990000Y-241210000D02*
X183740000Y-241210000D01*
%TO.C,fx2_enc2*%
X177990000Y-258990000D02*
X183740000Y-258990000D01*
X183740000Y-258990000D02*
X183740000Y-244090000D01*
X183740000Y-244090000D02*
X177990000Y-244090000D01*
X177990000Y-244090000D02*
X177990000Y-258990000D01*
X177990000Y-257165000D02*
X178990000Y-256540000D01*
X178990000Y-256540000D02*
X177990000Y-255915000D01*
%TO.C,fx2_enc3*%
X178990000Y-274320000D02*
X177990000Y-273695000D01*
X177990000Y-274945000D02*
X178990000Y-274320000D01*
X177990000Y-261870000D02*
X177990000Y-276770000D01*
X183740000Y-261870000D02*
X177990000Y-261870000D01*
X183740000Y-276770000D02*
X183740000Y-261870000D01*
X177990000Y-276770000D02*
X183740000Y-276770000D01*
%TO.C,fxEncBtns1*%
X135620000Y-262255000D02*
X134620000Y-261255000D01*
X154940000Y-262255000D02*
X135620000Y-262255000D01*
X154940000Y-255905000D02*
X154940000Y-262255000D01*
X134620000Y-255905000D02*
X154940000Y-255905000D01*
X134620000Y-261255000D02*
X134620000Y-255905000D01*
%TO.C,pfl_btn_1*%
X40720000Y-140970000D02*
X41720000Y-141595000D01*
X41720000Y-140345000D02*
X40720000Y-140970000D01*
X41720000Y-145920000D02*
X41720000Y-138520000D01*
X35970000Y-145920000D02*
X41720000Y-145920000D01*
X35970000Y-138520000D02*
X35970000Y-145920000D01*
X41720000Y-138520000D02*
X35970000Y-138520000D01*
%TO.C,pfl_btn_2*%
X73470000Y-138520000D02*
X67720000Y-138520000D01*
X67720000Y-138520000D02*
X67720000Y-145920000D01*
X67720000Y-145920000D02*
X73470000Y-145920000D01*
X73470000Y-145920000D02*
X73470000Y-138520000D01*
X73470000Y-140345000D02*
X72470000Y-140970000D01*
X72470000Y-140970000D02*
X73470000Y-141595000D01*
%TO.C,pfl_btn_3*%
X109300000Y-140970000D02*
X110300000Y-141595000D01*
X110300000Y-140345000D02*
X109300000Y-140970000D01*
X110300000Y-145920000D02*
X110300000Y-138520000D01*
X104550000Y-145920000D02*
X110300000Y-145920000D01*
X104550000Y-138520000D02*
X104550000Y-145920000D01*
X110300000Y-138520000D02*
X104550000Y-138520000D01*
%TO.C,pfl_btn_4*%
X143600000Y-139890000D02*
X143600000Y-145640000D01*
X143600000Y-145640000D02*
X151000000Y-145640000D01*
X151000000Y-145640000D02*
X151000000Y-139890000D01*
X151000000Y-139890000D02*
X143600000Y-139890000D01*
X145425000Y-139890000D02*
X146050000Y-140890000D01*
X146050000Y-140890000D02*
X146675000Y-139890000D01*
%TO.C,pfl_led_1*%
X32830000Y-138520000D02*
X27080000Y-138520000D01*
X27080000Y-138520000D02*
X27080000Y-145920000D01*
X27080000Y-145920000D02*
X32830000Y-145920000D01*
X32830000Y-145920000D02*
X32830000Y-138520000D01*
X32830000Y-140345000D02*
X31830000Y-140970000D01*
X31830000Y-140970000D02*
X32830000Y-141595000D01*
%TO.C,pfl_led_2*%
X63580000Y-140970000D02*
X64580000Y-141595000D01*
X64580000Y-140345000D02*
X63580000Y-140970000D01*
X64580000Y-145920000D02*
X64580000Y-138520000D01*
X58830000Y-145920000D02*
X64580000Y-145920000D01*
X58830000Y-138520000D02*
X58830000Y-145920000D01*
X64580000Y-138520000D02*
X58830000Y-138520000D01*
%TO.C,pfl_led_3*%
X100410000Y-140970000D02*
X101410000Y-141595000D01*
X101410000Y-140345000D02*
X100410000Y-140970000D01*
X101410000Y-145920000D02*
X101410000Y-138520000D01*
X95660000Y-145920000D02*
X101410000Y-145920000D01*
X95660000Y-138520000D02*
X95660000Y-145920000D01*
X101410000Y-138520000D02*
X95660000Y-138520000D01*
%TO.C,pfl_led_4*%
X133260000Y-144590000D02*
X133260000Y-138840000D01*
X133260000Y-138840000D02*
X125860000Y-138840000D01*
X125860000Y-138840000D02*
X125860000Y-144590000D01*
X125860000Y-144590000D02*
X133260000Y-144590000D01*
X131435000Y-144590000D02*
X130810000Y-143590000D01*
X130810000Y-143590000D02*
X130185000Y-144590000D01*
%TO.C,pfl_led_master1*%
X176340000Y-139790000D02*
X170590000Y-139790000D01*
X170590000Y-139790000D02*
X170590000Y-147190000D01*
X170590000Y-147190000D02*
X176340000Y-147190000D01*
X176340000Y-147190000D02*
X176340000Y-139790000D01*
X176340000Y-141615000D02*
X175340000Y-142240000D01*
X175340000Y-142240000D02*
X176340000Y-142865000D01*
%TO.C,spare28*%
X177990000Y-195490000D02*
X183740000Y-195490000D01*
X183740000Y-195490000D02*
X183740000Y-185590000D01*
X183740000Y-185590000D02*
X177990000Y-185590000D01*
X177990000Y-185590000D02*
X177990000Y-195490000D01*
X177990000Y-193665000D02*
X178990000Y-193040000D01*
X178990000Y-193040000D02*
X177990000Y-192415000D01*
%TO.C,spare29*%
X177990000Y-208190000D02*
X183740000Y-208190000D01*
X183740000Y-208190000D02*
X183740000Y-198290000D01*
X183740000Y-198290000D02*
X177990000Y-198290000D01*
X177990000Y-198290000D02*
X177990000Y-208190000D01*
X177990000Y-206365000D02*
X178990000Y-205740000D01*
X178990000Y-205740000D02*
X177990000Y-205115000D01*
%TO.C,C1*%
X31670000Y-200640000D02*
G75*
G03*
X31670000Y-200640000I-5000000J0D01*
G01*
X28857500Y-196351139D02*
X28857500Y-197351139D01*
X29357500Y-196851139D02*
X28357500Y-196851139D01*
%TO.C,MuxCh2*%
X61595000Y-107680000D02*
X62595000Y-106680000D01*
X61595000Y-127000000D02*
X61595000Y-107680000D01*
X67945000Y-127000000D02*
X61595000Y-127000000D01*
X67945000Y-106680000D02*
X67945000Y-127000000D01*
X62595000Y-106680000D02*
X67945000Y-106680000D01*
%TO.C,MuxCh3*%
X97155000Y-91170000D02*
X98155000Y-90170000D01*
X97155000Y-110490000D02*
X97155000Y-91170000D01*
X103505000Y-110490000D02*
X97155000Y-110490000D01*
X103505000Y-90170000D02*
X103505000Y-110490000D01*
X98155000Y-90170000D02*
X103505000Y-90170000D01*
%TO.C,MuxCh4*%
X133715000Y-106680000D02*
X139065000Y-106680000D01*
X139065000Y-106680000D02*
X139065000Y-127000000D01*
X139065000Y-127000000D02*
X132715000Y-127000000D01*
X132715000Y-127000000D02*
X132715000Y-107680000D01*
X132715000Y-107680000D02*
X133715000Y-106680000D01*
%TO.C,MuxCh5*%
X168005000Y-88900000D02*
X173355000Y-88900000D01*
X173355000Y-88900000D02*
X173355000Y-109220000D01*
X173355000Y-109220000D02*
X167005000Y-109220000D01*
X167005000Y-109220000D02*
X167005000Y-89900000D01*
X167005000Y-89900000D02*
X168005000Y-88900000D01*
%TO.C,MuxCh2_1*%
X62230000Y-35480000D02*
X62855000Y-34480000D01*
X61605000Y-34480000D02*
X62230000Y-35480000D01*
X69680000Y-34480000D02*
X59780000Y-34480000D01*
X69680000Y-40230000D02*
X69680000Y-34480000D01*
X59780000Y-40230000D02*
X69680000Y-40230000D01*
X59780000Y-34480000D02*
X59780000Y-40230000D01*
%TO.C,MuxCh2_2*%
X62230000Y-44370000D02*
X62855000Y-43370000D01*
X61605000Y-43370000D02*
X62230000Y-44370000D01*
X69680000Y-43370000D02*
X59780000Y-43370000D01*
X69680000Y-49120000D02*
X69680000Y-43370000D01*
X59780000Y-49120000D02*
X69680000Y-49120000D01*
X59780000Y-43370000D02*
X59780000Y-49120000D01*
%TO.C,MuxCh2_3*%
X59780000Y-52260000D02*
X59780000Y-58010000D01*
X59780000Y-58010000D02*
X69680000Y-58010000D01*
X69680000Y-58010000D02*
X69680000Y-52260000D01*
X69680000Y-52260000D02*
X59780000Y-52260000D01*
X61605000Y-52260000D02*
X62230000Y-53260000D01*
X62230000Y-53260000D02*
X62855000Y-52260000D01*
%TO.C,MuxCh2_4*%
X59780000Y-61150000D02*
X59780000Y-66900000D01*
X59780000Y-66900000D02*
X69680000Y-66900000D01*
X69680000Y-66900000D02*
X69680000Y-61150000D01*
X69680000Y-61150000D02*
X59780000Y-61150000D01*
X61605000Y-61150000D02*
X62230000Y-62150000D01*
X62230000Y-62150000D02*
X62855000Y-61150000D01*
%TO.C,MuxCh2_5*%
X59780000Y-70040000D02*
X59780000Y-75790000D01*
X59780000Y-75790000D02*
X69680000Y-75790000D01*
X69680000Y-75790000D02*
X69680000Y-70040000D01*
X69680000Y-70040000D02*
X59780000Y-70040000D01*
X61605000Y-70040000D02*
X62230000Y-71040000D01*
X62230000Y-71040000D02*
X62855000Y-70040000D01*
%TO.C,MuxCh2_6*%
X62230000Y-79930000D02*
X62855000Y-78930000D01*
X61605000Y-78930000D02*
X62230000Y-79930000D01*
X69680000Y-78930000D02*
X59780000Y-78930000D01*
X69680000Y-84680000D02*
X69680000Y-78930000D01*
X59780000Y-84680000D02*
X69680000Y-84680000D01*
X59780000Y-78930000D02*
X59780000Y-84680000D01*
%TO.C,MuxCh2_7*%
X62230000Y-88820000D02*
X62855000Y-87820000D01*
X61605000Y-87820000D02*
X62230000Y-88820000D01*
X69680000Y-87820000D02*
X59780000Y-87820000D01*
X69680000Y-93570000D02*
X69680000Y-87820000D01*
X59780000Y-93570000D02*
X69680000Y-93570000D01*
X59780000Y-87820000D02*
X59780000Y-93570000D01*
%TO.C,MuxCh2_8*%
X59780000Y-96710000D02*
X59780000Y-102460000D01*
X59780000Y-102460000D02*
X69680000Y-102460000D01*
X69680000Y-102460000D02*
X69680000Y-96710000D01*
X69680000Y-96710000D02*
X59780000Y-96710000D01*
X61605000Y-96710000D02*
X62230000Y-97710000D01*
X62230000Y-97710000D02*
X62855000Y-96710000D01*
%TO.C,MuxCh3_1*%
X95340000Y-17970000D02*
X95340000Y-23720000D01*
X95340000Y-23720000D02*
X105240000Y-23720000D01*
X105240000Y-23720000D02*
X105240000Y-17970000D01*
X105240000Y-17970000D02*
X95340000Y-17970000D01*
X97165000Y-17970000D02*
X97790000Y-18970000D01*
X97790000Y-18970000D02*
X98415000Y-17970000D01*
%TO.C,MuxCh3_2*%
X97790000Y-27860000D02*
X98415000Y-26860000D01*
X97165000Y-26860000D02*
X97790000Y-27860000D01*
X105240000Y-26860000D02*
X95340000Y-26860000D01*
X105240000Y-32610000D02*
X105240000Y-26860000D01*
X95340000Y-32610000D02*
X105240000Y-32610000D01*
X95340000Y-26860000D02*
X95340000Y-32610000D01*
%TO.C,MuxCh3_3*%
X95340000Y-35750000D02*
X95340000Y-41500000D01*
X95340000Y-41500000D02*
X105240000Y-41500000D01*
X105240000Y-41500000D02*
X105240000Y-35750000D01*
X105240000Y-35750000D02*
X95340000Y-35750000D01*
X97165000Y-35750000D02*
X97790000Y-36750000D01*
X97790000Y-36750000D02*
X98415000Y-35750000D01*
%TO.C,MuxCh3_4*%
X95340000Y-44640000D02*
X95340000Y-50390000D01*
X95340000Y-50390000D02*
X105240000Y-50390000D01*
X105240000Y-50390000D02*
X105240000Y-44640000D01*
X105240000Y-44640000D02*
X95340000Y-44640000D01*
X97165000Y-44640000D02*
X97790000Y-45640000D01*
X97790000Y-45640000D02*
X98415000Y-44640000D01*
%TO.C,MuxCh3_5*%
X97790000Y-54530000D02*
X98415000Y-53530000D01*
X97165000Y-53530000D02*
X97790000Y-54530000D01*
X105240000Y-53530000D02*
X95340000Y-53530000D01*
X105240000Y-59280000D02*
X105240000Y-53530000D01*
X95340000Y-59280000D02*
X105240000Y-59280000D01*
X95340000Y-53530000D02*
X95340000Y-59280000D01*
%TO.C,MuxCh3_6*%
X95340000Y-62420000D02*
X95340000Y-68170000D01*
X95340000Y-68170000D02*
X105240000Y-68170000D01*
X105240000Y-68170000D02*
X105240000Y-62420000D01*
X105240000Y-62420000D02*
X95340000Y-62420000D01*
X97165000Y-62420000D02*
X97790000Y-63420000D01*
X97790000Y-63420000D02*
X98415000Y-62420000D01*
%TO.C,MuxCh3_7*%
X95340000Y-71310000D02*
X95340000Y-77060000D01*
X95340000Y-77060000D02*
X105240000Y-77060000D01*
X105240000Y-77060000D02*
X105240000Y-71310000D01*
X105240000Y-71310000D02*
X95340000Y-71310000D01*
X97165000Y-71310000D02*
X97790000Y-72310000D01*
X97790000Y-72310000D02*
X98415000Y-71310000D01*
%TO.C,MuxCh3_8*%
X97790000Y-81200000D02*
X98415000Y-80200000D01*
X97165000Y-80200000D02*
X97790000Y-81200000D01*
X105240000Y-80200000D02*
X95340000Y-80200000D01*
X105240000Y-85950000D02*
X105240000Y-80200000D01*
X95340000Y-85950000D02*
X105240000Y-85950000D01*
X95340000Y-80200000D02*
X95340000Y-85950000D01*
%TO.C,MuxCh4_1*%
X130900000Y-34480000D02*
X130900000Y-40230000D01*
X130900000Y-40230000D02*
X140800000Y-40230000D01*
X140800000Y-40230000D02*
X140800000Y-34480000D01*
X140800000Y-34480000D02*
X130900000Y-34480000D01*
X132725000Y-34480000D02*
X133350000Y-35480000D01*
X133350000Y-35480000D02*
X133975000Y-34480000D01*
%TO.C,MuxCh4_2*%
X133350000Y-44370000D02*
X133975000Y-43370000D01*
X132725000Y-43370000D02*
X133350000Y-44370000D01*
X140800000Y-43370000D02*
X130900000Y-43370000D01*
X140800000Y-49120000D02*
X140800000Y-43370000D01*
X130900000Y-49120000D02*
X140800000Y-49120000D01*
X130900000Y-43370000D02*
X130900000Y-49120000D01*
%TO.C,MuxCh4_3*%
X133350000Y-53260000D02*
X133975000Y-52260000D01*
X132725000Y-52260000D02*
X133350000Y-53260000D01*
X140800000Y-52260000D02*
X130900000Y-52260000D01*
X140800000Y-58010000D02*
X140800000Y-52260000D01*
X130900000Y-58010000D02*
X140800000Y-58010000D01*
X130900000Y-52260000D02*
X130900000Y-58010000D01*
%TO.C,MuxCh4_4*%
X130900000Y-61150000D02*
X130900000Y-66900000D01*
X130900000Y-66900000D02*
X140800000Y-66900000D01*
X140800000Y-66900000D02*
X140800000Y-61150000D01*
X140800000Y-61150000D02*
X130900000Y-61150000D01*
X132725000Y-61150000D02*
X133350000Y-62150000D01*
X133350000Y-62150000D02*
X133975000Y-61150000D01*
%TO.C,MuxCh4_5*%
X133350000Y-71040000D02*
X133975000Y-70040000D01*
X132725000Y-70040000D02*
X133350000Y-71040000D01*
X140800000Y-70040000D02*
X130900000Y-70040000D01*
X140800000Y-75790000D02*
X140800000Y-70040000D01*
X130900000Y-75790000D02*
X140800000Y-75790000D01*
X130900000Y-70040000D02*
X130900000Y-75790000D01*
%TO.C,MuxCh4_6*%
X130900000Y-78930000D02*
X130900000Y-84680000D01*
X130900000Y-84680000D02*
X140800000Y-84680000D01*
X140800000Y-84680000D02*
X140800000Y-78930000D01*
X140800000Y-78930000D02*
X130900000Y-78930000D01*
X132725000Y-78930000D02*
X133350000Y-79930000D01*
X133350000Y-79930000D02*
X133975000Y-78930000D01*
%TO.C,MuxCh4_7*%
X133350000Y-88820000D02*
X133975000Y-87820000D01*
X132725000Y-87820000D02*
X133350000Y-88820000D01*
X140800000Y-87820000D02*
X130900000Y-87820000D01*
X140800000Y-93570000D02*
X140800000Y-87820000D01*
X130900000Y-93570000D02*
X140800000Y-93570000D01*
X130900000Y-87820000D02*
X130900000Y-93570000D01*
%TO.C,MuxCh4_8*%
X133350000Y-97710000D02*
X133975000Y-96710000D01*
X132725000Y-96710000D02*
X133350000Y-97710000D01*
X140800000Y-96710000D02*
X130900000Y-96710000D01*
X140800000Y-102460000D02*
X140800000Y-96710000D01*
X130900000Y-102460000D02*
X140800000Y-102460000D01*
X130900000Y-96710000D02*
X130900000Y-102460000D01*
%TO.C,MuxCh5_1*%
X165190000Y-16700000D02*
X165190000Y-22450000D01*
X165190000Y-22450000D02*
X175090000Y-22450000D01*
X175090000Y-22450000D02*
X175090000Y-16700000D01*
X175090000Y-16700000D02*
X165190000Y-16700000D01*
X167015000Y-16700000D02*
X167640000Y-17700000D01*
X167640000Y-17700000D02*
X168265000Y-16700000D01*
%TO.C,MuxCh5_2*%
X167640000Y-26590000D02*
X168265000Y-25590000D01*
X167015000Y-25590000D02*
X167640000Y-26590000D01*
X175090000Y-25590000D02*
X165190000Y-25590000D01*
X175090000Y-31340000D02*
X175090000Y-25590000D01*
X165190000Y-31340000D02*
X175090000Y-31340000D01*
X165190000Y-25590000D02*
X165190000Y-31340000D01*
%TO.C,MuxCh5_3*%
X165190000Y-34480000D02*
X165190000Y-40230000D01*
X165190000Y-40230000D02*
X175090000Y-40230000D01*
X175090000Y-40230000D02*
X175090000Y-34480000D01*
X175090000Y-34480000D02*
X165190000Y-34480000D01*
X167015000Y-34480000D02*
X167640000Y-35480000D01*
X167640000Y-35480000D02*
X168265000Y-34480000D01*
%TO.C,MuxCh5_4*%
X165190000Y-43370000D02*
X165190000Y-49120000D01*
X165190000Y-49120000D02*
X175090000Y-49120000D01*
X175090000Y-49120000D02*
X175090000Y-43370000D01*
X175090000Y-43370000D02*
X165190000Y-43370000D01*
X167015000Y-43370000D02*
X167640000Y-44370000D01*
X167640000Y-44370000D02*
X168265000Y-43370000D01*
%TO.C,MuxCh5_5*%
X167640000Y-53260000D02*
X168265000Y-52260000D01*
X167015000Y-52260000D02*
X167640000Y-53260000D01*
X175090000Y-52260000D02*
X165190000Y-52260000D01*
X175090000Y-58010000D02*
X175090000Y-52260000D01*
X165190000Y-58010000D02*
X175090000Y-58010000D01*
X165190000Y-52260000D02*
X165190000Y-58010000D01*
%TO.C,MuxCh5_6*%
X165190000Y-61150000D02*
X165190000Y-66900000D01*
X165190000Y-66900000D02*
X175090000Y-66900000D01*
X175090000Y-66900000D02*
X175090000Y-61150000D01*
X175090000Y-61150000D02*
X165190000Y-61150000D01*
X167015000Y-61150000D02*
X167640000Y-62150000D01*
X167640000Y-62150000D02*
X168265000Y-61150000D01*
%TO.C,MuxCh5_7*%
X167640000Y-71040000D02*
X168265000Y-70040000D01*
X167015000Y-70040000D02*
X167640000Y-71040000D01*
X175090000Y-70040000D02*
X165190000Y-70040000D01*
X175090000Y-75790000D02*
X175090000Y-70040000D01*
X165190000Y-75790000D02*
X175090000Y-75790000D01*
X165190000Y-70040000D02*
X165190000Y-75790000D01*
%TO.C,MuxCh5_8*%
X167640000Y-79930000D02*
X168265000Y-78930000D01*
X167015000Y-78930000D02*
X167640000Y-79930000D01*
X175090000Y-78930000D02*
X165190000Y-78930000D01*
X175090000Y-84680000D02*
X175090000Y-78930000D01*
X165190000Y-84680000D02*
X175090000Y-84680000D01*
X165190000Y-78930000D02*
X165190000Y-84680000D01*
%TO.C,R1*%
X106680000Y-256540000D02*
X104750000Y-256540000D01*
X96520000Y-256540000D02*
X98450000Y-256540000D01*
X104750000Y-255290000D02*
X98450000Y-255290000D01*
X104750000Y-257790000D02*
X104750000Y-255290000D01*
X98450000Y-257790000D02*
X104750000Y-257790000D01*
X98450000Y-255290000D02*
X98450000Y-257790000D01*
%TO.C,R3*%
X58420000Y-273050000D02*
X58420000Y-271120000D01*
X58420000Y-262890000D02*
X58420000Y-264820000D01*
X59670000Y-271120000D02*
X59670000Y-264820000D01*
X57170000Y-271120000D02*
X59670000Y-271120000D01*
X57170000Y-264820000D02*
X57170000Y-271120000D01*
X59670000Y-264820000D02*
X57170000Y-264820000D01*
%TO.C,R4*%
X55860000Y-264820000D02*
X53360000Y-264820000D01*
X53360000Y-264820000D02*
X53360000Y-271120000D01*
X53360000Y-271120000D02*
X55860000Y-271120000D01*
X55860000Y-271120000D02*
X55860000Y-264820000D01*
X54610000Y-262890000D02*
X54610000Y-264820000D01*
X54610000Y-273050000D02*
X54610000Y-271120000D01*
%TO.C,R5*%
X50800000Y-262890000D02*
X50800000Y-264820000D01*
X50800000Y-273050000D02*
X50800000Y-271120000D01*
X49550000Y-264820000D02*
X49550000Y-271120000D01*
X52050000Y-264820000D02*
X49550000Y-264820000D01*
X52050000Y-271120000D02*
X52050000Y-264820000D01*
X49550000Y-271120000D02*
X52050000Y-271120000D01*
%TO.C,R6*%
X99720000Y-269260000D02*
X99720000Y-271760000D01*
X99720000Y-271760000D02*
X106020000Y-271760000D01*
X106020000Y-271760000D02*
X106020000Y-269260000D01*
X106020000Y-269260000D02*
X99720000Y-269260000D01*
X97790000Y-270510000D02*
X99720000Y-270510000D01*
X107950000Y-270510000D02*
X106020000Y-270510000D01*
%TO.C,R7*%
X67310000Y-279400000D02*
X69240000Y-279400000D01*
X77470000Y-279400000D02*
X75540000Y-279400000D01*
X69240000Y-280650000D02*
X75540000Y-280650000D01*
X69240000Y-278150000D02*
X69240000Y-280650000D01*
X75540000Y-278150000D02*
X69240000Y-278150000D01*
X75540000Y-280650000D02*
X75540000Y-278150000D01*
%TO.C,R8*%
X84480000Y-278150000D02*
X84480000Y-280650000D01*
X84480000Y-280650000D02*
X90780000Y-280650000D01*
X90780000Y-280650000D02*
X90780000Y-278150000D01*
X90780000Y-278150000D02*
X84480000Y-278150000D01*
X82550000Y-279400000D02*
X84480000Y-279400000D01*
X92710000Y-279400000D02*
X90780000Y-279400000D01*
%TO.C,R9*%
X46380000Y-99080000D02*
X46380000Y-101580000D01*
X46380000Y-101580000D02*
X52680000Y-101580000D01*
X52680000Y-101580000D02*
X52680000Y-99080000D01*
X52680000Y-99080000D02*
X46380000Y-99080000D01*
X44450000Y-100330000D02*
X46380000Y-100330000D01*
X54610000Y-100330000D02*
X52680000Y-100330000D01*
%TO.C,R10*%
X44470000Y-93320000D02*
X46970000Y-93320000D01*
X46970000Y-93320000D02*
X46970000Y-87020000D01*
X46970000Y-87020000D02*
X44470000Y-87020000D01*
X44470000Y-87020000D02*
X44470000Y-93320000D01*
X45720000Y-95250000D02*
X45720000Y-93320000D01*
X45720000Y-85090000D02*
X45720000Y-87020000D01*
%TO.C,R11*%
X50780000Y-84480000D02*
X48280000Y-84480000D01*
X48280000Y-84480000D02*
X48280000Y-90780000D01*
X48280000Y-90780000D02*
X50780000Y-90780000D01*
X50780000Y-90780000D02*
X50780000Y-84480000D01*
X49530000Y-82550000D02*
X49530000Y-84480000D01*
X49530000Y-92710000D02*
X49530000Y-90780000D01*
%TO.C,R12*%
X53340000Y-90170000D02*
X53340000Y-88240000D01*
X53340000Y-80010000D02*
X53340000Y-81940000D01*
X54590000Y-88240000D02*
X54590000Y-81940000D01*
X52090000Y-88240000D02*
X54590000Y-88240000D01*
X52090000Y-81940000D02*
X52090000Y-88240000D01*
X54590000Y-81940000D02*
X52090000Y-81940000D01*
%TO.C,R14*%
X55880000Y-76200000D02*
X53950000Y-76200000D01*
X45720000Y-76200000D02*
X47650000Y-76200000D01*
X53950000Y-74950000D02*
X47650000Y-74950000D01*
X53950000Y-77450000D02*
X53950000Y-74950000D01*
X47650000Y-77450000D02*
X53950000Y-77450000D01*
X47650000Y-74950000D02*
X47650000Y-77450000D01*
%TO.C,R15*%
X20300000Y-97180000D02*
X17800000Y-97180000D01*
X17800000Y-97180000D02*
X17800000Y-103480000D01*
X17800000Y-103480000D02*
X20300000Y-103480000D01*
X20300000Y-103480000D02*
X20300000Y-97180000D01*
X19050000Y-95250000D02*
X19050000Y-97180000D01*
X19050000Y-105410000D02*
X19050000Y-103480000D01*
%TO.C,R16*%
X19050000Y-77470000D02*
X19050000Y-79400000D01*
X19050000Y-87630000D02*
X19050000Y-85700000D01*
X17800000Y-79400000D02*
X17800000Y-85700000D01*
X20300000Y-79400000D02*
X17800000Y-79400000D01*
X20300000Y-85700000D02*
X20300000Y-79400000D01*
X17800000Y-85700000D02*
X20300000Y-85700000D01*
%TO.C,R17*%
X102210000Y-245090000D02*
X102210000Y-242590000D01*
X102210000Y-242590000D02*
X95910000Y-242590000D01*
X95910000Y-242590000D02*
X95910000Y-245090000D01*
X95910000Y-245090000D02*
X102210000Y-245090000D01*
X104140000Y-243840000D02*
X102210000Y-243840000D01*
X93980000Y-243840000D02*
X95910000Y-243840000D01*
%TO.C,R18*%
X21610000Y-149200000D02*
X24110000Y-149200000D01*
X24110000Y-149200000D02*
X24110000Y-142900000D01*
X24110000Y-142900000D02*
X21610000Y-142900000D01*
X21610000Y-142900000D02*
X21610000Y-149200000D01*
X22860000Y-151130000D02*
X22860000Y-149200000D01*
X22860000Y-140970000D02*
X22860000Y-142900000D01*
%TO.C,R19*%
X57150000Y-222250000D02*
X59080000Y-222250000D01*
X67310000Y-222250000D02*
X65380000Y-222250000D01*
X59080000Y-223500000D02*
X65380000Y-223500000D01*
X59080000Y-221000000D02*
X59080000Y-223500000D01*
X65380000Y-221000000D02*
X59080000Y-221000000D01*
X65380000Y-223500000D02*
X65380000Y-221000000D01*
%TO.C,R20*%
X117450000Y-245090000D02*
X117450000Y-242590000D01*
X117450000Y-242590000D02*
X111150000Y-242590000D01*
X111150000Y-242590000D02*
X111150000Y-245090000D01*
X111150000Y-245090000D02*
X117450000Y-245090000D01*
X119380000Y-243840000D02*
X117450000Y-243840000D01*
X109220000Y-243840000D02*
X111150000Y-243840000D01*
%TO.C,R21*%
X132080000Y-243840000D02*
X130150000Y-243840000D01*
X121920000Y-243840000D02*
X123850000Y-243840000D01*
X130150000Y-242590000D02*
X123850000Y-242590000D01*
X130150000Y-245090000D02*
X130150000Y-242590000D01*
X123850000Y-245090000D02*
X130150000Y-245090000D01*
X123850000Y-242590000D02*
X123850000Y-245090000D01*
%TO.C,R22*%
X82550000Y-118110000D02*
X80620000Y-118110000D01*
X72390000Y-118110000D02*
X74320000Y-118110000D01*
X80620000Y-116860000D02*
X74320000Y-116860000D01*
X80620000Y-119360000D02*
X80620000Y-116860000D01*
X74320000Y-119360000D02*
X80620000Y-119360000D01*
X74320000Y-116860000D02*
X74320000Y-119360000D01*
%TO.C,R23*%
X87650000Y-113640000D02*
X90150000Y-113640000D01*
X90150000Y-113640000D02*
X90150000Y-107340000D01*
X90150000Y-107340000D02*
X87650000Y-107340000D01*
X87650000Y-107340000D02*
X87650000Y-113640000D01*
X88900000Y-115570000D02*
X88900000Y-113640000D01*
X88900000Y-105410000D02*
X88900000Y-107340000D01*
%TO.C,R24*%
X85090000Y-100330000D02*
X85090000Y-102260000D01*
X85090000Y-110490000D02*
X85090000Y-108560000D01*
X83840000Y-102260000D02*
X83840000Y-108560000D01*
X86340000Y-102260000D02*
X83840000Y-102260000D01*
X86340000Y-108560000D02*
X86340000Y-102260000D01*
X83840000Y-108560000D02*
X86340000Y-108560000D01*
%TO.C,R25*%
X81280000Y-93980000D02*
X81280000Y-95910000D01*
X81280000Y-104140000D02*
X81280000Y-102210000D01*
X80030000Y-95910000D02*
X80030000Y-102210000D01*
X82530000Y-95910000D02*
X80030000Y-95910000D01*
X82530000Y-102210000D02*
X82530000Y-95910000D01*
X80030000Y-102210000D02*
X82530000Y-102210000D01*
%TO.C,R27*%
X81280000Y-81280000D02*
X81280000Y-83210000D01*
X81280000Y-91440000D02*
X81280000Y-89510000D01*
X80030000Y-83210000D02*
X80030000Y-89510000D01*
X82530000Y-83210000D02*
X80030000Y-83210000D01*
X82530000Y-89510000D02*
X82530000Y-83210000D01*
X80030000Y-89510000D02*
X82530000Y-89510000D01*
%TO.C,R28*%
X51410000Y-113010000D02*
X51410000Y-110510000D01*
X51410000Y-110510000D02*
X45110000Y-110510000D01*
X45110000Y-110510000D02*
X45110000Y-113010000D01*
X45110000Y-113010000D02*
X51410000Y-113010000D01*
X53340000Y-111760000D02*
X51410000Y-111760000D01*
X43180000Y-111760000D02*
X45110000Y-111760000D01*
%TO.C,R29*%
X43180000Y-104140000D02*
X45110000Y-104140000D01*
X53340000Y-104140000D02*
X51410000Y-104140000D01*
X45110000Y-105390000D02*
X51410000Y-105390000D01*
X45110000Y-102890000D02*
X45110000Y-105390000D01*
X51410000Y-102890000D02*
X45110000Y-102890000D01*
X51410000Y-105390000D02*
X51410000Y-102890000D01*
%TO.C,R30*%
X167640000Y-152400000D02*
X167640000Y-150470000D01*
X167640000Y-142240000D02*
X167640000Y-144170000D01*
X168890000Y-150470000D02*
X168890000Y-144170000D01*
X166390000Y-150470000D02*
X168890000Y-150470000D01*
X166390000Y-144170000D02*
X166390000Y-150470000D01*
X168890000Y-144170000D02*
X166390000Y-144170000D01*
%TO.C,R31*%
X128880000Y-149840000D02*
X128880000Y-147340000D01*
X128880000Y-147340000D02*
X122580000Y-147340000D01*
X122580000Y-147340000D02*
X122580000Y-149840000D01*
X122580000Y-149840000D02*
X128880000Y-149840000D01*
X130810000Y-148590000D02*
X128880000Y-148590000D01*
X120650000Y-148590000D02*
X122580000Y-148590000D01*
%TO.C,R32*%
X93960000Y-142900000D02*
X91460000Y-142900000D01*
X91460000Y-142900000D02*
X91460000Y-149200000D01*
X91460000Y-149200000D02*
X93960000Y-149200000D01*
X93960000Y-149200000D02*
X93960000Y-142900000D01*
X92710000Y-140970000D02*
X92710000Y-142900000D01*
X92710000Y-151130000D02*
X92710000Y-149200000D01*
%TO.C,R33*%
X57130000Y-142900000D02*
X54630000Y-142900000D01*
X54630000Y-142900000D02*
X54630000Y-149200000D01*
X54630000Y-149200000D02*
X57130000Y-149200000D01*
X57130000Y-149200000D02*
X57130000Y-142900000D01*
X55880000Y-140970000D02*
X55880000Y-142900000D01*
X55880000Y-151130000D02*
X55880000Y-149200000D01*
%TO.C,R34*%
X64770000Y-180340000D02*
X66700000Y-180340000D01*
X74930000Y-180340000D02*
X73000000Y-180340000D01*
X66700000Y-181590000D02*
X73000000Y-181590000D01*
X66700000Y-179090000D02*
X66700000Y-181590000D01*
X73000000Y-179090000D02*
X66700000Y-179090000D01*
X73000000Y-181590000D02*
X73000000Y-179090000D01*
%TO.C,R35*%
X73000000Y-177780000D02*
X73000000Y-175280000D01*
X73000000Y-175280000D02*
X66700000Y-175280000D01*
X66700000Y-175280000D02*
X66700000Y-177780000D01*
X66700000Y-177780000D02*
X73000000Y-177780000D01*
X74930000Y-176530000D02*
X73000000Y-176530000D01*
X64770000Y-176530000D02*
X66700000Y-176530000D01*
%TO.C,R36*%
X73000000Y-173970000D02*
X73000000Y-171470000D01*
X73000000Y-171470000D02*
X66700000Y-171470000D01*
X66700000Y-171470000D02*
X66700000Y-173970000D01*
X66700000Y-173970000D02*
X73000000Y-173970000D01*
X74930000Y-172720000D02*
X73000000Y-172720000D01*
X64770000Y-172720000D02*
X66700000Y-172720000D01*
%TO.C,R37*%
X64770000Y-168910000D02*
X66700000Y-168910000D01*
X74930000Y-168910000D02*
X73000000Y-168910000D01*
X66700000Y-170160000D02*
X73000000Y-170160000D01*
X66700000Y-167660000D02*
X66700000Y-170160000D01*
X73000000Y-167660000D02*
X66700000Y-167660000D01*
X73000000Y-170160000D02*
X73000000Y-167660000D01*
%TO.C,R38*%
X64770000Y-165100000D02*
X66700000Y-165100000D01*
X74930000Y-165100000D02*
X73000000Y-165100000D01*
X66700000Y-166350000D02*
X73000000Y-166350000D01*
X66700000Y-163850000D02*
X66700000Y-166350000D01*
X73000000Y-163850000D02*
X66700000Y-163850000D01*
X73000000Y-166350000D02*
X73000000Y-163850000D01*
%TO.C,R39*%
X92710000Y-172720000D02*
X94640000Y-172720000D01*
X102870000Y-172720000D02*
X100940000Y-172720000D01*
X94640000Y-173970000D02*
X100940000Y-173970000D01*
X94640000Y-171470000D02*
X94640000Y-173970000D01*
X100940000Y-171470000D02*
X94640000Y-171470000D01*
X100940000Y-173970000D02*
X100940000Y-171470000D01*
%TO.C,R40*%
X100940000Y-170160000D02*
X100940000Y-167660000D01*
X100940000Y-167660000D02*
X94640000Y-167660000D01*
X94640000Y-167660000D02*
X94640000Y-170160000D01*
X94640000Y-170160000D02*
X100940000Y-170160000D01*
X102870000Y-168910000D02*
X100940000Y-168910000D01*
X92710000Y-168910000D02*
X94640000Y-168910000D01*
%TO.C,R41*%
X92710000Y-158750000D02*
X94640000Y-158750000D01*
X102870000Y-158750000D02*
X100940000Y-158750000D01*
X94640000Y-160000000D02*
X100940000Y-160000000D01*
X94640000Y-157500000D02*
X94640000Y-160000000D01*
X100940000Y-157500000D02*
X94640000Y-157500000D01*
X100940000Y-160000000D02*
X100940000Y-157500000D01*
%TO.C,R42*%
X100940000Y-181590000D02*
X100940000Y-179090000D01*
X100940000Y-179090000D02*
X94640000Y-179090000D01*
X94640000Y-179090000D02*
X94640000Y-181590000D01*
X94640000Y-181590000D02*
X100940000Y-181590000D01*
X102870000Y-180340000D02*
X100940000Y-180340000D01*
X92710000Y-180340000D02*
X94640000Y-180340000D01*
%TO.C,R43*%
X92710000Y-176530000D02*
X94640000Y-176530000D01*
X102870000Y-176530000D02*
X100940000Y-176530000D01*
X94640000Y-177780000D02*
X100940000Y-177780000D01*
X94640000Y-175280000D02*
X94640000Y-177780000D01*
X100940000Y-175280000D02*
X94640000Y-175280000D01*
X100940000Y-177780000D02*
X100940000Y-175280000D01*
%TO.C,R44*%
X116230000Y-99080000D02*
X116230000Y-101580000D01*
X116230000Y-101580000D02*
X122530000Y-101580000D01*
X122530000Y-101580000D02*
X122530000Y-99080000D01*
X122530000Y-99080000D02*
X116230000Y-99080000D01*
X114300000Y-100330000D02*
X116230000Y-100330000D01*
X124460000Y-100330000D02*
X122530000Y-100330000D01*
%TO.C,R45*%
X125730000Y-85090000D02*
X125730000Y-87020000D01*
X125730000Y-95250000D02*
X125730000Y-93320000D01*
X124480000Y-87020000D02*
X124480000Y-93320000D01*
X126980000Y-87020000D02*
X124480000Y-87020000D01*
X126980000Y-93320000D02*
X126980000Y-87020000D01*
X124480000Y-93320000D02*
X126980000Y-93320000D01*
%TO.C,R46*%
X120670000Y-90780000D02*
X123170000Y-90780000D01*
X123170000Y-90780000D02*
X123170000Y-84480000D01*
X123170000Y-84480000D02*
X120670000Y-84480000D01*
X120670000Y-84480000D02*
X120670000Y-90780000D01*
X121920000Y-92710000D02*
X121920000Y-90780000D01*
X121920000Y-82550000D02*
X121920000Y-84480000D01*
%TO.C,R47*%
X118110000Y-77470000D02*
X118110000Y-79400000D01*
X118110000Y-87630000D02*
X118110000Y-85700000D01*
X116860000Y-79400000D02*
X116860000Y-85700000D01*
X119360000Y-79400000D02*
X116860000Y-79400000D01*
X119360000Y-85700000D02*
X119360000Y-79400000D01*
X116860000Y-85700000D02*
X119360000Y-85700000D01*
%TO.C,R48*%
X86360000Y-77470000D02*
X86360000Y-79400000D01*
X86360000Y-87630000D02*
X86360000Y-85700000D01*
X85110000Y-79400000D02*
X85110000Y-85700000D01*
X87610000Y-79400000D02*
X85110000Y-79400000D01*
X87610000Y-85700000D02*
X87610000Y-79400000D01*
X85110000Y-85700000D02*
X87610000Y-85700000D01*
%TO.C,R49*%
X118770000Y-72410000D02*
X118770000Y-74910000D01*
X118770000Y-74910000D02*
X125070000Y-74910000D01*
X125070000Y-74910000D02*
X125070000Y-72410000D01*
X125070000Y-72410000D02*
X118770000Y-72410000D01*
X116840000Y-73660000D02*
X118770000Y-73660000D01*
X127000000Y-73660000D02*
X125070000Y-73660000D01*
%TO.C,R50*%
X90150000Y-94640000D02*
X87650000Y-94640000D01*
X87650000Y-94640000D02*
X87650000Y-100940000D01*
X87650000Y-100940000D02*
X90150000Y-100940000D01*
X90150000Y-100940000D02*
X90150000Y-94640000D01*
X88900000Y-92710000D02*
X88900000Y-94640000D01*
X88900000Y-102870000D02*
X88900000Y-100940000D01*
%TO.C,R51*%
X90170000Y-77470000D02*
X90170000Y-79400000D01*
X90170000Y-87630000D02*
X90170000Y-85700000D01*
X88920000Y-79400000D02*
X88920000Y-85700000D01*
X91420000Y-79400000D02*
X88920000Y-79400000D01*
X91420000Y-85700000D02*
X91420000Y-79400000D01*
X88920000Y-85700000D02*
X91420000Y-85700000D01*
%TO.C,R52*%
X152400000Y-118110000D02*
X150470000Y-118110000D01*
X142240000Y-118110000D02*
X144170000Y-118110000D01*
X150470000Y-116860000D02*
X144170000Y-116860000D01*
X150470000Y-119360000D02*
X150470000Y-116860000D01*
X144170000Y-119360000D02*
X150470000Y-119360000D01*
X144170000Y-116860000D02*
X144170000Y-119360000D01*
%TO.C,R53*%
X157460000Y-114960000D02*
X154960000Y-114960000D01*
X154960000Y-114960000D02*
X154960000Y-121260000D01*
X154960000Y-121260000D02*
X157460000Y-121260000D01*
X157460000Y-121260000D02*
X157460000Y-114960000D01*
X156210000Y-113030000D02*
X156210000Y-114960000D01*
X156210000Y-123190000D02*
X156210000Y-121260000D01*
%TO.C,R54*%
X154960000Y-108560000D02*
X157460000Y-108560000D01*
X157460000Y-108560000D02*
X157460000Y-102260000D01*
X157460000Y-102260000D02*
X154960000Y-102260000D01*
X154960000Y-102260000D02*
X154960000Y-108560000D01*
X156210000Y-110490000D02*
X156210000Y-108560000D01*
X156210000Y-100330000D02*
X156210000Y-102260000D01*
%TO.C,R55*%
X152400000Y-93980000D02*
X152400000Y-95910000D01*
X152400000Y-104140000D02*
X152400000Y-102210000D01*
X151150000Y-95910000D02*
X151150000Y-102210000D01*
X153650000Y-95910000D02*
X151150000Y-95910000D01*
X153650000Y-102210000D02*
X153650000Y-95910000D01*
X151150000Y-102210000D02*
X153650000Y-102210000D01*
%TO.C,R56*%
X122530000Y-109200000D02*
X122530000Y-106700000D01*
X122530000Y-106700000D02*
X116230000Y-106700000D01*
X116230000Y-106700000D02*
X116230000Y-109200000D01*
X116230000Y-109200000D02*
X122530000Y-109200000D01*
X124460000Y-107950000D02*
X122530000Y-107950000D01*
X114300000Y-107950000D02*
X116230000Y-107950000D01*
%TO.C,R57*%
X152400000Y-81280000D02*
X152400000Y-83210000D01*
X152400000Y-91440000D02*
X152400000Y-89510000D01*
X151150000Y-83210000D02*
X151150000Y-89510000D01*
X153650000Y-83210000D02*
X151150000Y-83210000D01*
X153650000Y-89510000D02*
X153650000Y-83210000D01*
X151150000Y-89510000D02*
X153650000Y-89510000D01*
%TO.C,R58*%
X114300000Y-111760000D02*
X116230000Y-111760000D01*
X124460000Y-111760000D02*
X122530000Y-111760000D01*
X116230000Y-113010000D02*
X122530000Y-113010000D01*
X116230000Y-110510000D02*
X116230000Y-113010000D01*
X122530000Y-110510000D02*
X116230000Y-110510000D01*
X122530000Y-113010000D02*
X122530000Y-110510000D01*
%TO.C,R59*%
X122530000Y-105390000D02*
X122530000Y-102890000D01*
X122530000Y-102890000D02*
X116230000Y-102890000D01*
X116230000Y-102890000D02*
X116230000Y-105390000D01*
X116230000Y-105390000D02*
X122530000Y-105390000D01*
X124460000Y-104140000D02*
X122530000Y-104140000D01*
X114300000Y-104140000D02*
X116230000Y-104140000D01*
%TO.C,R60*%
X178460000Y-99080000D02*
X178460000Y-101580000D01*
X178460000Y-101580000D02*
X184760000Y-101580000D01*
X184760000Y-101580000D02*
X184760000Y-99080000D01*
X184760000Y-99080000D02*
X178460000Y-99080000D01*
X176530000Y-100330000D02*
X178460000Y-100330000D01*
X186690000Y-100330000D02*
X184760000Y-100330000D01*
%TO.C,R61*%
X190500000Y-105410000D02*
X190500000Y-103480000D01*
X190500000Y-95250000D02*
X190500000Y-97180000D01*
X191750000Y-103480000D02*
X191750000Y-97180000D01*
X189250000Y-103480000D02*
X191750000Y-103480000D01*
X189250000Y-97180000D02*
X189250000Y-103480000D01*
X191750000Y-97180000D02*
X189250000Y-97180000D01*
%TO.C,R62*%
X195560000Y-94640000D02*
X193060000Y-94640000D01*
X193060000Y-94640000D02*
X193060000Y-100940000D01*
X193060000Y-100940000D02*
X195560000Y-100940000D01*
X195560000Y-100940000D02*
X195560000Y-94640000D01*
X194310000Y-92710000D02*
X194310000Y-94640000D01*
X194310000Y-102870000D02*
X194310000Y-100940000D01*
%TO.C,R63*%
X190500000Y-76200000D02*
X190500000Y-78130000D01*
X190500000Y-86360000D02*
X190500000Y-84430000D01*
X189250000Y-78130000D02*
X189250000Y-84430000D01*
X191750000Y-78130000D02*
X189250000Y-78130000D01*
X191750000Y-84430000D02*
X191750000Y-78130000D01*
X189250000Y-84430000D02*
X191750000Y-84430000D01*
%TO.C,R64*%
X154960000Y-84430000D02*
X157460000Y-84430000D01*
X157460000Y-84430000D02*
X157460000Y-78130000D01*
X157460000Y-78130000D02*
X154960000Y-78130000D01*
X154960000Y-78130000D02*
X154960000Y-84430000D01*
X156210000Y-86360000D02*
X156210000Y-84430000D01*
X156210000Y-76200000D02*
X156210000Y-78130000D01*
%TO.C,R65*%
X186690000Y-72390000D02*
X186690000Y-74320000D01*
X186690000Y-82550000D02*
X186690000Y-80620000D01*
X185440000Y-74320000D02*
X185440000Y-80620000D01*
X187940000Y-74320000D02*
X185440000Y-74320000D01*
X187940000Y-80620000D02*
X187940000Y-74320000D01*
X185440000Y-80620000D02*
X187940000Y-80620000D01*
%TO.C,R66*%
X161270000Y-93370000D02*
X158770000Y-93370000D01*
X158770000Y-93370000D02*
X158770000Y-99670000D01*
X158770000Y-99670000D02*
X161270000Y-99670000D01*
X161270000Y-99670000D02*
X161270000Y-93370000D01*
X160020000Y-91440000D02*
X160020000Y-93370000D01*
X160020000Y-101600000D02*
X160020000Y-99670000D01*
%TO.C,R67*%
X160020000Y-76200000D02*
X160020000Y-78130000D01*
X160020000Y-86360000D02*
X160020000Y-84430000D01*
X158770000Y-78130000D02*
X158770000Y-84430000D01*
X161270000Y-78130000D02*
X158770000Y-78130000D01*
X161270000Y-84430000D02*
X161270000Y-78130000D01*
X158770000Y-84430000D02*
X161270000Y-84430000D01*
%TO.C,C2*%
X144632500Y-182878861D02*
X145632500Y-182878861D01*
X145132500Y-183378861D02*
X145132500Y-182378861D01*
X152320000Y-179090000D02*
G75*
G03*
X152320000Y-179090000I-5000000J0D01*
G01*
%TO.C,C3*%
X157460000Y-219710000D02*
G75*
G03*
X157460000Y-219710000I-2500000J0D01*
G01*
X157093605Y-220797500D02*
X156593605Y-220797500D01*
X156843605Y-221047500D02*
X156843605Y-220547500D01*
%TO.C,C4*%
X39350000Y-91440000D02*
G75*
G03*
X39350000Y-91440000I-2500000J0D01*
G01*
X38983605Y-92527500D02*
X38483605Y-92527500D01*
X38733605Y-92777500D02*
X38733605Y-92277500D01*
%TO.C,C5*%
X37463605Y-175327500D02*
X37463605Y-174827500D01*
X37713605Y-175077500D02*
X37213605Y-175077500D01*
X38080000Y-173990000D02*
G75*
G03*
X38080000Y-173990000I-2500000J0D01*
G01*
%TO.C,C6*%
X74293605Y-109287500D02*
X74293605Y-108787500D01*
X74543605Y-109037500D02*
X74043605Y-109037500D01*
X74910000Y-107950000D02*
G75*
G03*
X74910000Y-107950000I-2500000J0D01*
G01*
%TO.C,C7*%
X32940000Y-167620000D02*
G75*
G03*
X32940000Y-167620000I-5000000J0D01*
G01*
X30127500Y-163331139D02*
X30127500Y-164331139D01*
X30627500Y-163831139D02*
X29627500Y-163831139D01*
%TO.C,C8*%
X110470000Y-91440000D02*
G75*
G03*
X110470000Y-91440000I-2500000J0D01*
G01*
X110103605Y-92527500D02*
X109603605Y-92527500D01*
X109853605Y-92777500D02*
X109853605Y-92277500D01*
%TO.C,C9*%
X145413605Y-109287500D02*
X145413605Y-108787500D01*
X145663605Y-109037500D02*
X145163605Y-109037500D01*
X146030000Y-107950000D02*
G75*
G03*
X146030000Y-107950000I-2500000J0D01*
G01*
%TO.C,C10*%
X180320000Y-90170000D02*
G75*
G03*
X180320000Y-90170000I-2500000J0D01*
G01*
X179953605Y-91257500D02*
X179453605Y-91257500D01*
X179703605Y-91507500D02*
X179703605Y-91007500D01*
%TO.C,3.3V_Test1*%
X145970000Y-219710000D02*
X144970000Y-219085000D01*
X144970000Y-220335000D02*
X145970000Y-219710000D01*
X144970000Y-214760000D02*
X144970000Y-222160000D01*
X150720000Y-214760000D02*
X144970000Y-214760000D01*
X150720000Y-222160000D02*
X150720000Y-214760000D01*
X144970000Y-222160000D02*
X150720000Y-222160000D01*
%TO.C,3.3V_Test2*%
X25590000Y-181520000D02*
X31340000Y-181520000D01*
X31340000Y-181520000D02*
X31340000Y-174120000D01*
X31340000Y-174120000D02*
X25590000Y-174120000D01*
X25590000Y-174120000D02*
X25590000Y-181520000D01*
X25590000Y-179695000D02*
X26590000Y-179070000D01*
X26590000Y-179070000D02*
X25590000Y-178445000D01*
%TO.C,3.3V_In*%
X162370000Y-185510000D02*
X156620000Y-185510000D01*
X156620000Y-185510000D02*
X156620000Y-192910000D01*
X156620000Y-192910000D02*
X162370000Y-192910000D01*
X162370000Y-192910000D02*
X162370000Y-185510000D01*
X162370000Y-187335000D02*
X161370000Y-187960000D01*
X161370000Y-187960000D02*
X162370000Y-188585000D01*
%TO.C,C11*%
X71060000Y-262890000D02*
G75*
G03*
X71060000Y-262890000I-2500000J0D01*
G01*
X66426395Y-261802500D02*
X66926395Y-261802500D01*
X66676395Y-261552500D02*
X66676395Y-262052500D01*
%TO.C,C12*%
X128906395Y-255202500D02*
X128906395Y-255702500D01*
X128656395Y-255452500D02*
X129156395Y-255452500D01*
X133290000Y-256540000D02*
G75*
G03*
X133290000Y-256540000I-2500000J0D01*
G01*
%TD*%
M02*
