M48
; DRILL file {KiCad (6.0.0)} date Tue Sep 27 13:06:41 2022
; FORMAT={-:-/ absolute / metric / decimal}
; #@! TF.CreationDate,2022-09-27T13:06:41+08:00
; #@! TF.GenerationSoftware,Kicad,Pcbnew,(6.0.0)
; #@! TF.FileFunction,Plated,1,2,PTH
FMAT,2
METRIC
; #@! TA.AperFunction,Plated,PTH,ViaDrill
T1C0.500
; #@! TA.AperFunction,Plated,PTH,ComponentDrill
T2C1.000
%
G90
G05
T1
X131.965Y-65.035
X135.0Y-64.5
X142.85Y-62.35
X143.0Y-71.0
X149.2Y-61.6
X149.4Y-66.5
X152.4Y-72.8
X164.0Y-71.6
X164.1Y-61.6
X164.1Y-65.584
T2
X129.46Y-67.5
X132.0Y-67.5
X134.54Y-67.5
X137.08Y-67.5
X139.62Y-67.5
X167.96Y-61.4
X167.96Y-63.94
X167.96Y-66.48
X167.96Y-69.02
X167.96Y-71.56
X170.5Y-61.4
X170.5Y-63.94
X170.5Y-66.48
X170.5Y-69.02
X170.5Y-71.56
T0
M30
