%TF.GenerationSoftware,KiCad,Pcbnew,(6.0.0)*%
%TF.CreationDate,2022-09-27T13:06:44+08:00*%
%TF.ProjectId,rpiconnector,72706963-6f6e-46e6-9563-746f722e6b69,rev?*%
%TF.SameCoordinates,Original*%
%TF.FileFunction,Soldermask,Top*%
%TF.FilePolarity,Negative*%
%FSLAX46Y46*%
G04 Gerber Fmt 4.6, Leading zero omitted, Abs format (unit mm)*
G04 Created by KiCad (PCBNEW (6.0.0)) date 2022-09-27 13:06:44*
%MOMM*%
%LPD*%
G01*
G04 APERTURE LIST*
G04 Aperture macros list*
%AMRoundRect*
0 Rectangle with rounded corners*
0 $1 Rounding radius*
0 $2 $3 $4 $5 $6 $7 $8 $9 X,Y pos of 4 corners*
0 Add a 4 corners polygon primitive as box body*
4,1,4,$2,$3,$4,$5,$6,$7,$8,$9,$2,$3,0*
0 Add four circle primitives for the rounded corners*
1,1,$1+$1,$2,$3*
1,1,$1+$1,$4,$5*
1,1,$1+$1,$6,$7*
1,1,$1+$1,$8,$9*
0 Add four rect primitives between the rounded corners*
20,1,$1+$1,$2,$3,$4,$5,0*
20,1,$1+$1,$4,$5,$6,$7,0*
20,1,$1+$1,$6,$7,$8,$9,0*
20,1,$1+$1,$8,$9,$2,$3,0*%
G04 Aperture macros list end*
%ADD10RoundRect,0.150000X0.587500X0.150000X-0.587500X0.150000X-0.587500X-0.150000X0.587500X-0.150000X0*%
%ADD11C,3.200000*%
%ADD12O,0.900000X1.800000*%
%ADD13RoundRect,0.225000X0.225000X0.575000X-0.225000X0.575000X-0.225000X-0.575000X0.225000X-0.575000X0*%
%ADD14RoundRect,0.200000X0.200000X0.600000X-0.200000X0.600000X-0.200000X-0.600000X0.200000X-0.600000X0*%
%ADD15RoundRect,0.175000X0.175000X0.625000X-0.175000X0.625000X-0.175000X-0.625000X0.175000X-0.625000X0*%
%ADD16RoundRect,0.250000X-0.625000X0.400000X-0.625000X-0.400000X0.625000X-0.400000X0.625000X0.400000X0*%
%ADD17RoundRect,0.250000X0.625000X-0.400000X0.625000X0.400000X-0.625000X0.400000X-0.625000X-0.400000X0*%
%ADD18R,1.700000X1.700000*%
%ADD19O,1.700000X1.700000*%
G04 APERTURE END LIST*
D10*
%TO.C,Q1*%
X153937500Y-65450000D03*
X153937500Y-63550000D03*
X152062500Y-64500000D03*
%TD*%
D11*
%TO.C,REF\u002A\u002A*%
X120300000Y-56100000D03*
%TD*%
D12*
%TO.C,U1*%
X132680000Y-54420000D03*
X141320000Y-54420000D03*
X141320000Y-58120000D03*
X132680000Y-58120000D03*
D13*
X139750000Y-58122136D03*
D14*
X138520000Y-58120000D03*
D15*
X137500000Y-58120000D03*
X136500000Y-58120000D03*
D14*
X135480000Y-58120000D03*
D13*
X134250000Y-58120000D03*
%TD*%
D16*
%TO.C,R4*%
X146000000Y-67950000D03*
X146000000Y-71050000D03*
%TD*%
D10*
%TO.C,Q2*%
X153937500Y-70450000D03*
X153937500Y-68550000D03*
X152062500Y-69500000D03*
%TD*%
D17*
%TO.C,R3*%
X146000000Y-65550000D03*
X146000000Y-62450000D03*
%TD*%
%TO.C,R2*%
X160000000Y-71650000D03*
X160000000Y-68550000D03*
%TD*%
D18*
%TO.C,J1*%
X129460000Y-67500000D03*
D19*
X132000000Y-67500000D03*
X134540000Y-67500000D03*
X137080000Y-67500000D03*
X139620000Y-67500000D03*
%TD*%
D11*
%TO.C,REF\u002A\u002A*%
X169300000Y-56100000D03*
%TD*%
D17*
%TO.C,R1*%
X160000000Y-65450000D03*
X160000000Y-62350000D03*
%TD*%
D18*
%TO.C,J2*%
X170500000Y-61400000D03*
D19*
X167960000Y-61400000D03*
X170500000Y-63940000D03*
X167960000Y-63940000D03*
X170500000Y-66480000D03*
X167960000Y-66480000D03*
X170500000Y-69020000D03*
X167960000Y-69020000D03*
X170500000Y-71560000D03*
X167960000Y-71560000D03*
%TD*%
M02*
